%TF.GenerationSoftware,KiCad,Pcbnew,9.0.0*%
%TF.CreationDate,2025-11-26T22:34:46-05:00*%
%TF.ProjectId,pytheasFC_0.1.0,70797468-6561-4734-9643-5f302e312e30,0.1.0*%
%TF.SameCoordinates,PXbcd3d80PY660b0c0*%
%TF.FileFunction,Soldermask,Bot*%
%TF.FilePolarity,Negative*%
%FSLAX46Y46*%
G04 Gerber Fmt 4.6, Leading zero omitted, Abs format (unit mm)*
G04 Created by KiCad (PCBNEW 9.0.0) date 2025-11-26 22:34:46*
%MOMM*%
%LPD*%
G01*
G04 APERTURE LIST*
%ADD10R,1.000000X1.000000*%
%ADD11O,1.000000X1.000000*%
%ADD12C,0.700000*%
%ADD13C,4.400000*%
%ADD14R,1.700000X1.700000*%
%ADD15O,1.700000X1.700000*%
%ADD16C,0.650000*%
%ADD17O,2.100000X1.000000*%
%ADD18O,1.800000X1.000000*%
%ADD19C,0.990600*%
G04 APERTURE END LIST*
D10*
%TO.C,J4*%
X22860000Y22730000D03*
D11*
X22860000Y24000000D03*
X24130000Y22730000D03*
X24130000Y24000000D03*
X25400000Y22730000D03*
X25400000Y24000000D03*
%TD*%
D12*
%TO.C,H1*%
X21350000Y4000000D03*
X21833274Y5166726D03*
X21833274Y2833274D03*
X23000000Y5650000D03*
D13*
X23000000Y4000000D03*
D12*
X23000000Y2350000D03*
X24166726Y5166726D03*
X24166726Y2833274D03*
X24650000Y4000000D03*
%TD*%
%TO.C,H2*%
X21350000Y67000000D03*
X21833274Y68166726D03*
X21833274Y65833274D03*
X23000000Y68650000D03*
D13*
X23000000Y67000000D03*
D12*
X23000000Y65350000D03*
X24166726Y68166726D03*
X24166726Y65833274D03*
X24650000Y67000000D03*
%TD*%
D14*
%TO.C,J14*%
X23500000Y56275000D03*
D15*
X23500000Y53735000D03*
%TD*%
D16*
%TO.C,USB*%
X19185000Y27260000D03*
X19185000Y33040000D03*
D17*
X18685000Y25830000D03*
D18*
X22865000Y25830000D03*
D17*
X18685000Y34470000D03*
D18*
X22865000Y34470000D03*
%TD*%
D14*
%TO.C,J10*%
X2000000Y21860000D03*
D15*
X2000000Y24400000D03*
%TD*%
D14*
%TO.C,J15*%
X3375000Y53725000D03*
D15*
X3375000Y56265000D03*
%TD*%
D14*
%TO.C,J13*%
X12725000Y67125000D03*
D15*
X15265000Y67125000D03*
%TD*%
D14*
%TO.C,J9*%
X2000000Y34525000D03*
D15*
X2000000Y37065000D03*
%TD*%
D14*
%TO.C,J8*%
X2000000Y28200000D03*
D15*
X2000000Y30740000D03*
%TD*%
D19*
%TO.C,SWD*%
X11470000Y24565000D03*
X6390000Y23549000D03*
X6390000Y25581000D03*
%TD*%
D10*
%TO.C,J7*%
X18860000Y8400000D03*
D11*
X20130000Y8400000D03*
X21400000Y8400000D03*
X22670000Y8400000D03*
X23940000Y8400000D03*
%TD*%
D12*
%TO.C,H3*%
X1850000Y67000000D03*
X2333274Y68166726D03*
X2333274Y65833274D03*
X3500000Y68650000D03*
D13*
X3500000Y67000000D03*
D12*
X3500000Y65350000D03*
X4666726Y68166726D03*
X4666726Y65833274D03*
X5150000Y67000000D03*
%TD*%
D14*
%TO.C,J6*%
X5380000Y8400000D03*
D15*
X7920000Y8400000D03*
X10460000Y8400000D03*
X13000000Y8400000D03*
X15540000Y8400000D03*
%TD*%
D14*
%TO.C,J5*%
X2000000Y18540000D03*
D15*
X2000000Y16000000D03*
X2000000Y13460000D03*
X2000000Y10920000D03*
X2000000Y8380000D03*
%TD*%
M02*
