%TF.GenerationSoftware,KiCad,Pcbnew,9.0.0*%
%TF.CreationDate,2025-11-26T22:34:46-05:00*%
%TF.ProjectId,pytheasFC_0.1.0,70797468-6561-4734-9643-5f302e312e30,0.1.0*%
%TF.SameCoordinates,PXbcd3d80PY660b0c0*%
%TF.FileFunction,Soldermask,Top*%
%TF.FilePolarity,Negative*%
%FSLAX46Y46*%
G04 Gerber Fmt 4.6, Leading zero omitted, Abs format (unit mm)*
G04 Created by KiCad (PCBNEW 9.0.0) date 2025-11-26 22:34:46*
%MOMM*%
%LPD*%
G01*
G04 APERTURE LIST*
G04 Aperture macros list*
%AMRoundRect*
0 Rectangle with rounded corners*
0 $1 Rounding radius*
0 $2 $3 $4 $5 $6 $7 $8 $9 X,Y pos of 4 corners*
0 Add a 4 corners polygon primitive as box body*
4,1,4,$2,$3,$4,$5,$6,$7,$8,$9,$2,$3,0*
0 Add four circle primitives for the rounded corners*
1,1,$1+$1,$2,$3*
1,1,$1+$1,$4,$5*
1,1,$1+$1,$6,$7*
1,1,$1+$1,$8,$9*
0 Add four rect primitives between the rounded corners*
20,1,$1+$1,$2,$3,$4,$5,0*
20,1,$1+$1,$4,$5,$6,$7,0*
20,1,$1+$1,$6,$7,$8,$9,0*
20,1,$1+$1,$8,$9,$2,$3,0*%
G04 Aperture macros list end*
%ADD10R,0.600000X0.300000*%
%ADD11R,0.300000X0.600000*%
%ADD12R,1.000000X1.000000*%
%ADD13O,1.000000X1.000000*%
%ADD14RoundRect,0.140000X0.140000X0.170000X-0.140000X0.170000X-0.140000X-0.170000X0.140000X-0.170000X0*%
%ADD15RoundRect,0.250000X-0.325000X-0.650000X0.325000X-0.650000X0.325000X0.650000X-0.325000X0.650000X0*%
%ADD16RoundRect,0.140000X-0.140000X-0.170000X0.140000X-0.170000X0.140000X0.170000X-0.140000X0.170000X0*%
%ADD17R,0.950000X1.750000*%
%ADD18R,3.200000X1.750000*%
%ADD19RoundRect,0.140000X-0.170000X0.140000X-0.170000X-0.140000X0.170000X-0.140000X0.170000X0.140000X0*%
%ADD20C,2.000000*%
%ADD21C,0.700000*%
%ADD22C,4.400000*%
%ADD23RoundRect,0.140000X0.170000X-0.140000X0.170000X0.140000X-0.170000X0.140000X-0.170000X-0.140000X0*%
%ADD24R,0.400000X0.300000*%
%ADD25R,0.300000X0.400000*%
%ADD26R,2.200000X2.830000*%
%ADD27R,0.900000X2.830000*%
%ADD28R,3.700000X1.600000*%
%ADD29R,1.400000X2.100000*%
%ADD30R,0.250000X0.275000*%
%ADD31R,0.275000X0.250000*%
%ADD32RoundRect,0.250000X0.250000X0.475000X-0.250000X0.475000X-0.250000X-0.475000X0.250000X-0.475000X0*%
%ADD33R,0.850000X0.300000*%
%ADD34R,0.300000X0.850000*%
%ADD35R,5.250000X5.250000*%
%ADD36R,1.400000X0.900000*%
%ADD37R,1.700000X1.700000*%
%ADD38O,1.700000X1.700000*%
%ADD39C,0.650000*%
%ADD40RoundRect,0.150000X0.425000X-0.150000X0.425000X0.150000X-0.425000X0.150000X-0.425000X-0.150000X0*%
%ADD41RoundRect,0.075000X0.500000X-0.075000X0.500000X0.075000X-0.500000X0.075000X-0.500000X-0.075000X0*%
%ADD42O,2.100000X1.000000*%
%ADD43O,1.800000X1.000000*%
%ADD44RoundRect,0.250000X-0.650000X0.325000X-0.650000X-0.325000X0.650000X-0.325000X0.650000X0.325000X0*%
%ADD45RoundRect,0.250000X-0.250000X-0.475000X0.250000X-0.475000X0.250000X0.475000X-0.250000X0.475000X0*%
%ADD46R,0.900000X1.400000*%
%ADD47R,2.100000X4.250000*%
%ADD48C,0.990600*%
%ADD49C,0.787400*%
%ADD50RoundRect,0.135000X0.185000X-0.135000X0.185000X0.135000X-0.185000X0.135000X-0.185000X-0.135000X0*%
%ADD51RoundRect,0.250000X0.475000X-0.250000X0.475000X0.250000X-0.475000X0.250000X-0.475000X-0.250000X0*%
%ADD52R,3.350000X4.750000*%
%ADD53RoundRect,0.150000X-0.150000X0.512500X-0.150000X-0.512500X0.150000X-0.512500X0.150000X0.512500X0*%
%ADD54R,1.900000X1.100000*%
%ADD55R,0.500000X1.125000*%
G04 APERTURE END LIST*
D10*
%TO.C,AC2*%
X4800000Y13800000D03*
X4800000Y13300000D03*
X4800000Y12800000D03*
X4800000Y12300000D03*
D11*
X5450000Y12150000D03*
X5950000Y12150000D03*
X6450000Y12150000D03*
D10*
X7100000Y12300000D03*
X7100000Y12800000D03*
X7100000Y13300000D03*
X7100000Y13800000D03*
D11*
X6450000Y13950000D03*
X5950000Y13950000D03*
X5450000Y13950000D03*
%TD*%
D12*
%TO.C,J4*%
X22860000Y22730000D03*
D13*
X22860000Y24000000D03*
X24130000Y22730000D03*
X24130000Y24000000D03*
X25400000Y22730000D03*
X25400000Y24000000D03*
%TD*%
D14*
%TO.C,R11*%
X4755000Y46550000D03*
X3795000Y46550000D03*
%TD*%
D15*
%TO.C,C17*%
X22253324Y62674359D03*
X25203324Y62674359D03*
%TD*%
D16*
%TO.C,C78*%
X6431249Y10906798D03*
X7391249Y10906798D03*
%TD*%
D17*
%TO.C,IC4*%
X9700000Y39350000D03*
X7400000Y39350000D03*
X5100000Y39350000D03*
D18*
X7400000Y33050000D03*
%TD*%
D14*
%TO.C,C77*%
X5391249Y10906798D03*
X4431249Y10906798D03*
%TD*%
D19*
%TO.C,R6*%
X18000000Y16660000D03*
X18000000Y15700000D03*
%TD*%
D20*
%TO.C,FID2*%
X3500000Y60500000D03*
%TD*%
D21*
%TO.C,H1*%
X21350000Y4000000D03*
X21833274Y5166726D03*
X21833274Y2833274D03*
X23000000Y5650000D03*
D22*
X23000000Y4000000D03*
D21*
X23000000Y2350000D03*
X24166726Y5166726D03*
X24166726Y2833274D03*
X24650000Y4000000D03*
%TD*%
D20*
%TO.C,FID1*%
X19000000Y67000000D03*
%TD*%
D23*
%TO.C,R4*%
X19800000Y36120000D03*
X19800000Y37080000D03*
%TD*%
D24*
%TO.C,IC3*%
X11400000Y44500000D03*
X11400000Y45150000D03*
X11400000Y45800000D03*
X11400000Y46450000D03*
X11400000Y47100000D03*
X11400000Y47750000D03*
X11400000Y48400000D03*
X11400000Y49050000D03*
D25*
X10625000Y49675000D03*
X9975000Y49675000D03*
X9325000Y49675000D03*
X8675000Y49675000D03*
X8025000Y49675000D03*
X7375000Y49675000D03*
D24*
X6600000Y49050000D03*
X6600000Y48400000D03*
X6600000Y47750000D03*
X6600000Y47100000D03*
X6600000Y46450000D03*
X6600000Y45800000D03*
X6600000Y45150000D03*
X6600000Y44500000D03*
D25*
X7375000Y43875000D03*
X8025000Y43875000D03*
X8675000Y43875000D03*
X9325000Y43875000D03*
X9975000Y43875000D03*
X10625000Y43875000D03*
D26*
X9500000Y47790000D03*
D27*
X7600000Y47790000D03*
D28*
X9000000Y45225000D03*
%TD*%
D29*
%TO.C,RESET*%
X24250000Y20350000D03*
X19750000Y20350000D03*
X24250000Y11250000D03*
X19750000Y11250000D03*
%TD*%
D30*
%TO.C,IC1*%
X6188000Y29563000D03*
X5688000Y29563000D03*
D31*
X5176000Y29300000D03*
X5176000Y28800000D03*
X5176000Y28300000D03*
D30*
X5688000Y28037000D03*
X6188000Y28037000D03*
D31*
X6700000Y28300000D03*
X6700000Y28800000D03*
X6700000Y29300000D03*
%TD*%
D14*
%TO.C,C7*%
X21200000Y22600000D03*
X20240000Y22600000D03*
%TD*%
D21*
%TO.C,H2*%
X21350000Y67000000D03*
X21833274Y68166726D03*
X21833274Y65833274D03*
X23000000Y68650000D03*
D22*
X23000000Y67000000D03*
D21*
X23000000Y65350000D03*
X24166726Y68166726D03*
X24166726Y65833274D03*
X24650000Y67000000D03*
%TD*%
D32*
%TO.C,C2*%
X6000000Y15900000D03*
X4100000Y15900000D03*
%TD*%
D14*
%TO.C,R2*%
X18080000Y10800000D03*
X17120000Y10800000D03*
%TD*%
D33*
%TO.C,IC2*%
X9300000Y18600000D03*
X9300000Y18100000D03*
X9300000Y17600000D03*
X9300000Y17100000D03*
X9300000Y16600000D03*
X9300000Y16100000D03*
X9300000Y15600000D03*
X9300000Y15100000D03*
X9300000Y14600000D03*
X9300000Y14100000D03*
X9300000Y13600000D03*
X9300000Y13100000D03*
D34*
X10000000Y12400000D03*
X10500000Y12400000D03*
X11000000Y12400000D03*
X11500000Y12400000D03*
X12000000Y12400000D03*
X12500000Y12400000D03*
X13000000Y12400000D03*
X13500000Y12400000D03*
X14000000Y12400000D03*
X14500000Y12400000D03*
X15000000Y12400000D03*
X15500000Y12400000D03*
D33*
X16200000Y13100000D03*
X16200000Y13600000D03*
X16200000Y14100000D03*
X16200000Y14600000D03*
X16200000Y15100000D03*
X16200000Y15600000D03*
X16200000Y16100000D03*
X16200000Y16600000D03*
X16200000Y17100000D03*
X16200000Y17600000D03*
X16200000Y18100000D03*
X16200000Y18600000D03*
D34*
X15500000Y19300000D03*
X15000000Y19300000D03*
X14500000Y19300000D03*
X14000000Y19300000D03*
X13500000Y19300000D03*
X13000000Y19300000D03*
X12500000Y19300000D03*
X12000000Y19300000D03*
X11500000Y19300000D03*
X11000000Y19300000D03*
X10500000Y19300000D03*
X10000000Y19300000D03*
D35*
X12750000Y15850000D03*
%TD*%
D36*
%TO.C,MCU_LED*%
X1400000Y40050000D03*
X1400000Y41950000D03*
%TD*%
D37*
%TO.C,J14*%
X23500000Y56275000D03*
D38*
X23500000Y53735000D03*
%TD*%
D39*
%TO.C,USB*%
X19185000Y27260000D03*
X19185000Y33040000D03*
D40*
X18110000Y26950000D03*
X18110000Y27750000D03*
D41*
X18110000Y28900000D03*
X18110000Y29900000D03*
X18110000Y30400000D03*
X18110000Y31400000D03*
D40*
X18110000Y32550000D03*
X18110000Y33350000D03*
X18110000Y33350000D03*
X18110000Y32550000D03*
D41*
X18110000Y31900000D03*
X18110000Y30900000D03*
X18110000Y29400000D03*
X18110000Y28400000D03*
D40*
X18110000Y27750000D03*
X18110000Y26950000D03*
D42*
X18685000Y25830000D03*
D43*
X22865000Y25830000D03*
D42*
X18685000Y34470000D03*
D43*
X22865000Y34470000D03*
%TD*%
D44*
%TO.C,C20*%
X4100000Y50925000D03*
X4100000Y47975000D03*
%TD*%
D37*
%TO.C,J10*%
X2000000Y21860000D03*
D38*
X2000000Y24400000D03*
%TD*%
D45*
%TO.C,C15*%
X13450000Y43750000D03*
X15350000Y43750000D03*
%TD*%
D19*
%TO.C,C1*%
X7300000Y16480000D03*
X7300000Y15520000D03*
%TD*%
D14*
%TO.C,R8*%
X18650000Y37075000D03*
X17690000Y37075000D03*
%TD*%
D37*
%TO.C,J15*%
X3375000Y53725000D03*
D38*
X3375000Y56265000D03*
%TD*%
D14*
%TO.C,C12*%
X6980000Y31400000D03*
X6020000Y31400000D03*
%TD*%
D23*
%TO.C,C3*%
X12000000Y20770000D03*
X12000000Y21730000D03*
%TD*%
D44*
%TO.C,C23*%
X9500000Y68975000D03*
X9500000Y66025000D03*
%TD*%
D20*
%TO.C,VDDCORE*%
X16000000Y21500000D03*
%TD*%
D14*
%TO.C,C10*%
X18650000Y36075000D03*
X17690000Y36075000D03*
%TD*%
D45*
%TO.C,C22*%
X5250000Y41600000D03*
X7150000Y41600000D03*
%TD*%
D23*
%TO.C,R7*%
X18000000Y13820000D03*
X18000000Y14780000D03*
%TD*%
D46*
%TO.C,PWR_LED*%
X12950000Y37300000D03*
X14850000Y37300000D03*
%TD*%
D19*
%TO.C,C16*%
X4775000Y45600000D03*
X4775000Y44640000D03*
%TD*%
D37*
%TO.C,J13*%
X12725000Y67125000D03*
D38*
X15265000Y67125000D03*
%TD*%
D37*
%TO.C,J9*%
X2000000Y34525000D03*
D38*
X2000000Y37065000D03*
%TD*%
D47*
%TO.C,C24*%
X21400000Y48250000D03*
X21400000Y40950000D03*
%TD*%
D37*
%TO.C,J8*%
X2000000Y28200000D03*
D38*
X2000000Y30740000D03*
%TD*%
D48*
%TO.C,SWD*%
X11470000Y24565000D03*
X6390000Y23549000D03*
X6390000Y25581000D03*
D49*
X10200000Y25200000D03*
X10200000Y23930000D03*
X8930000Y25200000D03*
X8930000Y23930000D03*
X7660000Y25200000D03*
X7660000Y23930000D03*
%TD*%
D23*
%TO.C,C9*%
X4900000Y18520000D03*
X4900000Y19480000D03*
%TD*%
D12*
%TO.C,J7*%
X18860000Y8400000D03*
D13*
X20130000Y8400000D03*
X21400000Y8400000D03*
X22670000Y8400000D03*
X23940000Y8400000D03*
%TD*%
D50*
%TO.C,R37*%
X14850000Y33005000D03*
X14850000Y34025000D03*
%TD*%
D14*
%TO.C,R3*%
X10280000Y21700000D03*
X9320000Y21700000D03*
%TD*%
D19*
%TO.C,C11*%
X8500000Y31380000D03*
X8500000Y30420000D03*
%TD*%
D21*
%TO.C,H3*%
X1850000Y67000000D03*
X2333274Y68166726D03*
X2333274Y65833274D03*
X3500000Y68650000D03*
D22*
X3500000Y67000000D03*
D21*
X3500000Y65350000D03*
X4666726Y68166726D03*
X4666726Y65833274D03*
X5150000Y67000000D03*
%TD*%
D23*
%TO.C,C18*%
X10725000Y41190000D03*
X10725000Y42150000D03*
%TD*%
D51*
%TO.C,C4*%
X13500000Y21050000D03*
X13500000Y22950000D03*
%TD*%
D19*
%TO.C,R13*%
X13800000Y34000000D03*
X13800000Y33040000D03*
%TD*%
%TO.C,R12*%
X8725000Y42130000D03*
X8725000Y41170000D03*
%TD*%
D16*
%TO.C,R1*%
X20240000Y23600000D03*
X21200000Y23600000D03*
%TD*%
D52*
%TO.C,L1*%
X7400000Y58000000D03*
X19200000Y58000000D03*
%TD*%
D53*
%TO.C,U2*%
X15950000Y27800000D03*
X15000000Y27800000D03*
X14050000Y27800000D03*
X14050000Y25525000D03*
X15000000Y25525000D03*
X15950000Y25525000D03*
%TD*%
D23*
%TO.C,C8*%
X4900000Y20520000D03*
X4900000Y21480000D03*
%TD*%
D44*
%TO.C,C19*%
X1700000Y50925000D03*
X1700000Y47975000D03*
%TD*%
D23*
%TO.C,R5*%
X20800000Y36120000D03*
X20800000Y37080000D03*
%TD*%
D45*
%TO.C,C14*%
X13450000Y45750000D03*
X15350000Y45750000D03*
%TD*%
D54*
%TO.C,Y1*%
X6900000Y18900000D03*
X6900000Y21400000D03*
%TD*%
D23*
%TO.C,R10*%
X9725000Y41190000D03*
X9725000Y42150000D03*
%TD*%
D16*
%TO.C,C5*%
X11920000Y11250000D03*
X12880000Y11250000D03*
%TD*%
D55*
%TO.C,D1*%
X1600000Y46162000D03*
X1600000Y43838000D03*
%TD*%
D32*
%TO.C,C6*%
X10650000Y10400000D03*
X8750000Y10400000D03*
%TD*%
D14*
%TO.C,R9*%
X4900000Y26200000D03*
X3940000Y26200000D03*
%TD*%
D50*
%TO.C,R36*%
X3200000Y41090000D03*
X3200000Y42110000D03*
%TD*%
D20*
%TO.C,SDO*%
X10500000Y30500000D03*
%TD*%
D51*
%TO.C,C21*%
X12200000Y33050000D03*
X12200000Y34950000D03*
%TD*%
D20*
%TO.C,FID3*%
X12000000Y27900000D03*
%TD*%
D15*
%TO.C,C13*%
X22253324Y60174359D03*
X25203324Y60174359D03*
%TD*%
D37*
%TO.C,J6*%
X5380000Y8400000D03*
D38*
X7920000Y8400000D03*
X10460000Y8400000D03*
X13000000Y8400000D03*
X15540000Y8400000D03*
%TD*%
D37*
%TO.C,J5*%
X2000000Y18540000D03*
D38*
X2000000Y16000000D03*
X2000000Y13460000D03*
X2000000Y10920000D03*
X2000000Y8380000D03*
%TD*%
M02*
