%TF.GenerationSoftware,KiCad,Pcbnew,9.0.0*%
%TF.CreationDate,2025-11-20T17:42:05-05:00*%
%TF.ProjectId,pytheasFC_0.1.0,70797468-6561-4734-9643-5f302e312e30,0.1.0*%
%TF.SameCoordinates,PXbcd3d80PY660b0c0*%
%TF.FileFunction,Copper,L1,Top*%
%TF.FilePolarity,Positive*%
%FSLAX46Y46*%
G04 Gerber Fmt 4.6, Leading zero omitted, Abs format (unit mm)*
G04 Created by KiCad (PCBNEW 9.0.0) date 2025-11-20 17:42:05*
%MOMM*%
%LPD*%
G01*
G04 APERTURE LIST*
G04 Aperture macros list*
%AMRoundRect*
0 Rectangle with rounded corners*
0 $1 Rounding radius*
0 $2 $3 $4 $5 $6 $7 $8 $9 X,Y pos of 4 corners*
0 Add a 4 corners polygon primitive as box body*
4,1,4,$2,$3,$4,$5,$6,$7,$8,$9,$2,$3,0*
0 Add four circle primitives for the rounded corners*
1,1,$1+$1,$2,$3*
1,1,$1+$1,$4,$5*
1,1,$1+$1,$6,$7*
1,1,$1+$1,$8,$9*
0 Add four rect primitives between the rounded corners*
20,1,$1+$1,$2,$3,$4,$5,0*
20,1,$1+$1,$4,$5,$6,$7,0*
20,1,$1+$1,$6,$7,$8,$9,0*
20,1,$1+$1,$8,$9,$2,$3,0*%
G04 Aperture macros list end*
%TA.AperFunction,SMDPad,CuDef*%
%ADD10R,0.600000X0.300000*%
%TD*%
%TA.AperFunction,SMDPad,CuDef*%
%ADD11R,0.300000X0.600000*%
%TD*%
%TA.AperFunction,ComponentPad*%
%ADD12R,1.000000X1.000000*%
%TD*%
%TA.AperFunction,ComponentPad*%
%ADD13O,1.000000X1.000000*%
%TD*%
%TA.AperFunction,SMDPad,CuDef*%
%ADD14RoundRect,0.140000X0.140000X0.170000X-0.140000X0.170000X-0.140000X-0.170000X0.140000X-0.170000X0*%
%TD*%
%TA.AperFunction,SMDPad,CuDef*%
%ADD15RoundRect,0.250000X-0.325000X-0.650000X0.325000X-0.650000X0.325000X0.650000X-0.325000X0.650000X0*%
%TD*%
%TA.AperFunction,SMDPad,CuDef*%
%ADD16RoundRect,0.140000X-0.140000X-0.170000X0.140000X-0.170000X0.140000X0.170000X-0.140000X0.170000X0*%
%TD*%
%TA.AperFunction,SMDPad,CuDef*%
%ADD17R,0.950000X1.750000*%
%TD*%
%TA.AperFunction,SMDPad,CuDef*%
%ADD18R,3.200000X1.750000*%
%TD*%
%TA.AperFunction,SMDPad,CuDef*%
%ADD19RoundRect,0.140000X-0.170000X0.140000X-0.170000X-0.140000X0.170000X-0.140000X0.170000X0.140000X0*%
%TD*%
%TA.AperFunction,SMDPad,CuDef*%
%ADD20C,1.000000*%
%TD*%
%TA.AperFunction,ComponentPad*%
%ADD21C,0.700000*%
%TD*%
%TA.AperFunction,ComponentPad*%
%ADD22C,4.400000*%
%TD*%
%TA.AperFunction,SMDPad,CuDef*%
%ADD23RoundRect,0.140000X0.170000X-0.140000X0.170000X0.140000X-0.170000X0.140000X-0.170000X-0.140000X0*%
%TD*%
%TA.AperFunction,SMDPad,CuDef*%
%ADD24R,0.400000X0.300000*%
%TD*%
%TA.AperFunction,SMDPad,CuDef*%
%ADD25R,0.300000X0.400000*%
%TD*%
%TA.AperFunction,SMDPad,CuDef*%
%ADD26R,2.200000X2.830000*%
%TD*%
%TA.AperFunction,SMDPad,CuDef*%
%ADD27R,0.900000X2.830000*%
%TD*%
%TA.AperFunction,SMDPad,CuDef*%
%ADD28R,3.700000X1.600000*%
%TD*%
%TA.AperFunction,SMDPad,CuDef*%
%ADD29R,1.400000X2.100000*%
%TD*%
%TA.AperFunction,SMDPad,CuDef*%
%ADD30R,0.250000X0.275000*%
%TD*%
%TA.AperFunction,SMDPad,CuDef*%
%ADD31R,0.275000X0.250000*%
%TD*%
%TA.AperFunction,SMDPad,CuDef*%
%ADD32RoundRect,0.250000X0.250000X0.475000X-0.250000X0.475000X-0.250000X-0.475000X0.250000X-0.475000X0*%
%TD*%
%TA.AperFunction,SMDPad,CuDef*%
%ADD33R,0.850000X0.300000*%
%TD*%
%TA.AperFunction,SMDPad,CuDef*%
%ADD34R,0.300000X0.850000*%
%TD*%
%TA.AperFunction,SMDPad,CuDef*%
%ADD35R,5.250000X5.250000*%
%TD*%
%TA.AperFunction,SMDPad,CuDef*%
%ADD36R,1.400000X0.900000*%
%TD*%
%TA.AperFunction,ComponentPad*%
%ADD37R,1.700000X1.700000*%
%TD*%
%TA.AperFunction,ComponentPad*%
%ADD38O,1.700000X1.700000*%
%TD*%
%TA.AperFunction,SMDPad,CuDef*%
%ADD39RoundRect,0.150000X0.425000X-0.150000X0.425000X0.150000X-0.425000X0.150000X-0.425000X-0.150000X0*%
%TD*%
%TA.AperFunction,SMDPad,CuDef*%
%ADD40RoundRect,0.075000X0.500000X-0.075000X0.500000X0.075000X-0.500000X0.075000X-0.500000X-0.075000X0*%
%TD*%
%TA.AperFunction,HeatsinkPad*%
%ADD41O,2.100000X1.000000*%
%TD*%
%TA.AperFunction,HeatsinkPad*%
%ADD42O,1.800000X1.000000*%
%TD*%
%TA.AperFunction,SMDPad,CuDef*%
%ADD43RoundRect,0.250000X-0.650000X0.325000X-0.650000X-0.325000X0.650000X-0.325000X0.650000X0.325000X0*%
%TD*%
%TA.AperFunction,SMDPad,CuDef*%
%ADD44RoundRect,0.250000X-0.250000X-0.475000X0.250000X-0.475000X0.250000X0.475000X-0.250000X0.475000X0*%
%TD*%
%TA.AperFunction,SMDPad,CuDef*%
%ADD45C,2.000000*%
%TD*%
%TA.AperFunction,SMDPad,CuDef*%
%ADD46R,0.900000X1.400000*%
%TD*%
%TA.AperFunction,SMDPad,CuDef*%
%ADD47R,2.100000X4.250000*%
%TD*%
%TA.AperFunction,ConnectorPad*%
%ADD48C,0.787400*%
%TD*%
%TA.AperFunction,SMDPad,CuDef*%
%ADD49RoundRect,0.135000X0.185000X-0.135000X0.185000X0.135000X-0.185000X0.135000X-0.185000X-0.135000X0*%
%TD*%
%TA.AperFunction,SMDPad,CuDef*%
%ADD50RoundRect,0.250000X0.475000X-0.250000X0.475000X0.250000X-0.475000X0.250000X-0.475000X-0.250000X0*%
%TD*%
%TA.AperFunction,SMDPad,CuDef*%
%ADD51R,3.350000X4.750000*%
%TD*%
%TA.AperFunction,SMDPad,CuDef*%
%ADD52RoundRect,0.150000X-0.150000X0.512500X-0.150000X-0.512500X0.150000X-0.512500X0.150000X0.512500X0*%
%TD*%
%TA.AperFunction,SMDPad,CuDef*%
%ADD53R,1.900000X1.100000*%
%TD*%
%TA.AperFunction,SMDPad,CuDef*%
%ADD54R,0.500000X1.125000*%
%TD*%
%TA.AperFunction,ViaPad*%
%ADD55C,0.500000*%
%TD*%
%TA.AperFunction,ViaPad*%
%ADD56C,0.600000*%
%TD*%
%TA.AperFunction,ViaPad*%
%ADD57C,0.900000*%
%TD*%
%TA.AperFunction,Conductor*%
%ADD58C,0.500000*%
%TD*%
%TA.AperFunction,Conductor*%
%ADD59C,0.200000*%
%TD*%
%TA.AperFunction,Conductor*%
%ADD60C,0.300000*%
%TD*%
%TA.AperFunction,Conductor*%
%ADD61C,0.150000*%
%TD*%
%TA.AperFunction,Conductor*%
%ADD62C,1.000000*%
%TD*%
%TA.AperFunction,Conductor*%
%ADD63C,0.127500*%
%TD*%
G04 APERTURE END LIST*
D10*
%TO.P,AC2,1,SDO/SA0*%
%TO.N,GND*%
X4800000Y13800000D03*
%TO.P,AC2,2,SDX*%
X4800000Y13300000D03*
%TO.P,AC2,3,SCX*%
X4800000Y12800000D03*
%TO.P,AC2,4,INT1*%
%TO.N,unconnected-(AC2-INT1-Pad4)*%
X4800000Y12300000D03*
D11*
%TO.P,AC2,5,VDDIO*%
%TO.N,+3V3*%
X5450000Y12150000D03*
%TO.P,AC2,6,GND_1*%
%TO.N,GND*%
X5950000Y12150000D03*
%TO.P,AC2,7,GND_2*%
X6450000Y12150000D03*
D10*
%TO.P,AC2,8,VDD*%
%TO.N,+3V3*%
X7100000Y12300000D03*
%TO.P,AC2,9,INT2*%
%TO.N,unconnected-(AC2-INT2-Pad9)*%
X7100000Y12800000D03*
%TO.P,AC2,10,OCS_AUX*%
%TO.N,unconnected-(AC2-OCS_AUX-Pad10)*%
X7100000Y13300000D03*
%TO.P,AC2,11,SDO_AUX*%
%TO.N,unconnected-(AC2-SDO_AUX-Pad11)*%
X7100000Y13800000D03*
D11*
%TO.P,AC2,12,CS*%
%TO.N,+3V3*%
X6450000Y13950000D03*
%TO.P,AC2,13,SCL*%
%TO.N,/I2C_SCL*%
X5950000Y13950000D03*
%TO.P,AC2,14,SDA*%
%TO.N,/I2C_SDA*%
X5450000Y13950000D03*
%TD*%
D12*
%TO.P,J4,1,Pin_1*%
%TO.N,/SWCLK*%
X22860000Y22730000D03*
D13*
%TO.P,J4,2,Pin_2*%
%TO.N,/SWDIO*%
X22860000Y24000000D03*
%TO.P,J4,3,Pin_3*%
%TO.N,unconnected-(J4-Pin_3-Pad3)*%
X24130000Y22730000D03*
%TO.P,J4,4,Pin_4*%
%TO.N,/~{RESET}*%
X24130000Y24000000D03*
%TO.P,J4,5,Pin_5*%
%TO.N,+3V3*%
X25400000Y22730000D03*
%TO.P,J4,6,Pin_6*%
%TO.N,GND*%
X25400000Y24000000D03*
%TD*%
D14*
%TO.P,R11,1*%
%TO.N,+BATT*%
X4755000Y46550000D03*
%TO.P,R11,2*%
%TO.N,/EN*%
X3795000Y46550000D03*
%TD*%
D15*
%TO.P,C17,1*%
%TO.N,+5V*%
X22253324Y62674359D03*
%TO.P,C17,2*%
%TO.N,GND*%
X25203324Y62674359D03*
%TD*%
D16*
%TO.P,C78,1*%
%TO.N,+3V3*%
X6431249Y10906798D03*
%TO.P,C78,2*%
%TO.N,GND*%
X7391249Y10906798D03*
%TD*%
D17*
%TO.P,IC4,1,GND*%
%TO.N,GND*%
X9700000Y39350000D03*
%TO.P,IC4,2,OUTPUT_1*%
%TO.N,+3V3*%
X7400000Y39350000D03*
%TO.P,IC4,3,INPUT*%
%TO.N,+5V*%
X5100000Y39350000D03*
D18*
%TO.P,IC4,4,OUTPUT_2*%
%TO.N,+3V3*%
X7400000Y33050000D03*
%TD*%
D14*
%TO.P,C77,1*%
%TO.N,+3V3*%
X5391249Y10906798D03*
%TO.P,C77,2*%
%TO.N,GND*%
X4431249Y10906798D03*
%TD*%
D19*
%TO.P,R6,1*%
%TO.N,+3V3*%
X18000000Y16660000D03*
%TO.P,R6,2*%
%TO.N,/I2C_SCL*%
X18000000Y15700000D03*
%TD*%
D20*
%TO.P,FID2,*%
%TO.N,*%
X3500000Y60500000D03*
%TD*%
D21*
%TO.P,H1,1,1*%
%TO.N,GND*%
X21100000Y3750000D03*
X21583274Y4916726D03*
X21583274Y2583274D03*
X22750000Y5400000D03*
D22*
X22750000Y3750000D03*
D21*
X22750000Y2100000D03*
X23916726Y4916726D03*
X23916726Y2583274D03*
X24400000Y3750000D03*
%TD*%
D20*
%TO.P,FID1,*%
%TO.N,*%
X19000000Y67000000D03*
%TD*%
D23*
%TO.P,R4,1*%
%TO.N,/USB_CC2*%
X19800000Y36120000D03*
%TO.P,R4,2*%
%TO.N,GND*%
X19800000Y37080000D03*
%TD*%
D24*
%TO.P,IC3,1,PVDD*%
%TO.N,/PVDD*%
X11400000Y44500000D03*
%TO.P,IC3,2,PGND_1*%
%TO.N,GND*%
X11400000Y45150000D03*
%TO.P,IC3,3,NC*%
%TO.N,unconnected-(IC3-NC-Pad3)*%
X11400000Y45800000D03*
%TO.P,IC3,4,SW_1*%
%TO.N,/SW*%
X11400000Y46450000D03*
%TO.P,IC3,5,PGND_2*%
%TO.N,GND*%
X11400000Y47100000D03*
%TO.P,IC3,6,PGND_3*%
X11400000Y47750000D03*
%TO.P,IC3,7,PGND_4*%
X11400000Y48400000D03*
%TO.P,IC3,8,PGND_5*%
X11400000Y49050000D03*
D25*
%TO.P,IC3,9,SW_2*%
%TO.N,/SW*%
X10625000Y49675000D03*
%TO.P,IC3,10,SW_3*%
X9975000Y49675000D03*
%TO.P,IC3,11,SW_4*%
X9325000Y49675000D03*
%TO.P,IC3,12,SW_5*%
X8675000Y49675000D03*
%TO.P,IC3,13,PVIN_1*%
%TO.N,+BATT*%
X8025000Y49675000D03*
%TO.P,IC3,14,PVIN_2*%
X7375000Y49675000D03*
D24*
%TO.P,IC3,15,PVIN_3*%
X6600000Y49050000D03*
%TO.P,IC3,16,PVIN_4*%
X6600000Y48400000D03*
%TO.P,IC3,17,PVIN_5*%
X6600000Y47750000D03*
%TO.P,IC3,18,PVIN_6*%
X6600000Y47100000D03*
%TO.P,IC3,19,PVIN_7*%
X6600000Y46450000D03*
%TO.P,IC3,20,BST*%
%TO.N,/BST*%
X6600000Y45800000D03*
%TO.P,IC3,21,PGND_6*%
%TO.N,GND*%
X6600000Y45150000D03*
%TO.P,IC3,22,CS*%
%TO.N,/SW*%
X6600000Y44500000D03*
D25*
%TO.P,IC3,23,SGND*%
%TO.N,GND*%
X7375000Y43875000D03*
%TO.P,IC3,24,FB*%
%TO.N,/FB*%
X8025000Y43875000D03*
%TO.P,IC3,25,PG*%
%TO.N,/PG_5V*%
X8675000Y43875000D03*
%TO.P,IC3,26,EN*%
%TO.N,/EN*%
X9325000Y43875000D03*
%TO.P,IC3,27,VIN*%
%TO.N,+BATT*%
X9975000Y43875000D03*
%TO.P,IC3,28,VDD*%
%TO.N,/VDD*%
X10625000Y43875000D03*
D26*
%TO.P,IC3,29,EP_SW*%
%TO.N,/SW*%
X9500000Y47790000D03*
D27*
%TO.P,IC3,30,EP_PVIN*%
%TO.N,+BATT*%
X7600000Y47790000D03*
D28*
%TO.P,IC3,31,EP_PGND*%
%TO.N,GND*%
X9000000Y45225000D03*
%TD*%
D29*
%TO.P,RESET,1,1*%
%TO.N,/~{RESET}*%
X24250000Y20350000D03*
%TO.P,RESET,2,2*%
%TO.N,/RESET_o*%
X19750000Y20350000D03*
%TO.P,RESET,3,3*%
%TO.N,/~{RESET}*%
X24250000Y11250000D03*
%TO.P,RESET,4,4*%
%TO.N,/RESET_o*%
X19750000Y11250000D03*
%TD*%
D30*
%TO.P,IC1,1,VDDIO*%
%TO.N,+3V3*%
X6188000Y29563000D03*
%TO.P,IC1,2,SCK/SCL*%
%TO.N,/I2C_SCL*%
X5688000Y29563000D03*
D31*
%TO.P,IC1,3,VSS_1*%
%TO.N,GND*%
X5176000Y29300000D03*
%TO.P,IC1,4,SDI/SDA*%
%TO.N,/I2C_SDA*%
X5176000Y28800000D03*
%TO.P,IC1,5,SDO*%
%TO.N,/SDO*%
X5176000Y28300000D03*
D30*
%TO.P,IC1,6,CSB*%
%TO.N,+3V3*%
X5688000Y28037000D03*
%TO.P,IC1,7,INT*%
%TO.N,/BMP_INT*%
X6188000Y28037000D03*
D31*
%TO.P,IC1,8,VSS_2*%
%TO.N,GND*%
X6700000Y28300000D03*
%TO.P,IC1,9,VSS_3*%
X6700000Y28800000D03*
%TO.P,IC1,10,VDD*%
%TO.N,+3V3*%
X6700000Y29300000D03*
%TD*%
D14*
%TO.P,C7,1*%
%TO.N,/~{RESET}*%
X21200000Y22600000D03*
%TO.P,C7,2*%
%TO.N,GND*%
X20240000Y22600000D03*
%TD*%
D21*
%TO.P,H2,1,1*%
%TO.N,GND*%
X21350000Y67000000D03*
X21833274Y68166726D03*
X21833274Y65833274D03*
X23000000Y68650000D03*
D22*
X23000000Y67000000D03*
D21*
X23000000Y65350000D03*
X24166726Y68166726D03*
X24166726Y65833274D03*
X24650000Y67000000D03*
%TD*%
D32*
%TO.P,C2,1*%
%TO.N,/VDDANA*%
X6000000Y15900000D03*
%TO.P,C2,2*%
%TO.N,GND*%
X4100000Y15900000D03*
%TD*%
D14*
%TO.P,R2,1*%
%TO.N,/RESET_o*%
X18080000Y10800000D03*
%TO.P,R2,2*%
%TO.N,GND*%
X17120000Y10800000D03*
%TD*%
D33*
%TO.P,IC2,1,PA00*%
%TO.N,/XIN32*%
X9300000Y18600000D03*
%TO.P,IC2,2,PA01*%
%TO.N,/XOUT32*%
X9300000Y18100000D03*
%TO.P,IC2,3,PA02*%
%TO.N,unconnected-(IC2-PA02-Pad3)*%
X9300000Y17600000D03*
%TO.P,IC2,4,PA03*%
%TO.N,/GPIO0*%
X9300000Y17100000D03*
%TO.P,IC2,5,GNDANA*%
%TO.N,GND*%
X9300000Y16600000D03*
%TO.P,IC2,6,VDDANA*%
%TO.N,/VDDANA*%
X9300000Y16100000D03*
%TO.P,IC2,7,PB08*%
%TO.N,/GPIO1*%
X9300000Y15600000D03*
%TO.P,IC2,8,PB09*%
%TO.N,/GPIO2*%
X9300000Y15100000D03*
%TO.P,IC2,9,PA04*%
%TO.N,/GPIO3*%
X9300000Y14600000D03*
%TO.P,IC2,10,PA05*%
%TO.N,/GPIO4*%
X9300000Y14100000D03*
%TO.P,IC2,11,PA06*%
%TO.N,/GPIO5*%
X9300000Y13600000D03*
%TO.P,IC2,12,PA07*%
%TO.N,/GPIO6*%
X9300000Y13100000D03*
D34*
%TO.P,IC2,13,PA08*%
%TO.N,/GPIO7*%
X10000000Y12400000D03*
%TO.P,IC2,14,PA09*%
%TO.N,/GPIO8*%
X10500000Y12400000D03*
%TO.P,IC2,15,PA10*%
%TO.N,/GPIO9*%
X11000000Y12400000D03*
%TO.P,IC2,16,PA11*%
%TO.N,unconnected-(IC2-PA11-Pad16)*%
X11500000Y12400000D03*
%TO.P,IC2,17,VDDIO_1*%
%TO.N,+3V3*%
X12000000Y12400000D03*
%TO.P,IC2,18,GND_1*%
%TO.N,GND*%
X12500000Y12400000D03*
%TO.P,IC2,19,PB10*%
%TO.N,unconnected-(IC2-PB10-Pad19)*%
X13000000Y12400000D03*
%TO.P,IC2,20,PB11*%
%TO.N,/xGPIO10*%
X13500000Y12400000D03*
%TO.P,IC2,21,PA12*%
%TO.N,/xGPIO11*%
X14000000Y12400000D03*
%TO.P,IC2,22,PA13*%
%TO.N,/xGPIO12*%
X14500000Y12400000D03*
%TO.P,IC2,23,PA14*%
%TO.N,/xGPIO13*%
X15000000Y12400000D03*
%TO.P,IC2,24,PA15*%
%TO.N,/xGPIO14*%
X15500000Y12400000D03*
D33*
%TO.P,IC2,25,PA16*%
%TO.N,/BMP_INT*%
X16200000Y13100000D03*
%TO.P,IC2,26,PA17*%
%TO.N,/PG_5V*%
X16200000Y13600000D03*
%TO.P,IC2,27,PA18*%
%TO.N,/~{MCU_LED_STAT}*%
X16200000Y14100000D03*
%TO.P,IC2,28,PA19*%
%TO.N,unconnected-(IC2-PA19-Pad28)*%
X16200000Y14600000D03*
%TO.P,IC2,29,PA20*%
%TO.N,unconnected-(IC2-PA20-Pad29)*%
X16200000Y15100000D03*
%TO.P,IC2,30,PA21*%
%TO.N,unconnected-(IC2-PA21-Pad30)*%
X16200000Y15600000D03*
%TO.P,IC2,31,PA22*%
%TO.N,/I2C_SDA*%
X16200000Y16100000D03*
%TO.P,IC2,32,PA23*%
%TO.N,/I2C_SCL*%
X16200000Y16600000D03*
%TO.P,IC2,33,USB_DM/PA24*%
%TO.N,/USB_D-*%
X16200000Y17100000D03*
%TO.P,IC2,34,USB_DP/PA25*%
%TO.N,/USB_D+*%
X16200000Y17600000D03*
%TO.P,IC2,35,GND_2*%
%TO.N,GND*%
X16200000Y18100000D03*
%TO.P,IC2,36,VDDIO_2*%
%TO.N,+3V3*%
X16200000Y18600000D03*
D34*
%TO.P,IC2,37,PB22*%
%TO.N,unconnected-(IC2-PB22-Pad37)*%
X15500000Y19300000D03*
%TO.P,IC2,38,PB23*%
%TO.N,unconnected-(IC2-PB23-Pad38)*%
X15000000Y19300000D03*
%TO.P,IC2,39,PA27*%
%TO.N,unconnected-(IC2-PA27-Pad39)*%
X14500000Y19300000D03*
%TO.P,IC2,40,~{RESET}*%
%TO.N,/~{RESET}*%
X14000000Y19300000D03*
%TO.P,IC2,41,PA28*%
%TO.N,unconnected-(IC2-PA28-Pad41)*%
X13500000Y19300000D03*
%TO.P,IC2,42,GND_3*%
%TO.N,GND*%
X13000000Y19300000D03*
%TO.P,IC2,43,VDDCORE*%
%TO.N,/VDDCORE*%
X12500000Y19300000D03*
%TO.P,IC2,44,VDDIN*%
%TO.N,+3V3*%
X12000000Y19300000D03*
%TO.P,IC2,45,PA30*%
%TO.N,/SWCLK*%
X11500000Y19300000D03*
%TO.P,IC2,46,PA31*%
%TO.N,/SWDIO*%
X11000000Y19300000D03*
%TO.P,IC2,47,PB02*%
%TO.N,unconnected-(IC2-PB02-Pad47)*%
X10500000Y19300000D03*
%TO.P,IC2,48,PB03*%
%TO.N,unconnected-(IC2-PB03-Pad48)*%
X10000000Y19300000D03*
D35*
%TO.P,IC2,49,GND_4*%
%TO.N,GND*%
X12750000Y15850000D03*
%TD*%
D36*
%TO.P,MCU_LED,1,K*%
%TO.N,/~{MCU_LED_STAT}*%
X1400000Y40050000D03*
%TO.P,MCU_LED,2,A*%
%TO.N,/MCULED_o*%
X1400000Y41950000D03*
%TD*%
D37*
%TO.P,J14,1,Pin_1*%
%TO.N,+5V*%
X23500000Y56275000D03*
D38*
%TO.P,J14,2,Pin_2*%
%TO.N,GND*%
X23500000Y53735000D03*
%TD*%
D39*
%TO.P,USB,A1,GND*%
%TO.N,GND*%
X18110000Y26950000D03*
%TO.P,USB,A4,VBUS*%
%TO.N,V_{USB}*%
X18110000Y27750000D03*
D40*
%TO.P,USB,A5,CC1*%
%TO.N,/USB_CC1*%
X18110000Y28900000D03*
%TO.P,USB,A6,D+*%
%TO.N,/USB_o_D+*%
X18110000Y29900000D03*
%TO.P,USB,A7,D-*%
%TO.N,/USB_o_D-*%
X18110000Y30400000D03*
%TO.P,USB,A8*%
%TO.N,N/C*%
X18110000Y31400000D03*
D39*
%TO.P,USB,A9,VBUS*%
%TO.N,V_{USB}*%
X18110000Y32550000D03*
%TO.P,USB,A12,GND*%
%TO.N,GND*%
X18110000Y33350000D03*
%TO.P,USB,B1,GND*%
X18110000Y33350000D03*
%TO.P,USB,B4,VBUS*%
%TO.N,V_{USB}*%
X18110000Y32550000D03*
D40*
%TO.P,USB,B5,CC2*%
%TO.N,/USB_CC2*%
X18110000Y31900000D03*
%TO.P,USB,B6,D+*%
%TO.N,/USB_o_D+*%
X18110000Y30900000D03*
%TO.P,USB,B7,D-*%
%TO.N,/USB_o_D-*%
X18110000Y29400000D03*
%TO.P,USB,B8*%
%TO.N,N/C*%
X18110000Y28400000D03*
D39*
%TO.P,USB,B9,VBUS*%
%TO.N,V_{USB}*%
X18110000Y27750000D03*
%TO.P,USB,B12,GND*%
%TO.N,GND*%
X18110000Y26950000D03*
D41*
%TO.P,USB,S1,SHIELD*%
%TO.N,/USB_SHIELD*%
X18685000Y25830000D03*
D42*
X22865000Y25830000D03*
D41*
X18685000Y34470000D03*
D42*
X22865000Y34470000D03*
%TD*%
D43*
%TO.P,C20,1*%
%TO.N,+BATT*%
X4100000Y50925000D03*
%TO.P,C20,2*%
%TO.N,GND*%
X4100000Y47975000D03*
%TD*%
D37*
%TO.P,J10,1,Pin_1*%
%TO.N,/I2C_SCL*%
X2000000Y21860000D03*
D38*
%TO.P,J10,2,Pin_2*%
%TO.N,/I2C_SDA*%
X2000000Y24400000D03*
%TD*%
D44*
%TO.P,C15,1*%
%TO.N,/VDD*%
X13450000Y43750000D03*
%TO.P,C15,2*%
%TO.N,GND*%
X15350000Y43750000D03*
%TD*%
D19*
%TO.P,C1,1*%
%TO.N,/VDDANA*%
X7300000Y16480000D03*
%TO.P,C1,2*%
%TO.N,GND*%
X7300000Y15520000D03*
%TD*%
D14*
%TO.P,R8,1*%
%TO.N,/USB_SHIELD*%
X18650000Y37075000D03*
%TO.P,R8,2*%
%TO.N,GND*%
X17690000Y37075000D03*
%TD*%
D37*
%TO.P,J15,1,Pin_1*%
%TO.N,+BATT*%
X3375000Y53725000D03*
D38*
%TO.P,J15,2,Pin_2*%
%TO.N,GND*%
X3375000Y56265000D03*
%TD*%
D14*
%TO.P,C12,1*%
%TO.N,+3V3*%
X6980000Y31400000D03*
%TO.P,C12,2*%
%TO.N,GND*%
X6020000Y31400000D03*
%TD*%
D23*
%TO.P,C3,1*%
%TO.N,+3V3*%
X12000000Y20770000D03*
%TO.P,C3,2*%
%TO.N,GND*%
X12000000Y21730000D03*
%TD*%
D43*
%TO.P,C23,1*%
%TO.N,+5V*%
X9500000Y68975000D03*
%TO.P,C23,2*%
%TO.N,GND*%
X9500000Y66025000D03*
%TD*%
D45*
%TO.P,VDDCORE,1,1*%
%TO.N,/VDDCORE*%
X16000000Y21500000D03*
%TD*%
D14*
%TO.P,C10,1*%
%TO.N,/USB_SHIELD*%
X18650000Y36075000D03*
%TO.P,C10,2*%
%TO.N,GND*%
X17690000Y36075000D03*
%TD*%
D44*
%TO.P,C22,1*%
%TO.N,+5V*%
X5250000Y41600000D03*
%TO.P,C22,2*%
%TO.N,GND*%
X7150000Y41600000D03*
%TD*%
D23*
%TO.P,R7,1*%
%TO.N,+3V3*%
X18000000Y13820000D03*
%TO.P,R7,2*%
%TO.N,/I2C_SDA*%
X18000000Y14780000D03*
%TD*%
D46*
%TO.P,PWR_LED,1,K*%
%TO.N,GND*%
X12950000Y37300000D03*
%TO.P,PWR_LED,2,A*%
%TO.N,/PWRLED_o*%
X14850000Y37300000D03*
%TD*%
D19*
%TO.P,C16,1*%
%TO.N,/BST*%
X4775000Y45600000D03*
%TO.P,C16,2*%
%TO.N,/SW*%
X4775000Y44640000D03*
%TD*%
D37*
%TO.P,J13,1,Pin_1*%
%TO.N,+5V*%
X12725000Y67125000D03*
D38*
%TO.P,J13,2,Pin_2*%
%TO.N,GND*%
X15265000Y67125000D03*
%TD*%
D37*
%TO.P,J9,1,Pin_1*%
%TO.N,+3V3*%
X2000000Y34525000D03*
D38*
%TO.P,J9,2,Pin_2*%
%TO.N,GND*%
X2000000Y37065000D03*
%TD*%
D47*
%TO.P,C24,1,+*%
%TO.N,+5V*%
X21400000Y48250000D03*
%TO.P,C24,2,-*%
%TO.N,GND*%
X21400000Y40950000D03*
%TD*%
D37*
%TO.P,J8,1,Pin_1*%
%TO.N,+3V3*%
X2000000Y28200000D03*
D38*
%TO.P,J8,2,Pin_2*%
%TO.N,GND*%
X2000000Y30740000D03*
%TD*%
D48*
%TO.P,SWD,1,VCC*%
%TO.N,+3V3*%
X10200000Y25200000D03*
%TO.P,SWD,2,SWDIO*%
%TO.N,/SWDIO*%
X10200000Y23930000D03*
%TO.P,SWD,3,~{RESET}*%
%TO.N,/~{RESET}*%
X8930000Y25200000D03*
%TO.P,SWD,4,SWCLK*%
%TO.N,/SWCLK*%
X8930000Y23930000D03*
%TO.P,SWD,5,GND*%
%TO.N,GND*%
X7660000Y25200000D03*
%TO.P,SWD,6,SWO*%
%TO.N,unconnected-(J3-SWO-Pad6)*%
X7660000Y23930000D03*
%TD*%
D23*
%TO.P,C9,1*%
%TO.N,/XOUT32*%
X4900000Y18520000D03*
%TO.P,C9,2*%
%TO.N,GND*%
X4900000Y19480000D03*
%TD*%
D12*
%TO.P,J7,1,Pin_1*%
%TO.N,/xGPIO10*%
X18860000Y8400000D03*
D13*
%TO.P,J7,2,Pin_2*%
%TO.N,/xGPIO11*%
X20130000Y8400000D03*
%TO.P,J7,3,Pin_3*%
%TO.N,/xGPIO12*%
X21400000Y8400000D03*
%TO.P,J7,4,Pin_4*%
%TO.N,/xGPIO13*%
X22670000Y8400000D03*
%TO.P,J7,5,Pin_5*%
%TO.N,/xGPIO14*%
X23940000Y8400000D03*
%TD*%
D49*
%TO.P,R37,1*%
%TO.N,+3V3*%
X14850000Y33005000D03*
%TO.P,R37,2*%
%TO.N,/PWRLED_o*%
X14850000Y34025000D03*
%TD*%
D14*
%TO.P,R3,1*%
%TO.N,+3V3*%
X10280000Y21700000D03*
%TO.P,R3,2*%
%TO.N,/SWCLK*%
X9320000Y21700000D03*
%TD*%
D19*
%TO.P,C11,1*%
%TO.N,+3V3*%
X8500000Y31380000D03*
%TO.P,C11,2*%
%TO.N,GND*%
X8500000Y30420000D03*
%TD*%
D21*
%TO.P,H3,1,1*%
%TO.N,GND*%
X1850000Y67000000D03*
X2333274Y68166726D03*
X2333274Y65833274D03*
X3500000Y68650000D03*
D22*
X3500000Y67000000D03*
D21*
X3500000Y65350000D03*
X4666726Y68166726D03*
X4666726Y65833274D03*
X5150000Y67000000D03*
%TD*%
D23*
%TO.P,C18,1*%
%TO.N,+5V*%
X10725000Y41190000D03*
%TO.P,C18,2*%
%TO.N,/FB*%
X10725000Y42150000D03*
%TD*%
D50*
%TO.P,C4,1*%
%TO.N,/VDDCORE*%
X13500000Y21050000D03*
%TO.P,C4,2*%
%TO.N,GND*%
X13500000Y22950000D03*
%TD*%
D19*
%TO.P,R13,1*%
%TO.N,/PG_5V*%
X13800000Y34000000D03*
%TO.P,R13,2*%
%TO.N,+3V3*%
X13800000Y33040000D03*
%TD*%
%TO.P,R12,1*%
%TO.N,/FB*%
X8725000Y42130000D03*
%TO.P,R12,2*%
%TO.N,GND*%
X8725000Y41170000D03*
%TD*%
D16*
%TO.P,R1,1*%
%TO.N,+3V3*%
X20240000Y23600000D03*
%TO.P,R1,2*%
%TO.N,/~{RESET}*%
X21200000Y23600000D03*
%TD*%
D51*
%TO.P,L1,1,1*%
%TO.N,/SW*%
X7400000Y58000000D03*
%TO.P,L1,2,2*%
%TO.N,+5V*%
X19200000Y58000000D03*
%TD*%
D52*
%TO.P,U2,1,I/O1*%
%TO.N,/USB_o_D-*%
X15950000Y27800000D03*
%TO.P,U2,2,GND*%
%TO.N,GND*%
X15000000Y27800000D03*
%TO.P,U2,3,I/O2*%
%TO.N,/USB_o_D+*%
X14050000Y27800000D03*
%TO.P,U2,4,I/O2*%
%TO.N,/USB_D+*%
X14050000Y25525000D03*
%TO.P,U2,5,VBUS*%
%TO.N,V_{USB}*%
X15000000Y25525000D03*
%TO.P,U2,6,I/O1*%
%TO.N,/USB_D-*%
X15950000Y25525000D03*
%TD*%
D23*
%TO.P,C8,1*%
%TO.N,GND*%
X4900000Y20520000D03*
%TO.P,C8,2*%
%TO.N,/XIN32*%
X4900000Y21480000D03*
%TD*%
D43*
%TO.P,C19,1*%
%TO.N,+BATT*%
X1700000Y50925000D03*
%TO.P,C19,2*%
%TO.N,GND*%
X1700000Y47975000D03*
%TD*%
D23*
%TO.P,R5,1*%
%TO.N,/USB_CC1*%
X20800000Y36120000D03*
%TO.P,R5,2*%
%TO.N,GND*%
X20800000Y37080000D03*
%TD*%
D44*
%TO.P,C14,1*%
%TO.N,/PVDD*%
X13450000Y45750000D03*
%TO.P,C14,2*%
%TO.N,GND*%
X15350000Y45750000D03*
%TD*%
D53*
%TO.P,Y1,1,1*%
%TO.N,/XOUT32*%
X6900000Y18900000D03*
%TO.P,Y1,2,2*%
%TO.N,/XIN32*%
X6900000Y21400000D03*
%TD*%
D23*
%TO.P,R10,1*%
%TO.N,+5V*%
X9725000Y41190000D03*
%TO.P,R10,2*%
%TO.N,/FB*%
X9725000Y42150000D03*
%TD*%
D16*
%TO.P,C5,1*%
%TO.N,+3V3*%
X11920000Y11250000D03*
%TO.P,C5,2*%
%TO.N,GND*%
X12880000Y11250000D03*
%TD*%
D54*
%TO.P,D1,1,K*%
%TO.N,/BST*%
X1600000Y46162000D03*
%TO.P,D1,2,A*%
%TO.N,/PVDD*%
X1600000Y43838000D03*
%TD*%
D32*
%TO.P,C6,1*%
%TO.N,+3V3*%
X10650000Y10400000D03*
%TO.P,C6,2*%
%TO.N,GND*%
X8750000Y10400000D03*
%TD*%
D14*
%TO.P,R9,1*%
%TO.N,+3V3*%
X4900000Y26200000D03*
%TO.P,R9,2*%
%TO.N,/SDO*%
X3940000Y26200000D03*
%TD*%
D49*
%TO.P,R36,1*%
%TO.N,+3V3*%
X3200000Y41090000D03*
%TO.P,R36,2*%
%TO.N,/MCULED_o*%
X3200000Y42110000D03*
%TD*%
D45*
%TO.P,SDO,1,1*%
%TO.N,/SDO*%
X10500000Y30500000D03*
%TD*%
D50*
%TO.P,C21,1*%
%TO.N,+3V3*%
X12200000Y33050000D03*
%TO.P,C21,2*%
%TO.N,GND*%
X12200000Y34950000D03*
%TD*%
D20*
%TO.P,FID3,*%
%TO.N,*%
X12000000Y27900000D03*
%TD*%
D15*
%TO.P,C13,1*%
%TO.N,+5V*%
X22253324Y60174359D03*
%TO.P,C13,2*%
%TO.N,GND*%
X25203324Y60174359D03*
%TD*%
D37*
%TO.P,J6,1,Pin_1*%
%TO.N,/GPIO5*%
X5380000Y8400000D03*
D38*
%TO.P,J6,2,Pin_2*%
%TO.N,/GPIO6*%
X7920000Y8400000D03*
%TO.P,J6,3,Pin_3*%
%TO.N,/GPIO7*%
X10460000Y8400000D03*
%TO.P,J6,4,Pin_4*%
%TO.N,/GPIO8*%
X13000000Y8400000D03*
%TO.P,J6,5,Pin_5*%
%TO.N,/GPIO9*%
X15540000Y8400000D03*
%TD*%
D37*
%TO.P,J5,1,Pin_1*%
%TO.N,/GPIO0*%
X2000000Y18540000D03*
D38*
%TO.P,J5,2,Pin_2*%
%TO.N,/GPIO1*%
X2000000Y16000000D03*
%TO.P,J5,3,Pin_3*%
%TO.N,/GPIO2*%
X2000000Y13460000D03*
%TO.P,J5,4,Pin_4*%
%TO.N,/GPIO3*%
X2000000Y10920000D03*
%TO.P,J5,5,Pin_5*%
%TO.N,/GPIO4*%
X2000000Y8380000D03*
%TD*%
D55*
%TO.N,GND*%
X23500000Y37000000D03*
X3500000Y36000000D03*
D56*
X25500000Y54000000D03*
D55*
X19794400Y38053165D03*
X15905161Y60923327D03*
X12000000Y59000000D03*
D56*
X19000000Y7000000D03*
X25500000Y40000000D03*
X25500000Y46000000D03*
X1000000Y55000000D03*
D55*
X16694966Y45729163D03*
X14000000Y55000000D03*
X14000000Y63000000D03*
D56*
X25500000Y50000000D03*
X3500000Y49500000D03*
X1000000Y63000000D03*
D55*
X18000000Y47000000D03*
X12000000Y22500000D03*
D56*
X25500000Y11000000D03*
D55*
X23500000Y39000000D03*
X5192937Y31507063D03*
X2000000Y32500000D03*
X3445194Y63000001D03*
X6000000Y61000000D03*
D56*
X1000000Y65000000D03*
D55*
X11000000Y37500000D03*
X10500000Y15700000D03*
X18000000Y53000000D03*
D56*
X25500000Y56000000D03*
X21000000Y69500000D03*
D55*
X7500000Y28500000D03*
X21387689Y43762448D03*
X5044774Y17000000D03*
X15000000Y15700000D03*
X14000000Y51000000D03*
X17159233Y26855874D03*
X23500000Y47000000D03*
D56*
X25500000Y13000000D03*
X25500000Y65000000D03*
D55*
X16000000Y59000000D03*
X14000000Y57000000D03*
X10000000Y65000000D03*
X15000000Y17700000D03*
X15348258Y47311071D03*
D56*
X1052562Y12274485D03*
D55*
X10500000Y13600000D03*
D56*
X25500000Y44000000D03*
D55*
X15538336Y31898031D03*
X23500000Y43000000D03*
X12000000Y61000000D03*
X3790207Y13265673D03*
X10000000Y63000000D03*
X17220900Y18519825D03*
D56*
X3663687Y7392632D03*
D55*
X8000000Y61000000D03*
X3462265Y58988328D03*
X14000000Y59000000D03*
D56*
X25500000Y58000000D03*
X17000000Y7500000D03*
D55*
X19500000Y23080000D03*
X12000000Y53000000D03*
X14000000Y53000000D03*
D56*
X1000000Y61000000D03*
D55*
X23500000Y45000000D03*
X13100000Y29900000D03*
X18000000Y51000000D03*
D56*
X13000000Y69500000D03*
D55*
X6916088Y14601000D03*
D56*
X1000000Y49500000D03*
X11687032Y7358490D03*
X15000000Y69500000D03*
X1000000Y57000000D03*
D55*
X16000000Y51000000D03*
D56*
X25500000Y38000000D03*
X25500000Y15000000D03*
X25500000Y34000000D03*
D55*
X21842914Y37097192D03*
X7370000Y10000000D03*
X23045467Y40947639D03*
D56*
X25500000Y5000000D03*
D55*
X3787561Y20947639D03*
X12000000Y65000000D03*
D56*
X25500000Y42000000D03*
X19000000Y69500000D03*
X25500000Y48000000D03*
D55*
X17696571Y38056958D03*
D56*
X20000000Y5500000D03*
D55*
X4584849Y22611198D03*
X16000000Y55000000D03*
X12180649Y42963670D03*
D56*
X25500000Y7000000D03*
D55*
X16000000Y57000000D03*
X12800000Y13600000D03*
D56*
X1000000Y59000000D03*
D55*
X12618116Y10457007D03*
D56*
X25500000Y52000000D03*
X25500000Y26000000D03*
D55*
X20900000Y27300000D03*
X16000000Y53000000D03*
X9000000Y35000000D03*
D56*
X7500000Y69500000D03*
D55*
X1000000Y38500000D03*
X6198094Y11578259D03*
D56*
X5500000Y69500000D03*
D55*
X5800000Y24500000D03*
D56*
X1000000Y53000000D03*
D55*
X4116620Y17000000D03*
X16698868Y36088109D03*
D56*
X25500000Y30000000D03*
D55*
X16695075Y37116159D03*
X16848813Y9752220D03*
X6000000Y45050000D03*
X6000000Y65000000D03*
X16638063Y43748933D03*
D56*
X25500000Y28000000D03*
X25500000Y32000000D03*
D55*
X14000000Y61000000D03*
X19627484Y40977987D03*
D56*
X17000000Y69500000D03*
D55*
X14000000Y49000000D03*
X21600000Y33000000D03*
X899000Y47000000D03*
X11500000Y39000000D03*
D56*
X25500000Y17000000D03*
D55*
X9000000Y37500000D03*
X16801987Y33344465D03*
X23500000Y49000000D03*
X16000000Y49000000D03*
X4418839Y29216233D03*
D56*
X25500000Y9000000D03*
D55*
X8000000Y65000000D03*
X8192349Y11782747D03*
X12000000Y55000000D03*
X12000000Y57000000D03*
X2500000Y43000000D03*
X21425624Y38129036D03*
X15000000Y13600000D03*
X10000000Y61000000D03*
D56*
X1097354Y9719971D03*
D55*
X12000000Y63000000D03*
X23500000Y51000000D03*
D56*
X25500000Y36000000D03*
D55*
X10500000Y35000000D03*
X14500000Y39500000D03*
X18000000Y49000000D03*
X8000000Y63000000D03*
X6000000Y63000000D03*
D56*
X5500000Y48000000D03*
D55*
%TO.N,+3V3*%
X19200000Y17800000D03*
X16600000Y19300000D03*
D57*
X4300000Y32000000D03*
D55*
X10200000Y26700000D03*
X9700000Y23100000D03*
X18900000Y21900000D03*
X9300000Y9200000D03*
X18272183Y23950000D03*
X22200000Y19400000D03*
X6700000Y9300000D03*
D57*
X9600000Y32100000D03*
D55*
X21089990Y20455888D03*
%TO.N,/I2C_SDA*%
X19000000Y14780000D03*
X4449091Y28350909D03*
%TO.N,/I2C_SCL*%
X3000000Y23200000D03*
X3400000Y17300000D03*
X19300000Y15700000D03*
%TO.N,/~{RESET}*%
X9000000Y26100000D03*
X14600000Y20300000D03*
X20727059Y21952309D03*
D57*
%TO.N,+5V*%
X15150000Y40650000D03*
X4250000Y40650000D03*
D55*
%TO.N,/PVDD*%
X5700000Y43800000D03*
X12200000Y45800000D03*
%TO.N,/SW*%
X9000000Y50900000D03*
X3800000Y44900000D03*
D57*
%TO.N,+BATT*%
X5487209Y50178936D03*
X7700000Y51000000D03*
D55*
X7400000Y52300000D03*
X11150000Y43250000D03*
%TO.N,/BMP_INT*%
X21950813Y22029909D03*
X14600000Y31000000D03*
X23050000Y21600000D03*
X23700000Y18400000D03*
X19100000Y12900000D03*
X20600000Y24400000D03*
X23700000Y16800000D03*
X17200000Y26100000D03*
%TO.N,/SDO*%
X7200000Y27300000D03*
X4900000Y25300000D03*
%TO.N,/GPIO5*%
X8200000Y13100000D03*
%TO.N,/PG_5V*%
X19690100Y24258429D03*
X21838909Y21338909D03*
X17100000Y24600000D03*
X8850000Y43000000D03*
X17240150Y13654595D03*
X23038909Y20561091D03*
X23000000Y19100000D03*
X23200000Y15800000D03*
X13800000Y35000000D03*
%TO.N,/xGPIO11*%
X15590822Y10569096D03*
%TO.N,/GPIO9*%
X10999887Y11639019D03*
%TO.N,/GPIO7*%
X9400000Y12100000D03*
%TO.N,/xGPIO12*%
X16238245Y11117970D03*
%TO.N,/~{MCU_LED_STAT}*%
X17065934Y14332571D03*
X21800000Y17400000D03*
X8338909Y22261091D03*
X21100000Y14600000D03*
X2800000Y26300000D03*
X5700000Y35400000D03*
X20899999Y19777818D03*
X20825735Y18374265D03*
%TO.N,/xGPIO13*%
X18100000Y11700000D03*
%TO.N,/xGPIO10*%
X13800000Y11000000D03*
%TO.N,/SWCLK*%
X8350000Y23350000D03*
%TO.N,/GPIO2*%
X7965683Y14984438D03*
%TO.N,/SWDIO*%
X11000000Y23400000D03*
X9100000Y20600000D03*
X15500000Y22900000D03*
X21976645Y24298827D03*
%TO.N,/GPIO8*%
X10121182Y11522370D03*
%TO.N,/GPIO3*%
X7585590Y14396621D03*
%TO.N,/GPIO4*%
X8100000Y13883438D03*
%TO.N,/GPIO6*%
X8800000Y12500000D03*
%TO.N,/xGPIO14*%
X16100000Y12400000D03*
%TO.N,/GPIO1*%
X8075735Y15675735D03*
%TO.N,/USB_CC2*%
X19800000Y35500000D03*
X16700000Y31900000D03*
%TO.N,/USB_o_D-*%
X19200000Y30400000D03*
X19800859Y29371737D03*
%TO.N,/USB_CC1*%
X19200000Y28700000D03*
X20800000Y35500000D03*
%TO.N,/RESET_o*%
X19800000Y18450000D03*
X21600000Y13900000D03*
%TO.N,/EN*%
X3050000Y46550000D03*
X9686091Y42986091D03*
%TD*%
D58*
%TO.N,GND*%
X3787561Y19712439D02*
X3787561Y20947639D01*
X1700000Y48800000D02*
X1700000Y47975000D01*
D59*
X6700000Y28300000D02*
X6700000Y28800000D01*
D60*
X12880000Y10718891D02*
X12880000Y11250000D01*
D58*
X17253359Y26950000D02*
X17159233Y26855874D01*
X4116620Y15916620D02*
X4100000Y15900000D01*
D60*
X12500000Y15600000D02*
X12750000Y15850000D01*
D58*
X4900000Y20520000D02*
X4880000Y20500000D01*
D60*
X16200000Y18100000D02*
X15000000Y18100000D01*
X14000000Y48600000D02*
X14000000Y49000000D01*
X16200000Y18100000D02*
X16801075Y18100000D01*
X7375000Y44925000D02*
X7450000Y45000000D01*
D61*
X5176000Y29300000D02*
X4502606Y29300000D01*
D59*
X7300000Y28300000D02*
X7500000Y28500000D01*
D58*
X10550000Y34950000D02*
X10500000Y35000000D01*
D60*
X1100000Y31640000D02*
X2000000Y30740000D01*
D59*
X3790207Y13265673D02*
X4324534Y13800000D01*
D58*
X8192349Y10957651D02*
X8192349Y11782747D01*
D60*
X5950000Y12150000D02*
X5950000Y11826353D01*
X9075000Y45150000D02*
X9000000Y45225000D01*
X5950000Y11826353D02*
X6198094Y11578259D01*
D58*
X12950000Y35700000D02*
X12950000Y37300000D01*
X4020000Y19480000D02*
X3787561Y19712439D01*
D60*
X6897406Y24500000D02*
X5800000Y24500000D01*
X12618116Y10457007D02*
X12880000Y10718891D01*
X8925000Y45150000D02*
X9000000Y45225000D01*
X2000000Y30740000D02*
X2900000Y31640000D01*
X16801075Y18100000D02*
X17220900Y18519825D01*
D58*
X17696571Y37081571D02*
X17690000Y37075000D01*
X4900000Y19480000D02*
X4020000Y19480000D01*
X4116620Y17000000D02*
X4116620Y15916620D01*
D61*
X4502606Y29300000D02*
X4418839Y29216233D01*
D58*
X4100000Y47975000D02*
X4100000Y48900000D01*
D60*
X7375000Y43875000D02*
X7375000Y44925000D01*
D58*
X8725000Y41170000D02*
X7580000Y41170000D01*
D60*
X5300000Y31400000D02*
X5192937Y31507063D01*
D58*
X21842914Y37097192D02*
X20817192Y37097192D01*
X18104465Y33344465D02*
X18110000Y33350000D01*
D59*
X7200000Y28800000D02*
X7500000Y28500000D01*
D58*
X9700000Y39350000D02*
X8725000Y40325000D01*
X20817192Y37097192D02*
X20800000Y37080000D01*
D59*
X25400000Y24000000D02*
X24691227Y24708773D01*
X3824534Y13300000D02*
X3790207Y13265673D01*
D58*
X11150000Y39350000D02*
X9700000Y39350000D01*
D60*
X11400000Y47100000D02*
X12500000Y47100000D01*
D58*
X8243202Y10906798D02*
X8192349Y10957651D01*
D59*
X6700000Y28300000D02*
X7300000Y28300000D01*
D58*
X4247989Y10906798D02*
X3790207Y11364580D01*
X4431249Y10906798D02*
X4247989Y10906798D01*
D60*
X7660000Y25200000D02*
X7597406Y25200000D01*
X12500000Y12400000D02*
X12500000Y15600000D01*
X8500000Y29500000D02*
X7500000Y28500000D01*
D58*
X899000Y47774562D02*
X899000Y47000000D01*
X19794400Y37085600D02*
X19800000Y37080000D01*
X9000000Y37500000D02*
X9500000Y37500000D01*
D59*
X12500000Y11630000D02*
X12500000Y12400000D01*
D60*
X15000000Y18100000D02*
X12750000Y15850000D01*
X11400000Y45150000D02*
X9075000Y45150000D01*
D58*
X20800000Y37503412D02*
X21425624Y38129036D01*
D60*
X8500000Y30420000D02*
X8500000Y29500000D01*
D59*
X12880000Y11250000D02*
X12500000Y11630000D01*
D60*
X6600000Y45150000D02*
X7000000Y45150000D01*
D58*
X1000000Y49500000D02*
X1700000Y48800000D01*
D59*
X13746532Y26799000D02*
X13401000Y27144532D01*
D58*
X4100000Y48900000D02*
X3500000Y49500000D01*
X15350000Y43750000D02*
X15350000Y45750000D01*
X1700000Y47975000D02*
X1099438Y47975000D01*
X12200000Y34950000D02*
X12950000Y35700000D01*
X12000000Y21730000D02*
X12000000Y22500000D01*
D60*
X6100000Y45150000D02*
X6000000Y45050000D01*
D58*
X3790207Y11364580D02*
X3790207Y13265673D01*
D59*
X20240000Y22600000D02*
X19600000Y22600000D01*
D60*
X7391249Y10906798D02*
X7391249Y10021249D01*
D59*
X24691227Y24708773D02*
X24691227Y25389933D01*
D60*
X13000000Y16100000D02*
X12750000Y15850000D01*
D58*
X8243202Y10906798D02*
X8750000Y10400000D01*
X1099438Y47975000D02*
X899000Y47774562D01*
D59*
X14661499Y26799000D02*
X13746532Y26799000D01*
D58*
X12450000Y22950000D02*
X12000000Y22500000D01*
X7580000Y41170000D02*
X7150000Y41600000D01*
X16801987Y33344465D02*
X18104465Y33344465D01*
D59*
X4324534Y13800000D02*
X4800000Y13800000D01*
X19600000Y22600000D02*
X19500000Y22700000D01*
D58*
X19794400Y38053165D02*
X19794400Y37085600D01*
X12200000Y34950000D02*
X10550000Y34950000D01*
D60*
X2900000Y31640000D02*
X2900000Y32500000D01*
X7000000Y45150000D02*
X6100000Y45150000D01*
D58*
X4125000Y48000000D02*
X4100000Y47975000D01*
D60*
X7597406Y25200000D02*
X6897406Y24500000D01*
D58*
X4900000Y20520000D02*
X4900000Y19480000D01*
X9500000Y37500000D02*
X9700000Y37700000D01*
D60*
X16848813Y9848813D02*
X17120000Y10120000D01*
X6198094Y11578259D02*
X6450000Y11830165D01*
D58*
X5044774Y16844774D02*
X4100000Y15900000D01*
X7391249Y10906798D02*
X8243202Y10906798D01*
X19870271Y38129036D02*
X19794400Y38053165D01*
X8725000Y40325000D02*
X8725000Y41170000D01*
X5044774Y17000000D02*
X4782710Y17000000D01*
D59*
X13401000Y29599000D02*
X13100000Y29900000D01*
D60*
X6020000Y31400000D02*
X5300000Y31400000D01*
X1100000Y31640000D02*
X1100000Y32400000D01*
D59*
X7300000Y14984912D02*
X6916088Y14601000D01*
X13401000Y27144532D02*
X13401000Y29599000D01*
D60*
X7000000Y45150000D02*
X8925000Y45150000D01*
D58*
X9700000Y37700000D02*
X9700000Y39350000D01*
D59*
X4255880Y12800000D02*
X3790207Y13265673D01*
D58*
X17696571Y38056958D02*
X17696571Y37081571D01*
X5500000Y48000000D02*
X4125000Y48000000D01*
X4116620Y17000000D02*
X5044774Y17000000D01*
X21425624Y38129036D02*
X19870271Y38129036D01*
D59*
X19500000Y22700000D02*
X19500000Y23080000D01*
D60*
X12500000Y47100000D02*
X14000000Y48600000D01*
X12000000Y16600000D02*
X12750000Y15850000D01*
D59*
X15000000Y27800000D02*
X15000000Y27137501D01*
D58*
X5044774Y17000000D02*
X5044774Y16844774D01*
D59*
X15000000Y27137501D02*
X14661499Y26799000D01*
D58*
X20800000Y37080000D02*
X20800000Y37503412D01*
X18110000Y26950000D02*
X17253359Y26950000D01*
D60*
X6450000Y11830165D02*
X6450000Y12150000D01*
X13000000Y19300000D02*
X13000000Y16100000D01*
D59*
X6700000Y28800000D02*
X7200000Y28800000D01*
X4800000Y13300000D02*
X3824534Y13300000D01*
D60*
X17120000Y10120000D02*
X17120000Y10800000D01*
D58*
X4782710Y17000000D02*
X4365548Y16582838D01*
X4880000Y20500000D02*
X4235200Y20500000D01*
D60*
X16848813Y9752220D02*
X16848813Y9848813D01*
D58*
X17690000Y36075000D02*
X17690000Y37075000D01*
X4235200Y20500000D02*
X3787561Y20947639D01*
D60*
X7391249Y10021249D02*
X7370000Y10000000D01*
X7150000Y41600000D02*
X7375000Y41825000D01*
X7375000Y41825000D02*
X7375000Y43875000D01*
D58*
X11500000Y39000000D02*
X11150000Y39350000D01*
D60*
X9300000Y16600000D02*
X12000000Y16600000D01*
D59*
X7300000Y15520000D02*
X7300000Y14984912D01*
X4800000Y12800000D02*
X4255880Y12800000D01*
D58*
X13500000Y22950000D02*
X12450000Y22950000D01*
D59*
%TO.N,+3V3*%
X6188000Y29012000D02*
X6188000Y29563000D01*
X6500000Y29300000D02*
X6700000Y29300000D01*
X6200000Y29000000D02*
X6188000Y29012000D01*
D60*
X21144112Y20455888D02*
X21089990Y20455888D01*
X6450000Y13299000D02*
X6450000Y13950000D01*
X18272183Y23950000D02*
X18272183Y23827817D01*
X21600000Y9600000D02*
X18100000Y9600000D01*
X17500000Y9000000D02*
X16638471Y9000000D01*
X6700000Y9900000D02*
X6700000Y9300000D01*
D58*
X8500000Y31800000D02*
X8500000Y31966251D01*
X8500000Y31966251D02*
X8963104Y32429355D01*
X6980000Y32630000D02*
X7400000Y33050000D01*
D60*
X9300000Y9200000D02*
X10500000Y10400000D01*
X19450943Y14101000D02*
X18281000Y14101000D01*
X16200000Y18900000D02*
X16200000Y18600000D01*
X16638471Y9000000D02*
X16037471Y9601000D01*
D58*
X7450000Y33000000D02*
X7400000Y33050000D01*
D62*
X9600000Y32100000D02*
X8793235Y32906765D01*
D60*
X6431249Y10954296D02*
X6431249Y10906798D01*
D59*
X8000000Y31000000D02*
X8000000Y31240134D01*
D60*
X22200000Y18900000D02*
X20500000Y17200000D01*
X12501000Y9601000D02*
X12500000Y9600000D01*
D58*
X8500000Y33000000D02*
X7450000Y33000000D01*
D60*
X3200000Y41090000D02*
X3200000Y38700000D01*
X22500000Y18600000D02*
X22500000Y10500000D01*
D62*
X5550000Y33050000D02*
X4075000Y34525000D01*
D60*
X12500000Y9600000D02*
X11700000Y10400000D01*
X20500000Y17200000D02*
X20500000Y15150057D01*
X12000000Y11330000D02*
X11920000Y11250000D01*
X12000000Y19300000D02*
X12000000Y20770000D01*
X11700000Y10400000D02*
X11920000Y10620000D01*
X18272183Y23827817D02*
X18900000Y23200000D01*
X5450000Y12150000D02*
X5450000Y12714126D01*
D59*
X4900000Y26200000D02*
X4900000Y27249000D01*
D60*
X19140000Y17800000D02*
X18000000Y16660000D01*
X16037471Y9601000D02*
X12501000Y9601000D01*
D59*
X8000000Y31240134D02*
X7139866Y31240134D01*
D60*
X5450000Y10965549D02*
X5391249Y10906798D01*
D58*
X9600000Y33050000D02*
X9127689Y33050000D01*
D59*
X6980000Y30980000D02*
X6188000Y30188000D01*
D60*
X11830000Y20770000D02*
X10900000Y21700000D01*
D62*
X4300000Y32000000D02*
X5350000Y33050000D01*
D59*
X6200000Y29000000D02*
X6500000Y29300000D01*
D60*
X20500000Y17200000D02*
X19800000Y17200000D01*
D59*
X6700000Y29700000D02*
X8000000Y31000000D01*
X5688000Y28488000D02*
X6200000Y29000000D01*
D60*
X12000000Y12400000D02*
X12000000Y11330000D01*
X7100000Y11623047D02*
X6431249Y10954296D01*
X3200000Y38700000D02*
X4500000Y37400000D01*
X19800000Y17200000D02*
X19200000Y17800000D01*
D62*
X8793235Y32906765D02*
X7968442Y32906765D01*
D59*
X5688000Y28037000D02*
X5688000Y28488000D01*
D60*
X6431249Y10168751D02*
X6700000Y9900000D01*
X14805000Y33050000D02*
X14850000Y33005000D01*
D62*
X5350000Y33050000D02*
X7400000Y33050000D01*
D60*
X6431249Y10906798D02*
X6431249Y10168751D01*
D59*
X6700000Y29300000D02*
X6700000Y29700000D01*
D60*
X10900000Y21700000D02*
X10280000Y21700000D01*
X7100000Y12300000D02*
X7100000Y11623047D01*
X10200000Y25200000D02*
X10200000Y26700000D01*
D59*
X4900000Y27249000D02*
X5688000Y28037000D01*
X6980000Y31400000D02*
X6980000Y30980000D01*
D60*
X19200000Y23600000D02*
X18900000Y23300000D01*
X20240000Y23600000D02*
X19200000Y23600000D01*
D58*
X6980000Y31400000D02*
X6980000Y32630000D01*
D60*
X5450000Y12714126D02*
X5735874Y13000000D01*
X4500000Y37400000D02*
X7400000Y37400000D01*
X10650000Y10400000D02*
X11700000Y10400000D01*
X5735874Y13000000D02*
X6151000Y13000000D01*
D59*
X8000000Y31000000D02*
X8380000Y31380000D01*
D60*
X20500000Y15150057D02*
X19450943Y14101000D01*
D59*
X7139866Y31240134D02*
X6980000Y31400000D01*
D60*
X22200000Y19400000D02*
X21144112Y20455888D01*
D58*
X8500000Y31800000D02*
X8500000Y33000000D01*
X9127689Y33050000D02*
X8701782Y33475907D01*
D60*
X22200000Y19400000D02*
X22200000Y18900000D01*
D62*
X7400000Y39350000D02*
X7400000Y37400000D01*
D60*
X10280000Y22520000D02*
X10280000Y21700000D01*
X9700000Y23100000D02*
X10280000Y22520000D01*
X12000000Y20770000D02*
X11830000Y20770000D01*
X12200000Y33050000D02*
X14805000Y33050000D01*
X11920000Y10620000D02*
X11920000Y11250000D01*
X18900000Y21900000D02*
X18900000Y23200000D01*
X22200000Y18900000D02*
X22500000Y18600000D01*
X22500000Y10500000D02*
X21600000Y9600000D01*
D62*
X7400000Y37400000D02*
X7400000Y33050000D01*
D60*
X5391249Y10906798D02*
X6431249Y10906798D01*
D58*
X9600000Y33050000D02*
X12200000Y33050000D01*
D60*
X16600000Y19300000D02*
X16200000Y18900000D01*
D59*
X6188000Y30188000D02*
X6188000Y29563000D01*
X8380000Y31380000D02*
X8500000Y31380000D01*
D60*
X5450000Y12150000D02*
X5450000Y10965549D01*
X18900000Y23300000D02*
X18900000Y23200000D01*
X10500000Y10400000D02*
X10650000Y10400000D01*
X6151000Y13000000D02*
X6450000Y13299000D01*
X18281000Y14101000D02*
X18000000Y13820000D01*
D58*
X8500000Y31380000D02*
X8500000Y31800000D01*
D60*
X19200000Y17800000D02*
X19140000Y17800000D01*
X18100000Y9600000D02*
X17500000Y9000000D01*
D59*
X8360134Y31240134D02*
X8000000Y31240134D01*
D62*
X7400000Y33050000D02*
X5550000Y33050000D01*
D59*
X8500000Y31380000D02*
X8360134Y31240134D01*
D62*
X4075000Y34525000D02*
X2000000Y34525000D01*
D59*
%TO.N,/I2C_SDA*%
X3100000Y14400000D02*
X5252000Y14400000D01*
X600000Y23000000D02*
X600000Y15600000D01*
X19000000Y14780000D02*
X18000000Y14780000D01*
X17200000Y15270001D02*
X17200000Y15800000D01*
X4898182Y28800000D02*
X5176000Y28800000D01*
X17690001Y14780000D02*
X17200000Y15270001D01*
X18000000Y14780000D02*
X17690001Y14780000D01*
X600000Y15600000D02*
X1400000Y14800000D01*
X16900000Y16100000D02*
X16200000Y16100000D01*
X5450000Y14202000D02*
X5450000Y13950000D01*
X2700000Y14800000D02*
X3100000Y14400000D01*
X17200000Y15800000D02*
X16900000Y16100000D01*
X4449091Y28350909D02*
X4898182Y28800000D01*
X1400000Y14800000D02*
X2700000Y14800000D01*
X2000000Y24400000D02*
X600000Y23000000D01*
X5252000Y14400000D02*
X5450000Y14202000D01*
%TO.N,/I2C_SCL*%
X3233010Y17133010D02*
X3233010Y15117601D01*
X18000000Y15700000D02*
X19300000Y15700000D01*
X5800000Y14800000D02*
X5950000Y14650000D01*
X3600000Y27300000D02*
X3600000Y29700000D01*
X2600000Y26900000D02*
X3200000Y26900000D01*
X5950000Y14650000D02*
X5950000Y13950000D01*
X17100000Y16600000D02*
X18000000Y15700000D01*
X16200000Y16600000D02*
X17100000Y16600000D01*
X5688000Y30012000D02*
X5688000Y29563000D01*
X3233010Y15117601D02*
X3550611Y14800000D01*
X3000000Y23200000D02*
X3200000Y23400000D01*
X2100000Y26400000D02*
X2600000Y26900000D01*
X2100000Y25927760D02*
X2100000Y26400000D01*
X3200000Y26900000D02*
X3600000Y27300000D01*
X3200000Y24827760D02*
X2100000Y25927760D01*
X3400000Y17300000D02*
X3233010Y17133010D01*
X5500000Y30200000D02*
X5688000Y30012000D01*
X3550611Y14800000D02*
X5800000Y14800000D01*
X3200000Y23400000D02*
X3200000Y24827760D01*
X4100000Y30200000D02*
X5500000Y30200000D01*
X3600000Y29700000D02*
X4100000Y30200000D01*
%TO.N,/~{RESET}*%
X21600000Y24900000D02*
X23700000Y24900000D01*
X8930000Y26030000D02*
X9000000Y26100000D01*
X20727059Y21952309D02*
X20727059Y21672941D01*
X21200000Y22000000D02*
X21200000Y22600000D01*
X21200000Y23600000D02*
X21200000Y24500000D01*
X21200000Y22600000D02*
X21200000Y23600000D01*
X21200000Y24500000D02*
X21600000Y24900000D01*
X24250000Y20350000D02*
X24250000Y11250000D01*
X21152309Y21952309D02*
X21200000Y22000000D01*
X8930000Y25200000D02*
X8930000Y26030000D01*
X14000000Y19300000D02*
X14000000Y19927000D01*
X23800000Y19900000D02*
X24250000Y20350000D01*
X20727059Y21952309D02*
X21152309Y21952309D01*
X24130000Y24470000D02*
X24130000Y24000000D01*
X22500000Y19900000D02*
X23800000Y19900000D01*
X20727059Y21672941D02*
X22500000Y19900000D01*
X14373000Y20300000D02*
X14600000Y20300000D01*
X14000000Y19927000D02*
X14373000Y20300000D01*
X23700000Y24900000D02*
X24130000Y24470000D01*
%TO.N,/XIN32*%
X9300000Y19350000D02*
X7250000Y21400000D01*
X6820000Y21480000D02*
X6900000Y21400000D01*
X7250000Y21400000D02*
X6900000Y21400000D01*
X4900000Y21480000D02*
X6820000Y21480000D01*
X9300000Y18600000D02*
X9300000Y19350000D01*
%TO.N,/XOUT32*%
X6900000Y18150000D02*
X6900000Y18900000D01*
X9300000Y18100000D02*
X8600000Y18100000D01*
X4900000Y18520000D02*
X6520000Y18520000D01*
X7250000Y17800000D02*
X6900000Y18150000D01*
X8600000Y18100000D02*
X8300000Y17800000D01*
X8300000Y17800000D02*
X7250000Y17800000D01*
X6520000Y18520000D02*
X6900000Y18900000D01*
D62*
%TO.N,/USB_SHIELD*%
X22865000Y25830000D02*
X22865000Y34470000D01*
X22865000Y34470000D02*
X18685000Y34470000D01*
D58*
X18650000Y37075000D02*
X18650000Y36075000D01*
X18685000Y34470000D02*
X18685000Y36040000D01*
D62*
X18685000Y25830000D02*
X22865000Y25830000D01*
D58*
X18685000Y36040000D02*
X18650000Y36075000D01*
D62*
%TO.N,+5V*%
X5100000Y39350000D02*
X5100000Y41450000D01*
X4250000Y40650000D02*
X4300000Y40650000D01*
D60*
X14000000Y40650000D02*
X13460000Y41190000D01*
D62*
X18000000Y42600000D02*
X16050000Y40650000D01*
D60*
X13460000Y41190000D02*
X9725000Y41190000D01*
D62*
X5100000Y41450000D02*
X5250000Y41600000D01*
D60*
X15150000Y40650000D02*
X14000000Y40650000D01*
D62*
X18000000Y43550000D02*
X18000000Y42600000D01*
X4250000Y40650000D02*
X5100000Y39800000D01*
X4300000Y40650000D02*
X5250000Y41600000D01*
X16050000Y40650000D02*
X15150000Y40650000D01*
X21400000Y48250000D02*
X21400000Y46950000D01*
X21400000Y46950000D02*
X18000000Y43550000D01*
X5100000Y39800000D02*
X5100000Y39350000D01*
D59*
%TO.N,/PVDD*%
X1638000Y43800000D02*
X1600000Y43838000D01*
D60*
X11400000Y44500000D02*
X12200000Y44500000D01*
D59*
X12200000Y45000000D02*
X12450000Y44750000D01*
X13400000Y45800000D02*
X13450000Y45750000D01*
X12200000Y45000000D02*
X12200000Y44500000D01*
X12200000Y45800000D02*
X12200000Y45000000D01*
X12200000Y45800000D02*
X13400000Y45800000D01*
D60*
X12200000Y44500000D02*
X12450000Y44750000D01*
D59*
X5700000Y43800000D02*
X1638000Y43800000D01*
D60*
X12450000Y44750000D02*
X13450000Y45750000D01*
%TO.N,/VDD*%
X10625000Y43875000D02*
X13325000Y43875000D01*
X13325000Y43875000D02*
X13450000Y43750000D01*
D59*
%TO.N,/BST*%
X2900000Y45600000D02*
X2338000Y46162000D01*
X4775000Y45600000D02*
X2900000Y45600000D01*
X4775000Y45600000D02*
X5600000Y45600000D01*
X2338000Y46162000D02*
X1600000Y46162000D01*
X5800000Y45800000D02*
X6600000Y45800000D01*
X5600000Y45600000D02*
X5800000Y45800000D01*
D60*
%TO.N,/SW*%
X10050000Y46450000D02*
X10000000Y46500000D01*
X11400000Y46450000D02*
X10050000Y46450000D01*
X10000000Y46500000D02*
X10000000Y47290000D01*
X10000000Y47290000D02*
X9500000Y47790000D01*
D59*
X4775000Y44640000D02*
X4915000Y44500000D01*
X4060000Y44640000D02*
X3800000Y44900000D01*
X4915000Y44500000D02*
X6600000Y44500000D01*
X4775000Y44640000D02*
X4060000Y44640000D01*
D60*
%TO.N,/FB*%
X10725000Y42150000D02*
X8745000Y42150000D01*
X8745000Y42150000D02*
X8725000Y42130000D01*
X8025000Y42830000D02*
X8025000Y43875000D01*
X8725000Y42130000D02*
X8025000Y42830000D01*
D59*
%TO.N,+BATT*%
X6600000Y46450000D02*
X4855000Y46450000D01*
X10200000Y43250000D02*
X11150000Y43250000D01*
X9975000Y43475000D02*
X10200000Y43250000D01*
X9975000Y43875000D02*
X9975000Y43475000D01*
X4855000Y46450000D02*
X4755000Y46550000D01*
%TO.N,/BMP_INT*%
X16400000Y12900000D02*
X16200000Y13100000D01*
X22240814Y21739909D02*
X21950813Y22029909D01*
X22910091Y21739909D02*
X22240814Y21739909D01*
X19100000Y12900000D02*
X16400000Y12900000D01*
X10300000Y28100000D02*
X9300000Y28100000D01*
X9300000Y28100000D02*
X7700000Y26500000D01*
X7700000Y26500000D02*
X7100000Y26500000D01*
X13200000Y31000000D02*
X10300000Y28100000D01*
X17803215Y25029000D02*
X17200000Y25632215D01*
X23050000Y21600000D02*
X22910091Y21739909D01*
X7100000Y26500000D02*
X6188000Y27412000D01*
X17200000Y25632215D02*
X17200000Y26100000D01*
X14600000Y31000000D02*
X13200000Y31000000D01*
X6188000Y27412000D02*
X6188000Y28037000D01*
X19971000Y25029000D02*
X17803215Y25029000D01*
X20600000Y24400000D02*
X19971000Y25029000D01*
X23700000Y16800000D02*
X23700000Y18400000D01*
%TO.N,/SDO*%
X3940000Y26540000D02*
X4300000Y26900000D01*
X3940000Y26200000D02*
X3940000Y26540000D01*
X10500000Y30500000D02*
X7300000Y27300000D01*
X4300000Y27424000D02*
X5176000Y28300000D01*
X3940000Y25460000D02*
X3940000Y26200000D01*
X4100000Y25300000D02*
X3940000Y25460000D01*
X7300000Y27300000D02*
X7200000Y27300000D01*
X4900000Y25300000D02*
X4100000Y25300000D01*
X4300000Y26900000D02*
X4300000Y27424000D01*
%TO.N,/GPIO5*%
X9300000Y13600000D02*
X8700000Y13600000D01*
X8700000Y13600000D02*
X8200000Y13100000D01*
%TO.N,/PG_5V*%
X22100000Y21338909D02*
X22877818Y20561091D01*
X22877818Y20561091D02*
X23038909Y20561091D01*
X17185555Y13600000D02*
X16200000Y13600000D01*
X18400000Y24600000D02*
X18741571Y24258429D01*
X13800000Y35000000D02*
X13800000Y34000000D01*
X23000000Y16000000D02*
X23000000Y19100000D01*
X17240150Y13654595D02*
X17185555Y13600000D01*
X21838909Y21338909D02*
X22100000Y21338909D01*
X17100000Y24600000D02*
X18400000Y24600000D01*
X23200000Y15800000D02*
X23000000Y16000000D01*
X18741571Y24258429D02*
X19690100Y24258429D01*
X8675000Y43875000D02*
X8675000Y43175000D01*
X8675000Y43175000D02*
X8850000Y43000000D01*
X17240150Y13654595D02*
X17122332Y13654595D01*
%TO.N,/xGPIO11*%
X14000000Y11577818D02*
X14000000Y12400000D01*
X15590822Y10569096D02*
X15008722Y10569096D01*
X15008722Y10569096D02*
X14000000Y11577818D01*
%TO.N,/GPIO9*%
X11000000Y12400000D02*
X11000000Y11639132D01*
X11000000Y11639132D02*
X10999887Y11639019D01*
%TO.N,/GPIO7*%
X9400000Y12100000D02*
X9400000Y12200000D01*
X9400000Y12200000D02*
X9600000Y12400000D01*
X9600000Y12400000D02*
X10000000Y12400000D01*
%TO.N,/xGPIO12*%
X16238245Y11117970D02*
X16237119Y11119096D01*
X16237119Y11119096D02*
X15103904Y11119096D01*
X15103904Y11119096D02*
X14500000Y11723000D01*
X14500000Y11723000D02*
X14500000Y12400000D01*
%TO.N,/GPIO0*%
X6600000Y17100000D02*
X6100000Y17600000D01*
X9300000Y17100000D02*
X6600000Y17100000D01*
X4000000Y17600000D02*
X3060000Y18540000D01*
X6100000Y17600000D02*
X4000000Y17600000D01*
X3060000Y18540000D02*
X2000000Y18540000D01*
%TO.N,/~{MCU_LED_STAT}*%
X21022182Y19777818D02*
X21425735Y19374265D01*
X16200000Y14100000D02*
X16833363Y14100000D01*
X21425735Y19374265D02*
X21425735Y18974265D01*
X7302700Y22702700D02*
X5797300Y22702700D01*
X1400000Y40050000D02*
X1800000Y39650000D01*
X5797300Y22702700D02*
X5000000Y23500000D01*
X21100000Y16700000D02*
X21800000Y17400000D01*
X2800000Y26032900D02*
X2800000Y26300000D01*
X21100000Y14600000D02*
X21100000Y16700000D01*
X7400000Y22800000D02*
X7302700Y22702700D01*
X5600000Y35400000D02*
X5700000Y35400000D01*
X1800000Y39200000D02*
X5600000Y35400000D01*
X16833363Y14100000D02*
X17065934Y14332571D01*
X7800000Y22800000D02*
X7400000Y22800000D01*
X21425735Y18974265D02*
X20825735Y18374265D01*
X20899999Y19777818D02*
X21022182Y19777818D01*
X8338909Y22261091D02*
X7800000Y22800000D01*
X5000000Y23500000D02*
X5000000Y23832900D01*
X5000000Y23832900D02*
X2800000Y26032900D01*
X1800000Y39650000D02*
X1800000Y39200000D01*
%TO.N,/xGPIO13*%
X18100000Y11700000D02*
X18067970Y11667970D01*
X15232030Y11667970D02*
X15000000Y11900000D01*
X18067970Y11667970D02*
X15232030Y11667970D01*
X15000000Y11900000D02*
X15000000Y12400000D01*
%TO.N,/xGPIO10*%
X13500000Y12400000D02*
X13500000Y11300000D01*
X13500000Y11300000D02*
X13800000Y11000000D01*
D63*
%TO.N,/USB_D-*%
X18065350Y22529808D02*
X18065350Y22403356D01*
X18425350Y22073072D02*
X18425350Y22007572D01*
X18065350Y22668490D02*
X18065350Y22529808D01*
X18065350Y21090572D02*
X18065350Y21025072D01*
X18294350Y21221572D02*
X18196350Y21221572D01*
X18294350Y20566572D02*
X18196350Y20566572D01*
X15950000Y24342681D02*
X16827331Y23465350D01*
X18294350Y21876572D02*
X18196350Y21876572D01*
X18065350Y20435572D02*
X18065350Y20370072D01*
X18425350Y21418072D02*
X18425350Y21352572D01*
X16200000Y25525000D02*
X15950000Y25275000D01*
X18065350Y20370072D02*
X18065350Y20200000D01*
X17268490Y23465350D02*
X18065350Y22668490D01*
X18065350Y22403356D02*
X18065350Y22335072D01*
X15950000Y25275000D02*
X15950000Y24342681D01*
X16922151Y17184650D02*
X16837501Y17100000D01*
X18065350Y17931510D02*
X17318490Y17184650D01*
X18196350Y20894072D02*
X18294350Y20894072D01*
X16837501Y17100000D02*
X16200000Y17100000D01*
X18065350Y21745572D02*
X18065350Y21680072D01*
X18425350Y20763072D02*
X18425350Y20697572D01*
X16827331Y23465350D02*
X17268490Y23465350D01*
X18196350Y21549072D02*
X18294350Y21549072D01*
X18065350Y20200000D02*
X18065350Y17931510D01*
X18196350Y22204072D02*
X18294350Y22204072D01*
X17318490Y17184650D02*
X16922151Y17184650D01*
X18196350Y20566572D02*
G75*
G03*
X18065328Y20435572I-50J-130972D01*
G01*
X18294350Y22204072D02*
G75*
G02*
X18425372Y22073072I50J-130972D01*
G01*
X18294350Y20894072D02*
G75*
G02*
X18425372Y20763072I50J-130972D01*
G01*
X18065350Y22335072D02*
G75*
G03*
X18196350Y22204150I130950J28D01*
G01*
X18196350Y21221572D02*
G75*
G03*
X18065328Y21090572I-50J-130972D01*
G01*
X18065350Y21025072D02*
G75*
G03*
X18196350Y20894150I130950J28D01*
G01*
X18196350Y21876572D02*
G75*
G03*
X18065328Y21745572I-50J-130972D01*
G01*
X18065350Y21680072D02*
G75*
G03*
X18196350Y21549150I130950J28D01*
G01*
X18425350Y21352572D02*
G75*
G02*
X18294350Y21221650I-130950J28D01*
G01*
X18294350Y21549072D02*
G75*
G02*
X18425372Y21418072I50J-130972D01*
G01*
X18425350Y20697572D02*
G75*
G02*
X18294350Y20566650I-130950J28D01*
G01*
X18425350Y22007572D02*
G75*
G02*
X18294350Y21876650I-130950J28D01*
G01*
D59*
%TO.N,/SWCLK*%
X10700000Y21000000D02*
X10020000Y21000000D01*
X11500000Y19300000D02*
X11500000Y20200000D01*
X8930000Y22170000D02*
X8930000Y23930000D01*
X8350000Y23350000D02*
X8930000Y23930000D01*
X11500000Y20200000D02*
X10700000Y21000000D01*
X9320000Y21700000D02*
X9320000Y21780000D01*
X9320000Y21780000D02*
X8930000Y22170000D01*
X10020000Y21000000D02*
X9320000Y21700000D01*
%TO.N,/GPIO2*%
X8081245Y15100000D02*
X9300000Y15100000D01*
X7965683Y14984438D02*
X8081245Y15100000D01*
%TO.N,/SWDIO*%
X10730000Y23400000D02*
X10200000Y23930000D01*
X10377000Y20600000D02*
X9100000Y20600000D01*
X15100000Y22900000D02*
X15500000Y22900000D01*
X12600000Y24100000D02*
X11900000Y23400000D01*
X11000000Y23400000D02*
X10730000Y23400000D01*
X11000000Y19300000D02*
X11000000Y19977000D01*
X12600000Y24100000D02*
X13900000Y24100000D01*
X22578484Y24000000D02*
X22860000Y24000000D01*
X14800000Y23200000D02*
X15100000Y22900000D01*
X21976645Y24298827D02*
X22279657Y24298827D01*
X11000000Y19977000D02*
X10377000Y20600000D01*
X13900000Y24100000D02*
X14800000Y23200000D01*
X22279657Y24298827D02*
X22578484Y24000000D01*
X11900000Y23400000D02*
X11000000Y23400000D01*
%TO.N,/GPIO8*%
X10451000Y12351000D02*
X10500000Y12400000D01*
X10123810Y11524998D02*
X10301998Y11524998D01*
X10301998Y11524998D02*
X10451000Y11674000D01*
X10451000Y11674000D02*
X10451000Y12351000D01*
X10121182Y11522370D02*
X10123810Y11524998D01*
%TO.N,/GPIO3*%
X7622407Y14433438D02*
X8193915Y14433438D01*
X8360477Y14600000D02*
X9300000Y14600000D01*
X7585590Y14396621D02*
X7622407Y14433438D01*
X8193915Y14433438D02*
X8360477Y14600000D01*
%TO.N,/GPIO4*%
X8100000Y13883438D02*
X8211015Y13883438D01*
X8211015Y13883438D02*
X8427577Y14100000D01*
X8427577Y14100000D02*
X9300000Y14100000D01*
%TO.N,/GPIO6*%
X9300000Y13100000D02*
X9300000Y13000000D01*
X9300000Y13000000D02*
X8800000Y12500000D01*
%TO.N,/xGPIO14*%
X15500000Y12400000D02*
X16100000Y12400000D01*
D63*
%TO.N,/USB_D+*%
X17181510Y17515350D02*
X16922151Y17515350D01*
X14300000Y24800000D02*
X14600000Y24500000D01*
X17734650Y18068490D02*
X17181510Y17515350D01*
X16922151Y17515350D02*
X16837501Y17600000D01*
X14300000Y25525000D02*
X14300000Y24800000D01*
X15325000Y24500000D02*
X16690350Y23134650D01*
X16837501Y17600000D02*
X16200000Y17600000D01*
X17734650Y22531510D02*
X17734650Y18068490D01*
X17131510Y23134650D02*
X17734650Y22531510D01*
X16690350Y23134650D02*
X17131510Y23134650D01*
X14600000Y24500000D02*
X15325000Y24500000D01*
D59*
%TO.N,/GPIO1*%
X8151470Y15600000D02*
X9300000Y15600000D01*
X8075735Y15675735D02*
X8151470Y15600000D01*
%TO.N,/USB_CC2*%
X19800000Y36120000D02*
X19800000Y35500000D01*
X16700000Y31900000D02*
X18110000Y31900000D01*
D60*
%TO.N,V_{USB}*%
X18639534Y32550000D02*
X18110000Y32550000D01*
X18110000Y27750000D02*
X18648281Y27750000D01*
X18648281Y27750000D02*
X18998281Y28100000D01*
D59*
X15000000Y26187499D02*
X15000000Y25525000D01*
D60*
X18998281Y28100000D02*
X20400000Y28100000D01*
X19089534Y32100000D02*
X18639534Y32550000D01*
D59*
X17275178Y27750000D02*
X16311678Y26786500D01*
X18110000Y27750000D02*
X17275178Y27750000D01*
X15599001Y26786500D02*
X15000000Y26187499D01*
D60*
X20500000Y32100000D02*
X19089534Y32100000D01*
X20800000Y28500000D02*
X20800000Y31800000D01*
X20800000Y31800000D02*
X20500000Y32100000D01*
X20400000Y28100000D02*
X20800000Y28500000D01*
D59*
X16311678Y26786500D02*
X15599001Y26786500D01*
D63*
%TO.N,/USB_o_D-*%
X17607850Y30484650D02*
X17202331Y30484650D01*
X15950000Y29232319D02*
X15950000Y27800000D01*
X17202331Y30484650D02*
X15950000Y29232319D01*
X19200000Y30400000D02*
X17692500Y30400000D01*
X19800859Y29371737D02*
X19772596Y29400000D01*
X19772596Y29400000D02*
X18117500Y29400000D01*
D59*
%TO.N,/USB_CC1*%
X19200000Y28700000D02*
X19000000Y28900000D01*
X19000000Y28900000D02*
X18110000Y28900000D01*
X20800000Y36120000D02*
X20800000Y35500000D01*
D63*
%TO.N,/USB_o_D+*%
X15250000Y29000000D02*
X14700000Y29000000D01*
X14700000Y29000000D02*
X14050000Y28350000D01*
X18561056Y30985250D02*
X18555514Y30979708D01*
X19514750Y30985250D02*
X18561056Y30985250D01*
X17065350Y30815350D02*
X15250000Y29000000D01*
X19585250Y29885250D02*
X19900000Y30200000D01*
X19900000Y30200000D02*
X19900000Y30600000D01*
X18132250Y29885250D02*
X19585250Y29885250D01*
X19900000Y30600000D02*
X19514750Y30985250D01*
X17607850Y30815350D02*
X17065350Y30815350D01*
X18117500Y29900000D02*
X18132250Y29885250D01*
X14050000Y28350000D02*
X14050000Y27800000D01*
D60*
%TO.N,/VDDANA*%
X8120000Y16480000D02*
X6580000Y16480000D01*
X6580000Y16480000D02*
X6000000Y15900000D01*
X9300000Y16100000D02*
X8500000Y16100000D01*
X8500000Y16100000D02*
X8120000Y16480000D01*
%TO.N,/VDDCORE*%
X13500000Y21050000D02*
X15550000Y21050000D01*
X12500000Y20050000D02*
X13500000Y21050000D01*
X15550000Y21050000D02*
X16000000Y21500000D01*
X12500000Y19300000D02*
X12500000Y20050000D01*
D59*
%TO.N,/RESET_o*%
X21600000Y13900000D02*
X21200000Y13500000D01*
X19750000Y20350000D02*
X19750000Y18500000D01*
X21200000Y13500000D02*
X21200000Y13100000D01*
X20200000Y19900000D02*
X19750000Y20350000D01*
X18530000Y11250000D02*
X19750000Y11250000D01*
X18080000Y10800000D02*
X18530000Y11250000D01*
X19750000Y11650000D02*
X19750000Y11250000D01*
X19750000Y18500000D02*
X19800000Y18450000D01*
X21200000Y13100000D02*
X19750000Y11650000D01*
%TO.N,/EN*%
X3050000Y46550000D02*
X3795000Y46550000D01*
X9325000Y43875000D02*
X9325000Y43347182D01*
X9325000Y43347182D02*
X9686091Y42986091D01*
D60*
%TO.N,/PWRLED_o*%
X14850000Y34025000D02*
X14850000Y37300000D01*
%TO.N,/MCULED_o*%
X3200000Y42110000D02*
X1560000Y42110000D01*
X1560000Y42110000D02*
X1400000Y41950000D01*
%TD*%
%TA.AperFunction,Conductor*%
%TO.N,+5V*%
G36*
X22800000Y59576471D02*
G01*
X22800000Y59576470D01*
X24428539Y57181561D01*
X24449958Y57115056D01*
X24450000Y57111835D01*
X24450000Y55474000D01*
X24430315Y55406961D01*
X24377511Y55361206D01*
X24326000Y55350000D01*
X23500000Y55350000D01*
X22499999Y54850000D01*
X22050000Y53900003D01*
X22498988Y50407872D01*
X22500000Y50392059D01*
X22500000Y46224000D01*
X22480315Y46156961D01*
X22427511Y46111206D01*
X22376000Y46100000D01*
X20424000Y46100000D01*
X20356961Y46119685D01*
X20311206Y46172489D01*
X20300000Y46224000D01*
X20300000Y49900000D01*
X17512703Y55574141D01*
X17500000Y55628813D01*
X17500000Y55900000D01*
X22000000Y55900000D01*
X22750000Y59650000D01*
X22800000Y59576471D01*
G37*
%TD.AperFunction*%
%TD*%
%TA.AperFunction,Conductor*%
%TO.N,GND*%
G36*
X12300000Y46900000D02*
G01*
X12000625Y46900000D01*
X11957547Y46957545D01*
X11957544Y46957548D01*
X11842335Y47043794D01*
X11842328Y47043798D01*
X11707482Y47094092D01*
X11707483Y47094092D01*
X11647883Y47100499D01*
X11647881Y47100500D01*
X11647873Y47100500D01*
X11647865Y47100500D01*
X11224500Y47100500D01*
X11157461Y47120185D01*
X11111706Y47172989D01*
X11100500Y47224500D01*
X11100499Y49034045D01*
X11120184Y49101084D01*
X11127496Y49110156D01*
X11127231Y49110354D01*
X11132546Y49117454D01*
X11218796Y49232669D01*
X11269091Y49367517D01*
X11275500Y49427127D01*
X11275499Y49594875D01*
X11500000Y50100000D01*
X12300000Y50100000D01*
X12300000Y46900000D01*
G37*
%TD.AperFunction*%
%TD*%
%TA.AperFunction,Conductor*%
%TO.N,+5V*%
G36*
X10325322Y69487924D02*
G01*
X10560000Y69376000D01*
X13509662Y67969238D01*
X13561698Y67922612D01*
X13568789Y67909452D01*
X14372500Y66175128D01*
X14372502Y66175126D01*
X14500000Y65900000D01*
X11900000Y66300000D01*
X11899993Y66300007D01*
X11899985Y66300015D01*
X9700000Y68400000D01*
X8924000Y68400000D01*
X8856961Y68419685D01*
X8811206Y68472489D01*
X8800000Y68524000D01*
X8800000Y69376000D01*
X8819685Y69443039D01*
X8872489Y69488794D01*
X8924000Y69500000D01*
X10271944Y69500000D01*
X10325322Y69487924D01*
G37*
%TD.AperFunction*%
%TD*%
%TA.AperFunction,Conductor*%
%TO.N,/SW*%
G36*
X9034321Y60330315D02*
G01*
X9080076Y60277511D01*
X9081771Y60273627D01*
X11636150Y54133292D01*
X11643836Y54064471D01*
X10964701Y50149456D01*
X10955839Y50120289D01*
X10813564Y49800170D01*
X10790473Y49737285D01*
X10790472Y49737285D01*
X10769999Y49594875D01*
X10769999Y49517935D01*
X10763945Y49497320D01*
X10762647Y49475874D01*
X10751665Y49455499D01*
X10750314Y49450896D01*
X10746072Y49444714D01*
X10745649Y49444137D01*
X10722559Y49413291D01*
X10719034Y49407802D01*
X10716987Y49404964D01*
X10716871Y49404805D01*
X10694931Y49374380D01*
X10694929Y49374377D01*
X10692077Y49368132D01*
X10689141Y49361705D01*
X10688410Y49360103D01*
X10683344Y49352210D01*
X10676929Y49334965D01*
X10675063Y49330878D01*
X10675063Y49330877D01*
X10635163Y49243511D01*
X10615475Y49176463D01*
X10594999Y49034044D01*
X10594999Y47224509D01*
X10595000Y47224492D01*
X10599289Y47184609D01*
X10600000Y47171353D01*
X10600000Y46524000D01*
X10580315Y46456961D01*
X10527511Y46411206D01*
X10476000Y46400000D01*
X8524000Y46400000D01*
X8456961Y46419685D01*
X8411206Y46472489D01*
X8400000Y46524000D01*
X8400000Y49179877D01*
X8406363Y49219089D01*
X8500000Y49500000D01*
X8500000Y49874549D01*
X8510026Y49923395D01*
X8594410Y50120289D01*
X8950000Y50950000D01*
X8950000Y52950000D01*
X8950000Y52950001D01*
X8000003Y53949997D01*
X8000001Y53949999D01*
X7801470Y54100000D01*
X5799249Y55612790D01*
X5757627Y55668910D01*
X5750000Y55711726D01*
X5750000Y60226000D01*
X5769685Y60293039D01*
X5822489Y60338794D01*
X5874000Y60350000D01*
X8967282Y60350000D01*
X9034321Y60330315D01*
G37*
%TD.AperFunction*%
%TD*%
%TA.AperFunction,Conductor*%
%TO.N,+5V*%
G36*
X14500000Y65900000D02*
G01*
X14372502Y66175127D01*
X15500000Y65250000D01*
X21950000Y63550000D01*
X22548638Y63550000D01*
X22578078Y63541356D01*
X22608065Y63534832D01*
X22613080Y63531078D01*
X22615677Y63530315D01*
X22636319Y63513681D01*
X22763681Y63386319D01*
X22797166Y63324996D01*
X22800000Y63298638D01*
X22800000Y59576471D01*
X22750000Y59650000D01*
X22000000Y55900000D01*
X17500000Y55900000D01*
X17500000Y60399999D01*
X17499999Y60400001D01*
X14748750Y63298638D01*
X11900000Y66300000D01*
X14500000Y65900000D01*
G37*
%TD.AperFunction*%
%TD*%
%TA.AperFunction,Conductor*%
%TO.N,+BATT*%
G36*
X4277633Y54585032D02*
G01*
X7794080Y52680290D01*
X7843652Y52631052D01*
X7858029Y52586914D01*
X8199008Y49907795D01*
X8200000Y49892139D01*
X8200000Y49529273D01*
X8186909Y49473819D01*
X8050000Y49200001D01*
X8050000Y46524000D01*
X8030315Y46456961D01*
X7977511Y46411206D01*
X7926000Y46400000D01*
X7149995Y46400000D01*
X6816698Y46304771D01*
X6782633Y46300000D01*
X6524000Y46300000D01*
X6456961Y46319685D01*
X6411206Y46372489D01*
X6400000Y46424000D01*
X6400000Y47099997D01*
X6400000Y47100000D01*
X5800000Y48950000D01*
X3400000Y50350000D01*
X3399999Y50350000D01*
X951362Y50350000D01*
X921921Y50358645D01*
X891935Y50365168D01*
X886919Y50368923D01*
X884323Y50369685D01*
X863681Y50386319D01*
X836319Y50413681D01*
X802834Y50475004D01*
X800000Y50501362D01*
X800000Y51468232D01*
X815275Y51527855D01*
X1424706Y52639171D01*
X1436467Y52654837D01*
X1435558Y52655534D01*
X1440499Y52661976D01*
X1440509Y52661985D01*
X1512984Y52787515D01*
X1515738Y52797795D01*
X1526780Y52825306D01*
X2464697Y54535625D01*
X2514191Y54584939D01*
X2573421Y54600000D01*
X4218574Y54600000D01*
X4277633Y54585032D01*
G37*
%TD.AperFunction*%
%TD*%
%TA.AperFunction,Conductor*%
%TO.N,GND*%
G36*
X25888835Y21732779D02*
G01*
X25957534Y21664080D01*
X25994715Y21574321D01*
X25994716Y21477166D01*
X25957538Y21387406D01*
X25943228Y21373097D01*
X25999499Y3757545D01*
X25999135Y3743269D01*
X25981181Y3412148D01*
X25978266Y3385345D01*
X25925711Y3064774D01*
X25919915Y3038444D01*
X25833010Y2725437D01*
X25824401Y2699886D01*
X25704163Y2398112D01*
X25692842Y2373643D01*
X25540681Y2086639D01*
X25526782Y2063538D01*
X25344478Y1794658D01*
X25328162Y1773194D01*
X25328161Y1773193D01*
X25117863Y1525612D01*
X25099323Y1506040D01*
X24863487Y1282643D01*
X24842937Y1265187D01*
X24584318Y1068591D01*
X24562003Y1053462D01*
X24283663Y885990D01*
X24259842Y873361D01*
X23965018Y736961D01*
X23939972Y726981D01*
X23632128Y623256D01*
X23606150Y616044D01*
X23288887Y546209D01*
X23262281Y541847D01*
X23002951Y513644D01*
X22939347Y506726D01*
X22912428Y505266D01*
X22587572Y505266D01*
X22560652Y506726D01*
X22485689Y514879D01*
X22237718Y541847D01*
X22211112Y546209D01*
X21893849Y616044D01*
X21867871Y623256D01*
X21560027Y726981D01*
X21534981Y736961D01*
X21240157Y873361D01*
X21216336Y885990D01*
X20937996Y1053462D01*
X20915681Y1068591D01*
X20657062Y1265187D01*
X20655851Y1266555D01*
X20654223Y1267378D01*
X20636512Y1282643D01*
X20400676Y1506040D01*
X20382142Y1525605D01*
X20171836Y1773196D01*
X20155521Y1794658D01*
X19973217Y2063538D01*
X19959318Y2086639D01*
X19870858Y2253491D01*
X19807154Y2373648D01*
X19795841Y2398100D01*
X19675592Y2699903D01*
X19666992Y2725427D01*
X19580083Y3038448D01*
X19574288Y3064774D01*
X19556467Y3173475D01*
X19521732Y3385346D01*
X19518818Y3412148D01*
X19500865Y3743269D01*
X19500500Y3756750D01*
X19500500Y3901642D01*
X20050000Y3901642D01*
X20050000Y3598359D01*
X20083954Y3297020D01*
X20151434Y3001371D01*
X20151437Y3001361D01*
X20251594Y2715131D01*
X20251601Y2715115D01*
X20383169Y2441909D01*
X20544515Y2185127D01*
X20671871Y2025427D01*
X21813708Y3167265D01*
X21910967Y3033398D01*
X22033398Y2910967D01*
X22167261Y2813711D01*
X21032387Y1678837D01*
X21034072Y1664977D01*
X21185126Y1544516D01*
X21441908Y1383170D01*
X21715114Y1251602D01*
X21715130Y1251595D01*
X22001360Y1151438D01*
X22001370Y1151435D01*
X22297019Y1083955D01*
X22598358Y1050001D01*
X22598371Y1050000D01*
X22901629Y1050000D01*
X22901641Y1050001D01*
X23202980Y1083955D01*
X23498629Y1151435D01*
X23498639Y1151438D01*
X23784869Y1251595D01*
X23784885Y1251602D01*
X24058093Y1383171D01*
X24314872Y1544516D01*
X24474573Y1671874D01*
X23332737Y2813710D01*
X23466602Y2910967D01*
X23589033Y3033398D01*
X23686290Y3167263D01*
X24828126Y2025427D01*
X24955484Y2185128D01*
X25116829Y2441907D01*
X25248398Y2715115D01*
X25248405Y2715131D01*
X25348562Y3001361D01*
X25348565Y3001371D01*
X25416045Y3297020D01*
X25449999Y3598359D01*
X25450000Y3598372D01*
X25450000Y3901629D01*
X25449999Y3901642D01*
X25416045Y4202981D01*
X25348565Y4498630D01*
X25348562Y4498640D01*
X25248405Y4784870D01*
X25248398Y4784886D01*
X25116830Y5058092D01*
X24955484Y5314874D01*
X24828126Y5474576D01*
X23686289Y4332739D01*
X23589033Y4466602D01*
X23466602Y4589033D01*
X23332735Y4686292D01*
X24474573Y5828129D01*
X24314873Y5955485D01*
X24058091Y6116831D01*
X23784885Y6248399D01*
X23784869Y6248406D01*
X23498639Y6348563D01*
X23498629Y6348566D01*
X23202980Y6416046D01*
X22901641Y6450000D01*
X22598358Y6450000D01*
X22297019Y6416046D01*
X22001370Y6348566D01*
X22001360Y6348563D01*
X21715130Y6248406D01*
X21715114Y6248399D01*
X21441908Y6116831D01*
X21185125Y5955485D01*
X21025425Y5828129D01*
X22167263Y4686291D01*
X22033398Y4589033D01*
X21910967Y4466602D01*
X21813709Y4332737D01*
X20671871Y5474575D01*
X20544515Y5314875D01*
X20383169Y5058092D01*
X20251601Y4784886D01*
X20251594Y4784870D01*
X20151437Y4498640D01*
X20151434Y4498630D01*
X20083954Y4202981D01*
X20050000Y3901642D01*
X19500500Y3901642D01*
X19500500Y5131120D01*
X19494912Y5173561D01*
X19466270Y5391116D01*
X19398398Y5644419D01*
X19298043Y5886697D01*
X19166924Y6113803D01*
X19166920Y6113808D01*
X19166917Y6113813D01*
X19007286Y6321846D01*
X19007285Y6321847D01*
X19007282Y6321851D01*
X18821851Y6507282D01*
X18821846Y6507286D01*
X18821845Y6507287D01*
X18613812Y6666918D01*
X18613798Y6666927D01*
X18506893Y6728648D01*
X18386697Y6798043D01*
X18386695Y6798044D01*
X18386693Y6798045D01*
X18386689Y6798047D01*
X18144417Y6898399D01*
X18034730Y6927789D01*
X17891116Y6966270D01*
X17891111Y6966271D01*
X17891114Y6966271D01*
X17631120Y7000500D01*
X17500000Y7000500D01*
X17434108Y7000500D01*
X17434104Y7000500D01*
X16651536Y7000500D01*
X16556248Y7019454D01*
X16475466Y7073430D01*
X16421490Y7154212D01*
X16402536Y7249500D01*
X16421490Y7344788D01*
X16475466Y7425570D01*
X16521783Y7471887D01*
X16570104Y7520208D01*
X16695051Y7692184D01*
X16791557Y7881588D01*
X16857246Y8083757D01*
X16861305Y8109387D01*
X16866068Y8139453D01*
X16875857Y8165989D01*
X16881132Y8193773D01*
X16892510Y8211130D01*
X16899695Y8230603D01*
X16918893Y8251373D01*
X16934400Y8275024D01*
X16951555Y8286705D01*
X16965644Y8301946D01*
X16991328Y8313787D01*
X17014706Y8329704D01*
X17034667Y8333766D01*
X17053875Y8342620D01*
X17109825Y8349490D01*
X17110969Y8349500D01*
X17564069Y8349500D01*
X17584897Y8353644D01*
X17608323Y8353848D01*
X17633464Y8349076D01*
X17659060Y8349077D01*
X17680732Y8340102D01*
X17703773Y8335728D01*
X17725173Y8321698D01*
X17748823Y8311904D01*
X17765410Y8295319D01*
X17785024Y8282460D01*
X17799429Y8261304D01*
X17817526Y8243209D01*
X17826502Y8221543D01*
X17839704Y8202154D01*
X17844916Y8177096D01*
X17854712Y8153452D01*
X17859101Y8108903D01*
X17859490Y8107035D01*
X17859355Y8106327D01*
X17859500Y8104859D01*
X17859500Y7852135D01*
X17859501Y7852131D01*
X17865908Y7792520D01*
X17865909Y7792516D01*
X17916203Y7657671D01*
X17916204Y7657669D01*
X18002454Y7542454D01*
X18117669Y7456204D01*
X18252517Y7405909D01*
X18312127Y7399500D01*
X19407872Y7399501D01*
X19467483Y7405909D01*
X19602331Y7456204D01*
X19602333Y7456206D01*
X19611442Y7459603D01*
X19707346Y7475143D01*
X19793741Y7456350D01*
X19838165Y7437949D01*
X20031459Y7399500D01*
X20228541Y7399500D01*
X20421835Y7437949D01*
X20603914Y7513368D01*
X20603917Y7513371D01*
X20603919Y7513371D01*
X20626661Y7528567D01*
X20716420Y7565748D01*
X20813575Y7565749D01*
X20903330Y7528573D01*
X20903338Y7528568D01*
X20903339Y7528567D01*
X20926080Y7513371D01*
X20926084Y7513369D01*
X20926086Y7513368D01*
X21108165Y7437949D01*
X21108167Y7437949D01*
X21108169Y7437948D01*
X21269234Y7405910D01*
X21301459Y7399500D01*
X21498541Y7399500D01*
X21691835Y7437949D01*
X21873914Y7513368D01*
X21873917Y7513371D01*
X21873919Y7513371D01*
X21896661Y7528567D01*
X21986420Y7565748D01*
X22083575Y7565749D01*
X22173330Y7528573D01*
X22173338Y7528568D01*
X22173339Y7528567D01*
X22196080Y7513371D01*
X22196084Y7513369D01*
X22196086Y7513368D01*
X22378165Y7437949D01*
X22378167Y7437949D01*
X22378169Y7437948D01*
X22539234Y7405910D01*
X22571459Y7399500D01*
X22768541Y7399500D01*
X22961835Y7437949D01*
X23143914Y7513368D01*
X23143917Y7513371D01*
X23143919Y7513371D01*
X23166661Y7528567D01*
X23256420Y7565748D01*
X23353575Y7565749D01*
X23443330Y7528573D01*
X23443338Y7528568D01*
X23443339Y7528567D01*
X23466080Y7513371D01*
X23466084Y7513369D01*
X23466086Y7513368D01*
X23648165Y7437949D01*
X23648167Y7437949D01*
X23648169Y7437948D01*
X23809234Y7405910D01*
X23841459Y7399500D01*
X24038541Y7399500D01*
X24231835Y7437949D01*
X24413914Y7513368D01*
X24577782Y7622861D01*
X24717139Y7762218D01*
X24826632Y7926086D01*
X24902051Y8108165D01*
X24940500Y8301459D01*
X24940500Y8498541D01*
X24902051Y8691835D01*
X24826632Y8873914D01*
X24717139Y9037782D01*
X24577782Y9177139D01*
X24478517Y9243466D01*
X24409819Y9312164D01*
X24372640Y9401923D01*
X24372639Y9499078D01*
X24409819Y9588838D01*
X24478518Y9657537D01*
X24568277Y9694716D01*
X24616852Y9699501D01*
X24997872Y9699501D01*
X25057483Y9705909D01*
X25192331Y9756204D01*
X25307546Y9842454D01*
X25393796Y9957669D01*
X25444091Y10092517D01*
X25450500Y10152127D01*
X25450499Y12347872D01*
X25444091Y12407483D01*
X25393796Y12542331D01*
X25307546Y12657546D01*
X25192331Y12743796D01*
X25061089Y12792746D01*
X25057478Y12794093D01*
X25042326Y12797673D01*
X25043253Y12801598D01*
X24978847Y12822193D01*
X24904676Y12884945D01*
X24860166Y12971305D01*
X24850500Y13040009D01*
X24850500Y18559991D01*
X24869454Y18655279D01*
X24923430Y18736061D01*
X25004212Y18790037D01*
X25042891Y18799903D01*
X25042319Y18802326D01*
X25057477Y18805909D01*
X25057483Y18805909D01*
X25192331Y18856204D01*
X25307546Y18942454D01*
X25393796Y19057669D01*
X25444091Y19192517D01*
X25450500Y19252127D01*
X25450499Y21447872D01*
X25446202Y21487844D01*
X25454861Y21584609D01*
X25499894Y21670697D01*
X25574443Y21732999D01*
X25645192Y21758672D01*
X25691835Y21767949D01*
X25691838Y21767951D01*
X25701920Y21769956D01*
X25799075Y21769957D01*
X25888835Y21732779D01*
G37*
%TD.AperFunction*%
%TA.AperFunction,Conductor*%
G36*
X3570201Y10576515D02*
G01*
X3654970Y10529045D01*
X3707587Y10466451D01*
X3781528Y10341423D01*
X3895873Y10227078D01*
X4035057Y10144765D01*
X4171636Y10105085D01*
X4257853Y10060300D01*
X4320368Y9985929D01*
X4349664Y9893296D01*
X4341281Y9796504D01*
X4296496Y9710287D01*
X4251391Y9666639D01*
X4172456Y9607548D01*
X4172453Y9607545D01*
X4086204Y9492331D01*
X4035908Y9357482D01*
X4029500Y9297877D01*
X4029500Y7502135D01*
X4029500Y7502132D01*
X4029501Y7502128D01*
X4029708Y7500207D01*
X4035908Y7442520D01*
X4035909Y7442515D01*
X4075445Y7336515D01*
X4090985Y7240611D01*
X4068642Y7146060D01*
X4011816Y7067257D01*
X3929159Y7016199D01*
X3842144Y7000500D01*
X3131536Y7000500D01*
X3036248Y7019454D01*
X2955466Y7073430D01*
X2901490Y7154212D01*
X2882536Y7249500D01*
X2901490Y7344788D01*
X2955466Y7425570D01*
X2989499Y7459603D01*
X3030104Y7500208D01*
X3155051Y7672184D01*
X3251557Y7861588D01*
X3317246Y8063757D01*
X3350500Y8273713D01*
X3350500Y8486287D01*
X3350499Y8486290D01*
X3350499Y8486297D01*
X3328941Y8622399D01*
X3317246Y8696243D01*
X3251557Y8898412D01*
X3155051Y9087816D01*
X3030104Y9259792D01*
X2879792Y9410104D01*
X2826867Y9448556D01*
X2760920Y9519897D01*
X2727293Y9611047D01*
X2731107Y9708127D01*
X2771781Y9796358D01*
X2826867Y9851445D01*
X2879792Y9889896D01*
X3030104Y10040208D01*
X3155051Y10212184D01*
X3251557Y10401588D01*
X3256447Y10416641D01*
X3303917Y10501408D01*
X3380213Y10561558D01*
X3473719Y10587932D01*
X3570201Y10576515D01*
G37*
%TD.AperFunction*%
%TA.AperFunction,Conductor*%
G36*
X844788Y10149980D02*
G01*
X925570Y10096004D01*
X950943Y10066295D01*
X969896Y10040208D01*
X1120207Y9889897D01*
X1173131Y9851445D01*
X1239080Y9780101D01*
X1272707Y9688951D01*
X1268892Y9591871D01*
X1228217Y9503641D01*
X1200465Y9471585D01*
X1187625Y9459086D01*
X1120208Y9410104D01*
X969896Y9259792D01*
X938438Y9216494D01*
X923193Y9201652D01*
X899947Y9186567D01*
X879602Y9167760D01*
X859590Y9160378D01*
X841695Y9148764D01*
X814445Y9143723D01*
X788452Y9134133D01*
X767139Y9134971D01*
X746161Y9131089D01*
X719057Y9136860D01*
X691372Y9137947D01*
X671999Y9146879D01*
X651135Y9151320D01*
X628304Y9167022D01*
X603141Y9178622D01*
X588661Y9194286D01*
X571085Y9206374D01*
X555999Y9229620D01*
X537193Y9249965D01*
X529810Y9269977D01*
X518197Y9287872D01*
X513155Y9315122D01*
X503566Y9341115D01*
X500500Y9380067D01*
X500500Y9919934D01*
X519454Y10015222D01*
X573430Y10096004D01*
X654212Y10149980D01*
X749500Y10168934D01*
X844788Y10149980D01*
G37*
%TD.AperFunction*%
%TA.AperFunction,Conductor*%
G36*
X3850409Y13780546D02*
G01*
X3931191Y13726570D01*
X3985167Y13645788D01*
X4002734Y13576747D01*
X4002787Y13576247D01*
X4002773Y13557277D01*
X4004121Y13550500D01*
X4002762Y13543673D01*
X4002748Y13523386D01*
X4000000Y13497824D01*
X4000000Y13102177D01*
X4002748Y13076614D01*
X4004174Y13049873D01*
X4003921Y12552221D01*
X4002495Y12545071D01*
X4002495Y12525739D01*
X3999500Y12497878D01*
X3999500Y12102135D01*
X3999501Y12102131D01*
X4005908Y12042520D01*
X4005909Y12042515D01*
X4052538Y11917497D01*
X4068078Y11821593D01*
X4045735Y11727042D01*
X4002223Y11661611D01*
X3681785Y11314389D01*
X3663438Y11301037D01*
X3648303Y11284138D01*
X3624545Y11272731D01*
X3603232Y11257218D01*
X3581171Y11251903D01*
X3560722Y11242083D01*
X3534406Y11240635D01*
X3508780Y11234460D01*
X3486367Y11237991D01*
X3463714Y11236744D01*
X3438846Y11245478D01*
X3412809Y11249579D01*
X3393452Y11261419D01*
X3372047Y11268936D01*
X3352416Y11286519D01*
X3329928Y11300274D01*
X3316575Y11318621D01*
X3299677Y11333756D01*
X3285009Y11361993D01*
X3272757Y11378827D01*
X3269722Y11391421D01*
X3261986Y11406313D01*
X3251557Y11438412D01*
X3155051Y11627816D01*
X3030104Y11799792D01*
X2879792Y11950104D01*
X2826867Y11988556D01*
X2760920Y12059897D01*
X2727293Y12151047D01*
X2731107Y12248127D01*
X2771781Y12336358D01*
X2826867Y12391445D01*
X2879792Y12429896D01*
X3030104Y12580208D01*
X3155051Y12752184D01*
X3251557Y12941588D01*
X3317246Y13143757D01*
X3336734Y13266796D01*
X3350499Y13353704D01*
X3350500Y13353716D01*
X3350500Y13550500D01*
X3369454Y13645788D01*
X3423430Y13726570D01*
X3504212Y13780546D01*
X3599500Y13799500D01*
X3755121Y13799500D01*
X3850409Y13780546D01*
G37*
%TD.AperFunction*%
%TA.AperFunction,Conductor*%
G36*
X844788Y12689980D02*
G01*
X925570Y12636004D01*
X950943Y12606295D01*
X969896Y12580208D01*
X1120207Y12429897D01*
X1173131Y12391445D01*
X1239080Y12320101D01*
X1272707Y12228951D01*
X1268892Y12131871D01*
X1228217Y12043641D01*
X1200465Y12011585D01*
X1187625Y11999086D01*
X1120208Y11950104D01*
X969896Y11799792D01*
X938438Y11756494D01*
X923193Y11741652D01*
X899947Y11726567D01*
X879602Y11707760D01*
X859590Y11700378D01*
X841695Y11688764D01*
X814445Y11683723D01*
X788452Y11674133D01*
X767139Y11674971D01*
X746161Y11671089D01*
X719057Y11676860D01*
X691372Y11677947D01*
X671999Y11686879D01*
X651135Y11691320D01*
X628304Y11707022D01*
X603141Y11718622D01*
X588661Y11734286D01*
X571085Y11746374D01*
X555999Y11769620D01*
X537193Y11789965D01*
X529810Y11809977D01*
X518197Y11827872D01*
X513155Y11855122D01*
X503566Y11881115D01*
X500500Y11920067D01*
X500500Y12459934D01*
X519454Y12555222D01*
X573430Y12636004D01*
X654212Y12689980D01*
X749500Y12708934D01*
X844788Y12689980D01*
G37*
%TD.AperFunction*%
%TA.AperFunction,Conductor*%
G36*
X4144788Y23812071D02*
G01*
X4225570Y23758095D01*
X4326569Y23657096D01*
X4380545Y23576314D01*
X4399499Y23481026D01*
X4399499Y23420944D01*
X4440422Y23268216D01*
X4440424Y23268213D01*
X4463443Y23228342D01*
X4463445Y23228340D01*
X4519480Y23131284D01*
X4631284Y23019480D01*
X4631286Y23019479D01*
X4965195Y22685570D01*
X5019171Y22604788D01*
X5038125Y22509500D01*
X5019171Y22414212D01*
X4965195Y22333430D01*
X4884413Y22279454D01*
X4789125Y22260500D01*
X4665301Y22260500D01*
X4629009Y22257644D01*
X4629006Y22257643D01*
X4565367Y22239154D01*
X4473605Y22212494D01*
X4473603Y22212494D01*
X4473603Y22212493D01*
X4334314Y22130118D01*
X4219882Y22015686D01*
X4137507Y21876397D01*
X4092357Y21720994D01*
X4092356Y21720991D01*
X4089500Y21684699D01*
X4089500Y21275302D01*
X4092356Y21239010D01*
X4092357Y21239004D01*
X4141872Y21068577D01*
X4150255Y20971784D01*
X4141873Y20929641D01*
X4095494Y20770001D01*
X4095495Y20770000D01*
X4370059Y20770000D01*
X4372010Y20769612D01*
X4373965Y20769969D01*
X4419572Y20760152D01*
X4465347Y20751046D01*
X4468944Y20749523D01*
X4473566Y20747523D01*
X4553491Y20692286D01*
X4606193Y20610668D01*
X4623650Y20515094D01*
X4603204Y20420115D01*
X4547967Y20340190D01*
X4466349Y20287488D01*
X4374681Y20270000D01*
X4095495Y20270000D01*
X4137968Y20123804D01*
X4144188Y20109432D01*
X4142556Y20108726D01*
X4168417Y20035082D01*
X4163078Y19938074D01*
X4143519Y19890858D01*
X4144188Y19890568D01*
X4137968Y19876197D01*
X4095495Y19730000D01*
X4374681Y19730000D01*
X4420469Y19720893D01*
X4466349Y19712512D01*
X4468018Y19711434D01*
X4469969Y19711046D01*
X4508782Y19685113D01*
X4547967Y19659810D01*
X4549096Y19658176D01*
X4550751Y19657070D01*
X4576682Y19618261D01*
X4603204Y19579885D01*
X4603622Y19577942D01*
X4604727Y19576288D01*
X4613832Y19530514D01*
X4623650Y19484906D01*
X4623292Y19482952D01*
X4623681Y19481000D01*
X4614573Y19435212D01*
X4606193Y19389332D01*
X4605114Y19387663D01*
X4604727Y19385712D01*
X4578793Y19346899D01*
X4553491Y19307714D01*
X4551856Y19306585D01*
X4550751Y19304930D01*
X4473566Y19252477D01*
X4468944Y19250477D01*
X4373965Y19230031D01*
X4370059Y19230000D01*
X4095495Y19230000D01*
X4141873Y19070361D01*
X4143737Y19048826D01*
X4150256Y19028215D01*
X4147888Y19000891D01*
X4150255Y18973568D01*
X4141871Y18931423D01*
X4118845Y18852170D01*
X4074059Y18765954D01*
X3999687Y18703439D01*
X3907054Y18674144D01*
X3810262Y18682529D01*
X3724046Y18727315D01*
X3703675Y18745560D01*
X3554709Y18894526D01*
X3554705Y18894531D01*
X3423429Y19025808D01*
X3369453Y19106590D01*
X3350499Y19201877D01*
X3350499Y19437866D01*
X3350499Y19437872D01*
X3344091Y19497483D01*
X3293796Y19632331D01*
X3207546Y19747546D01*
X3092331Y19833796D01*
X2960540Y19882951D01*
X2957481Y19884092D01*
X2897876Y19890500D01*
X2897873Y19890500D01*
X1449500Y19890500D01*
X1354212Y19909454D01*
X1273430Y19963430D01*
X1219454Y20044212D01*
X1200500Y20139500D01*
X1200500Y20260501D01*
X1219454Y20355789D01*
X1273430Y20436571D01*
X1354212Y20490547D01*
X1449500Y20509501D01*
X2897866Y20509501D01*
X2897872Y20509501D01*
X2957483Y20515909D01*
X3092331Y20566204D01*
X3207546Y20652454D01*
X3293796Y20767669D01*
X3344091Y20902517D01*
X3350500Y20962127D01*
X3350499Y22398486D01*
X3369453Y22493773D01*
X3423429Y22574554D01*
X3461159Y22605519D01*
X3478416Y22617049D01*
X3582951Y22721584D01*
X3665084Y22844505D01*
X3721658Y22981087D01*
X3750500Y23126082D01*
X3752887Y23138080D01*
X3753276Y23138003D01*
X3757070Y23158863D01*
X3759575Y23168214D01*
X3759577Y23168216D01*
X3800501Y23320943D01*
X3800501Y23479058D01*
X3800501Y23494318D01*
X3800500Y23494336D01*
X3800500Y23582025D01*
X3819454Y23677313D01*
X3873430Y23758095D01*
X3954212Y23812071D01*
X4049500Y23831025D01*
X4144788Y23812071D01*
G37*
%TD.AperFunction*%
%TA.AperFunction,Conductor*%
G36*
X4996288Y20501046D02*
G01*
X5077070Y20447070D01*
X5131046Y20366288D01*
X5150000Y20271000D01*
X5150000Y19729000D01*
X5131046Y19633712D01*
X5077070Y19552930D01*
X4996288Y19498954D01*
X4901000Y19480000D01*
X4899000Y19480000D01*
X4803712Y19498954D01*
X4722930Y19552930D01*
X4668954Y19633712D01*
X4650000Y19729000D01*
X4650000Y20271000D01*
X4668954Y20366288D01*
X4722930Y20447070D01*
X4803712Y20501046D01*
X4899000Y20520000D01*
X4901000Y20520000D01*
X4996288Y20501046D01*
G37*
%TD.AperFunction*%
%TA.AperFunction,Conductor*%
G36*
X5908464Y25122837D02*
G01*
X5971141Y25085270D01*
X5978322Y25079377D01*
X5978325Y25079375D01*
X5978326Y25079374D01*
X6084099Y25008699D01*
X6084101Y25008699D01*
X6084103Y25008697D01*
X6133887Y24988076D01*
X6201627Y24960017D01*
X6326394Y24935200D01*
X6326397Y24935200D01*
X6453603Y24935200D01*
X6453606Y24935200D01*
X6575387Y24959423D01*
X6584107Y24959423D01*
X6592381Y24962197D01*
X6632416Y24959423D01*
X6672537Y24959422D01*
X6680597Y24956084D01*
X6689304Y24955480D01*
X6725227Y24937597D01*
X6762296Y24922243D01*
X6768466Y24916073D01*
X6776278Y24912184D01*
X6789003Y24895536D01*
X6830995Y24853544D01*
X6840063Y24838900D01*
X6925781Y24689142D01*
X6938537Y24651097D01*
X6953894Y24614021D01*
X6953893Y24605299D01*
X6956667Y24597027D01*
X6953892Y24556989D01*
X6953891Y24516866D01*
X6950553Y24508808D01*
X6949950Y24500104D01*
X6932070Y24464187D01*
X6916714Y24427114D01*
X6867572Y24353567D01*
X6867567Y24353560D01*
X6853502Y24319602D01*
X6799524Y24238821D01*
X6718742Y24184846D01*
X6623454Y24165893D01*
X6574887Y24170677D01*
X6453606Y24194800D01*
X6326394Y24194800D01*
X6201627Y24169983D01*
X6201626Y24169983D01*
X6201623Y24169982D01*
X6084103Y24121304D01*
X6084098Y24121301D01*
X5978327Y24050627D01*
X5978323Y24050625D01*
X5947451Y24019752D01*
X5920371Y24001659D01*
X5895886Y23980185D01*
X5880329Y23974905D01*
X5866669Y23965777D01*
X5834724Y23959424D01*
X5803887Y23948955D01*
X5787495Y23950030D01*
X5771381Y23946824D01*
X5739436Y23953179D01*
X5706940Y23955308D01*
X5692206Y23962574D01*
X5676093Y23965779D01*
X5649012Y23983875D01*
X5619804Y23998278D01*
X5608971Y24010630D01*
X5595312Y24019757D01*
X5555745Y24071322D01*
X5554817Y24072930D01*
X5516241Y24139744D01*
X5516241Y24139745D01*
X5480521Y24201614D01*
X5480520Y24201616D01*
X5368716Y24313420D01*
X5368713Y24313422D01*
X5345184Y24336951D01*
X5291208Y24417733D01*
X5272254Y24513021D01*
X5291208Y24608309D01*
X5345184Y24689091D01*
X5369294Y24708877D01*
X5368958Y24709287D01*
X5378408Y24717045D01*
X5378416Y24717049D01*
X5482951Y24821584D01*
X5565084Y24944505D01*
X5583132Y24988079D01*
X5637107Y25068858D01*
X5717888Y25122835D01*
X5813176Y25141790D01*
X5908464Y25122837D01*
G37*
%TD.AperFunction*%
%TA.AperFunction,Conductor*%
G36*
X25078126Y65275427D02*
G01*
X25205484Y65435128D01*
X25366829Y65691907D01*
X25498398Y65965115D01*
X25498405Y65965131D01*
X25515473Y66013906D01*
X25564835Y66097587D01*
X25642463Y66156008D01*
X25736539Y66180274D01*
X25832740Y66166693D01*
X25916421Y66117331D01*
X25974842Y66039703D01*
X25999108Y65945627D01*
X25999500Y65931666D01*
X25999500Y64303157D01*
X25980546Y64207869D01*
X25926570Y64127087D01*
X25845788Y64073111D01*
X25750500Y64054157D01*
X25694765Y64063145D01*
X25694311Y64061019D01*
X25681018Y64063865D01*
X25578305Y64074359D01*
X25453325Y64074359D01*
X25453324Y64074358D01*
X25453324Y58774361D01*
X25453325Y58774360D01*
X25578292Y58774360D01*
X25578308Y58774361D01*
X25681023Y58784854D01*
X25694321Y58787700D01*
X25694952Y58784750D01*
X25768555Y58793907D01*
X25862218Y58768093D01*
X25938873Y58708401D01*
X25986850Y58623919D01*
X25999500Y58545562D01*
X25999500Y25203751D01*
X25980546Y25108463D01*
X25926570Y25027681D01*
X25845788Y24973705D01*
X25750500Y24954751D01*
X25701920Y24959536D01*
X25650001Y24969864D01*
X25650000Y24969864D01*
X25650000Y24249000D01*
X25643466Y24216152D01*
X25599554Y24260064D01*
X25525445Y24302851D01*
X25442787Y24325000D01*
X25357213Y24325000D01*
X25274555Y24302851D01*
X25200446Y24260064D01*
X25156533Y24216152D01*
X25150000Y24249000D01*
X25150000Y24969864D01*
X25149999Y24969864D01*
X25108308Y24961570D01*
X24926327Y24886192D01*
X24926320Y24886188D01*
X24903783Y24871129D01*
X24869871Y24857084D01*
X24837479Y24839813D01*
X24825313Y24838628D01*
X24814022Y24833951D01*
X24777315Y24833952D01*
X24740782Y24830392D01*
X24730849Y24833952D01*
X24716867Y24833952D01*
X24647840Y24858692D01*
X24637180Y24864405D01*
X24603914Y24886632D01*
X24567730Y24901620D01*
X24556830Y24907461D01*
X24528679Y24930614D01*
X24498369Y24950866D01*
X24252148Y25197087D01*
X24198172Y25277869D01*
X24179218Y25373157D01*
X24198172Y25468444D01*
X24218447Y25517394D01*
X24227051Y25538165D01*
X24265500Y25731459D01*
X24265500Y25928541D01*
X24264504Y25933547D01*
X24227052Y26121831D01*
X24227051Y26121833D01*
X24227051Y26121835D01*
X24151632Y26303914D01*
X24042139Y26467782D01*
X24023491Y26486430D01*
X23938430Y26571492D01*
X23884454Y26652274D01*
X23865500Y26747561D01*
X23865500Y33552440D01*
X23884454Y33647728D01*
X23938427Y33728507D01*
X24042139Y33832218D01*
X24151632Y33996086D01*
X24227051Y34178165D01*
X24265500Y34371459D01*
X24265500Y34568541D01*
X24249396Y34649500D01*
X24227052Y34761831D01*
X24227051Y34761833D01*
X24227051Y34761835D01*
X24151632Y34943914D01*
X24042139Y35107782D01*
X23902782Y35247139D01*
X23898527Y35249982D01*
X23744806Y35352695D01*
X23738914Y35356632D01*
X23738911Y35356634D01*
X23738908Y35356635D01*
X23556835Y35432051D01*
X23556830Y35432053D01*
X23363545Y35470500D01*
X23363541Y35470500D01*
X22963541Y35470500D01*
X21820598Y35470500D01*
X21725310Y35489454D01*
X21644528Y35543430D01*
X21590552Y35624212D01*
X21571598Y35719500D01*
X21581485Y35788969D01*
X21604762Y35869091D01*
X21607643Y35879007D01*
X21610500Y35915310D01*
X21610500Y36324690D01*
X21607643Y36360993D01*
X21562494Y36516395D01*
X21562492Y36516398D01*
X21558127Y36531423D01*
X21549744Y36628216D01*
X21558126Y36670361D01*
X21604504Y36830000D01*
X21329941Y36830000D01*
X21327989Y36830389D01*
X21326035Y36830031D01*
X21280427Y36839849D01*
X21234653Y36848954D01*
X21231056Y36850477D01*
X21226434Y36852477D01*
X21146509Y36907714D01*
X21093807Y36989332D01*
X21076350Y37084906D01*
X21096796Y37179885D01*
X21152033Y37259810D01*
X21233651Y37312512D01*
X21325319Y37330000D01*
X21604504Y37330000D01*
X21562032Y37476195D01*
X21479720Y37615376D01*
X21365375Y37729721D01*
X21226191Y37812034D01*
X21140645Y37836887D01*
X21054428Y37881672D01*
X20991913Y37956043D01*
X20962617Y38048676D01*
X20971000Y38145468D01*
X21015785Y38231685D01*
X21090156Y38294200D01*
X21132632Y38307634D01*
X21150000Y38325001D01*
X21150000Y40699999D01*
X21650000Y40699999D01*
X21650000Y38325001D01*
X21650001Y38325000D01*
X22497825Y38325000D01*
X22497832Y38325001D01*
X22557371Y38331402D01*
X22557378Y38331404D01*
X22692087Y38381647D01*
X22807187Y38467811D01*
X22807189Y38467813D01*
X22893353Y38582913D01*
X22943596Y38717622D01*
X22943598Y38717629D01*
X22949999Y38777168D01*
X22950000Y38777175D01*
X22950000Y40699999D01*
X22949999Y40700000D01*
X21650001Y40700000D01*
X21650000Y40699999D01*
X21150000Y40699999D01*
X21149999Y40700000D01*
X19850001Y40700000D01*
X19850000Y40699999D01*
X19850000Y38777168D01*
X19856401Y38717629D01*
X19856403Y38717622D01*
X19906646Y38582913D01*
X19992810Y38467813D01*
X19992812Y38467811D01*
X20107912Y38381647D01*
X20242621Y38331404D01*
X20242628Y38331402D01*
X20302167Y38325001D01*
X20302175Y38325000D01*
X20389888Y38325000D01*
X20485176Y38306046D01*
X20565958Y38252070D01*
X20619934Y38171288D01*
X20638888Y38076000D01*
X20619934Y37980712D01*
X20565958Y37899930D01*
X20485176Y37845954D01*
X20459355Y37836886D01*
X20369467Y37810772D01*
X20272674Y37802390D01*
X20230532Y37810773D01*
X20070917Y37857145D01*
X20070914Y37857146D01*
X20050000Y37858792D01*
X20050000Y37329000D01*
X20031046Y37233712D01*
X19977070Y37152930D01*
X19896288Y37098954D01*
X19801000Y37080000D01*
X19799000Y37080000D01*
X19703712Y37098954D01*
X19622930Y37152930D01*
X19568954Y37233712D01*
X19550000Y37329000D01*
X19550000Y37858791D01*
X19549999Y37858792D01*
X19529085Y37857146D01*
X19529082Y37857145D01*
X19373809Y37812034D01*
X19373805Y37812033D01*
X19358369Y37802904D01*
X19266701Y37770717D01*
X19169693Y37776059D01*
X19104876Y37802909D01*
X19046399Y37837492D01*
X19046397Y37837493D01*
X19046395Y37837494D01*
X18890993Y37882643D01*
X18890990Y37882644D01*
X18854698Y37885500D01*
X18854690Y37885500D01*
X18445310Y37885500D01*
X18445301Y37885500D01*
X18409009Y37882644D01*
X18409003Y37882643D01*
X18238574Y37833127D01*
X18141781Y37824744D01*
X18099634Y37833127D01*
X17940000Y37879506D01*
X17940000Y37604942D01*
X17939611Y37602991D01*
X17939969Y37601036D01*
X17930151Y37555429D01*
X17921046Y37509654D01*
X17919523Y37506057D01*
X17917523Y37501435D01*
X17862286Y37421510D01*
X17780668Y37368808D01*
X17685094Y37351351D01*
X17590115Y37371797D01*
X17510190Y37427034D01*
X17457488Y37508652D01*
X17440000Y37600320D01*
X17440000Y37879506D01*
X17293801Y37837031D01*
X17154626Y37754722D01*
X17154625Y37754722D01*
X17040279Y37640376D01*
X16957966Y37501193D01*
X16957966Y37501191D01*
X16912855Y37345918D01*
X16912854Y37345915D01*
X16911208Y37325001D01*
X16911209Y37325000D01*
X17441000Y37325000D01*
X17536288Y37306046D01*
X17617070Y37252070D01*
X17671046Y37171288D01*
X17690000Y37076000D01*
X17690000Y37074000D01*
X17671046Y36978712D01*
X17617070Y36897930D01*
X17536288Y36843954D01*
X17441000Y36825000D01*
X16911210Y36825000D01*
X16912855Y36804084D01*
X16912856Y36804080D01*
X16959227Y36644468D01*
X16967610Y36547675D01*
X16959227Y36505532D01*
X16912855Y36345918D01*
X16912854Y36345915D01*
X16911208Y36325001D01*
X16911209Y36325000D01*
X17441000Y36325000D01*
X17536288Y36306046D01*
X17617070Y36252070D01*
X17671046Y36171288D01*
X17690000Y36076000D01*
X17690000Y36074000D01*
X17671046Y35978712D01*
X17617070Y35897930D01*
X17536288Y35843954D01*
X17441000Y35825000D01*
X16911210Y35825000D01*
X16912855Y35804084D01*
X16912855Y35804082D01*
X16957966Y35648808D01*
X17040279Y35509625D01*
X17154626Y35395278D01*
X17211541Y35361619D01*
X17283912Y35296799D01*
X17325968Y35209219D01*
X17331307Y35112211D01*
X17299116Y35020544D01*
X17291829Y35008960D01*
X17248369Y34943917D01*
X17248365Y34943909D01*
X17172949Y34761836D01*
X17172947Y34761831D01*
X17134500Y34568546D01*
X17134500Y34371455D01*
X17172947Y34178170D01*
X17172949Y34178165D01*
X17190398Y34136039D01*
X17209352Y34040751D01*
X17190398Y33945463D01*
X17174677Y33914001D01*
X17083716Y33760196D01*
X17083716Y33760194D01*
X17037900Y33602493D01*
X17037703Y33600001D01*
X17037704Y33600000D01*
X17063915Y33600000D01*
X17159203Y33581046D01*
X17239985Y33527070D01*
X17293961Y33446288D01*
X17312915Y33351000D01*
X17293961Y33255712D01*
X17239987Y33174934D01*
X17237981Y33172928D01*
X17157203Y33118954D01*
X17061915Y33100000D01*
X17037703Y33100000D01*
X17037899Y33097510D01*
X17060312Y33020366D01*
X17062177Y32998830D01*
X17068695Y32978220D01*
X17066328Y32950897D01*
X17068695Y32923573D01*
X17060312Y32881427D01*
X17044820Y32828104D01*
X17000034Y32741888D01*
X16925663Y32679373D01*
X16833030Y32650078D01*
X16781302Y32649773D01*
X16773920Y32650500D01*
X16773918Y32650500D01*
X16626082Y32650500D01*
X16626079Y32650500D01*
X16481088Y32621659D01*
X16344507Y32565085D01*
X16344503Y32565083D01*
X16221587Y32482954D01*
X16117046Y32378413D01*
X16034917Y32255497D01*
X16034915Y32255493D01*
X15978341Y32118912D01*
X15949500Y31973921D01*
X15949500Y31826080D01*
X15978341Y31681089D01*
X15978342Y31681087D01*
X16034916Y31544505D01*
X16034917Y31544504D01*
X16079680Y31477510D01*
X16117049Y31421584D01*
X16221584Y31317049D01*
X16297510Y31266317D01*
X16366206Y31197621D01*
X16403386Y31107862D01*
X16403387Y31010707D01*
X16366208Y30920947D01*
X16335241Y30883214D01*
X15089210Y29637181D01*
X15008428Y29583204D01*
X14913140Y29564250D01*
X14625715Y29564250D01*
X14554650Y29545208D01*
X14519117Y29535687D01*
X14519116Y29535688D01*
X14482214Y29525800D01*
X14482209Y29525798D01*
X14353543Y29451514D01*
X14353542Y29451513D01*
X13931506Y29029478D01*
X13850725Y28975502D01*
X13800181Y28960601D01*
X13797437Y28960100D01*
X13639601Y28914244D01*
X13498135Y28830581D01*
X13381919Y28714365D01*
X13298256Y28572899D01*
X13298255Y28572896D01*
X13282370Y28518221D01*
X13237582Y28432005D01*
X13163211Y28369492D01*
X13070577Y28340197D01*
X12973785Y28348582D01*
X12887569Y28393370D01*
X12836224Y28449355D01*
X12777139Y28537782D01*
X12637782Y28677139D01*
X12614659Y28692589D01*
X12473915Y28786631D01*
X12473915Y28786632D01*
X12367034Y28830903D01*
X12286253Y28884880D01*
X12232277Y28965661D01*
X12213323Y29060949D01*
X12232277Y29156238D01*
X12286250Y29237016D01*
X13375805Y30326570D01*
X13456587Y30380546D01*
X13551875Y30399500D01*
X14072315Y30399500D01*
X14167603Y30380546D01*
X14210652Y30357536D01*
X14244503Y30334917D01*
X14244505Y30334916D01*
X14381087Y30278342D01*
X14526080Y30249501D01*
X14526081Y30249500D01*
X14526082Y30249500D01*
X14673919Y30249500D01*
X14673919Y30249501D01*
X14818913Y30278342D01*
X14955495Y30334916D01*
X15078416Y30417049D01*
X15182951Y30521584D01*
X15265084Y30644505D01*
X15321658Y30781087D01*
X15350500Y30926082D01*
X15350500Y31073918D01*
X15321658Y31218913D01*
X15265084Y31355495D01*
X15182951Y31478416D01*
X15078416Y31582951D01*
X15068562Y31589535D01*
X15016337Y31624431D01*
X14955495Y31665084D01*
X14818913Y31721658D01*
X14818911Y31721659D01*
X14818912Y31721659D01*
X14738730Y31737609D01*
X14738722Y31737610D01*
X14673918Y31750500D01*
X14526082Y31750500D01*
X14512698Y31747838D01*
X14512693Y31747838D01*
X14381088Y31721659D01*
X14244507Y31665085D01*
X14244503Y31665084D01*
X14210652Y31642464D01*
X14188397Y31633247D01*
X14168419Y31619794D01*
X14143954Y31614838D01*
X14120893Y31605285D01*
X14096805Y31605285D01*
X14073199Y31600502D01*
X14072315Y31600500D01*
X13120940Y31600500D01*
X13080020Y31589537D01*
X13080021Y31589536D01*
X12968215Y31559577D01*
X12968212Y31559576D01*
X12831285Y31480521D01*
X12831283Y31480520D01*
X12719479Y31368717D01*
X12719480Y31368716D01*
X12719478Y31368714D01*
X12719477Y31368714D01*
X12309380Y30958618D01*
X12228599Y30904642D01*
X12133311Y30885688D01*
X12038023Y30904642D01*
X11957241Y30958619D01*
X11903265Y31039400D01*
X11896498Y31057742D01*
X11890569Y31075989D01*
X11890568Y31075990D01*
X11890568Y31075992D01*
X11783343Y31286433D01*
X11783341Y31286436D01*
X11783340Y31286438D01*
X11644521Y31477505D01*
X11644519Y31477507D01*
X11644517Y31477510D01*
X11497592Y31624435D01*
X11443619Y31705213D01*
X11424665Y31800501D01*
X11443619Y31895789D01*
X11497595Y31976571D01*
X11578377Y32030547D01*
X11673665Y32049501D01*
X11674981Y32049501D01*
X11674991Y32049500D01*
X12725008Y32049501D01*
X12827797Y32060001D01*
X12994334Y32115186D01*
X13143656Y32207288D01*
X13168952Y32232585D01*
X13249730Y32286560D01*
X13345017Y32305515D01*
X13414492Y32295627D01*
X13528997Y32262359D01*
X13529004Y32262358D01*
X13529007Y32262357D01*
X13565310Y32259500D01*
X13565312Y32259500D01*
X14034688Y32259500D01*
X14034690Y32259500D01*
X14070993Y32262357D01*
X14217677Y32304974D01*
X14252252Y32307969D01*
X14286262Y32314859D01*
X14300256Y32312127D01*
X14314467Y32313358D01*
X14347558Y32302893D01*
X14381617Y32296244D01*
X14393502Y32288364D01*
X14395909Y32287602D01*
X14396234Y32288351D01*
X14403543Y32285188D01*
X14407100Y32284063D01*
X14410110Y32282347D01*
X14410609Y32282130D01*
X14537668Y32245216D01*
X14537669Y32245216D01*
X14564796Y32237335D01*
X14600819Y32234500D01*
X15099180Y32234501D01*
X15135204Y32237335D01*
X15289393Y32282131D01*
X15427598Y32363865D01*
X15541135Y32477402D01*
X15622869Y32615607D01*
X15667665Y32769796D01*
X15670500Y32805819D01*
X15670499Y33204180D01*
X15667665Y33240204D01*
X15622869Y33394393D01*
X15622866Y33394397D01*
X15616650Y33408763D01*
X15618949Y33409759D01*
X15594312Y33479912D01*
X15599649Y33576920D01*
X15617799Y33620740D01*
X15616650Y33621237D01*
X15622865Y33635601D01*
X15622869Y33635607D01*
X15667665Y33789796D01*
X15670500Y33825819D01*
X15670499Y34224180D01*
X15667665Y34260204D01*
X15622869Y34414393D01*
X15541135Y34552598D01*
X15541133Y34552600D01*
X15535175Y34562675D01*
X15502984Y34654342D01*
X15500500Y34689426D01*
X15500500Y36000250D01*
X15519454Y36095538D01*
X15573430Y36176320D01*
X15600279Y36199584D01*
X15657546Y36242454D01*
X15743796Y36357669D01*
X15794091Y36492517D01*
X15800500Y36552127D01*
X15800499Y38047872D01*
X15794091Y38107483D01*
X15743796Y38242331D01*
X15657546Y38357546D01*
X15542331Y38443796D01*
X15462117Y38473714D01*
X15407481Y38494092D01*
X15347873Y38500500D01*
X14352134Y38500500D01*
X14352130Y38500500D01*
X14352128Y38500499D01*
X14339314Y38499122D01*
X14292519Y38494092D01*
X14292515Y38494091D01*
X14157667Y38443796D01*
X14048804Y38362300D01*
X13961164Y38320369D01*
X13864148Y38315168D01*
X13772527Y38347490D01*
X13750362Y38362300D01*
X13642089Y38443353D01*
X13507378Y38493597D01*
X13507371Y38493599D01*
X13447832Y38500000D01*
X13200001Y38500000D01*
X13200000Y38499999D01*
X13200000Y37549000D01*
X13181046Y37453712D01*
X13127070Y37372930D01*
X13046288Y37318954D01*
X12951000Y37300000D01*
X12950000Y37300000D01*
X12950000Y37299000D01*
X12931046Y37203712D01*
X12877070Y37122930D01*
X12796288Y37068954D01*
X12701000Y37050000D01*
X12000001Y37050000D01*
X12000000Y37049999D01*
X12000000Y36552168D01*
X12006401Y36492629D01*
X12006403Y36492622D01*
X12056646Y36357912D01*
X12063900Y36348223D01*
X12105832Y36260583D01*
X12111033Y36163567D01*
X12078712Y36071946D01*
X12013790Y35999667D01*
X11926150Y35957735D01*
X11864568Y35950000D01*
X11675024Y35950000D01*
X11572300Y35939506D01*
X11572297Y35939505D01*
X11405880Y35884360D01*
X11405878Y35884359D01*
X11256658Y35792319D01*
X11256654Y35792316D01*
X11132684Y35668346D01*
X11132681Y35668342D01*
X11040641Y35519122D01*
X11040640Y35519121D01*
X10985495Y35352702D01*
X10985494Y35352695D01*
X10975000Y35249982D01*
X10975000Y35200001D01*
X10975001Y35200000D01*
X11951000Y35200000D01*
X12046288Y35181046D01*
X12127070Y35127070D01*
X12181046Y35046288D01*
X12200000Y34951000D01*
X12200000Y34949000D01*
X12181046Y34853712D01*
X12127070Y34772930D01*
X12046288Y34718954D01*
X11951000Y34700000D01*
X10975002Y34700000D01*
X10975001Y34699999D01*
X10975001Y34650016D01*
X10985494Y34547301D01*
X10985495Y34547298D01*
X11040640Y34380881D01*
X11040641Y34380879D01*
X11132681Y34231659D01*
X11132684Y34231655D01*
X11138769Y34225570D01*
X11192745Y34144788D01*
X11211699Y34049500D01*
X11192745Y33954212D01*
X11138769Y33873430D01*
X11057987Y33819454D01*
X10962699Y33800500D01*
X9742696Y33800500D01*
X9647408Y33819454D01*
X9566626Y33873430D01*
X9512650Y33954212D01*
X9495122Y34022891D01*
X9494091Y34032480D01*
X9494091Y34032483D01*
X9443796Y34167331D01*
X9357546Y34282546D01*
X9242331Y34368796D01*
X9120090Y34414389D01*
X9107481Y34419092D01*
X9047876Y34425500D01*
X9047873Y34425500D01*
X8649500Y34425500D01*
X8554212Y34444454D01*
X8473430Y34498430D01*
X8419454Y34579212D01*
X8400500Y34674500D01*
X8400500Y37993940D01*
X8419454Y38089228D01*
X8473430Y38170010D01*
X8554212Y38223986D01*
X8649500Y38242940D01*
X8744788Y38223986D01*
X8825570Y38170010D01*
X8848834Y38143161D01*
X8867807Y38117816D01*
X8867812Y38117811D01*
X8982912Y38031647D01*
X9117621Y37981404D01*
X9117628Y37981402D01*
X9177167Y37975001D01*
X9177175Y37975000D01*
X9449999Y37975000D01*
X9450000Y37975001D01*
X9950000Y37975001D01*
X9950001Y37975000D01*
X10222825Y37975000D01*
X10222832Y37975001D01*
X10282371Y37981402D01*
X10282378Y37981404D01*
X10417087Y38031647D01*
X10438709Y38047833D01*
X12000000Y38047833D01*
X12000000Y37550001D01*
X12000001Y37550000D01*
X12700000Y37550000D01*
X12700000Y38499999D01*
X12699999Y38500000D01*
X12452167Y38500000D01*
X12392628Y38493599D01*
X12392621Y38493597D01*
X12257912Y38443354D01*
X12142812Y38357190D01*
X12142810Y38357188D01*
X12056646Y38242088D01*
X12006403Y38107379D01*
X12006401Y38107372D01*
X12000000Y38047833D01*
X10438709Y38047833D01*
X10532187Y38117811D01*
X10532189Y38117813D01*
X10618353Y38232913D01*
X10668596Y38367622D01*
X10668598Y38367629D01*
X10674999Y38427168D01*
X10675000Y38427175D01*
X10675000Y39099999D01*
X10674999Y39100000D01*
X9950000Y39100000D01*
X9950000Y37975001D01*
X9450000Y37975001D01*
X9450000Y39101000D01*
X9468954Y39196288D01*
X9522930Y39277070D01*
X9603712Y39331046D01*
X9699000Y39350000D01*
X9700000Y39350000D01*
X9700000Y39351000D01*
X9718954Y39446288D01*
X9772930Y39527070D01*
X9853712Y39581046D01*
X9949000Y39600000D01*
X10674999Y39600000D01*
X10675000Y39600001D01*
X10675000Y40160500D01*
X10693954Y40255788D01*
X10747930Y40336570D01*
X10828712Y40390546D01*
X10852575Y40399036D01*
X10887521Y40409500D01*
X10959690Y40409500D01*
X10995993Y40412357D01*
X11151395Y40457506D01*
X11257590Y40520310D01*
X11286733Y40529036D01*
X11305390Y40530807D01*
X11323074Y40537016D01*
X11358158Y40539500D01*
X13087414Y40539500D01*
X13182702Y40520546D01*
X13263484Y40466570D01*
X13585330Y40144724D01*
X13643456Y40105886D01*
X13691227Y40073967D01*
X13691870Y40073537D01*
X13691877Y40073533D01*
X13726549Y40059172D01*
X13810256Y40024499D01*
X13935929Y39999501D01*
X13935930Y39999500D01*
X13935931Y39999500D01*
X14282440Y39999500D01*
X14377728Y39980546D01*
X14458506Y39926573D01*
X14512218Y39872861D01*
X14676086Y39763368D01*
X14858165Y39687949D01*
X14858167Y39687949D01*
X14858169Y39687948D01*
X15046453Y39650496D01*
X15051459Y39649500D01*
X16148539Y39649500D01*
X16148540Y39649500D01*
X16148541Y39649500D01*
X16245188Y39668725D01*
X16341836Y39687949D01*
X16395165Y39710039D01*
X16523914Y39763368D01*
X16687782Y39872861D01*
X16827139Y40012218D01*
X16827139Y40012220D01*
X16847639Y40032719D01*
X16847640Y40032722D01*
X18777139Y41962218D01*
X18861038Y42087782D01*
X18886632Y42126086D01*
X18962051Y42308165D01*
X18964606Y42321007D01*
X18966619Y42331124D01*
X18988700Y42442138D01*
X19000500Y42501459D01*
X19000500Y42698540D01*
X19000500Y43032440D01*
X19018480Y43122833D01*
X19850000Y43122833D01*
X19850000Y41200001D01*
X19850001Y41200000D01*
X21149999Y41200000D01*
X21150000Y41200001D01*
X21150000Y43574999D01*
X21650000Y43574999D01*
X21650000Y41200001D01*
X21650001Y41200000D01*
X22949999Y41200000D01*
X22950000Y41200001D01*
X22950000Y43122825D01*
X22949999Y43122833D01*
X22943598Y43182372D01*
X22943596Y43182379D01*
X22893353Y43317088D01*
X22807189Y43432188D01*
X22807187Y43432190D01*
X22692087Y43518354D01*
X22557378Y43568597D01*
X22557371Y43568599D01*
X22497832Y43575000D01*
X21650001Y43575000D01*
X21650000Y43574999D01*
X21150000Y43574999D01*
X21149999Y43575000D01*
X20302167Y43575000D01*
X20242628Y43568599D01*
X20242621Y43568597D01*
X20107909Y43518353D01*
X20026931Y43457733D01*
X19967267Y43398069D01*
X19906647Y43317091D01*
X19856403Y43182379D01*
X19856401Y43182372D01*
X19850000Y43122833D01*
X19018480Y43122833D01*
X19019454Y43127728D01*
X19073430Y43208509D01*
X19602538Y43737618D01*
X21386490Y45521570D01*
X21467272Y45575546D01*
X21562560Y45594500D01*
X22375998Y45594500D01*
X22376000Y45594500D01*
X22483456Y45606053D01*
X22483461Y45606054D01*
X22483462Y45606054D01*
X22534956Y45617256D01*
X22534961Y45617258D01*
X22534967Y45617259D01*
X22637504Y45651387D01*
X22637506Y45651388D01*
X22649711Y45659232D01*
X22649712Y45659234D01*
X22672239Y45673711D01*
X22692331Y45681204D01*
X22743482Y45719497D01*
X22758543Y45729175D01*
X22765373Y45735095D01*
X22779162Y45746208D01*
X22807546Y45767454D01*
X22819215Y45783045D01*
X22830364Y45796879D01*
X22905567Y45883664D01*
X22965338Y46014541D01*
X22985023Y46081580D01*
X22985024Y46081584D01*
X23005500Y46224000D01*
X23005500Y50392059D01*
X23004468Y50424344D01*
X23003456Y50440157D01*
X23000361Y50472334D01*
X22781421Y52175200D01*
X22788069Y52272123D01*
X22831303Y52359128D01*
X22904542Y52422965D01*
X22996635Y52453916D01*
X23093562Y52447268D01*
X23105333Y52443762D01*
X23183872Y52418243D01*
X23250000Y52407770D01*
X23250000Y53301988D01*
X23307007Y53269075D01*
X23434174Y53235000D01*
X23565826Y53235000D01*
X23692993Y53269075D01*
X23750000Y53301988D01*
X23750000Y52407771D01*
X23816129Y52418244D01*
X24018212Y52483903D01*
X24018225Y52483909D01*
X24207553Y52580377D01*
X24379462Y52705276D01*
X24529724Y52855538D01*
X24654623Y53027447D01*
X24751091Y53216775D01*
X24751097Y53216788D01*
X24816756Y53418871D01*
X24827230Y53485000D01*
X23933012Y53485000D01*
X23965925Y53542007D01*
X24000000Y53669174D01*
X24000000Y53800826D01*
X23965925Y53927993D01*
X23933012Y53985000D01*
X24827230Y53985000D01*
X24816756Y54051130D01*
X24751097Y54253213D01*
X24751091Y54253226D01*
X24654623Y54442554D01*
X24560973Y54571452D01*
X24520298Y54659682D01*
X24516484Y54756763D01*
X24550110Y54847913D01*
X24616059Y54919256D01*
X24627799Y54927283D01*
X24708538Y54979171D01*
X24708540Y54979173D01*
X24708540Y54979174D01*
X24708543Y54979175D01*
X24761347Y55024930D01*
X24855567Y55133664D01*
X24915338Y55264541D01*
X24935023Y55331580D01*
X24935024Y55331584D01*
X24955500Y55474000D01*
X24955500Y57111835D01*
X24955457Y57118426D01*
X24955415Y57121647D01*
X24955287Y57128186D01*
X24931119Y57270022D01*
X24909700Y57336527D01*
X24907139Y57341770D01*
X24846555Y57465801D01*
X24846554Y57465802D01*
X24846551Y57465806D01*
X24846550Y57465809D01*
X24100010Y58563661D01*
X24062104Y58653111D01*
X24061315Y58750263D01*
X24097763Y58840322D01*
X24165902Y58909577D01*
X24255356Y58947485D01*
X24352508Y58948274D01*
X24436635Y58915601D01*
X24559205Y58840000D01*
X24559203Y58840000D01*
X24725622Y58784855D01*
X24725629Y58784854D01*
X24828347Y58774360D01*
X24953324Y58774361D01*
X24953324Y59924358D01*
X24953323Y59924359D01*
X24128326Y59924359D01*
X24128325Y59924358D01*
X24128325Y59474375D01*
X24138818Y59371660D01*
X24141665Y59358362D01*
X24139062Y59357805D01*
X24148435Y59282383D01*
X24122608Y59188723D01*
X24062905Y59112077D01*
X23978416Y59064112D01*
X23882003Y59052131D01*
X23788343Y59077958D01*
X23711697Y59137661D01*
X23694188Y59160458D01*
X23371918Y59634385D01*
X23334010Y59723839D01*
X23328823Y59774400D01*
X23328823Y60864195D01*
X23328823Y60874341D01*
X24128324Y60874341D01*
X24128324Y60424360D01*
X24128325Y60424359D01*
X24953323Y60424359D01*
X24953324Y60424360D01*
X24953324Y62424358D01*
X24953323Y62424359D01*
X24128326Y62424359D01*
X24128325Y62424358D01*
X24128325Y61974375D01*
X24138818Y61871660D01*
X24138819Y61871657D01*
X24193964Y61705240D01*
X24286585Y61555077D01*
X24320476Y61464025D01*
X24316944Y61366934D01*
X24286585Y61293641D01*
X24193964Y61143479D01*
X24138819Y60977061D01*
X24138818Y60977054D01*
X24128324Y60874341D01*
X23328823Y60874341D01*
X23328823Y60874367D01*
X23318323Y60977156D01*
X23310765Y60999964D01*
X23307674Y61023207D01*
X23308563Y61037054D01*
X23305500Y61056035D01*
X23305500Y61792685D01*
X23316063Y61858146D01*
X23315477Y61858271D01*
X23317939Y61869775D01*
X23318138Y61871005D01*
X23318323Y61871562D01*
X23328824Y61974350D01*
X23328823Y63374341D01*
X24128324Y63374341D01*
X24128324Y62924360D01*
X24128325Y62924359D01*
X24953323Y62924359D01*
X24953324Y62924360D01*
X24953324Y64074360D01*
X24828348Y64074359D01*
X24725624Y64063865D01*
X24725621Y64063864D01*
X24559204Y64008719D01*
X24559202Y64008718D01*
X24409982Y63916678D01*
X24409978Y63916675D01*
X24286008Y63792705D01*
X24286005Y63792701D01*
X24193965Y63643481D01*
X24193964Y63643480D01*
X24138819Y63477061D01*
X24138818Y63477054D01*
X24128324Y63374341D01*
X23328823Y63374341D01*
X23328823Y63374367D01*
X23318323Y63477156D01*
X23263138Y63643693D01*
X23171036Y63793015D01*
X23079033Y63885018D01*
X23025060Y63965796D01*
X23006106Y64061084D01*
X23025060Y64156372D01*
X23079036Y64237154D01*
X23159818Y64291130D01*
X23227227Y64308518D01*
X23452979Y64333954D01*
X23748629Y64401435D01*
X23748639Y64401438D01*
X24034869Y64501595D01*
X24034885Y64501602D01*
X24308093Y64633171D01*
X24564872Y64794516D01*
X24724573Y64921874D01*
X23582737Y66063710D01*
X23716602Y66160967D01*
X23839033Y66283398D01*
X23936290Y66417263D01*
X25078126Y65275427D01*
G37*
%TD.AperFunction*%
%TA.AperFunction,Conductor*%
G36*
X21710786Y28348333D02*
G01*
X21791568Y28294357D01*
X21845545Y28213576D01*
X21864500Y28118288D01*
X21864500Y27079500D01*
X21845546Y26984212D01*
X21791570Y26903430D01*
X21710788Y26849454D01*
X21615500Y26830500D01*
X19886692Y26830500D01*
X19863854Y26835043D01*
X19840569Y26834809D01*
X19816671Y26844429D01*
X19791404Y26849454D01*
X19772040Y26862393D01*
X19750441Y26871086D01*
X19732045Y26889116D01*
X19710622Y26903430D01*
X19697684Y26922793D01*
X19681055Y26939091D01*
X19670957Y26962794D01*
X19656646Y26984212D01*
X19652103Y27007048D01*
X19642976Y27028473D01*
X19643571Y27049944D01*
X19637692Y27079500D01*
X19642001Y27125623D01*
X19643741Y27134857D01*
X19660500Y27197399D01*
X19660500Y27223764D01*
X19664809Y27246623D01*
X19674428Y27270521D01*
X19679454Y27295788D01*
X19692392Y27315152D01*
X19701086Y27336751D01*
X19719115Y27355147D01*
X19733430Y27376570D01*
X19752792Y27389508D01*
X19769091Y27406137D01*
X19792793Y27416235D01*
X19814212Y27430546D01*
X19837047Y27435089D01*
X19858473Y27444216D01*
X19884235Y27444475D01*
X19909500Y27449500D01*
X20464070Y27449500D01*
X20464070Y27449501D01*
X20589744Y27474499D01*
X20708127Y27523535D01*
X20735693Y27541954D01*
X20814669Y27594723D01*
X21305276Y28085330D01*
X21376465Y28191873D01*
X21385453Y28213573D01*
X21439429Y28294354D01*
X21520210Y28348331D01*
X21615498Y28367286D01*
X21710786Y28348333D01*
G37*
%TD.AperFunction*%
%TA.AperFunction,Conductor*%
G36*
X7780038Y29825232D02*
G01*
X7782076Y29825602D01*
X7827602Y29815770D01*
X7873296Y29806681D01*
X7875430Y29805441D01*
X7877042Y29805093D01*
X8293683Y29624484D01*
X8373572Y29569195D01*
X8426221Y29487543D01*
X8443616Y29391958D01*
X8423107Y29296992D01*
X8370719Y29219956D01*
X7762570Y28611807D01*
X7681788Y28557831D01*
X7586500Y28538877D01*
X7491212Y28557831D01*
X7410430Y28611807D01*
X7356454Y28692589D01*
X7337500Y28787877D01*
X7337500Y28972825D01*
X7337499Y28972831D01*
X7332317Y29021035D01*
X7332317Y29074272D01*
X7334572Y29095247D01*
X7338000Y29127127D01*
X7337999Y29385627D01*
X7356953Y29480913D01*
X7410929Y29561695D01*
X7601942Y29752708D01*
X7603661Y29753857D01*
X7604839Y29755558D01*
X7643974Y29780793D01*
X7682720Y29806681D01*
X7684750Y29807085D01*
X7686491Y29808207D01*
X7732325Y29816549D01*
X7778008Y29825635D01*
X7780038Y29825232D01*
G37*
%TD.AperFunction*%
%TA.AperFunction,Conductor*%
G36*
X3534913Y30971046D02*
G01*
X3615695Y30917070D01*
X3669671Y30836288D01*
X3688625Y30741000D01*
X3669671Y30645712D01*
X3615697Y30564934D01*
X3613691Y30562928D01*
X3532913Y30508954D01*
X3437625Y30490000D01*
X2433012Y30490000D01*
X2465925Y30547007D01*
X2500000Y30674174D01*
X2500000Y30805826D01*
X2465925Y30932993D01*
X2433012Y30990000D01*
X3439625Y30990000D01*
X3534913Y30971046D01*
G37*
%TD.AperFunction*%
%TA.AperFunction,Conductor*%
G36*
X3652728Y33505546D02*
G01*
X3733510Y33451570D01*
X3859010Y33326070D01*
X3912986Y33245288D01*
X3931940Y33150000D01*
X3912986Y33054712D01*
X3859010Y32973931D01*
X3522861Y32637782D01*
X3522860Y32637780D01*
X3413369Y32473915D01*
X3413368Y32473913D01*
X3337949Y32291837D01*
X3336018Y32282130D01*
X3301408Y32108129D01*
X3299500Y32098538D01*
X3299500Y31950827D01*
X3280546Y31855539D01*
X3226570Y31774757D01*
X3145788Y31720781D01*
X3050500Y31701827D01*
X2955212Y31720781D01*
X2888564Y31765313D01*
X2886904Y31763369D01*
X2879464Y31769723D01*
X2707553Y31894624D01*
X2518225Y31991092D01*
X2518215Y31991096D01*
X2316124Y32056759D01*
X2316120Y32056760D01*
X2250000Y32067233D01*
X2250000Y31173012D01*
X2192993Y31205925D01*
X2065826Y31240000D01*
X1934174Y31240000D01*
X1807007Y31205925D01*
X1750000Y31173012D01*
X1750000Y32067232D01*
X1749999Y32067233D01*
X1683879Y32056760D01*
X1683875Y32056759D01*
X1481784Y31991096D01*
X1481774Y31991092D01*
X1292446Y31894624D01*
X1120537Y31769725D01*
X970277Y31619465D01*
X950944Y31592855D01*
X879600Y31526907D01*
X788450Y31493281D01*
X691369Y31497097D01*
X603139Y31537772D01*
X537191Y31609116D01*
X503565Y31700266D01*
X500500Y31739216D01*
X500500Y33038569D01*
X519454Y33133857D01*
X573430Y33214639D01*
X654212Y33268615D01*
X749500Y33287569D01*
X844788Y33268615D01*
X898722Y33237902D01*
X907669Y33231204D01*
X1042517Y33180909D01*
X1102127Y33174500D01*
X2897872Y33174501D01*
X2957483Y33180909D01*
X3092331Y33231204D01*
X3207546Y33317454D01*
X3287846Y33424722D01*
X3301162Y33436683D01*
X3311110Y33451570D01*
X3336981Y33468857D01*
X3360124Y33489644D01*
X3377005Y33495600D01*
X3391892Y33505546D01*
X3422404Y33511616D01*
X3451745Y33521966D01*
X3487180Y33524500D01*
X3557440Y33524500D01*
X3652728Y33505546D01*
G37*
%TD.AperFunction*%
%TA.AperFunction,Conductor*%
G36*
X21710788Y33450546D02*
G01*
X21791570Y33396570D01*
X21845546Y33315788D01*
X21864500Y33220500D01*
X21864500Y32181714D01*
X21845546Y32086426D01*
X21791570Y32005644D01*
X21710788Y31951668D01*
X21615500Y31932714D01*
X21520212Y31951668D01*
X21439430Y32005644D01*
X21385454Y32086425D01*
X21376464Y32108129D01*
X21341471Y32160500D01*
X21341471Y32160501D01*
X21341469Y32160503D01*
X21305279Y32214667D01*
X20914669Y32605277D01*
X20808127Y32676466D01*
X20712857Y32715927D01*
X20689744Y32725501D01*
X20689742Y32725502D01*
X20689741Y32725502D01*
X20564071Y32750500D01*
X20564069Y32750500D01*
X19909500Y32750500D01*
X19874183Y32757525D01*
X19838331Y32760887D01*
X19826895Y32766932D01*
X19814212Y32769454D01*
X19784269Y32789461D01*
X19752436Y32806286D01*
X19744186Y32816243D01*
X19733430Y32823430D01*
X19713420Y32853377D01*
X19690452Y32881099D01*
X19687743Y32891806D01*
X19679454Y32904212D01*
X19661816Y32973938D01*
X19660500Y32986690D01*
X19660500Y33102601D01*
X19641043Y33175211D01*
X19639008Y33194938D01*
X19641727Y33223935D01*
X19639822Y33252999D01*
X19646220Y33271848D01*
X19648079Y33291669D01*
X19661690Y33317422D01*
X19671051Y33344998D01*
X19684175Y33359965D01*
X19693478Y33377564D01*
X19715904Y33396145D01*
X19735109Y33418044D01*
X19752963Y33426850D01*
X19768291Y33439548D01*
X19796119Y33448132D01*
X19822244Y33461015D01*
X19849537Y33464609D01*
X19861130Y33468184D01*
X19870221Y33467332D01*
X19886692Y33469500D01*
X21615500Y33469500D01*
X21710788Y33450546D01*
G37*
%TD.AperFunction*%
%TA.AperFunction,Conductor*%
G36*
X3549519Y36584009D02*
G01*
X3612547Y36538218D01*
X4200195Y35950570D01*
X4254171Y35869788D01*
X4273125Y35774500D01*
X4254171Y35679212D01*
X4200195Y35598430D01*
X4119413Y35544454D01*
X4024125Y35525500D01*
X3487180Y35525500D01*
X3391892Y35544454D01*
X3313439Y35596132D01*
X3295006Y35614087D01*
X3293796Y35617331D01*
X3207546Y35732546D01*
X3092331Y35818796D01*
X3080198Y35823322D01*
X3050841Y35851917D01*
X3042274Y35864380D01*
X3030674Y35874078D01*
X3014987Y35904079D01*
X2995808Y35931982D01*
X2992662Y35946775D01*
X2985657Y35960174D01*
X2982644Y35993897D01*
X2975604Y36027013D01*
X2978358Y36041880D01*
X2977013Y36056943D01*
X2987136Y36089255D01*
X2993304Y36122542D01*
X3001538Y36135224D01*
X3006060Y36149655D01*
X3024890Y36176954D01*
X3023972Y36177620D01*
X3154623Y36357447D01*
X3214616Y36475190D01*
X3274763Y36551488D01*
X3359530Y36598961D01*
X3456012Y36610381D01*
X3549519Y36584009D01*
G37*
%TD.AperFunction*%
%TA.AperFunction,Conductor*%
G36*
X1116152Y39080547D02*
G01*
X1196934Y39026571D01*
X1236502Y38975004D01*
X1269356Y38918101D01*
X1269360Y38918096D01*
X1319480Y38831284D01*
X1431284Y38719480D01*
X1431286Y38719479D01*
X1473217Y38677548D01*
X1527193Y38596766D01*
X1546147Y38501478D01*
X1527193Y38406190D01*
X1473217Y38325408D01*
X1410191Y38279618D01*
X1292446Y38219624D01*
X1120537Y38094725D01*
X970277Y37944465D01*
X950944Y37917855D01*
X879600Y37851907D01*
X788450Y37818281D01*
X691369Y37822097D01*
X603139Y37862772D01*
X537191Y37934116D01*
X503565Y38025266D01*
X500500Y38064216D01*
X500500Y38850501D01*
X519454Y38945789D01*
X573430Y39026571D01*
X654212Y39080547D01*
X749495Y39099501D01*
X1020865Y39099501D01*
X1116152Y39080547D01*
G37*
%TD.AperFunction*%
%TA.AperFunction,Conductor*%
G36*
X8048822Y69980546D02*
G01*
X8129604Y69926570D01*
X8183580Y69845788D01*
X8202534Y69750500D01*
X8183580Y69655212D01*
X8165459Y69619776D01*
X8165184Y69619331D01*
X8110002Y69452803D01*
X8110001Y69452796D01*
X8099500Y69350012D01*
X8099500Y68599994D01*
X8110001Y68497200D01*
X8165185Y68330668D01*
X8253232Y68187919D01*
X8257288Y68181344D01*
X8381344Y68057288D01*
X8530666Y67965186D01*
X8530669Y67965185D01*
X8530667Y67965185D01*
X8646217Y67926896D01*
X8697203Y67910001D01*
X8799991Y67899500D01*
X8871409Y67899501D01*
X8906849Y67896967D01*
X8924000Y67894500D01*
X9397704Y67894500D01*
X9442560Y67885578D01*
X9487618Y67877699D01*
X9490103Y67876121D01*
X9492992Y67875546D01*
X9569632Y67825616D01*
X9880251Y67529116D01*
X9936091Y67449611D01*
X9957256Y67354789D01*
X9940522Y67259086D01*
X9888439Y67177072D01*
X9808934Y67121232D01*
X9760399Y67110399D01*
X9750000Y67099999D01*
X9750000Y66275001D01*
X9750001Y66275000D01*
X10913883Y66275000D01*
X10947059Y66298301D01*
X10949930Y66298942D01*
X10952379Y66300578D01*
X10997244Y66309503D01*
X11041881Y66319466D01*
X11044781Y66318959D01*
X11047667Y66319533D01*
X11092525Y66310611D01*
X11137584Y66302732D01*
X11140068Y66301155D01*
X11142956Y66300580D01*
X11219596Y66250650D01*
X11382372Y66095273D01*
X11384927Y66092835D01*
X11420280Y66046737D01*
X11420532Y66046925D01*
X11496363Y65945627D01*
X11517454Y65917454D01*
X11632669Y65831204D01*
X11632670Y65831204D01*
X11646927Y65820531D01*
X11646524Y65819994D01*
X11691453Y65785436D01*
X12484408Y64950001D01*
X16926102Y60270359D01*
X16977953Y60188200D01*
X16994500Y60098943D01*
X16994500Y55900000D01*
X16994500Y55628813D01*
X17002682Y55557447D01*
X17007616Y55514408D01*
X17020319Y55459737D01*
X17020322Y55459728D01*
X17058983Y55351279D01*
X17058992Y55351257D01*
X17852452Y53736000D01*
X19759903Y49852974D01*
X19768991Y49834475D01*
X19793992Y49740592D01*
X19794500Y49724690D01*
X19794500Y46862561D01*
X19775546Y46767273D01*
X19721570Y46686491D01*
X17362218Y44327139D01*
X17362217Y44327140D01*
X17222862Y44187784D01*
X17222860Y44187781D01*
X17113369Y44023916D01*
X17113367Y44023912D01*
X17065150Y43907505D01*
X17065150Y43907504D01*
X17037950Y43841840D01*
X17037947Y43841832D01*
X17032425Y43814066D01*
X16999500Y43648546D01*
X16999500Y43117561D01*
X16980546Y43022273D01*
X16926570Y42941491D01*
X16926569Y42941491D01*
X16701855Y42716778D01*
X16621074Y42662802D01*
X16525785Y42643848D01*
X16430497Y42662802D01*
X16349716Y42716779D01*
X16295740Y42797560D01*
X16276786Y42892849D01*
X16289425Y42971171D01*
X16339505Y43122303D01*
X16339505Y43122306D01*
X16349999Y43225019D01*
X16350000Y43225029D01*
X16350000Y43499999D01*
X16349999Y43500000D01*
X15600001Y43500000D01*
X15600000Y43499999D01*
X15600000Y42525002D01*
X15600001Y42525001D01*
X15649968Y42525001D01*
X15649984Y42525002D01*
X15752699Y42535495D01*
X15903830Y42585575D01*
X16000243Y42597556D01*
X16093903Y42571729D01*
X16170549Y42512026D01*
X16218514Y42427537D01*
X16230495Y42331124D01*
X16204668Y42237464D01*
X16158223Y42173145D01*
X15708510Y41723431D01*
X15627728Y41669454D01*
X15532440Y41650500D01*
X15051454Y41650500D01*
X14858169Y41612053D01*
X14858164Y41612051D01*
X14676091Y41536635D01*
X14676084Y41536631D01*
X14512219Y41427140D01*
X14512211Y41427134D01*
X14503571Y41418494D01*
X14422787Y41364522D01*
X14327498Y41345574D01*
X14232211Y41364534D01*
X14151442Y41418504D01*
X13874669Y41695277D01*
X13768127Y41766466D01*
X13672857Y41805927D01*
X13649744Y41815501D01*
X13649742Y41815502D01*
X13649741Y41815502D01*
X13524071Y41840500D01*
X13524069Y41840500D01*
X11784500Y41840500D01*
X11741177Y41849118D01*
X11697554Y41856173D01*
X11693678Y41858566D01*
X11689212Y41859454D01*
X11652473Y41884002D01*
X11614882Y41907207D01*
X11612218Y41910899D01*
X11608430Y41913430D01*
X11583876Y41950179D01*
X11558033Y41985994D01*
X11557108Y41990239D01*
X11554454Y41994212D01*
X11535661Y42080538D01*
X11535500Y42085009D01*
X11535500Y42354690D01*
X11532643Y42390993D01*
X11523324Y42423068D01*
X11522213Y42453924D01*
X11525133Y42471983D01*
X11523555Y42490204D01*
X11532818Y42519498D01*
X11537725Y42549832D01*
X11547334Y42565399D01*
X11552849Y42582837D01*
X11572617Y42606356D01*
X11588759Y42632504D01*
X11603593Y42643208D01*
X11615362Y42657209D01*
X11625272Y42664469D01*
X11628408Y42667045D01*
X11628416Y42667049D01*
X11732951Y42771584D01*
X11815084Y42894505D01*
X11871658Y43031087D01*
X11871659Y43031096D01*
X11875210Y43042795D01*
X11877705Y43042039D01*
X11879646Y43046727D01*
X11884433Y43070788D01*
X11898053Y43091173D01*
X11907433Y43113822D01*
X11924778Y43131170D01*
X11938409Y43151570D01*
X11958794Y43165191D01*
X11976127Y43182526D01*
X11998791Y43191917D01*
X12019191Y43205546D01*
X12043235Y43210329D01*
X12065884Y43219712D01*
X12114479Y43224500D01*
X12246299Y43224500D01*
X12341587Y43205546D01*
X12422369Y43151570D01*
X12476345Y43070788D01*
X12482660Y43053822D01*
X12515184Y42955669D01*
X12601950Y42814999D01*
X12607288Y42806344D01*
X12731344Y42682288D01*
X12880666Y42590186D01*
X12880669Y42590185D01*
X12880667Y42590185D01*
X13012818Y42546395D01*
X13047203Y42535001D01*
X13149991Y42524500D01*
X13750008Y42524501D01*
X13852797Y42535001D01*
X14019334Y42590186D01*
X14168656Y42682288D01*
X14224286Y42737919D01*
X14305065Y42791892D01*
X14400353Y42810846D01*
X14495641Y42791892D01*
X14576423Y42737916D01*
X14631654Y42682685D01*
X14631658Y42682682D01*
X14780878Y42590642D01*
X14780879Y42590641D01*
X14947298Y42535496D01*
X14947305Y42535495D01*
X15050023Y42525001D01*
X15100000Y42525002D01*
X15100000Y45499999D01*
X15600000Y45499999D01*
X15600000Y44000001D01*
X15600001Y44000000D01*
X16349998Y44000000D01*
X16349999Y44000001D01*
X16349999Y44274968D01*
X16349998Y44274985D01*
X16339505Y44377700D01*
X16339504Y44377703D01*
X16284359Y44544118D01*
X16237999Y44619280D01*
X16204107Y44710332D01*
X16207639Y44807423D01*
X16237999Y44880720D01*
X16284359Y44955882D01*
X16339504Y45122299D01*
X16339505Y45122306D01*
X16349999Y45225019D01*
X16350000Y45225029D01*
X16350000Y45499999D01*
X16349999Y45500000D01*
X15600001Y45500000D01*
X15600000Y45499999D01*
X15100000Y45499999D01*
X15100000Y46974999D01*
X15600000Y46974999D01*
X15600000Y46000001D01*
X15600001Y46000000D01*
X16349998Y46000000D01*
X16349999Y46000001D01*
X16349999Y46274968D01*
X16349998Y46274985D01*
X16339505Y46377700D01*
X16339504Y46377703D01*
X16284359Y46544120D01*
X16284358Y46544122D01*
X16192318Y46693342D01*
X16192315Y46693346D01*
X16068345Y46817316D01*
X16068341Y46817319D01*
X15919121Y46909359D01*
X15919120Y46909360D01*
X15752701Y46964505D01*
X15752694Y46964506D01*
X15649981Y46975000D01*
X15600001Y46975000D01*
X15600000Y46974999D01*
X15100000Y46974999D01*
X15100000Y46975001D01*
X15050024Y46975000D01*
X14947300Y46964506D01*
X14947297Y46964505D01*
X14780880Y46909360D01*
X14780878Y46909359D01*
X14631658Y46817319D01*
X14631654Y46817316D01*
X14576423Y46762084D01*
X14495641Y46708108D01*
X14400353Y46689154D01*
X14305065Y46708108D01*
X14224286Y46762082D01*
X14168656Y46817712D01*
X14019334Y46909814D01*
X14019332Y46909815D01*
X14019330Y46909816D01*
X14019332Y46909816D01*
X13852802Y46964998D01*
X13852798Y46964999D01*
X13852797Y46964999D01*
X13750009Y46975500D01*
X13750005Y46975500D01*
X13149993Y46975500D01*
X13047199Y46964999D01*
X12880667Y46909815D01*
X12731346Y46817714D01*
X12607285Y46693653D01*
X12583030Y46654328D01*
X12579896Y46650958D01*
X12578135Y46646706D01*
X12546930Y46615503D01*
X12516874Y46583177D01*
X12512688Y46581263D01*
X12509435Y46578009D01*
X12468671Y46561126D01*
X12428526Y46542759D01*
X12423925Y46542592D01*
X12419675Y46540831D01*
X12375539Y46540832D01*
X12331435Y46539227D01*
X12322526Y46540831D01*
X12304916Y46544334D01*
X12288850Y46547530D01*
X12199091Y46584712D01*
X12130394Y46653412D01*
X12093216Y46743172D01*
X12093216Y46826999D01*
X12091933Y46827137D01*
X12093216Y46839080D01*
X12093217Y46840327D01*
X12093482Y46841546D01*
X12099766Y46900000D01*
X12300000Y46900000D01*
X12300000Y50100000D01*
X11500000Y50100000D01*
X11443264Y49972346D01*
X11443257Y49972431D01*
X11448579Y50003389D01*
X11462763Y50063058D01*
X12141898Y53978073D01*
X12146213Y54120577D01*
X12138527Y54189398D01*
X12102876Y54327450D01*
X9592221Y60362679D01*
X9574549Y60431705D01*
X9569091Y60482480D01*
X9569091Y60482482D01*
X9569091Y60482483D01*
X9518796Y60617331D01*
X9432546Y60732546D01*
X9317331Y60818796D01*
X9195610Y60864195D01*
X9182481Y60869092D01*
X9122873Y60875500D01*
X5677134Y60875500D01*
X5677130Y60875500D01*
X5677128Y60875499D01*
X5666356Y60874341D01*
X5617519Y60869092D01*
X5617515Y60869091D01*
X5482670Y60818797D01*
X5367455Y60732547D01*
X5367453Y60732545D01*
X5281204Y60617331D01*
X5230908Y60482482D01*
X5224500Y60422877D01*
X5224500Y55577135D01*
X5224501Y55577131D01*
X5230908Y55517520D01*
X5230909Y55517516D01*
X5252460Y55459736D01*
X5281204Y55382669D01*
X5367454Y55267454D01*
X5482669Y55181204D01*
X5545871Y55157632D01*
X5608959Y55123001D01*
X6093685Y54756763D01*
X6174912Y54695392D01*
X6239514Y54622826D01*
X6271428Y54531063D01*
X6265796Y54434071D01*
X6223476Y54346618D01*
X6150910Y54282016D01*
X6059147Y54250102D01*
X5962155Y54255734D01*
X5906213Y54277779D01*
X4518387Y55029518D01*
X4514466Y55031337D01*
X4512851Y55032517D01*
X4511600Y55033194D01*
X4511691Y55033364D01*
X4436006Y55088636D01*
X4385446Y55171599D01*
X4370484Y55267595D01*
X4393396Y55362009D01*
X4417823Y55403568D01*
X4529623Y55557446D01*
X4626091Y55746775D01*
X4626097Y55746788D01*
X4691756Y55948871D01*
X4702230Y56015000D01*
X3808012Y56015000D01*
X3840925Y56072007D01*
X3875000Y56199174D01*
X3875000Y56330826D01*
X3840925Y56457993D01*
X3808012Y56515000D01*
X4702230Y56515000D01*
X4691756Y56581130D01*
X4626097Y56783213D01*
X4626091Y56783226D01*
X4529623Y56972554D01*
X4404724Y57144463D01*
X4254462Y57294725D01*
X4082553Y57419624D01*
X3893225Y57516092D01*
X3893215Y57516096D01*
X3691124Y57581759D01*
X3691120Y57581760D01*
X3625000Y57592233D01*
X3625000Y56698012D01*
X3567993Y56730925D01*
X3440826Y56765000D01*
X3309174Y56765000D01*
X3182007Y56730925D01*
X3125000Y56698012D01*
X3125000Y57592232D01*
X3124999Y57592233D01*
X3058879Y57581760D01*
X3058875Y57581759D01*
X2856784Y57516096D01*
X2856774Y57516092D01*
X2667446Y57419624D01*
X2495537Y57294725D01*
X2345275Y57144463D01*
X2220376Y56972554D01*
X2123908Y56783226D01*
X2123902Y56783213D01*
X2058243Y56581130D01*
X2047769Y56515000D01*
X2941988Y56515000D01*
X2909075Y56457993D01*
X2875000Y56330826D01*
X2875000Y56199174D01*
X2909075Y56072007D01*
X2941988Y56015000D01*
X2047770Y56015000D01*
X2058243Y55948871D01*
X2123902Y55746788D01*
X2123908Y55746775D01*
X2220376Y55557447D01*
X2343672Y55387745D01*
X2384347Y55299514D01*
X2388161Y55202434D01*
X2354535Y55111284D01*
X2288586Y55039941D01*
X2280028Y55034483D01*
X2157400Y54943033D01*
X2157391Y54943025D01*
X2108066Y54893879D01*
X2108067Y54893878D01*
X2107894Y54893706D01*
X2021470Y54778690D01*
X2021465Y54778682D01*
X1083556Y53068378D01*
X1083551Y53068369D01*
X1057657Y53013601D01*
X1056543Y53011049D01*
X1043995Y52986205D01*
X1008302Y52924385D01*
X1001936Y52913960D01*
X999475Y52910143D01*
X998108Y52908045D01*
X989638Y52895194D01*
X987904Y52892200D01*
X981478Y52882235D01*
X977407Y52874811D01*
X967824Y52857337D01*
X905389Y52782902D01*
X819220Y52738026D01*
X722436Y52729541D01*
X629772Y52758740D01*
X555336Y52821177D01*
X510460Y52907346D01*
X500500Y52977066D01*
X500500Y60598546D01*
X2499500Y60598546D01*
X2499500Y60401455D01*
X2537947Y60208170D01*
X2537949Y60208165D01*
X2613365Y60026092D01*
X2613366Y60026089D01*
X2613368Y60026086D01*
X2722861Y59862218D01*
X2862218Y59722861D01*
X3026086Y59613368D01*
X3208165Y59537949D01*
X3208167Y59537949D01*
X3208169Y59537948D01*
X3396453Y59500496D01*
X3401459Y59499500D01*
X3598541Y59499500D01*
X3791835Y59537949D01*
X3973914Y59613368D01*
X4137782Y59722861D01*
X4277139Y59862218D01*
X4386632Y60026086D01*
X4462051Y60208165D01*
X4500500Y60401459D01*
X4500500Y60598541D01*
X4473845Y60732545D01*
X4462052Y60791831D01*
X4462051Y60791833D01*
X4462051Y60791835D01*
X4386632Y60973914D01*
X4277139Y61137782D01*
X4137782Y61277139D01*
X3973914Y61386632D01*
X3973911Y61386634D01*
X3973908Y61386635D01*
X3791835Y61462051D01*
X3791830Y61462053D01*
X3598545Y61500500D01*
X3598541Y61500500D01*
X3401459Y61500500D01*
X3401454Y61500500D01*
X3208169Y61462053D01*
X3208164Y61462051D01*
X3026091Y61386635D01*
X3026084Y61386631D01*
X2862221Y61277142D01*
X2722858Y61137779D01*
X2613369Y60973916D01*
X2613365Y60973909D01*
X2537949Y60791836D01*
X2537947Y60791831D01*
X2499500Y60598546D01*
X500500Y60598546D01*
X500500Y65931666D01*
X519454Y66026954D01*
X573430Y66107736D01*
X654212Y66161712D01*
X749500Y66180666D01*
X844788Y66161712D01*
X925570Y66107736D01*
X979546Y66026954D01*
X984527Y66013906D01*
X1001594Y65965131D01*
X1001601Y65965115D01*
X1133169Y65691909D01*
X1294515Y65435127D01*
X1421871Y65275427D01*
X2563708Y66417264D01*
X2660967Y66283398D01*
X2783398Y66160967D01*
X2917261Y66063711D01*
X1775424Y64921874D01*
X1935126Y64794516D01*
X2191908Y64633170D01*
X2465114Y64501602D01*
X2465130Y64501595D01*
X2751360Y64401438D01*
X2751370Y64401435D01*
X3047019Y64333955D01*
X3348358Y64300001D01*
X3348371Y64300000D01*
X3651629Y64300000D01*
X3651641Y64300001D01*
X3952980Y64333955D01*
X4248629Y64401435D01*
X4248639Y64401438D01*
X4534869Y64501595D01*
X4534885Y64501602D01*
X4808093Y64633171D01*
X5064872Y64794516D01*
X5224573Y64921874D01*
X4082737Y66063710D01*
X4216602Y66160967D01*
X4339033Y66283398D01*
X4436290Y66417263D01*
X5578126Y65275427D01*
X5705484Y65435128D01*
X5866829Y65691907D01*
X5906844Y65774999D01*
X8100001Y65774999D01*
X8100001Y65650016D01*
X8110494Y65547301D01*
X8110495Y65547298D01*
X8165640Y65380881D01*
X8165641Y65380879D01*
X8257681Y65231659D01*
X8257684Y65231655D01*
X8381654Y65107685D01*
X8381658Y65107682D01*
X8530878Y65015642D01*
X8530879Y65015641D01*
X8697298Y64960496D01*
X8697305Y64960495D01*
X8800023Y64950001D01*
X9250000Y64950001D01*
X9250000Y65774999D01*
X9750000Y65774999D01*
X9750000Y64950002D01*
X9750001Y64950001D01*
X10199968Y64950001D01*
X10199984Y64950002D01*
X10302699Y64960495D01*
X10302702Y64960496D01*
X10469119Y65015641D01*
X10469121Y65015642D01*
X10618341Y65107682D01*
X10618345Y65107685D01*
X10742315Y65231655D01*
X10742318Y65231659D01*
X10834358Y65380879D01*
X10834359Y65380880D01*
X10889504Y65547299D01*
X10889505Y65547306D01*
X10899999Y65650019D01*
X10900000Y65650029D01*
X10900000Y65774999D01*
X10899999Y65775000D01*
X9750001Y65775000D01*
X9750000Y65774999D01*
X9250000Y65774999D01*
X9249999Y65775000D01*
X8100002Y65775000D01*
X8100001Y65774999D01*
X5906844Y65774999D01*
X5998398Y65965115D01*
X5998405Y65965132D01*
X6098562Y66251361D01*
X6098565Y66251371D01*
X6132485Y66399982D01*
X8100000Y66399982D01*
X8100000Y66275001D01*
X8100001Y66275000D01*
X9249999Y66275000D01*
X9250000Y66275001D01*
X9250000Y67099999D01*
X9249999Y67100000D01*
X8800024Y67100000D01*
X8697300Y67089506D01*
X8697297Y67089505D01*
X8530880Y67034360D01*
X8530878Y67034359D01*
X8381658Y66942319D01*
X8381654Y66942316D01*
X8257684Y66818346D01*
X8257681Y66818342D01*
X8165641Y66669122D01*
X8165640Y66669121D01*
X8110495Y66502702D01*
X8110494Y66502695D01*
X8100000Y66399982D01*
X6132485Y66399982D01*
X6146578Y66461726D01*
X6166045Y66547021D01*
X6199999Y66848359D01*
X6200000Y66848372D01*
X6200000Y67151629D01*
X6199999Y67151642D01*
X6166045Y67452981D01*
X6098565Y67748630D01*
X6098562Y67748640D01*
X5998405Y68034870D01*
X5998398Y68034886D01*
X5866830Y68308092D01*
X5705484Y68564874D01*
X5578126Y68724576D01*
X4436289Y67582739D01*
X4339033Y67716602D01*
X4216602Y67839033D01*
X4082736Y67936292D01*
X5224573Y69078129D01*
X5064873Y69205485D01*
X4808091Y69366831D01*
X4534885Y69498399D01*
X4534869Y69498406D01*
X4486094Y69515473D01*
X4402413Y69564835D01*
X4343992Y69642463D01*
X4319726Y69736539D01*
X4333307Y69832740D01*
X4382669Y69916421D01*
X4460297Y69974842D01*
X4554373Y69999108D01*
X4568334Y69999500D01*
X7953534Y69999500D01*
X8048822Y69980546D01*
G37*
%TD.AperFunction*%
%TA.AperFunction,Conductor*%
G36*
X800003Y49864669D02*
G01*
X812631Y49864447D01*
X951362Y49844500D01*
X3196021Y49844500D01*
X3291309Y49825546D01*
X3321484Y49810582D01*
X3341341Y49798998D01*
X3829771Y49514081D01*
X3902528Y49449696D01*
X3945109Y49362369D01*
X3951029Y49265394D01*
X3919388Y49173536D01*
X3855003Y49100779D01*
X3767676Y49058198D01*
X3704308Y49050000D01*
X3400024Y49050000D01*
X3297300Y49039506D01*
X3297297Y49039505D01*
X3130880Y48984360D01*
X3030718Y48922579D01*
X2939666Y48888688D01*
X2842575Y48892220D01*
X2769282Y48922579D01*
X2669118Y48984360D01*
X2669120Y48984360D01*
X2502701Y49039505D01*
X2502694Y49039506D01*
X2399981Y49050000D01*
X1950001Y49050000D01*
X1950000Y49049999D01*
X1950000Y48225000D01*
X3851000Y48225000D01*
X3946288Y48206046D01*
X4027070Y48152070D01*
X4081046Y48071288D01*
X4100000Y47976000D01*
X4100000Y47974000D01*
X4081046Y47878712D01*
X4027070Y47797930D01*
X3946288Y47743954D01*
X3851000Y47725000D01*
X1949000Y47725000D01*
X1853712Y47743954D01*
X1772930Y47797930D01*
X1718954Y47878712D01*
X1700000Y47974000D01*
X1700000Y47975000D01*
X1699000Y47975000D01*
X1603712Y47993954D01*
X1522930Y48047930D01*
X1468954Y48128712D01*
X1450000Y48224000D01*
X1450000Y49049999D01*
X1449999Y49050000D01*
X1000024Y49050000D01*
X897300Y49039506D01*
X897294Y49039505D01*
X827821Y49016483D01*
X731408Y49004502D01*
X637749Y49030330D01*
X561103Y49090033D01*
X513139Y49174523D01*
X500500Y49252844D01*
X500500Y49622928D01*
X519454Y49718216D01*
X573430Y49798998D01*
X654212Y49852974D01*
X749500Y49871928D01*
X800003Y49864669D01*
G37*
%TD.AperFunction*%
%TA.AperFunction,Conductor*%
G36*
X22026954Y69980546D02*
G01*
X22107736Y69926570D01*
X22161712Y69845788D01*
X22180666Y69750500D01*
X22161712Y69655212D01*
X22107736Y69574430D01*
X22026954Y69520454D01*
X22013906Y69515473D01*
X21965130Y69498406D01*
X21965114Y69498399D01*
X21691908Y69366831D01*
X21435125Y69205485D01*
X21275425Y69078129D01*
X22417263Y67936291D01*
X22283398Y67839033D01*
X22160967Y67716602D01*
X22063709Y67582737D01*
X20921871Y68724575D01*
X20794515Y68564875D01*
X20633169Y68308092D01*
X20501601Y68034886D01*
X20501594Y68034870D01*
X20401437Y67748640D01*
X20401435Y67748633D01*
X20351712Y67530785D01*
X20312029Y67442104D01*
X20241430Y67375359D01*
X20150663Y67340712D01*
X20053546Y67343437D01*
X19964865Y67383120D01*
X19898120Y67453719D01*
X19889355Y67468819D01*
X19886634Y67473909D01*
X19886632Y67473914D01*
X19777139Y67637782D01*
X19637782Y67777139D01*
X19473914Y67886632D01*
X19473911Y67886634D01*
X19473908Y67886635D01*
X19291835Y67962051D01*
X19291830Y67962053D01*
X19098545Y68000500D01*
X19098541Y68000500D01*
X18901459Y68000500D01*
X18901454Y68000500D01*
X18708169Y67962053D01*
X18708164Y67962051D01*
X18526091Y67886635D01*
X18526084Y67886631D01*
X18362221Y67777142D01*
X18222858Y67637779D01*
X18113369Y67473916D01*
X18113365Y67473909D01*
X18037949Y67291836D01*
X18037947Y67291831D01*
X17999500Y67098546D01*
X17999500Y66901455D01*
X18037947Y66708170D01*
X18037949Y66708165D01*
X18113365Y66526092D01*
X18113366Y66526089D01*
X18113368Y66526086D01*
X18222861Y66362218D01*
X18362218Y66222861D01*
X18526086Y66113368D01*
X18708165Y66037949D01*
X18708167Y66037949D01*
X18708169Y66037948D01*
X18829036Y66013906D01*
X18901459Y65999500D01*
X19098541Y65999500D01*
X19291835Y66037949D01*
X19473914Y66113368D01*
X19637782Y66222861D01*
X19777139Y66362218D01*
X19886632Y66526086D01*
X19886635Y66526094D01*
X19889352Y66531176D01*
X19893018Y66535644D01*
X19893428Y66536257D01*
X19893488Y66536217D01*
X19950984Y66606281D01*
X20036665Y66652082D01*
X20133352Y66661609D01*
X20226324Y66633410D01*
X20301429Y66571778D01*
X20347230Y66486097D01*
X20351712Y66469216D01*
X20401435Y66251368D01*
X20401437Y66251361D01*
X20501594Y65965131D01*
X20501601Y65965115D01*
X20633169Y65691909D01*
X20794515Y65435127D01*
X20921871Y65275427D01*
X22063708Y66417265D01*
X22160967Y66283398D01*
X22283398Y66160967D01*
X22417261Y66063711D01*
X21275424Y64921874D01*
X21435126Y64794516D01*
X21662103Y64651898D01*
X21732702Y64585153D01*
X21772385Y64496472D01*
X21775110Y64399355D01*
X21740463Y64308588D01*
X21673718Y64237989D01*
X21585037Y64198306D01*
X21487920Y64195581D01*
X21466167Y64200286D01*
X16154644Y65600222D01*
X16067333Y65642835D01*
X16002976Y65715617D01*
X15971370Y65807488D01*
X15977328Y65904460D01*
X16019941Y65991771D01*
X16071747Y66042444D01*
X16144459Y66095273D01*
X16294724Y66245538D01*
X16419623Y66417447D01*
X16516091Y66606775D01*
X16516097Y66606788D01*
X16581756Y66808871D01*
X16592230Y66875000D01*
X15698012Y66875000D01*
X15730925Y66932007D01*
X15765000Y67059174D01*
X15765000Y67190826D01*
X15730925Y67317993D01*
X15698012Y67375000D01*
X16592230Y67375000D01*
X16581756Y67441130D01*
X16516097Y67643213D01*
X16516091Y67643226D01*
X16419623Y67832554D01*
X16294724Y68004463D01*
X16144462Y68154725D01*
X15972553Y68279624D01*
X15783225Y68376092D01*
X15783215Y68376096D01*
X15581124Y68441759D01*
X15581120Y68441760D01*
X15515000Y68452233D01*
X15515000Y67558012D01*
X15457993Y67590925D01*
X15330826Y67625000D01*
X15199174Y67625000D01*
X15072007Y67590925D01*
X15015000Y67558012D01*
X15015000Y68452232D01*
X15014999Y68452233D01*
X14948879Y68441760D01*
X14948875Y68441759D01*
X14746784Y68376096D01*
X14746774Y68376092D01*
X14557446Y68279624D01*
X14377620Y68148972D01*
X14375962Y68151254D01*
X14307168Y68112750D01*
X14210683Y68101356D01*
X14117183Y68127752D01*
X14040901Y68187919D01*
X14030124Y68203564D01*
X14029469Y68203073D01*
X14018796Y68217330D01*
X14018796Y68217331D01*
X13932546Y68332546D01*
X13817331Y68418796D01*
X13682483Y68469091D01*
X13676287Y68469758D01*
X13664534Y68471021D01*
X13583968Y68493846D01*
X11788782Y69350012D01*
X11420294Y69525753D01*
X11342447Y69583879D01*
X11292769Y69667372D01*
X11278824Y69763521D01*
X11302735Y69857688D01*
X11360862Y69935536D01*
X11444355Y69985214D01*
X11527483Y69999500D01*
X21931666Y69999500D01*
X22026954Y69980546D01*
G37*
%TD.AperFunction*%
%TD*%
M02*
