%TF.GenerationSoftware,KiCad,Pcbnew,9.0.0*%
%TF.CreationDate,2025-11-26T22:34:46-05:00*%
%TF.ProjectId,pytheasFC_0.1.0,70797468-6561-4734-9643-5f302e312e30,0.1.0*%
%TF.SameCoordinates,PXbcd3d80PY660b0c0*%
%TF.FileFunction,Legend,Bot*%
%TF.FilePolarity,Positive*%
%FSLAX46Y46*%
G04 Gerber Fmt 4.6, Leading zero omitted, Abs format (unit mm)*
G04 Created by KiCad (PCBNEW 9.0.0) date 2025-11-26 22:34:46*
%MOMM*%
%LPD*%
G01*
G04 APERTURE LIST*
%ADD10C,0.250000*%
%ADD11C,0.800000*%
%ADD12C,0.125000*%
%ADD13C,0.120000*%
%ADD14C,0.000000*%
G04 APERTURE END LIST*
D10*
G36*
X9667827Y13465457D02*
G01*
X9728292Y13391327D01*
X9765974Y13307759D01*
X9778755Y13213146D01*
X9769465Y13137875D01*
X9742338Y13072031D01*
X9700323Y13013399D01*
X9645444Y12960701D01*
X9581478Y12915707D01*
X9506411Y12875642D01*
X9345527Y12816595D01*
X9182433Y12783170D01*
X9036116Y12772375D01*
X8921144Y12783170D01*
X8871466Y12797798D01*
X8831533Y12818156D01*
X8798276Y12845819D01*
X8772616Y12880714D01*
X8756537Y12922200D01*
X8750766Y12974617D01*
X8761466Y13053382D01*
X8795116Y13135370D01*
X8847018Y13212177D01*
X8918022Y13285979D01*
X9002144Y13350825D01*
X9103357Y13409665D01*
X9214089Y13456211D01*
X9336813Y13489652D01*
X9577033Y13539074D01*
X9667827Y13465457D01*
G37*
G36*
X9540909Y19487473D02*
G01*
X9601094Y19476152D01*
X9655482Y19455430D01*
X9699289Y19425169D01*
X9734237Y19384858D01*
X9761067Y19332046D01*
X9777044Y19271196D01*
X9782917Y19193143D01*
X9774859Y19108759D01*
X9751573Y19034601D01*
X9714855Y18967071D01*
X9667294Y18907273D01*
X9610176Y18855250D01*
X9542957Y18809728D01*
X9469601Y18772011D01*
X9390918Y18741317D01*
X9225222Y18701259D01*
X9058616Y18688253D01*
X8987991Y18692446D01*
X8927777Y18704250D01*
X8873315Y18725497D01*
X8828802Y18755884D01*
X8793259Y18796124D01*
X8766243Y18848226D01*
X8750375Y18908613D01*
X8744523Y18986609D01*
X8752601Y19072140D01*
X8775737Y19145801D01*
X8812650Y19212745D01*
X8860796Y19272479D01*
X8918556Y19324516D01*
X8985913Y19369894D01*
X9059364Y19407580D01*
X9138603Y19438305D01*
X9304429Y19478363D01*
X9470254Y19491499D01*
X9540909Y19487473D01*
G37*
G36*
X9609808Y23367787D02*
G01*
X9659583Y23353187D01*
X9700069Y23332801D01*
X9733726Y23305087D01*
X9758336Y23270243D01*
X9773297Y23228777D01*
X9778755Y23174909D01*
X9768243Y23097250D01*
X9734925Y23014806D01*
X9683459Y22937498D01*
X9612539Y22863547D01*
X9528289Y22798554D01*
X9426684Y22739080D01*
X9315627Y22692378D01*
X9192708Y22659874D01*
X8952488Y22611882D01*
X8861132Y22685422D01*
X8800839Y22758849D01*
X8763473Y22841842D01*
X8750766Y22936380D01*
X8759996Y23010508D01*
X8787183Y23076714D01*
X8829380Y23135923D01*
X8884727Y23188695D01*
X8949154Y23233755D01*
X9022980Y23273104D01*
X9183213Y23332801D01*
X9347738Y23367787D01*
X9494835Y23378712D01*
X9609808Y23367787D01*
G37*
G36*
X9697303Y27324469D02*
G01*
X9749882Y27280752D01*
X9782866Y27214306D01*
X9795402Y27114926D01*
X9786924Y27024025D01*
X9762888Y26947540D01*
X9724701Y26878881D01*
X9675488Y26818781D01*
X9616550Y26767173D01*
X9547639Y26722797D01*
X9472841Y26686638D01*
X9393779Y26658028D01*
X9393779Y26806425D01*
X9398941Y26953011D01*
X9412508Y27061732D01*
X9436159Y27158489D01*
X9463881Y27226127D01*
X9500725Y27280788D01*
X9539706Y27313527D01*
X9584411Y27332726D01*
X9630747Y27339018D01*
X9697303Y27324469D01*
G37*
G36*
X10845721Y9622379D02*
G01*
X7800334Y9622379D01*
X7800334Y10029294D01*
X8037001Y10029294D01*
X8047275Y9922385D01*
X8066134Y9870751D01*
X8082261Y9862037D01*
X8105542Y9859046D01*
X8125311Y9861257D01*
X8154444Y9866459D01*
X8186439Y9873743D01*
X8217783Y9883887D01*
X8241194Y9896893D01*
X8249908Y9914451D01*
X8247697Y9934090D01*
X8243405Y9954380D01*
X8238983Y9980652D01*
X8236772Y10019149D01*
X8241810Y10077671D01*
X8255760Y10124627D01*
X8279729Y10165450D01*
X8314677Y10200192D01*
X8358462Y10228148D01*
X8415993Y10252606D01*
X8563090Y10291233D01*
X9751703Y10529892D01*
X9751703Y10343647D01*
X9761197Y10321017D01*
X9796963Y10313083D01*
X9825316Y10314514D01*
X9859522Y10319586D01*
X9893077Y10329080D01*
X9922340Y10343647D01*
X9943410Y10361725D01*
X9951474Y10385786D01*
X9951474Y10569170D01*
X10134597Y10605587D01*
X10249698Y10635341D01*
X10344643Y10674648D01*
X10427599Y10727739D01*
X10493301Y10793132D01*
X10543679Y10872094D01*
X10580441Y10969232D01*
X10601355Y11077831D01*
X10609054Y11215175D01*
X10605542Y11292950D01*
X10595657Y11382431D01*
X10581481Y11460987D01*
X10565354Y11504687D01*
X10555079Y11511320D01*
X10546365Y11516392D01*
X10568735Y11525106D01*
X10586163Y11546956D01*
X10596828Y11585453D01*
X10600730Y11648792D01*
X10597738Y11704718D01*
X10589024Y11739704D01*
X10574458Y11756481D01*
X10554038Y11759343D01*
X8608091Y11370856D01*
X8587275Y11359621D01*
X8572325Y11335219D01*
X8561400Y11244308D01*
X8565041Y11184611D01*
X8573755Y11148974D01*
X8587542Y11132197D01*
X8607961Y11129335D01*
X10384701Y11484397D01*
X10378458Y11474903D01*
X10375987Y11459686D01*
X10380799Y11428992D01*
X10392635Y11377359D01*
X10404340Y11302444D01*
X10409282Y11200608D01*
X10404025Y11110239D01*
X10390164Y11043496D01*
X10365334Y10985543D01*
X10330727Y10940099D01*
X10285986Y10904133D01*
X10228760Y10875330D01*
X10083484Y10835401D01*
X9951474Y10810690D01*
X9951474Y11078482D01*
X9940549Y11103844D01*
X9904782Y11113338D01*
X9871227Y11111127D01*
X9837021Y11103844D01*
X9804897Y11092269D01*
X9777975Y11077702D01*
X9758986Y11059494D01*
X9751703Y11037644D01*
X9751703Y10769982D01*
X8513538Y10521178D01*
X8396148Y10491060D01*
X8301541Y10454198D01*
X8218159Y10406326D01*
X8152883Y10350930D01*
X8101510Y10285055D01*
X8065484Y10209686D01*
X8044424Y10126490D01*
X8037001Y10029294D01*
X7800334Y10029294D01*
X7800334Y11925298D01*
X8561400Y11925298D01*
X8564391Y11866382D01*
X8572975Y11831526D01*
X8586761Y11815528D01*
X8606400Y11814748D01*
X9914797Y12075257D01*
X9933656Y12083971D01*
X9948092Y12105821D01*
X9956806Y12144318D01*
X9959797Y12204666D01*
X9957219Y12254218D01*
X10209511Y12254218D01*
X10216795Y12184247D01*
X10240726Y12143538D01*
X10284946Y12129101D01*
X10353097Y12134824D01*
X10420468Y12156674D01*
X10465468Y12189449D01*
X10490179Y12239652D01*
X10496682Y12313916D01*
X10490179Y12382977D01*
X10480443Y12407117D01*
X10465468Y12423686D01*
X10420468Y12438903D01*
X10353097Y12431749D01*
X10284946Y12412110D01*
X10240726Y12379335D01*
X10216795Y12328352D01*
X10209511Y12254218D01*
X9957219Y12254218D01*
X9956806Y12262152D01*
X9948092Y12297138D01*
X9933656Y12313135D01*
X9914797Y12315346D01*
X8606400Y12054838D01*
X8586761Y12044693D01*
X8572975Y12022843D01*
X8564391Y11984215D01*
X8561400Y11925298D01*
X7800334Y11925298D01*
X7800334Y12916350D01*
X8037001Y12916350D01*
X8043367Y12798626D01*
X8061452Y12695900D01*
X8089868Y12602058D01*
X8119978Y12536577D01*
X8148721Y12506664D01*
X8184488Y12498730D01*
X8209459Y12499510D01*
X8241584Y12503932D01*
X8275269Y12512646D01*
X8306744Y12525652D01*
X8328594Y12545291D01*
X8336657Y12570133D01*
X8320920Y12613702D01*
X8285414Y12683544D01*
X8249257Y12792014D01*
X8237162Y12860589D01*
X8232610Y12951336D01*
X8236836Y13027746D01*
X8248737Y13093101D01*
X8269168Y13153328D01*
X8296859Y13203651D01*
X8333311Y13246545D01*
X8378666Y13280777D01*
X8431667Y13306313D01*
X8497020Y13325257D01*
X8719292Y13374679D01*
X8856374Y13415518D01*
X8804023Y13386461D01*
X8747905Y13341254D01*
X8695979Y13286979D01*
X8647369Y13223420D01*
X8606116Y13153591D01*
X8573105Y13076453D01*
X8551802Y12995498D01*
X8550007Y12974617D01*
X8544752Y12913489D01*
X8554477Y12809638D01*
X8581169Y12728675D01*
X8624754Y12659894D01*
X8680924Y12607069D01*
X8748880Y12568162D01*
X8830883Y12540869D01*
X8919535Y12525807D01*
X9017908Y12520580D01*
X9207925Y12536577D01*
X9313212Y12557127D01*
X9420572Y12587430D01*
X9525894Y12627185D01*
X9628797Y12676911D01*
X9724938Y12737466D01*
X9809319Y12808661D01*
X9880726Y12891672D01*
X9936647Y12986973D01*
X9972339Y13092971D01*
X9984769Y13216137D01*
X9971000Y13339155D01*
X9932355Y13438018D01*
X9870969Y13524575D01*
X9788249Y13603194D01*
X9916098Y13630766D01*
X9935634Y13641595D01*
X9949523Y13664191D01*
X9959797Y13750161D01*
X9957586Y13798933D01*
X9949523Y13830147D01*
X9934956Y13844584D01*
X9916098Y13846144D01*
X8501312Y13562355D01*
X8390189Y13531245D01*
X8297639Y13487441D01*
X8217462Y13428454D01*
X8152753Y13355691D01*
X8103129Y13269915D01*
X8066134Y13165804D01*
X8044679Y13051886D01*
X8037001Y12916350D01*
X7800334Y12916350D01*
X7800334Y14992097D01*
X8561400Y14992097D01*
X8564391Y14934611D01*
X8572975Y14899755D01*
X8586761Y14883758D01*
X8606530Y14881547D01*
X9417450Y15043080D01*
X9502899Y15055436D01*
X9585617Y15060508D01*
X9663132Y15051794D01*
X9723870Y15023441D01*
X9764058Y14972458D01*
X9774823Y14939077D01*
X9778755Y14896113D01*
X9767954Y14819890D01*
X9733494Y14738221D01*
X9680630Y14661567D01*
X9608507Y14588263D01*
X9523429Y14523893D01*
X9420832Y14464577D01*
X9309353Y14417744D01*
X9188546Y14385370D01*
X8606530Y14268967D01*
X8586761Y14258823D01*
X8572975Y14236973D01*
X8564391Y14198345D01*
X8561400Y14139428D01*
X8564391Y14080511D01*
X8572975Y14045655D01*
X8586761Y14029658D01*
X8606530Y14028878D01*
X10554038Y14415934D01*
X10574458Y14425299D01*
X10589024Y14447149D01*
X10597738Y14486426D01*
X10600730Y14546904D01*
X10597738Y14604260D01*
X10589024Y14639246D01*
X10574458Y14654463D01*
X10554038Y14656024D01*
X9961098Y14539621D01*
X9883843Y14522193D01*
X9805937Y14501123D01*
X9732324Y14479273D01*
X9671196Y14459634D01*
X9721227Y14488155D01*
X9776934Y14532337D01*
X9828898Y14585544D01*
X9877600Y14648741D01*
X9919389Y14718617D01*
X9954075Y14796488D01*
X9977107Y14878589D01*
X9984769Y14963094D01*
X9977519Y15052087D01*
X9957717Y15121636D01*
X9925126Y15181833D01*
X9883323Y15228545D01*
X9831965Y15264072D01*
X9770301Y15288892D01*
X9703098Y15303010D01*
X9628927Y15307881D01*
X9526700Y15302028D01*
X9426164Y15286031D01*
X8606530Y15123067D01*
X8586761Y15112922D01*
X8572975Y15090292D01*
X8564391Y15051794D01*
X8561400Y14992097D01*
X7800334Y14992097D01*
X7800334Y15969363D01*
X8544752Y15969363D01*
X8549424Y15890778D01*
X8562180Y15828118D01*
X8584916Y15772502D01*
X8616675Y15727713D01*
X8658034Y15692546D01*
X8709667Y15667365D01*
X8768778Y15653000D01*
X8844019Y15647726D01*
X8882646Y15649157D01*
X8926866Y15654359D01*
X8973428Y15661512D01*
X9016997Y15669576D01*
X9751703Y15816543D01*
X9751703Y15634720D01*
X9761197Y15609879D01*
X9798394Y15601165D01*
X9845735Y15605457D01*
X9896068Y15618593D01*
X9935346Y15641223D01*
X9951474Y15673998D01*
X9951474Y15857252D01*
X10262836Y15919810D01*
X10281694Y15929174D01*
X10297041Y15951805D01*
X10306406Y15990302D01*
X10309397Y16049349D01*
X10306406Y16106705D01*
X10297041Y16141691D01*
X10281694Y16157689D01*
X10262836Y16159900D01*
X9951474Y16097341D01*
X9951474Y16431984D01*
X9947197Y16450625D01*
X9935346Y16461117D01*
X9898930Y16468400D01*
X9870447Y16466970D01*
X9839102Y16461117D01*
X9807108Y16449412D01*
X9778625Y16434195D01*
X9758986Y16415986D01*
X9751703Y16392706D01*
X9751703Y16058063D01*
X9022850Y15911096D01*
X8954829Y15900822D01*
X8892661Y15896530D01*
X8825393Y15905342D01*
X8784712Y15927744D01*
X8760219Y15965939D01*
X8750766Y16028930D01*
X8757269Y16097341D01*
X8771185Y16147544D01*
X8784972Y16184611D01*
X8791605Y16212314D01*
X8783541Y16230392D01*
X8753757Y16237025D01*
X8712008Y16233383D01*
X8667398Y16223889D01*
X8627990Y16209322D01*
X8600287Y16190464D01*
X8579738Y16155608D01*
X8561530Y16101763D01*
X8549174Y16036994D01*
X8544752Y15969363D01*
X7800334Y15969363D01*
X7800334Y17683935D01*
X8544752Y17683935D01*
X8553387Y17566223D01*
X8577221Y17471363D01*
X8614144Y17395051D01*
X8663496Y17333945D01*
X8749854Y17272591D01*
X8864814Y17232945D01*
X9017128Y17218322D01*
X9210526Y17233539D01*
X9315223Y17253971D01*
X9422132Y17285303D01*
X9526765Y17326675D01*
X9628666Y17378425D01*
X9723190Y17441804D01*
X9806197Y17518109D01*
X9875587Y17607123D01*
X9930014Y17710207D01*
X9964326Y17824604D01*
X9976445Y17960441D01*
X9966821Y18072422D01*
X9940809Y18173608D01*
X9900100Y18259447D01*
X9856270Y18319144D01*
X9823885Y18345286D01*
X9794752Y18350359D01*
X9740908Y18345286D01*
X9689144Y18329939D01*
X9649086Y18305878D01*
X9633088Y18274664D01*
X9637915Y18255036D01*
X9654678Y18232395D01*
X9703060Y18175039D01*
X9752223Y18084778D01*
X9768459Y18026071D01*
X9774593Y17945874D01*
X9764685Y17856669D01*
X9736226Y17780699D01*
X9692042Y17713357D01*
X9636340Y17655582D01*
X9571104Y17607318D01*
X9496656Y17567532D01*
X9339024Y17510826D01*
X9184774Y17479482D01*
X9055365Y17470117D01*
X8957958Y17478494D01*
X8884524Y17501074D01*
X8829582Y17535537D01*
X8788215Y17584217D01*
X8762266Y17647658D01*
X8752847Y17730496D01*
X8758963Y17821287D01*
X8775607Y17892680D01*
X8827761Y18007652D01*
X8879785Y18085558D01*
X8897682Y18116066D01*
X8902675Y18139402D01*
X8891750Y18157481D01*
X8860536Y18164114D01*
X8819177Y18161122D01*
X8769755Y18151758D01*
X8722543Y18135761D01*
X8682875Y18108839D01*
X8639175Y18047711D01*
X8592614Y17946525D01*
X8558408Y17822058D01*
X8544752Y17683935D01*
X7800334Y17683935D01*
X7800334Y18964759D01*
X8544752Y18964759D01*
X8553738Y18830642D01*
X8578177Y18725320D01*
X8620254Y18633080D01*
X8675722Y18561705D01*
X8746332Y18506531D01*
X8832964Y18467152D01*
X8929936Y18444589D01*
X9044180Y18436588D01*
X9152235Y18441432D01*
X9263980Y18456227D01*
X9374160Y18481562D01*
X9479488Y18518005D01*
X9580122Y18565492D01*
X9675358Y18623483D01*
X9761972Y18692756D01*
X9836241Y18773312D01*
X9897183Y18865061D01*
X9944711Y18969831D01*
X9974389Y19083859D01*
X9984769Y19214993D01*
X9975577Y19349051D01*
X9950563Y19454302D01*
X9907978Y19546778D01*
X9852238Y19618697D01*
X9781657Y19674476D01*
X9694997Y19714031D01*
X9598307Y19736616D01*
X9485341Y19744595D01*
X9377301Y19739560D01*
X9265541Y19724175D01*
X9155208Y19698527D01*
X9049252Y19662397D01*
X8948251Y19615278D01*
X8853383Y19556919D01*
X8767387Y19487155D01*
X8693280Y19406310D01*
X8632338Y19314561D01*
X8584810Y19209791D01*
X8555135Y19095876D01*
X8546482Y18986609D01*
X8544752Y18964759D01*
X7800334Y18964759D01*
X7800334Y21735413D01*
X8561400Y21735413D01*
X8564391Y21677796D01*
X8572975Y21642940D01*
X8586761Y21626163D01*
X8606400Y21624732D01*
X9414719Y21786266D01*
X9495746Y21798621D01*
X9572481Y21803694D01*
X9660607Y21793949D01*
X9722699Y21768057D01*
X9752764Y21739914D01*
X9771723Y21699897D01*
X9778755Y21643721D01*
X9768161Y21571733D01*
X9734014Y21493112D01*
X9682053Y21418667D01*
X9610848Y21345365D01*
X9526677Y21280589D01*
X9424603Y21221678D01*
X9313243Y21175425D01*
X9190887Y21143122D01*
X8606400Y21026719D01*
X8586761Y21016575D01*
X8572975Y20993944D01*
X8564391Y20954666D01*
X8561400Y20895750D01*
X8564391Y20838263D01*
X8572975Y20804058D01*
X8586761Y20788060D01*
X8606400Y20785199D01*
X9414719Y20946733D01*
X9501599Y20960519D01*
X9581325Y20964161D01*
X9665175Y20954271D01*
X9724910Y20927744D01*
X9753754Y20899448D01*
X9771996Y20859627D01*
X9778755Y20804188D01*
X9768079Y20730950D01*
X9734014Y20652799D01*
X9682115Y20579006D01*
X9610848Y20505832D01*
X9526677Y20441057D01*
X9424603Y20382145D01*
X9313243Y20335892D01*
X9190887Y20303590D01*
X8606400Y20187186D01*
X8586761Y20177042D01*
X8572975Y20155192D01*
X8564391Y20116564D01*
X8561400Y20057647D01*
X8564391Y19998730D01*
X8572975Y19963875D01*
X8586761Y19947877D01*
X8606400Y19947097D01*
X9916228Y20210467D01*
X9935086Y20218401D01*
X9949653Y20238820D01*
X9957586Y20273806D01*
X9959797Y20324009D01*
X9957586Y20374212D01*
X9949523Y20404776D01*
X9935086Y20418562D01*
X9916228Y20419993D01*
X9666124Y20370570D01*
X9715571Y20398014D01*
X9772382Y20442623D01*
X9825695Y20496386D01*
X9875649Y20559676D01*
X9918622Y20629388D01*
X9953815Y20705863D01*
X9977079Y20786365D01*
X9984769Y20868177D01*
X9978270Y20951798D01*
X9960448Y21018005D01*
X9931078Y21075852D01*
X9893987Y21120622D01*
X9848242Y21155187D01*
X9793712Y21179539D01*
X9733684Y21194605D01*
X9666124Y21202820D01*
X9773813Y21282806D01*
X9827015Y21337243D01*
X9876299Y21400640D01*
X9918798Y21470213D01*
X9953815Y21546176D01*
X9977095Y21625817D01*
X9984769Y21706279D01*
X9977226Y21799135D01*
X9956936Y21869244D01*
X9923404Y21929364D01*
X9880721Y21975502D01*
X9828688Y22010194D01*
X9767830Y22033639D01*
X9701549Y22046565D01*
X9627106Y22051066D01*
X9526050Y22045214D01*
X9423433Y22029347D01*
X8606400Y21864822D01*
X8586761Y21856108D01*
X8572975Y21833477D01*
X8564391Y21794199D01*
X8561400Y21735413D01*
X7800334Y21735413D01*
X7800334Y22310665D01*
X8037001Y22310665D01*
X8039992Y22254609D01*
X8048706Y22218973D01*
X8063273Y22202325D01*
X8083562Y22200114D01*
X9916098Y22568182D01*
X9935677Y22576507D01*
X9949523Y22597186D01*
X9959797Y22684585D01*
X9957586Y22734008D01*
X9950303Y22764572D01*
X9936517Y22779139D01*
X9916098Y22780699D01*
X9671716Y22731147D01*
X9719082Y22757096D01*
X9774333Y22800208D01*
X9826373Y22852825D01*
X9876299Y22916611D01*
X9919134Y22987541D01*
X9954205Y23067220D01*
X9977183Y23151216D01*
X9984769Y23236037D01*
X9974626Y23340948D01*
X9946922Y23421501D01*
X9902286Y23489923D01*
X9845735Y23543107D01*
X9777720Y23582588D01*
X9695777Y23609957D01*
X9607276Y23625135D01*
X9510052Y23630377D01*
X9320036Y23614379D01*
X9214763Y23593824D01*
X9106738Y23563396D01*
X9000872Y23523682D01*
X8897863Y23473915D01*
X8801845Y23413429D01*
X8717991Y23342295D01*
X8647350Y23259313D01*
X8592094Y23163984D01*
X8556996Y23058124D01*
X8544907Y22936380D01*
X8544752Y22934820D01*
X8557888Y22815555D01*
X8594175Y22716580D01*
X8648800Y22633732D01*
X8717991Y22563890D01*
X8083562Y22440204D01*
X8063273Y22430710D01*
X8048706Y22409640D01*
X8039992Y22371012D01*
X8037001Y22310665D01*
X7800334Y22310665D01*
X7800334Y24258433D01*
X8544752Y24258433D01*
X8551999Y24163964D01*
X8571544Y24091827D01*
X8604064Y24029720D01*
X8645288Y23982707D01*
X8696257Y23947273D01*
X8756749Y23923010D01*
X8823123Y23909509D01*
X8897993Y23904802D01*
X8995668Y23911305D01*
X9096334Y23928083D01*
X9916228Y24089616D01*
X9935086Y24099761D01*
X9949653Y24122261D01*
X9957586Y24161539D01*
X9959797Y24220586D01*
X9957586Y24277942D01*
X9949653Y24312928D01*
X9935086Y24328925D01*
X9916228Y24331136D01*
X9105048Y24171033D01*
X9027272Y24157897D01*
X8945205Y24153605D01*
X8866649Y24161539D01*
X8805391Y24189242D01*
X8765073Y24240095D01*
X8754595Y24273563D01*
X8750766Y24316570D01*
X8761306Y24392857D01*
X8794856Y24474462D01*
X8846457Y24551291D01*
X8916982Y24625070D01*
X9000779Y24689967D01*
X9102707Y24749407D01*
X9214236Y24796554D01*
X9337594Y24830174D01*
X9916228Y24945146D01*
X9935086Y24954511D01*
X9949653Y24977791D01*
X9957586Y25017069D01*
X9959797Y25076116D01*
X9957586Y25133472D01*
X9949653Y25168458D01*
X9935086Y25184456D01*
X9916228Y25186667D01*
X8606400Y24923296D01*
X8586111Y24914582D01*
X8572325Y24894163D01*
X8564391Y24859958D01*
X8561400Y24808324D01*
X8564391Y24759552D01*
X8572325Y24729118D01*
X8586111Y24714551D01*
X8606400Y24713771D01*
X8852082Y24761763D01*
X8803864Y24733226D01*
X8748945Y24688279D01*
X8697470Y24634478D01*
X8648670Y24570445D01*
X8607033Y24499945D01*
X8573625Y24422048D01*
X8551915Y24340513D01*
X8544752Y24258433D01*
X7800334Y24258433D01*
X7800334Y25806009D01*
X8544752Y25806009D01*
X8549424Y25727424D01*
X8562180Y25664765D01*
X8584916Y25609148D01*
X8616675Y25564359D01*
X8658034Y25529192D01*
X8709667Y25504011D01*
X8768778Y25489646D01*
X8844019Y25484372D01*
X8882646Y25485803D01*
X8926866Y25491005D01*
X8973428Y25498159D01*
X9016997Y25506222D01*
X9751703Y25653189D01*
X9751703Y25471366D01*
X9761197Y25446525D01*
X9798394Y25437811D01*
X9845735Y25442103D01*
X9896068Y25455239D01*
X9935346Y25477869D01*
X9951474Y25510644D01*
X9951474Y25693898D01*
X10262836Y25756456D01*
X10281694Y25765821D01*
X10297041Y25788451D01*
X10306406Y25826949D01*
X10309397Y25885995D01*
X10306406Y25943352D01*
X10297041Y25978338D01*
X10281694Y25994335D01*
X10262836Y25996546D01*
X9951474Y25933987D01*
X9951474Y26268630D01*
X9947197Y26287271D01*
X9935346Y26297763D01*
X9898930Y26305047D01*
X9870447Y26303616D01*
X9839102Y26297763D01*
X9807108Y26286058D01*
X9778625Y26270841D01*
X9758986Y26252633D01*
X9751703Y26229352D01*
X9751703Y25894709D01*
X9022850Y25747742D01*
X8954829Y25737468D01*
X8892661Y25733176D01*
X8825393Y25741988D01*
X8784712Y25764390D01*
X8760219Y25802585D01*
X8750766Y25865576D01*
X8757269Y25933987D01*
X8771185Y25984190D01*
X8784972Y26021257D01*
X8791605Y26048960D01*
X8783541Y26067038D01*
X8753757Y26073671D01*
X8712008Y26070029D01*
X8667398Y26060535D01*
X8627990Y26045968D01*
X8600287Y26027110D01*
X8579738Y25992254D01*
X8561530Y25938409D01*
X8549174Y25873640D01*
X8544752Y25806009D01*
X7800334Y25806009D01*
X7800334Y26868984D01*
X8544752Y26868984D01*
X8552496Y26744015D01*
X8573885Y26642030D01*
X8611601Y26551273D01*
X8663366Y26479716D01*
X8730557Y26423677D01*
X8814105Y26382952D01*
X8909045Y26359470D01*
X9026752Y26350958D01*
X9122790Y26355332D01*
X9229775Y26369166D01*
X9337311Y26392540D01*
X9444502Y26426652D01*
X9548417Y26471619D01*
X9648435Y26528489D01*
X9740320Y26597201D01*
X9820244Y26677667D01*
X9886735Y26770165D01*
X9939638Y26877698D01*
X9973049Y26996034D01*
X9984769Y27133785D01*
X9976547Y27250826D01*
X9954335Y27341099D01*
X9918440Y27420573D01*
X9876039Y27480783D01*
X9824586Y27528567D01*
X9769391Y27560119D01*
X9710121Y27578795D01*
X9652597Y27584830D01*
X9556745Y27572962D01*
X9472725Y27538269D01*
X9400610Y27480537D01*
X9336423Y27392733D01*
X9288239Y27285377D01*
X9249413Y27139637D01*
X9227233Y26977783D01*
X9220422Y26806425D01*
X9218980Y26770139D01*
X9218980Y26658028D01*
X9218980Y26615888D01*
X9125207Y26601972D01*
X9040148Y26598330D01*
X8944995Y26607363D01*
X8871924Y26632019D01*
X8815926Y26670383D01*
X8775196Y26723750D01*
X8748378Y26799103D01*
X8738280Y26903970D01*
X8742023Y26994654D01*
X8752457Y27071226D01*
X8783021Y27199985D01*
X8813585Y27289466D01*
X8827761Y27337588D01*
X8818137Y27357096D01*
X8791084Y27363729D01*
X8755838Y27360738D01*
X8714089Y27352024D01*
X8673771Y27336807D01*
X8641516Y27315738D01*
X8607051Y27253829D01*
X8576226Y27148351D01*
X8553596Y27014390D01*
X8544752Y26868984D01*
X7800334Y26868984D01*
X7800334Y27867449D01*
X8561400Y27867449D01*
X8564391Y27808532D01*
X8572975Y27773676D01*
X8586761Y27757679D01*
X8606400Y27756899D01*
X9916228Y28017408D01*
X9935086Y28026122D01*
X9949653Y28047971D01*
X9957586Y28083608D01*
X9959797Y28133811D01*
X9957586Y28184014D01*
X9949653Y28214447D01*
X9935086Y28228234D01*
X9916228Y28229794D01*
X9677829Y28181803D01*
X9794362Y28261009D01*
X9892557Y28360764D01*
X9930600Y28416316D01*
X9959667Y28473526D01*
X9978680Y28532757D01*
X9984769Y28589148D01*
X9981127Y28639351D01*
X9972413Y28686693D01*
X9960708Y28725190D01*
X9945491Y28750682D01*
X9917918Y28759396D01*
X9895288Y28757185D01*
X9856790Y28752113D01*
X9811790Y28743399D01*
X9768870Y28728832D01*
X9736095Y28710624D01*
X9722959Y28689554D01*
X9728032Y28664062D01*
X9740387Y28633499D01*
X9752743Y28595001D01*
X9757945Y28544148D01*
X9748383Y28494314D01*
X9714636Y28429956D01*
X9665017Y28367688D01*
X9595241Y28302628D01*
X9513963Y28243972D01*
X9414979Y28188305D01*
X9307446Y28143709D01*
X9189326Y28111961D01*
X8606400Y27996988D01*
X8586761Y27986844D01*
X8572975Y27964994D01*
X8564391Y27926366D01*
X8561400Y27867449D01*
X7800334Y27867449D01*
X7800334Y28996063D01*
X10845721Y28996063D01*
X10845721Y9622379D01*
G37*
D11*
G36*
X13617062Y12210933D02*
G01*
X13865244Y12170246D01*
X14097186Y12098226D01*
X14291936Y11996834D01*
X14456040Y11860254D01*
X14580631Y11689332D01*
X14658132Y11487181D01*
X14685900Y11233086D01*
X14658545Y10991286D01*
X14575014Y10771223D01*
X14435551Y10562151D01*
X14242843Y10353324D01*
X14529829Y10353324D01*
X14577456Y10339646D01*
X14611650Y10291774D01*
X14632166Y10201649D01*
X14639005Y10063652D01*
X14632166Y9922968D01*
X14611650Y9832842D01*
X14577456Y9784971D01*
X14529829Y9771293D01*
X11129724Y9771293D01*
X11080875Y9787657D01*
X11043995Y9843589D01*
X11020792Y9948857D01*
X11012487Y10115675D01*
X11020792Y10282005D01*
X11043750Y10387273D01*
X11080387Y10443449D01*
X11129480Y10459814D01*
X12271071Y10459814D01*
X12123304Y10629074D01*
X12018035Y10794426D01*
X11955265Y10966617D01*
X11950802Y11009116D01*
X12513115Y11009116D01*
X12537529Y10872399D01*
X12614720Y10735808D01*
X12730875Y10607683D01*
X12902927Y10459814D01*
X13706974Y10459814D01*
X13887226Y10615640D01*
X14005683Y10759011D01*
X14071629Y10895543D01*
X14091901Y11030853D01*
X14074299Y11158987D01*
X14024734Y11258976D01*
X13947571Y11340730D01*
X13845460Y11406499D01*
X13727848Y11453691D01*
X13589738Y11485878D01*
X13290296Y11509081D01*
X13011127Y11480260D01*
X12876933Y11443141D01*
X12760778Y11391600D01*
X12659642Y11322214D01*
X12581503Y11237238D01*
X12530818Y11135069D01*
X12513115Y11009116D01*
X11950802Y11009116D01*
X11934748Y11162012D01*
X11960251Y11408650D01*
X12033178Y11618257D01*
X12152461Y11800982D01*
X12314790Y11951649D01*
X12512793Y12067207D01*
X12759312Y12155103D01*
X13029541Y12206650D01*
X13345984Y12224957D01*
X13617062Y12210933D01*
G37*
G36*
X11997275Y14157894D02*
G01*
X11139982Y13862605D01*
X11084671Y13820821D01*
X11042285Y13728516D01*
X11021178Y13606692D01*
X11012487Y13409046D01*
X11022013Y13234168D01*
X11053276Y13135738D01*
X11107498Y13100323D01*
X11186144Y13116687D01*
X11997275Y13441774D01*
X12047833Y13377539D01*
X12120373Y13335285D01*
X14362766Y12496555D01*
X14509068Y12460895D01*
X14554918Y12469407D01*
X14588203Y12493624D01*
X14610979Y12533558D01*
X14628014Y12604510D01*
X14639005Y12810651D01*
X14634853Y12996520D01*
X14614337Y13103010D01*
X14563778Y13160407D01*
X14466814Y13198753D01*
X12834050Y13772479D01*
X12834050Y13780783D01*
X14499542Y14305417D01*
X14563214Y14326285D01*
X14593820Y14347671D01*
X14628014Y14433889D01*
X14639005Y14644182D01*
X14628014Y14839332D01*
X14610867Y14910781D01*
X14586981Y14954126D01*
X14552114Y14981829D01*
X14506381Y14991251D01*
X14387435Y14969269D01*
X11997275Y14157894D01*
G37*
G36*
X12324071Y16864838D02*
G01*
X12138935Y16849695D01*
X12048321Y16810128D01*
X12001915Y16737832D01*
X11966256Y16625724D01*
X11943053Y16486262D01*
X11934748Y16334831D01*
X11948617Y16137742D01*
X11986772Y15979458D01*
X12053664Y15840918D01*
X12146995Y15730818D01*
X12266610Y15646799D01*
X12419570Y15585982D01*
X12592043Y15552028D01*
X12808649Y15539576D01*
X14060638Y15539576D01*
X14060638Y15246973D01*
X14075433Y15203045D01*
X14125362Y15167839D01*
X14201371Y15148761D01*
X14342006Y15140483D01*
X14477072Y15147322D01*
X14564023Y15167839D01*
X14609452Y15202033D01*
X14623374Y15249904D01*
X14623374Y15539576D01*
X15165593Y15539576D01*
X15214441Y15554475D01*
X15251322Y15609185D01*
X15273060Y15715675D01*
X15279898Y15881028D01*
X15273060Y16049067D01*
X15251322Y16154335D01*
X15214441Y16209046D01*
X15165593Y16225410D01*
X14623374Y16225410D01*
X14623374Y16755417D01*
X14609452Y16803289D01*
X14564023Y16837483D01*
X14477072Y16857999D01*
X14342006Y16864838D01*
X14201371Y16856560D01*
X14125362Y16837483D01*
X14075433Y16802277D01*
X14060638Y16758348D01*
X14060638Y16225410D01*
X12912941Y16225410D01*
X12727701Y16243373D01*
X12613011Y16288181D01*
X12559615Y16338137D01*
X12525746Y16410171D01*
X12513115Y16512395D01*
X12522641Y16610825D01*
X12544378Y16688495D01*
X12566360Y16745892D01*
X12575886Y16788390D01*
X12566360Y16819653D01*
X12528014Y16842856D01*
X12450101Y16857999D01*
X12324071Y16864838D01*
G37*
G36*
X12091064Y19688285D02*
G01*
X12043192Y19671921D01*
X12008998Y19617211D01*
X11988482Y19511942D01*
X11981643Y19346834D01*
X11988482Y19178550D01*
X12008998Y19073282D01*
X12043192Y19018816D01*
X12091308Y19002451D01*
X13486179Y19002451D01*
X13654854Y18994979D01*
X13765837Y18976317D01*
X13861933Y18943786D01*
X13939738Y18901335D01*
X14004250Y18845000D01*
X14052090Y18774329D01*
X14081518Y18691883D01*
X14091901Y18592612D01*
X14069281Y18464639D01*
X13995914Y18327608D01*
X13884647Y18197498D01*
X13716500Y18048927D01*
X12091308Y18048927D01*
X12043192Y18032563D01*
X12008998Y17976387D01*
X11988482Y17871118D01*
X11981643Y17704789D01*
X11988482Y17537971D01*
X12008998Y17432703D01*
X12042948Y17376771D01*
X12090820Y17360407D01*
X15678503Y17360407D01*
X15727351Y17376771D01*
X15764232Y17432703D01*
X15787435Y17537971D01*
X15795739Y17704789D01*
X15787435Y17871118D01*
X15764476Y17976387D01*
X15727840Y18032563D01*
X15678747Y18048927D01*
X14338586Y18048927D01*
X14494783Y18232884D01*
X14599682Y18410895D01*
X14664450Y18599550D01*
X14685900Y18794845D01*
X14663925Y19031308D01*
X14603834Y19214210D01*
X14505802Y19369732D01*
X14379619Y19490204D01*
X14227551Y19579819D01*
X14047449Y19641879D01*
X13847145Y19675664D01*
X13586807Y19688285D01*
X12091064Y19688285D01*
G37*
G36*
X13743637Y22600095D02*
G01*
X13968070Y22551300D01*
X14173397Y22466423D01*
X14345914Y22346380D01*
X14486627Y22189925D01*
X14595774Y21989786D01*
X14661813Y21759280D01*
X14685900Y21466617D01*
X14661077Y21186887D01*
X14590157Y20946136D01*
X14472392Y20732071D01*
X14312452Y20554126D01*
X14114193Y20413912D01*
X13869396Y20308174D01*
X13598509Y20245526D01*
X13282969Y20223421D01*
X12953369Y20244891D01*
X12686772Y20304021D01*
X12450945Y20407443D01*
X12265697Y20548509D01*
X12121572Y20730085D01*
X12016814Y20956883D01*
X11956500Y21213269D01*
X11934748Y21526701D01*
X11957707Y21865466D01*
X12011196Y22146834D01*
X12074455Y22349067D01*
X12125990Y22446031D01*
X12166046Y22474852D01*
X12217093Y22491216D01*
X12290122Y22499520D01*
X12393681Y22502207D01*
X12507986Y22498055D01*
X12578328Y22482912D01*
X12612766Y22455801D01*
X12622536Y22414768D01*
X12595669Y22308034D01*
X12536563Y22142926D01*
X12477212Y21906499D01*
X12457709Y21764458D01*
X12450589Y21589716D01*
X12463156Y21419240D01*
X12497484Y21284901D01*
X12556238Y21167998D01*
X12634260Y21077294D01*
X12732386Y21008349D01*
X12852369Y20959814D01*
X12985139Y20932540D01*
X13138377Y20922933D01*
X13576060Y20922933D01*
X13702950Y20935711D01*
X13819815Y20962500D01*
X13928021Y21004938D01*
X14018140Y21060930D01*
X14093311Y21133060D01*
X14151741Y21222130D01*
X14188341Y21324984D01*
X14201322Y21450253D01*
X14180969Y21615118D01*
X14124851Y21739795D01*
X14034504Y21834203D01*
X13917091Y21899380D01*
X13767241Y21939440D01*
X13576060Y21950218D01*
X13576060Y20922933D01*
X13138377Y20922933D01*
X13138377Y22406708D01*
X13154111Y22496132D01*
X13198461Y22560825D01*
X13269739Y22601332D01*
X13384085Y22617001D01*
X13493262Y22617001D01*
X13743637Y22600095D01*
G37*
G36*
X13965318Y25243630D02*
G01*
X14158091Y25199625D01*
X14326308Y25120641D01*
X14457533Y25008383D01*
X14556683Y24863005D01*
X14629724Y24673526D01*
X14670693Y24459105D01*
X14685900Y24183086D01*
X14659277Y23870211D01*
X14590889Y23590309D01*
X14500275Y23366094D01*
X14412348Y23232249D01*
X14324665Y23180469D01*
X14192529Y23166792D01*
X14079201Y23174852D01*
X13992739Y23198055D01*
X13938761Y23236401D01*
X13919954Y23289646D01*
X13928169Y23335340D01*
X13958789Y23402975D01*
X14045007Y23576631D01*
X14130980Y23815745D01*
X14159783Y23956290D01*
X14170059Y24123003D01*
X14162519Y24248562D01*
X14142459Y24343065D01*
X14106381Y24424554D01*
X14056974Y24485215D01*
X13993033Y24530307D01*
X13912138Y24561663D01*
X13709417Y24584866D01*
X13560429Y24584866D01*
X13560429Y24347218D01*
X13547231Y24031926D01*
X13511092Y23775934D01*
X13446075Y23543447D01*
X13359173Y23364629D01*
X13241475Y23218421D01*
X13099298Y23115989D01*
X12932186Y23054486D01*
X12728538Y23032703D01*
X12539460Y23049896D01*
X12383667Y23098160D01*
X12247240Y23177579D01*
X12136004Y23282563D01*
X12049295Y23410849D01*
X11985551Y23564175D01*
X11947860Y23731799D01*
X11934748Y23920770D01*
X11950064Y24070979D01*
X12419326Y24070979D01*
X12442734Y23912740D01*
X12506521Y23801823D01*
X12607641Y23730123D01*
X12746612Y23704859D01*
X12832852Y23713730D01*
X12905858Y23739053D01*
X12969351Y23782245D01*
X13024560Y23847008D01*
X13066026Y23927943D01*
X13098077Y24038250D01*
X13116030Y24161903D01*
X13122746Y24322549D01*
X13122746Y24584866D01*
X12708265Y24584866D01*
X12579558Y24455474D01*
X12492843Y24337448D01*
X12437791Y24210325D01*
X12419326Y24070979D01*
X11950064Y24070979D01*
X11957893Y24147766D01*
X12025118Y24348439D01*
X12132669Y24529803D01*
X12276688Y24691356D01*
X12082759Y24691356D01*
X12022432Y24714559D01*
X11991168Y24793693D01*
X11981643Y24972723D01*
X11991168Y25146136D01*
X12022432Y25232354D01*
X12082759Y25259709D01*
X13723339Y25259709D01*
X13965318Y25243630D01*
G37*
G36*
X12779829Y27661837D02*
G01*
X12580560Y27641565D01*
X12413220Y27583924D01*
X12267755Y27490037D01*
X12147972Y27363861D01*
X12056045Y27211511D01*
X11988238Y27027783D01*
X11948519Y26828781D01*
X11934748Y26607197D01*
X11954532Y26346345D01*
X12004602Y26123596D01*
X12066395Y25959465D01*
X12125746Y25863966D01*
X12215628Y25817559D01*
X12399542Y25801195D01*
X12528014Y25806569D01*
X12605439Y25822933D01*
X12644030Y25850288D01*
X12653799Y25891321D01*
X12619850Y25979981D01*
X12545600Y26126282D01*
X12470129Y26329737D01*
X12444192Y26450545D01*
X12434958Y26593519D01*
X12454009Y26758627D01*
X12508719Y26884412D01*
X12549400Y26931416D01*
X12599089Y26965012D01*
X12725118Y26992368D01*
X12801844Y26979539D01*
X12865802Y26941809D01*
X12919631Y26884689D01*
X12968384Y26807964D01*
X13050450Y26619409D01*
X13135202Y26403498D01*
X13241936Y26187587D01*
X13308876Y26087975D01*
X13389459Y25999276D01*
X13484762Y25924957D01*
X13600240Y25865431D01*
X13730736Y25828363D01*
X13895530Y25814873D01*
X14065054Y25832251D01*
X14216953Y25883017D01*
X14352287Y25966156D01*
X14467058Y26079876D01*
X14557875Y26219305D01*
X14628503Y26392751D01*
X14670917Y26583933D01*
X14685900Y26806743D01*
X14668803Y27029248D01*
X14626060Y27224643D01*
X14570861Y27372165D01*
X14519570Y27458383D01*
X14477805Y27495264D01*
X14428956Y27511628D01*
X14358126Y27521153D01*
X14253346Y27525305D01*
X14133422Y27521153D01*
X14059905Y27507476D01*
X14023269Y27481586D01*
X14013743Y27443240D01*
X14043541Y27366792D01*
X14107533Y27237099D01*
X14171524Y27056603D01*
X14193470Y26950169D01*
X14201322Y26823107D01*
X14182027Y26661663D01*
X14126828Y26549800D01*
X14042564Y26484098D01*
X13939249Y26462361D01*
X13860500Y26475612D01*
X13797100Y26514140D01*
X13744410Y26572535D01*
X13695739Y26650916D01*
X13613674Y26843379D01*
X13530387Y27061977D01*
X13425118Y27280574D01*
X13358019Y27382880D01*
X13277351Y27473282D01*
X13182411Y27549106D01*
X13068279Y27609814D01*
X12939602Y27648051D01*
X12779829Y27661837D01*
G37*
G36*
X12394902Y28986122D02*
G01*
X12226563Y28973400D01*
X12118856Y28941621D01*
X12053450Y28897218D01*
X12009025Y28831698D01*
X11978114Y28730295D01*
X11966011Y28578969D01*
X11977971Y28427482D01*
X12008419Y28326594D01*
X12051985Y28261942D01*
X12116255Y28217967D01*
X12219656Y28186853D01*
X12378538Y28174503D01*
X12548770Y28187267D01*
X12657217Y28219085D01*
X12722676Y28263407D01*
X12767023Y28329123D01*
X12797971Y28431378D01*
X12810115Y28584587D01*
X12798177Y28733993D01*
X12767693Y28834063D01*
X12723897Y28898683D01*
X12659719Y28942563D01*
X12555674Y28973720D01*
X12394902Y28986122D01*
G37*
D12*
G36*
X2626146Y58893316D02*
G01*
X2599309Y58886811D01*
X2582945Y58880715D01*
X2574722Y58874333D01*
X2572431Y58866478D01*
X2574026Y58858746D01*
X2577463Y58849378D01*
X2580899Y58837800D01*
X2582495Y58823358D01*
X2578567Y58803721D01*
X2566294Y58781711D01*
X2544039Y58756020D01*
X2509796Y58725459D01*
X2255209Y58672521D01*
X2247191Y58668143D01*
X2241463Y58657752D01*
X2238027Y58639792D01*
X2236881Y58612300D01*
X2238027Y58585217D01*
X2241463Y58568690D01*
X2247191Y58560712D01*
X2255209Y58559689D01*
X2663661Y58644620D01*
X2671680Y58648506D01*
X2677407Y58657752D01*
X2680844Y58673462D01*
X2681989Y58696781D01*
X2680844Y58720264D01*
X2677407Y58734091D01*
X2671680Y58740269D01*
X2663661Y58740883D01*
X2612850Y58730287D01*
X2650652Y58767679D01*
X2674257Y58799017D01*
X2686408Y58826590D01*
X2689844Y58852405D01*
X2689149Y58864760D01*
X2686899Y58878138D01*
X2683258Y58889920D01*
X2678921Y58896916D01*
X2673930Y58899452D01*
X2666402Y58899861D01*
X2652084Y58898225D01*
X2626146Y58893316D01*
G37*
G36*
X2569608Y59305859D02*
G01*
X2604281Y59298997D01*
X2632897Y59285445D01*
X2656432Y59264747D01*
X2674748Y59235738D01*
X2685731Y59200683D01*
X2689844Y59153180D01*
X2685765Y59106912D01*
X2673807Y59064568D01*
X2654197Y59025567D01*
X2627292Y58990642D01*
X2593979Y58960693D01*
X2553080Y58934922D01*
X2507380Y58915099D01*
X2454853Y58900598D01*
X2399205Y58892605D01*
X2354990Y58893029D01*
X2327302Y58898021D01*
X2304033Y58906554D01*
X2284460Y58918394D01*
X2267688Y58933920D01*
X2253810Y58953161D01*
X2242772Y58976692D01*
X2232731Y59016200D01*
X2229026Y59067186D01*
X2232872Y59123520D01*
X2241831Y59171467D01*
X2252427Y59206773D01*
X2261059Y59224447D01*
X2267769Y59230542D01*
X2276319Y59235043D01*
X2288551Y59238929D01*
X2305898Y59242979D01*
X2325044Y59246293D01*
X2336826Y59246293D01*
X2342594Y59243020D01*
X2344231Y59236638D01*
X2339731Y59218228D01*
X2329830Y59189100D01*
X2319889Y59148312D01*
X2316609Y59124203D01*
X2315430Y59095496D01*
X2317573Y59067746D01*
X2323285Y59047140D01*
X2333156Y59030015D01*
X2346195Y59017930D01*
X2362459Y59010111D01*
X2382728Y59006270D01*
X2404776Y59006390D01*
X2430634Y59010157D01*
X2430634Y59193723D01*
X2503946Y59193723D01*
X2503946Y59025416D01*
X2544775Y59040390D01*
X2562850Y59051092D01*
X2577994Y59063422D01*
X2590627Y59077917D01*
X2600373Y59094474D01*
X2606551Y59112834D01*
X2608677Y59133584D01*
X2605139Y59160323D01*
X2595706Y59178572D01*
X2580735Y59190695D01*
X2561599Y59197183D01*
X2536642Y59198658D01*
X2503946Y59193723D01*
X2430634Y59193723D01*
X2430634Y59253248D01*
X2433191Y59268271D01*
X2440698Y59280658D01*
X2452798Y59289849D01*
X2471790Y59296286D01*
X2490077Y59300091D01*
X2532337Y59306076D01*
X2569608Y59305859D01*
G37*
G36*
X2664111Y59802310D02*
G01*
X2658629Y59800960D01*
X2651511Y59798587D01*
X2642592Y59794905D01*
X2631178Y59789669D01*
X2261591Y59592807D01*
X2248991Y59584133D01*
X2241463Y59570060D01*
X2237822Y59545555D01*
X2236881Y59506240D01*
X2238027Y59467702D01*
X2241913Y59444996D01*
X2249441Y59434237D01*
X2261591Y59430759D01*
X2631178Y59387599D01*
X2647624Y59386780D01*
X2658179Y59387149D01*
X2664111Y59388212D01*
X2672130Y59392303D01*
X2677857Y59402204D01*
X2681048Y59420123D01*
X2681989Y59447860D01*
X2680844Y59477193D01*
X2677612Y59494212D01*
X2671680Y59502148D01*
X2662311Y59504685D01*
X2362354Y59533159D01*
X2350899Y59533486D01*
X2362354Y59538518D01*
X2662311Y59690460D01*
X2671680Y59696679D01*
X2677612Y59707029D01*
X2680844Y59724498D01*
X2681989Y59752317D01*
X2681048Y59779196D01*
X2677857Y59794864D01*
X2672130Y59801737D01*
X2664111Y59802310D01*
G37*
G36*
X2255209Y59906387D02*
G01*
X2247191Y59902009D01*
X2241463Y59891618D01*
X2238027Y59873658D01*
X2236881Y59846166D01*
X2238027Y59819083D01*
X2241463Y59802556D01*
X2247191Y59794578D01*
X2255209Y59793555D01*
X2662761Y59878281D01*
X2670780Y59882618D01*
X2676712Y59893050D01*
X2680598Y59911092D01*
X2681989Y59938706D01*
X2680598Y59965707D01*
X2676712Y59982113D01*
X2670780Y59990049D01*
X2662761Y59991113D01*
X2255209Y59906387D01*
G37*
G36*
X2800712Y60028260D02*
G01*
X2769807Y60017876D01*
X2752806Y60004409D01*
X2743419Y59984570D01*
X2739592Y59950202D01*
X2741498Y59924876D01*
X2746114Y59909818D01*
X2752356Y59901559D01*
X2768021Y59895633D01*
X2798462Y59898000D01*
X2829434Y59908319D01*
X2846573Y59921606D01*
X2856121Y59941354D01*
X2860033Y59976099D01*
X2858107Y60001074D01*
X2853418Y60016087D01*
X2847023Y60024455D01*
X2831131Y60030540D01*
X2800712Y60028260D01*
G37*
G36*
X2370577Y60328421D02*
G01*
X2337453Y60318267D01*
X2309170Y60302893D01*
X2284800Y60282440D01*
X2264741Y60257605D01*
X2249256Y60229242D01*
X2237986Y60196975D01*
X2231302Y60162747D01*
X2229026Y60126200D01*
X2232340Y60084103D01*
X2240727Y60049370D01*
X2251077Y60024660D01*
X2261019Y60011077D01*
X2266588Y60008132D01*
X2276074Y60006577D01*
X2306879Y60010300D01*
X2328398Y60015700D01*
X2341367Y60021059D01*
X2347831Y60026869D01*
X2349467Y60033946D01*
X2343781Y60047283D01*
X2331344Y60068639D01*
X2318703Y60099363D01*
X2314382Y60118100D01*
X2312811Y60141378D01*
X2316002Y60169115D01*
X2325166Y60191575D01*
X2340303Y60207939D01*
X2361413Y60216817D01*
X2374465Y60217337D01*
X2384978Y60213421D01*
X2393990Y60205946D01*
X2402160Y60195053D01*
X2415906Y60167029D01*
X2430102Y60134628D01*
X2447980Y60102963D01*
X2459195Y60088986D01*
X2472690Y60077271D01*
X2488535Y60068457D01*
X2507996Y60062666D01*
X2529580Y60061123D01*
X2557457Y60064670D01*
X2585642Y60073337D01*
X2611296Y60087048D01*
X2633957Y60105364D01*
X2653188Y60128000D01*
X2668485Y60154179D01*
X2680230Y60184866D01*
X2687374Y60217965D01*
X2689844Y60254700D01*
X2686980Y60290579D01*
X2679821Y60321057D01*
X2670575Y60343313D01*
X2661984Y60355627D01*
X2654988Y60360209D01*
X2646806Y60361232D01*
X2634942Y60360332D01*
X2617391Y60357345D01*
X2597304Y60352518D01*
X2584990Y60347690D01*
X2578854Y60342167D01*
X2577258Y60335540D01*
X2582249Y60324085D01*
X2592968Y60305061D01*
X2603686Y60277733D01*
X2607343Y60261185D01*
X2608677Y60240504D01*
X2605446Y60213381D01*
X2596200Y60193089D01*
X2582086Y60179425D01*
X2564780Y60172265D01*
X2551384Y60171736D01*
X2540970Y60175825D01*
X2532150Y60183537D01*
X2523992Y60194684D01*
X2510246Y60223363D01*
X2496296Y60256255D01*
X2478663Y60288411D01*
X2467419Y60302837D01*
X2453912Y60314839D01*
X2438122Y60323909D01*
X2418893Y60329935D01*
X2397615Y60331731D01*
X2370577Y60328421D01*
G37*
G36*
X2255209Y60509901D02*
G01*
X2247191Y60505524D01*
X2241463Y60495132D01*
X2238027Y60477173D01*
X2236881Y60449681D01*
X2238027Y60422598D01*
X2241463Y60406070D01*
X2247191Y60398092D01*
X2255209Y60397069D01*
X2662761Y60481796D01*
X2670780Y60486132D01*
X2676712Y60496564D01*
X2680598Y60514606D01*
X2681989Y60542221D01*
X2680598Y60569222D01*
X2676712Y60585627D01*
X2670780Y60593563D01*
X2662761Y60594627D01*
X2255209Y60509901D01*
G37*
G36*
X2800712Y60631774D02*
G01*
X2769807Y60621390D01*
X2752806Y60607923D01*
X2743419Y60588084D01*
X2739592Y60553716D01*
X2741498Y60528390D01*
X2746114Y60513332D01*
X2752356Y60505074D01*
X2768021Y60499147D01*
X2798462Y60501514D01*
X2829434Y60511833D01*
X2846573Y60525120D01*
X2856121Y60544868D01*
X2860033Y60579613D01*
X2858107Y60604589D01*
X2853418Y60619602D01*
X2847023Y60627969D01*
X2831131Y60634055D01*
X2800712Y60631774D01*
G37*
G36*
X2560198Y61081505D02*
G01*
X2599863Y61073458D01*
X2631178Y61057981D01*
X2648622Y61043239D01*
X2663182Y61024742D01*
X2674953Y61001934D01*
X2685811Y60963131D01*
X2689844Y60911971D01*
X2685446Y60858649D01*
X2672866Y60812395D01*
X2652317Y60770386D01*
X2625001Y60734133D01*
X2591310Y60703378D01*
X2550830Y60677717D01*
X2505823Y60658220D01*
X2455303Y60644252D01*
X2402569Y60636629D01*
X2359122Y60636765D01*
X2319464Y60644881D01*
X2288101Y60660493D01*
X2262997Y60684132D01*
X2244122Y60716705D01*
X2233105Y60755474D01*
X2229026Y60806258D01*
X2230922Y60829332D01*
X2320666Y60829332D01*
X2323484Y60803330D01*
X2330976Y60784903D01*
X2343358Y60770682D01*
X2360063Y60761175D01*
X2379830Y60756082D01*
X2404247Y60754465D01*
X2430148Y60756232D01*
X2459885Y60761134D01*
X2491293Y60769237D01*
X2517815Y60779216D01*
X2541821Y60791924D01*
X2561344Y60806381D01*
X2577336Y60823569D01*
X2588795Y60842996D01*
X2595798Y60864581D01*
X2598204Y60888816D01*
X2595303Y60915154D01*
X2587649Y60933408D01*
X2575130Y60947484D01*
X2558357Y60957096D01*
X2538571Y60962312D01*
X2514133Y60963805D01*
X2488237Y60961887D01*
X2458535Y60956932D01*
X2427109Y60948879D01*
X2400565Y60939054D01*
X2376634Y60926506D01*
X2357281Y60912135D01*
X2341479Y60894999D01*
X2330035Y60875561D01*
X2323074Y60853955D01*
X2320666Y60829332D01*
X2230922Y60829332D01*
X2233410Y60859610D01*
X2245963Y60906039D01*
X2266597Y60948215D01*
X2294074Y60984547D01*
X2327940Y61015301D01*
X2368245Y61040717D01*
X2413063Y61060028D01*
X2463567Y61073978D01*
X2516701Y61081656D01*
X2560198Y61081505D01*
G37*
G36*
X2255209Y61512254D02*
G01*
X2247191Y61507917D01*
X2241463Y61497771D01*
X2238027Y61479811D01*
X2236881Y61452483D01*
X2238027Y61425155D01*
X2241463Y61408627D01*
X2247191Y61400895D01*
X2255250Y61399872D01*
X2488891Y61448433D01*
X2517286Y61453110D01*
X2535734Y61453915D01*
X2551954Y61451915D01*
X2564862Y61447697D01*
X2575682Y61440694D01*
X2583681Y61430800D01*
X2588572Y61418478D01*
X2590349Y61402408D01*
X2586670Y61380988D01*
X2574272Y61355648D01*
X2555673Y61330512D01*
X2527470Y61300255D01*
X2255250Y61243675D01*
X2247191Y61239298D01*
X2241463Y61228906D01*
X2238027Y61210947D01*
X2236881Y61183455D01*
X2238027Y61156372D01*
X2241463Y61139844D01*
X2247191Y61131866D01*
X2255209Y61130843D01*
X2663661Y61215774D01*
X2671680Y61219660D01*
X2677407Y61228906D01*
X2680844Y61244616D01*
X2681989Y61267935D01*
X2680844Y61291418D01*
X2677407Y61305246D01*
X2671680Y61311423D01*
X2663661Y61312037D01*
X2616491Y61302218D01*
X2649527Y61343600D01*
X2671516Y61380971D01*
X2685406Y61419431D01*
X2689844Y61456247D01*
X2686085Y61494558D01*
X2676098Y61522072D01*
X2659718Y61544160D01*
X2638747Y61559505D01*
X2613765Y61568881D01*
X2583558Y61572883D01*
X2550577Y61571560D01*
X2507546Y61564701D01*
X2255209Y61512254D01*
G37*
G36*
X2719437Y62303378D02*
G01*
X2760988Y62293279D01*
X2785225Y62281094D01*
X2805004Y62264682D01*
X2820881Y62243696D01*
X2831850Y62219539D01*
X2839058Y62188624D01*
X2841705Y62149315D01*
X2839181Y62111015D01*
X2831913Y62076825D01*
X2820186Y62046138D01*
X2803906Y62017605D01*
X2783431Y61991460D01*
X2758451Y61967508D01*
X2714967Y61937048D01*
X2660839Y61910519D01*
X2601451Y61889705D01*
X2533075Y61872513D01*
X2463337Y61860474D01*
X2405270Y61855126D01*
X2351282Y61857140D01*
X2309702Y61867276D01*
X2285472Y61879418D01*
X2265694Y61895740D01*
X2249809Y61916574D01*
X2238870Y61940598D01*
X2231673Y61971436D01*
X2229026Y62010750D01*
X2230637Y62035378D01*
X2325903Y62035378D01*
X2328541Y62013566D01*
X2335721Y61997536D01*
X2348395Y61985758D01*
X2369964Y61977572D01*
X2396471Y61974471D01*
X2435748Y61975772D01*
X2479647Y61981361D01*
X2540111Y61992586D01*
X2630524Y62015373D01*
X2667406Y62028871D01*
X2695367Y62042988D01*
X2718765Y62060146D01*
X2734437Y62078416D01*
X2744108Y62099663D01*
X2747446Y62124768D01*
X2743314Y62151688D01*
X2737800Y62162394D01*
X2729405Y62171161D01*
X2718423Y62177685D01*
X2703140Y62182493D01*
X2662925Y62185766D01*
X2607000Y62181061D01*
X2532788Y62167888D01*
X2469295Y62153119D01*
X2417706Y62136591D01*
X2377491Y62117241D01*
X2361307Y62106134D01*
X2348731Y62094453D01*
X2338662Y62081354D01*
X2331589Y62067412D01*
X2327362Y62052309D01*
X2325903Y62035378D01*
X2230637Y62035378D01*
X2231553Y62049383D01*
X2238815Y62083714D01*
X2250504Y62114377D01*
X2266809Y62142938D01*
X2287286Y62169082D01*
X2312239Y62193007D01*
X2355738Y62223454D01*
X2409647Y62249750D01*
X2468891Y62270342D01*
X2537657Y62287552D01*
X2607388Y62299677D01*
X2665421Y62305184D01*
X2719437Y62303378D01*
G37*
G36*
X2306102Y62463918D02*
G01*
X2278240Y62456106D01*
X2260052Y62447155D01*
X2248909Y62437490D01*
X2238427Y62416697D01*
X2234263Y62382260D01*
X2236341Y62357488D01*
X2241478Y62342194D01*
X2248663Y62333331D01*
X2259068Y62328453D01*
X2276203Y62326851D01*
X2303361Y62330385D01*
X2331532Y62338266D01*
X2349847Y62347260D01*
X2361004Y62356936D01*
X2371476Y62377811D01*
X2375650Y62412616D01*
X2373576Y62437037D01*
X2368433Y62452198D01*
X2361209Y62461054D01*
X2350821Y62465916D01*
X2333581Y62467505D01*
X2306102Y62463918D01*
G37*
G36*
X2284624Y62943186D02*
G01*
X2263187Y62937418D01*
X2249195Y62930709D01*
X2241750Y62923549D01*
X2239500Y62915899D01*
X2239500Y62596264D01*
X2241750Y62590005D01*
X2249195Y62585954D01*
X2263187Y62585054D01*
X2284624Y62588164D01*
X2306511Y62593850D01*
X2320748Y62600396D01*
X2328644Y62607637D01*
X2331139Y62615328D01*
X2331139Y62723251D01*
X2718645Y62803804D01*
X2666280Y62699768D01*
X2660102Y62681685D01*
X2660279Y62675678D01*
X2662843Y62671949D01*
X2676303Y62669617D01*
X2703222Y62673912D01*
X2721264Y62678044D01*
X2733332Y62682790D01*
X2741555Y62689458D01*
X2748428Y62699400D01*
X2830536Y62840951D01*
X2833482Y62847128D01*
X2835323Y62856210D01*
X2836223Y62870529D01*
X2836468Y62893194D01*
X2835773Y62920563D01*
X2833482Y62935986D01*
X2829104Y62942205D01*
X2822231Y62942573D01*
X2331139Y62840501D01*
X2331139Y62935004D01*
X2328644Y62941836D01*
X2320748Y62946009D01*
X2306511Y62946623D01*
X2284624Y62943186D01*
G37*
G36*
X2306102Y63189182D02*
G01*
X2278240Y63181371D01*
X2260052Y63172419D01*
X2248909Y63162754D01*
X2238427Y63141962D01*
X2234263Y63107525D01*
X2236341Y63082752D01*
X2241478Y63067459D01*
X2248663Y63058595D01*
X2259068Y63053718D01*
X2276203Y63052115D01*
X2303361Y63055650D01*
X2331532Y63063530D01*
X2349847Y63072524D01*
X2361004Y63082201D01*
X2371476Y63103076D01*
X2375650Y63137880D01*
X2373576Y63162301D01*
X2368433Y63177462D01*
X2361209Y63186319D01*
X2350821Y63191181D01*
X2333581Y63192769D01*
X2306102Y63189182D01*
G37*
G36*
X2719437Y63753907D02*
G01*
X2760988Y63743808D01*
X2785225Y63731623D01*
X2805004Y63715211D01*
X2820881Y63694225D01*
X2831850Y63670068D01*
X2839058Y63639153D01*
X2841705Y63599844D01*
X2839181Y63561544D01*
X2831913Y63527354D01*
X2820186Y63496667D01*
X2803906Y63468134D01*
X2783431Y63441989D01*
X2758451Y63418037D01*
X2714967Y63387577D01*
X2660839Y63361048D01*
X2601451Y63340234D01*
X2533075Y63323042D01*
X2463337Y63311003D01*
X2405270Y63305655D01*
X2351282Y63307669D01*
X2309702Y63317805D01*
X2285472Y63329947D01*
X2265694Y63346269D01*
X2249809Y63367103D01*
X2238870Y63391127D01*
X2231673Y63421965D01*
X2229026Y63461279D01*
X2230637Y63485907D01*
X2325903Y63485907D01*
X2328541Y63464095D01*
X2335721Y63448065D01*
X2348395Y63436287D01*
X2369964Y63428101D01*
X2396471Y63425000D01*
X2435748Y63426301D01*
X2479647Y63431890D01*
X2540111Y63443115D01*
X2630524Y63465902D01*
X2667406Y63479400D01*
X2695367Y63493517D01*
X2718765Y63510675D01*
X2734437Y63528945D01*
X2744108Y63550192D01*
X2747446Y63575297D01*
X2743314Y63602216D01*
X2737800Y63612923D01*
X2729405Y63621690D01*
X2718423Y63628214D01*
X2703140Y63633022D01*
X2662925Y63636295D01*
X2607000Y63631590D01*
X2532788Y63618417D01*
X2469295Y63603648D01*
X2417706Y63587120D01*
X2377491Y63567770D01*
X2361307Y63556663D01*
X2348731Y63544982D01*
X2338662Y63531883D01*
X2331589Y63517940D01*
X2327362Y63502838D01*
X2325903Y63485907D01*
X2230637Y63485907D01*
X2231553Y63499912D01*
X2238815Y63534243D01*
X2250504Y63564906D01*
X2266809Y63593467D01*
X2287286Y63619611D01*
X2312239Y63643536D01*
X2355738Y63673983D01*
X2409647Y63700279D01*
X2468891Y63720871D01*
X2537657Y63738081D01*
X2607388Y63750206D01*
X2665421Y63755713D01*
X2719437Y63753907D01*
G37*
G36*
X1159024Y58931976D02*
G01*
X1137587Y58926208D01*
X1123595Y58919499D01*
X1116150Y58912339D01*
X1113900Y58904689D01*
X1113900Y58585054D01*
X1116150Y58578794D01*
X1123595Y58574744D01*
X1137587Y58573844D01*
X1159024Y58576953D01*
X1180911Y58582640D01*
X1195148Y58589186D01*
X1203044Y58596427D01*
X1205539Y58604118D01*
X1205539Y58712041D01*
X1593045Y58792594D01*
X1540680Y58688558D01*
X1534502Y58670475D01*
X1534679Y58664468D01*
X1537243Y58660739D01*
X1550703Y58658407D01*
X1577622Y58662702D01*
X1595664Y58666834D01*
X1607732Y58671580D01*
X1615955Y58678248D01*
X1622828Y58688190D01*
X1704936Y58829741D01*
X1707882Y58835918D01*
X1709723Y58845000D01*
X1710623Y58859319D01*
X1710868Y58881983D01*
X1710173Y58909353D01*
X1707882Y58924776D01*
X1703504Y58930994D01*
X1696631Y58931363D01*
X1205539Y58829291D01*
X1205539Y58923794D01*
X1203044Y58930626D01*
X1195148Y58934799D01*
X1180911Y58935413D01*
X1159024Y58931976D01*
G37*
G36*
X1579381Y59486316D02*
G01*
X1609543Y59482545D01*
X1635838Y59475229D01*
X1659522Y59463687D01*
X1679081Y59447983D01*
X1694571Y59427887D01*
X1706491Y59401713D01*
X1713508Y59371813D01*
X1716105Y59333187D01*
X1712194Y59284516D01*
X1700968Y59241834D01*
X1682644Y59202889D01*
X1658543Y59169463D01*
X1628855Y59140987D01*
X1593864Y59117506D01*
X1554995Y59099750D01*
X1511960Y59087519D01*
X1470684Y59081369D01*
X1436235Y59080932D01*
X1404634Y59086638D01*
X1379369Y59098442D01*
X1359067Y59116936D01*
X1343613Y59143403D01*
X1334616Y59175384D01*
X1331217Y59219128D01*
X1333760Y59255750D01*
X1335157Y59261921D01*
X1422857Y59261921D01*
X1424490Y59242010D01*
X1428830Y59227392D01*
X1436471Y59215499D01*
X1447076Y59207223D01*
X1460332Y59202295D01*
X1477964Y59200228D01*
X1497276Y59201132D01*
X1521124Y59204932D01*
X1543079Y59210756D01*
X1562649Y59218474D01*
X1580478Y59228495D01*
X1595377Y59240279D01*
X1607718Y59254261D01*
X1616855Y59270062D01*
X1622500Y59287625D01*
X1624465Y59307905D01*
X1622250Y59328199D01*
X1616160Y59343783D01*
X1605387Y59355926D01*
X1588013Y59364811D01*
X1566447Y59369229D01*
X1534952Y59369884D01*
X1499895Y59366461D01*
X1452394Y59358061D01*
X1440409Y59336533D01*
X1430916Y59312650D01*
X1424871Y59287586D01*
X1422857Y59261921D01*
X1335157Y59261921D01*
X1341036Y59287899D01*
X1352037Y59317788D01*
X1364150Y59342433D01*
X1330994Y59332942D01*
X1299675Y59320505D01*
X1270667Y59304648D01*
X1245755Y59285567D01*
X1224914Y59262706D01*
X1208771Y59235779D01*
X1198636Y59205455D01*
X1195066Y59169340D01*
X1198257Y59130189D01*
X1205580Y59099710D01*
X1212903Y59077250D01*
X1216094Y59062686D01*
X1214499Y59055404D01*
X1207871Y59049104D01*
X1193757Y59043499D01*
X1169783Y59037853D01*
X1144501Y59034826D01*
X1130714Y59039162D01*
X1121468Y59053113D01*
X1112918Y59077946D01*
X1106126Y59111206D01*
X1103426Y59148967D01*
X1107248Y59201826D01*
X1118031Y59246661D01*
X1135470Y59287730D01*
X1157592Y59322960D01*
X1184629Y59354026D01*
X1215890Y59380766D01*
X1250226Y59403702D01*
X1286297Y59423150D01*
X1323836Y59439404D01*
X1361982Y59452524D01*
X1436726Y59471670D01*
X1512165Y59483984D01*
X1547707Y59486656D01*
X1579381Y59486316D01*
G37*
G36*
X1129609Y60102963D02*
G01*
X1121591Y60098626D01*
X1115863Y60088480D01*
X1112427Y60070520D01*
X1111281Y60043192D01*
X1112427Y60015864D01*
X1115863Y59999336D01*
X1121591Y59991604D01*
X1129650Y59990581D01*
X1363291Y60039142D01*
X1391686Y60043819D01*
X1410134Y60044624D01*
X1426354Y60042624D01*
X1439262Y60038406D01*
X1450082Y60031403D01*
X1458081Y60021509D01*
X1462972Y60009187D01*
X1464749Y59993117D01*
X1461070Y59971697D01*
X1448672Y59946357D01*
X1430073Y59921221D01*
X1401870Y59890964D01*
X1129650Y59834384D01*
X1121591Y59830007D01*
X1115863Y59819615D01*
X1112427Y59801656D01*
X1111281Y59774164D01*
X1112427Y59747081D01*
X1115863Y59730553D01*
X1121591Y59722575D01*
X1129609Y59721552D01*
X1538061Y59806483D01*
X1546080Y59810369D01*
X1551807Y59819615D01*
X1555244Y59835325D01*
X1556389Y59858644D01*
X1555244Y59882127D01*
X1551807Y59895955D01*
X1546080Y59902132D01*
X1538061Y59902746D01*
X1490891Y59892927D01*
X1523927Y59934309D01*
X1545916Y59971680D01*
X1559806Y60010140D01*
X1564244Y60046956D01*
X1560485Y60085267D01*
X1550498Y60112781D01*
X1534118Y60134869D01*
X1513147Y60150214D01*
X1488165Y60159590D01*
X1457958Y60163592D01*
X1424977Y60162269D01*
X1381946Y60155410D01*
X1129609Y60102963D01*
G37*
G36*
X1434598Y60679599D02*
G01*
X1474263Y60671551D01*
X1505578Y60656075D01*
X1523022Y60641333D01*
X1537582Y60622835D01*
X1549353Y60600027D01*
X1560211Y60561224D01*
X1564244Y60510065D01*
X1559846Y60456742D01*
X1547266Y60410488D01*
X1526717Y60368480D01*
X1499401Y60332226D01*
X1465710Y60301472D01*
X1425230Y60275810D01*
X1380223Y60256313D01*
X1329703Y60242345D01*
X1276969Y60234723D01*
X1233522Y60234859D01*
X1193864Y60242975D01*
X1162501Y60258587D01*
X1137397Y60282225D01*
X1118522Y60314798D01*
X1107505Y60353568D01*
X1103426Y60404352D01*
X1105322Y60427425D01*
X1195066Y60427425D01*
X1197884Y60401423D01*
X1205376Y60382996D01*
X1217758Y60368775D01*
X1234463Y60359268D01*
X1254230Y60354176D01*
X1278647Y60352559D01*
X1304548Y60354326D01*
X1334285Y60359227D01*
X1365693Y60367331D01*
X1392215Y60377310D01*
X1416221Y60390018D01*
X1435744Y60404474D01*
X1451736Y60421662D01*
X1463195Y60441089D01*
X1470198Y60462674D01*
X1472604Y60486909D01*
X1469703Y60513247D01*
X1462049Y60531502D01*
X1449530Y60545577D01*
X1432757Y60555189D01*
X1412971Y60560406D01*
X1388533Y60561899D01*
X1362637Y60559980D01*
X1332935Y60555026D01*
X1301509Y60546973D01*
X1274965Y60537148D01*
X1251034Y60524600D01*
X1231681Y60510228D01*
X1215879Y60493093D01*
X1204435Y60473654D01*
X1197474Y60452048D01*
X1195066Y60427425D01*
X1105322Y60427425D01*
X1107810Y60457703D01*
X1120363Y60504133D01*
X1140997Y60546308D01*
X1168474Y60582640D01*
X1202340Y60613394D01*
X1242645Y60638811D01*
X1287463Y60658121D01*
X1337967Y60672071D01*
X1391101Y60679749D01*
X1434598Y60679599D01*
G37*
G36*
X1538511Y61178873D02*
G01*
X1533029Y61177522D01*
X1525911Y61175150D01*
X1516992Y61171468D01*
X1505578Y61166231D01*
X1135991Y60969369D01*
X1123391Y60960696D01*
X1115863Y60946623D01*
X1112222Y60922117D01*
X1111281Y60882802D01*
X1112427Y60844264D01*
X1116313Y60821559D01*
X1123841Y60810799D01*
X1135991Y60807322D01*
X1505578Y60764161D01*
X1522024Y60763343D01*
X1532579Y60763711D01*
X1538511Y60764775D01*
X1546530Y60768866D01*
X1552257Y60778766D01*
X1555448Y60796685D01*
X1556389Y60824422D01*
X1555244Y60853755D01*
X1552012Y60870774D01*
X1546080Y60878711D01*
X1536711Y60881247D01*
X1236754Y60909721D01*
X1225299Y60910048D01*
X1236754Y60915080D01*
X1536711Y61067023D01*
X1546080Y61073241D01*
X1552012Y61083592D01*
X1555244Y61101060D01*
X1556389Y61128880D01*
X1555448Y61155758D01*
X1552257Y61171427D01*
X1546530Y61178300D01*
X1538511Y61178873D01*
G37*
G36*
X1162583Y61759927D02*
G01*
X1140041Y61754118D01*
X1124782Y61747572D01*
X1116395Y61740044D01*
X1113900Y61731453D01*
X1113900Y61398399D01*
X1115700Y61381789D01*
X1122777Y61371603D01*
X1138037Y61368289D01*
X1164015Y61371685D01*
X1189748Y61378353D01*
X1208853Y61387272D01*
X1225258Y61399831D01*
X1242809Y61418077D01*
X1353268Y61541259D01*
X1411484Y61601766D01*
X1459431Y61640386D01*
X1499401Y61662764D01*
X1534134Y61673810D01*
X1563099Y61675119D01*
X1576049Y61671910D01*
X1586950Y61666201D01*
X1595947Y61657894D01*
X1602946Y61646482D01*
X1607187Y61632909D01*
X1608755Y61615021D01*
X1606984Y61589316D01*
X1601923Y61566828D01*
X1586704Y61527841D01*
X1571281Y61498876D01*
X1564244Y61481325D01*
X1566985Y61474902D01*
X1576190Y61472120D01*
X1593454Y61472816D01*
X1619924Y61477234D01*
X1637638Y61481571D01*
X1650034Y61486153D01*
X1659239Y61491635D01*
X1668689Y61501412D01*
X1682272Y61524854D01*
X1697981Y61565028D01*
X1710868Y61616085D01*
X1714789Y61643822D01*
X1716105Y61672255D01*
X1712957Y61715500D01*
X1704445Y61748840D01*
X1690095Y61777489D01*
X1671962Y61798260D01*
X1649386Y61813005D01*
X1622583Y61821375D01*
X1593500Y61823456D01*
X1561094Y61819575D01*
X1532556Y61812283D01*
X1504351Y61802351D01*
X1476495Y61788700D01*
X1444171Y61767454D01*
X1411715Y61741246D01*
X1372823Y61704738D01*
X1332684Y61662372D01*
X1282001Y61603934D01*
X1210776Y61521499D01*
X1210776Y61749822D01*
X1208035Y61757554D01*
X1199648Y61762300D01*
X1184634Y61763200D01*
X1162583Y61759927D01*
G37*
G36*
X1593837Y62314506D02*
G01*
X1635388Y62304407D01*
X1659625Y62292222D01*
X1679404Y62275810D01*
X1695281Y62254823D01*
X1706250Y62230666D01*
X1713458Y62199752D01*
X1716105Y62160442D01*
X1713581Y62122142D01*
X1706313Y62087952D01*
X1694586Y62057266D01*
X1678306Y62028733D01*
X1657831Y62002588D01*
X1632851Y61978635D01*
X1589367Y61948175D01*
X1535239Y61921647D01*
X1475851Y61900833D01*
X1407475Y61883641D01*
X1337737Y61871602D01*
X1279670Y61866254D01*
X1225682Y61868268D01*
X1184102Y61878404D01*
X1159872Y61890546D01*
X1140094Y61906868D01*
X1124209Y61927702D01*
X1113270Y61951726D01*
X1106073Y61982564D01*
X1103426Y62021878D01*
X1105037Y62046506D01*
X1200303Y62046506D01*
X1202941Y62024693D01*
X1210121Y62008664D01*
X1222795Y61996885D01*
X1244364Y61988699D01*
X1270871Y61985599D01*
X1310148Y61986899D01*
X1354047Y61992489D01*
X1414511Y62003714D01*
X1504924Y62026501D01*
X1541806Y62039999D01*
X1569767Y62054116D01*
X1593165Y62071274D01*
X1608837Y62089544D01*
X1618508Y62110790D01*
X1621846Y62135896D01*
X1617714Y62162815D01*
X1612200Y62173521D01*
X1603805Y62182289D01*
X1592823Y62188813D01*
X1577540Y62193621D01*
X1537325Y62196894D01*
X1481400Y62192189D01*
X1407188Y62179016D01*
X1343695Y62164247D01*
X1292106Y62147719D01*
X1251891Y62128368D01*
X1235707Y62117261D01*
X1223131Y62105581D01*
X1213062Y62092482D01*
X1205989Y62078539D01*
X1201762Y62063437D01*
X1200303Y62046506D01*
X1105037Y62046506D01*
X1105953Y62060511D01*
X1113215Y62094842D01*
X1124904Y62125505D01*
X1141209Y62154066D01*
X1161686Y62180210D01*
X1186639Y62204135D01*
X1230138Y62234582D01*
X1284047Y62260878D01*
X1343291Y62281470D01*
X1412057Y62298680D01*
X1481788Y62310805D01*
X1539821Y62316312D01*
X1593837Y62314506D01*
G37*
G36*
X1162583Y62710364D02*
G01*
X1140041Y62704554D01*
X1124782Y62698009D01*
X1116395Y62690481D01*
X1113900Y62681890D01*
X1113900Y62348836D01*
X1115700Y62332226D01*
X1122777Y62322040D01*
X1138037Y62318726D01*
X1164015Y62322121D01*
X1189748Y62328790D01*
X1208853Y62337708D01*
X1225258Y62350268D01*
X1242809Y62368514D01*
X1353268Y62491696D01*
X1411484Y62552203D01*
X1459431Y62590823D01*
X1499401Y62613201D01*
X1534134Y62624247D01*
X1563099Y62625556D01*
X1576049Y62622347D01*
X1586950Y62616637D01*
X1595947Y62608331D01*
X1602946Y62596918D01*
X1607187Y62583346D01*
X1608755Y62565458D01*
X1606984Y62539753D01*
X1601923Y62517265D01*
X1586704Y62478277D01*
X1571281Y62449313D01*
X1564244Y62431762D01*
X1566985Y62425339D01*
X1576190Y62422557D01*
X1593454Y62423253D01*
X1619924Y62427671D01*
X1637638Y62432007D01*
X1650034Y62436589D01*
X1659239Y62442072D01*
X1668689Y62451849D01*
X1682272Y62475291D01*
X1697981Y62515465D01*
X1710868Y62566522D01*
X1714789Y62594258D01*
X1716105Y62622692D01*
X1712957Y62665937D01*
X1704445Y62699277D01*
X1690095Y62727925D01*
X1671962Y62748697D01*
X1649386Y62763442D01*
X1622583Y62771812D01*
X1593500Y62773893D01*
X1561094Y62770011D01*
X1532556Y62762720D01*
X1504351Y62752788D01*
X1476495Y62739137D01*
X1444171Y62717891D01*
X1411715Y62691683D01*
X1372823Y62655175D01*
X1332684Y62612809D01*
X1282001Y62554371D01*
X1210776Y62471936D01*
X1210776Y62700259D01*
X1208035Y62707991D01*
X1199648Y62712737D01*
X1184634Y62713637D01*
X1162583Y62710364D01*
G37*
G36*
X1305443Y63209924D02*
G01*
X1259671Y63196238D01*
X1219940Y63175804D01*
X1185170Y63148824D01*
X1156528Y63116525D01*
X1133973Y63079334D01*
X1117091Y63036667D01*
X1106916Y62990922D01*
X1103426Y62940977D01*
X1106986Y62890657D01*
X1115945Y62849092D01*
X1126786Y62819800D01*
X1135664Y62805522D01*
X1143192Y62801513D01*
X1153051Y62800613D01*
X1167492Y62802085D01*
X1188111Y62805931D01*
X1209835Y62811331D01*
X1224236Y62817222D01*
X1232050Y62823523D01*
X1234341Y62830273D01*
X1229022Y62842832D01*
X1217322Y62864597D01*
X1205580Y62898635D01*
X1201749Y62920240D01*
X1200303Y62949037D01*
X1201704Y62974478D01*
X1205744Y62997393D01*
X1212971Y63018745D01*
X1223295Y63037076D01*
X1236842Y63052927D01*
X1253569Y63066164D01*
X1273104Y63076194D01*
X1297302Y63083346D01*
X1318579Y63085985D01*
X1336208Y63084737D01*
X1352054Y63079365D01*
X1365132Y63069682D01*
X1375171Y63056002D01*
X1382887Y63036217D01*
X1387184Y63013202D01*
X1388819Y62981970D01*
X1386037Y62934145D01*
X1383296Y62893521D01*
X1385192Y62882152D01*
X1389924Y62876338D01*
X1398030Y62874154D01*
X1414429Y62875807D01*
X1671348Y62929236D01*
X1687859Y62934624D01*
X1697613Y62941632D01*
X1703489Y62951480D01*
X1705632Y62965442D01*
X1705632Y63239830D01*
X1702891Y63246866D01*
X1694258Y63251121D01*
X1678590Y63251448D01*
X1655270Y63247725D01*
X1630074Y63241104D01*
X1615751Y63234798D01*
X1606195Y63226603D01*
X1603518Y63218597D01*
X1603518Y63012694D01*
X1475100Y62986020D01*
X1477350Y63017562D01*
X1477841Y63050127D01*
X1474850Y63095336D01*
X1466672Y63131294D01*
X1452481Y63162646D01*
X1433821Y63185787D01*
X1409877Y63202479D01*
X1380023Y63212460D01*
X1346643Y63215017D01*
X1305443Y63209924D01*
G37*
G36*
X7590850Y10250055D02*
G01*
X7597028Y10242363D01*
X7600914Y10226122D01*
X7602305Y10199162D01*
X7600914Y10171547D01*
X7597028Y10153505D01*
X7590850Y10143278D01*
X7582627Y10139064D01*
X7361423Y10093080D01*
X7385708Y10070504D01*
X7402416Y10047465D01*
X7412751Y10021428D01*
X7416407Y9989495D01*
X7412216Y9948221D01*
X7399920Y9910823D01*
X7380022Y9876886D01*
X7352709Y9846430D01*
X7319469Y9820514D01*
X7278497Y9797664D01*
X7233168Y9779786D01*
X7180516Y9765877D01*
X7135575Y9758822D01*
X7094154Y9756836D01*
X7054832Y9760738D01*
X7022478Y9770827D01*
X6994905Y9787964D01*
X6973672Y9812188D01*
X6964048Y9831555D01*
X6957840Y9855671D01*
X6955589Y9885663D01*
X6960258Y9925841D01*
X6963213Y9933938D01*
X7052466Y9933938D01*
X7055569Y9912598D01*
X7063962Y9897855D01*
X7077124Y9887100D01*
X7094604Y9879813D01*
X7114447Y9876229D01*
X7138092Y9875640D01*
X7188289Y9882063D01*
X7235950Y9896668D01*
X7258332Y9907348D01*
X7278088Y9919783D01*
X7295204Y9934646D01*
X7308239Y9951529D01*
X7316693Y9970642D01*
X7319531Y9991704D01*
X7315396Y10014413D01*
X7302839Y10034578D01*
X7283632Y10052156D01*
X7254728Y10070907D01*
X7119109Y10042719D01*
X7087854Y10009786D01*
X7067276Y9982008D01*
X7055943Y9957257D01*
X7052466Y9933938D01*
X6963213Y9933938D01*
X6974367Y9964498D01*
X6996296Y10001356D01*
X7027060Y10040142D01*
X6981731Y10030733D01*
X6973263Y10031428D01*
X6967576Y10038301D01*
X6964385Y10052211D01*
X6963444Y10075284D01*
X6964385Y10098112D01*
X6967576Y10113290D01*
X6973304Y10122086D01*
X6981772Y10126095D01*
X7582627Y10250996D01*
X7590850Y10250055D01*
G37*
G36*
X7296171Y10674217D02*
G01*
X7330844Y10667355D01*
X7359460Y10653802D01*
X7382995Y10633105D01*
X7401311Y10604096D01*
X7412294Y10569040D01*
X7416407Y10521538D01*
X7412328Y10475270D01*
X7400370Y10432925D01*
X7380760Y10393924D01*
X7353855Y10359000D01*
X7320542Y10329051D01*
X7279643Y10303279D01*
X7233943Y10283456D01*
X7181416Y10268955D01*
X7125768Y10260962D01*
X7081553Y10261387D01*
X7053865Y10266378D01*
X7030596Y10274912D01*
X7011023Y10286752D01*
X6994251Y10302277D01*
X6980373Y10321518D01*
X6969335Y10345049D01*
X6959294Y10384558D01*
X6955589Y10435544D01*
X6959435Y10491878D01*
X6968394Y10539825D01*
X6978990Y10575131D01*
X6987622Y10592804D01*
X6994332Y10598900D01*
X7002882Y10603400D01*
X7015114Y10607287D01*
X7032461Y10611337D01*
X7051607Y10614651D01*
X7063389Y10614651D01*
X7069157Y10611378D01*
X7070794Y10604996D01*
X7066294Y10586586D01*
X7056393Y10557457D01*
X7046452Y10516670D01*
X7043172Y10492560D01*
X7041993Y10463854D01*
X7044136Y10436103D01*
X7049848Y10415497D01*
X7059719Y10398373D01*
X7072758Y10386287D01*
X7089022Y10378468D01*
X7109291Y10374628D01*
X7131339Y10374747D01*
X7157197Y10378514D01*
X7157197Y10562080D01*
X7230509Y10562080D01*
X7230509Y10393774D01*
X7271338Y10408747D01*
X7289413Y10419449D01*
X7304557Y10431780D01*
X7317190Y10446274D01*
X7326936Y10462831D01*
X7333114Y10481192D01*
X7335240Y10501942D01*
X7331702Y10528681D01*
X7322269Y10546930D01*
X7307298Y10559053D01*
X7288162Y10565541D01*
X7263205Y10567015D01*
X7230509Y10562080D01*
X7157197Y10562080D01*
X7157197Y10621605D01*
X7159754Y10636629D01*
X7167261Y10649016D01*
X7179361Y10658207D01*
X7198353Y10664643D01*
X7216640Y10668448D01*
X7258900Y10674434D01*
X7296171Y10674217D01*
G37*
G36*
X7097140Y11027808D02*
G01*
X7064016Y11017653D01*
X7035733Y11002279D01*
X7011363Y10981826D01*
X6991304Y10956991D01*
X6975819Y10928629D01*
X6964549Y10896362D01*
X6957865Y10862133D01*
X6955589Y10825586D01*
X6958903Y10783489D01*
X6967290Y10748756D01*
X6977640Y10724046D01*
X6987582Y10710463D01*
X6993151Y10707518D01*
X7002637Y10705963D01*
X7033442Y10709686D01*
X7054961Y10715086D01*
X7067930Y10720446D01*
X7074394Y10726255D01*
X7076030Y10733332D01*
X7070344Y10746669D01*
X7057907Y10768025D01*
X7045266Y10798749D01*
X7040945Y10817486D01*
X7039374Y10840764D01*
X7042565Y10868501D01*
X7051729Y10890961D01*
X7066866Y10907326D01*
X7087976Y10916203D01*
X7101028Y10916723D01*
X7111541Y10912808D01*
X7120553Y10905332D01*
X7128723Y10894439D01*
X7142469Y10866415D01*
X7156665Y10834014D01*
X7174543Y10802349D01*
X7185758Y10788372D01*
X7199253Y10776657D01*
X7215098Y10767843D01*
X7234559Y10762052D01*
X7256143Y10760509D01*
X7284020Y10764056D01*
X7312205Y10772723D01*
X7337859Y10786435D01*
X7360520Y10804751D01*
X7379751Y10827386D01*
X7395048Y10853565D01*
X7406793Y10884252D01*
X7413937Y10917351D01*
X7416407Y10954087D01*
X7413543Y10989965D01*
X7406384Y11020444D01*
X7397138Y11042699D01*
X7388547Y11055013D01*
X7381551Y11059595D01*
X7373369Y11060618D01*
X7361505Y11059718D01*
X7343954Y11056731D01*
X7323867Y11051904D01*
X7311553Y11047076D01*
X7305417Y11041554D01*
X7303821Y11034926D01*
X7308812Y11023471D01*
X7319531Y11004448D01*
X7330249Y10977119D01*
X7333906Y10960571D01*
X7335240Y10939890D01*
X7332009Y10912767D01*
X7322763Y10892475D01*
X7308649Y10878811D01*
X7291343Y10871651D01*
X7277947Y10871122D01*
X7267533Y10875211D01*
X7258713Y10882923D01*
X7250555Y10894071D01*
X7236809Y10922749D01*
X7222859Y10955641D01*
X7205226Y10987797D01*
X7193982Y11002223D01*
X7180475Y11014225D01*
X7164685Y11023295D01*
X7145456Y11029321D01*
X7124178Y11031117D01*
X7097140Y11027808D01*
G37*
G36*
X6981772Y11209287D02*
G01*
X6973754Y11204910D01*
X6968026Y11194519D01*
X6964590Y11176559D01*
X6963444Y11149067D01*
X6964590Y11121984D01*
X6968026Y11105456D01*
X6973754Y11097478D01*
X6981772Y11096456D01*
X7389324Y11181182D01*
X7397343Y11185518D01*
X7403275Y11195950D01*
X7407161Y11213992D01*
X7408552Y11241607D01*
X7407161Y11268608D01*
X7403275Y11285013D01*
X7397343Y11292950D01*
X7389324Y11294013D01*
X6981772Y11209287D01*
G37*
G36*
X7527275Y11331160D02*
G01*
X7496370Y11320776D01*
X7479369Y11307309D01*
X7469982Y11287470D01*
X7466155Y11253103D01*
X7468061Y11227776D01*
X7472677Y11212718D01*
X7478919Y11204460D01*
X7494584Y11198533D01*
X7525025Y11200901D01*
X7555997Y11211219D01*
X7573136Y11224506D01*
X7582684Y11244254D01*
X7586596Y11278999D01*
X7584670Y11303975D01*
X7579981Y11318988D01*
X7573586Y11327356D01*
X7557694Y11333441D01*
X7527275Y11331160D01*
G37*
G36*
X7395911Y11767513D02*
G01*
X7403655Y11763408D01*
X7405934Y11757286D01*
X7405934Y11630585D01*
X7411703Y11599780D01*
X7413789Y11564187D01*
X7411166Y11528186D01*
X7403479Y11494885D01*
X7390787Y11463787D01*
X7373696Y11436342D01*
X7352178Y11412402D01*
X7326117Y11392199D01*
X7296411Y11376848D01*
X7262256Y11366589D01*
X7230122Y11362509D01*
X7206413Y11364380D01*
X7185295Y11371159D01*
X7167957Y11381480D01*
X7148919Y11359979D01*
X7127905Y11341797D01*
X7104472Y11327857D01*
X7078690Y11319460D01*
X7057703Y11317822D01*
X7039047Y11321751D01*
X7022928Y11331030D01*
X7010451Y11345602D01*
X6988482Y11316351D01*
X6964467Y11293236D01*
X6938121Y11276585D01*
X6909278Y11266767D01*
X6885573Y11264581D01*
X6864645Y11268035D01*
X6846038Y11277512D01*
X6829625Y11294341D01*
X6817117Y11316669D01*
X6806756Y11348629D01*
X6800765Y11385062D01*
X6798492Y11434010D01*
X6799757Y11455324D01*
X6877041Y11455324D01*
X6880495Y11417112D01*
X6888987Y11393999D01*
X6898309Y11383224D01*
X6909563Y11378255D01*
X6923843Y11378617D01*
X6938080Y11382912D01*
X6952276Y11391463D01*
X6967617Y11405822D01*
X6984390Y11427914D01*
X6982099Y11507567D01*
X6978289Y11533305D01*
X6970154Y11549419D01*
X6957133Y11558596D01*
X6938530Y11558951D01*
X6915824Y11549746D01*
X6905771Y11541796D01*
X6896310Y11530477D01*
X6888664Y11516886D01*
X6882318Y11499385D01*
X6878460Y11479915D01*
X6877041Y11455324D01*
X6799757Y11455324D01*
X6801512Y11484879D01*
X6809988Y11527981D01*
X6823870Y11567488D01*
X6841162Y11599575D01*
X6862940Y11627051D01*
X6887719Y11648177D01*
X6915568Y11663762D01*
X6944789Y11673051D01*
X6971571Y11676064D01*
X6993882Y11673623D01*
X7013965Y11666012D01*
X7030783Y11653577D01*
X7044130Y11636669D01*
X7054634Y11613771D01*
X7061190Y11587628D01*
X7064494Y11555105D01*
X7068176Y11458802D01*
X7071243Y11440108D01*
X7077462Y11428650D01*
X7087004Y11422118D01*
X7099063Y11421736D01*
X7117268Y11429796D01*
X7131342Y11442355D01*
X7125700Y11451693D01*
X7120091Y11466861D01*
X7116536Y11483753D01*
X7115305Y11502576D01*
X7116428Y11519022D01*
X7196471Y11519022D01*
X7198755Y11498655D01*
X7204917Y11483810D01*
X7214554Y11473079D01*
X7227308Y11466186D01*
X7243319Y11463398D01*
X7263810Y11465388D01*
X7291057Y11475084D01*
X7313926Y11492185D01*
X7322716Y11503318D01*
X7329513Y11516240D01*
X7333770Y11530458D01*
X7335240Y11546514D01*
X7332908Y11567472D01*
X7326650Y11582567D01*
X7316912Y11593316D01*
X7303986Y11600101D01*
X7287348Y11602788D01*
X7265610Y11600557D01*
X7239305Y11590820D01*
X7217090Y11573638D01*
X7208542Y11562588D01*
X7201953Y11549705D01*
X7197892Y11535478D01*
X7196471Y11519022D01*
X7116428Y11519022D01*
X7117818Y11539362D01*
X7125123Y11572860D01*
X7137382Y11604070D01*
X7153965Y11631281D01*
X7175095Y11654829D01*
X7200685Y11674319D01*
X7229960Y11689053D01*
X7264097Y11699152D01*
X7293921Y11701075D01*
X7307573Y11698241D01*
X7319531Y11692320D01*
X7319531Y11739326D01*
X7321744Y11745913D01*
X7329963Y11753604D01*
X7342081Y11759636D01*
X7362282Y11765263D01*
X7384343Y11768382D01*
X7395911Y11767513D01*
G37*
G36*
X6981772Y12152074D02*
G01*
X6973754Y12147737D01*
X6968026Y12137591D01*
X6964590Y12119632D01*
X6963444Y12092303D01*
X6964590Y12064975D01*
X6968026Y12048447D01*
X6973754Y12040715D01*
X6981813Y12039692D01*
X7215454Y12088253D01*
X7243849Y12092930D01*
X7262297Y12093735D01*
X7278517Y12091736D01*
X7291425Y12087517D01*
X7302245Y12080514D01*
X7310244Y12070621D01*
X7315135Y12058298D01*
X7316912Y12042229D01*
X7313233Y12020808D01*
X7300835Y11995468D01*
X7282236Y11970332D01*
X7254033Y11940075D01*
X6981813Y11883495D01*
X6973754Y11879118D01*
X6968026Y11868727D01*
X6964590Y11850767D01*
X6963444Y11823275D01*
X6964590Y11796192D01*
X6968026Y11779664D01*
X6973754Y11771686D01*
X6981772Y11770664D01*
X7390224Y11855594D01*
X7398243Y11859481D01*
X7403970Y11868727D01*
X7407407Y11884436D01*
X7408552Y11907755D01*
X7407407Y11931238D01*
X7403970Y11945066D01*
X7398243Y11951243D01*
X7390224Y11951857D01*
X7343054Y11942038D01*
X7376090Y11983420D01*
X7398079Y12020791D01*
X7411969Y12059251D01*
X7416407Y12096067D01*
X7412648Y12134378D01*
X7402661Y12161892D01*
X7386281Y12183980D01*
X7365310Y12199326D01*
X7340328Y12208701D01*
X7310121Y12212703D01*
X7277140Y12211380D01*
X7234109Y12204521D01*
X6981772Y12152074D01*
G37*
G36*
X7296171Y12697495D02*
G01*
X7330844Y12690633D01*
X7359460Y12677081D01*
X7382995Y12656383D01*
X7401311Y12627374D01*
X7412294Y12592319D01*
X7416407Y12544816D01*
X7412328Y12498548D01*
X7400370Y12456204D01*
X7380760Y12417203D01*
X7353855Y12382278D01*
X7320542Y12352329D01*
X7279643Y12326558D01*
X7233943Y12306735D01*
X7181416Y12292234D01*
X7125768Y12284241D01*
X7081553Y12284665D01*
X7053865Y12289657D01*
X7030596Y12298190D01*
X7011023Y12310030D01*
X6994251Y12325556D01*
X6980373Y12344797D01*
X6969335Y12368328D01*
X6959294Y12407836D01*
X6955589Y12458822D01*
X6959435Y12515156D01*
X6968394Y12563103D01*
X6978990Y12598409D01*
X6987622Y12616083D01*
X6994332Y12622178D01*
X7002882Y12626679D01*
X7015114Y12630565D01*
X7032461Y12634615D01*
X7051607Y12637929D01*
X7063389Y12637929D01*
X7069157Y12634656D01*
X7070794Y12628274D01*
X7066294Y12609864D01*
X7056393Y12580736D01*
X7046452Y12539948D01*
X7043172Y12515839D01*
X7041993Y12487132D01*
X7044136Y12459382D01*
X7049848Y12438776D01*
X7059719Y12421651D01*
X7072758Y12409566D01*
X7089022Y12401747D01*
X7109291Y12397906D01*
X7131339Y12398026D01*
X7157197Y12401793D01*
X7157197Y12585359D01*
X7230509Y12585359D01*
X7230509Y12417052D01*
X7271338Y12432026D01*
X7289413Y12442728D01*
X7304557Y12455058D01*
X7317190Y12469553D01*
X7326936Y12486110D01*
X7333114Y12504470D01*
X7335240Y12525220D01*
X7331702Y12551959D01*
X7322269Y12570208D01*
X7307298Y12582331D01*
X7288162Y12588819D01*
X7263205Y12590294D01*
X7230509Y12585359D01*
X7157197Y12585359D01*
X7157197Y12644884D01*
X7159754Y12659907D01*
X7167261Y12672294D01*
X7179361Y12681485D01*
X7198353Y12687922D01*
X7216640Y12691727D01*
X7258900Y12697712D01*
X7296171Y12697495D01*
G37*
G36*
X7590850Y13248644D02*
G01*
X7597028Y13240952D01*
X7600914Y13224711D01*
X7602305Y13197751D01*
X7600914Y13170136D01*
X7597028Y13152094D01*
X7590850Y13141867D01*
X7582627Y13137653D01*
X7361423Y13091669D01*
X7385708Y13069093D01*
X7402416Y13046054D01*
X7412751Y13020017D01*
X7416407Y12988084D01*
X7412216Y12946810D01*
X7399920Y12909412D01*
X7380022Y12875475D01*
X7352709Y12845019D01*
X7319469Y12819103D01*
X7278497Y12796253D01*
X7233168Y12778375D01*
X7180516Y12764466D01*
X7135575Y12757411D01*
X7094154Y12755425D01*
X7054832Y12759327D01*
X7022478Y12769416D01*
X6994905Y12786553D01*
X6973672Y12810777D01*
X6964048Y12830144D01*
X6957840Y12854260D01*
X6955589Y12884252D01*
X6960258Y12924430D01*
X6963213Y12932527D01*
X7052466Y12932527D01*
X7055569Y12911187D01*
X7063962Y12896444D01*
X7077124Y12885689D01*
X7094604Y12878402D01*
X7114447Y12874818D01*
X7138092Y12874229D01*
X7188289Y12880652D01*
X7235950Y12895257D01*
X7258332Y12905937D01*
X7278088Y12918372D01*
X7295204Y12933235D01*
X7308239Y12950118D01*
X7316693Y12969231D01*
X7319531Y12990293D01*
X7315396Y13013002D01*
X7302839Y13033167D01*
X7283632Y13050745D01*
X7254728Y13069496D01*
X7119109Y13041308D01*
X7087854Y13008375D01*
X7067276Y12980597D01*
X7055943Y12955846D01*
X7052466Y12932527D01*
X6963213Y12932527D01*
X6974367Y12963087D01*
X6996296Y12999945D01*
X7027060Y13038731D01*
X6981731Y13029321D01*
X6973263Y13030017D01*
X6967576Y13036890D01*
X6964385Y13050800D01*
X6963444Y13073873D01*
X6964385Y13096701D01*
X6967576Y13111879D01*
X6973304Y13120675D01*
X6981772Y13124684D01*
X7582627Y13249585D01*
X7590850Y13248644D01*
G37*
G36*
X7317191Y13911607D02*
G01*
X7349518Y13901864D01*
X7377118Y13885200D01*
X7398284Y13861608D01*
X7407952Y13842693D01*
X7414162Y13819256D01*
X7416407Y13790219D01*
X7413175Y13755486D01*
X7402866Y13722021D01*
X7384783Y13687779D01*
X7358232Y13651859D01*
X7582709Y13698538D01*
X7590932Y13697516D01*
X7597069Y13689620D01*
X7600914Y13673174D01*
X7602305Y13646173D01*
X7600914Y13618558D01*
X7597028Y13600516D01*
X7590850Y13590084D01*
X7582668Y13585666D01*
X6981731Y13460765D01*
X6973263Y13461216D01*
X6967535Y13467884D01*
X6964385Y13481998D01*
X6963444Y13504867D01*
X6964385Y13527859D01*
X6967576Y13543487D01*
X6973263Y13552774D01*
X6981731Y13557028D01*
X7026119Y13566233D01*
X6994045Y13591148D01*
X6972076Y13617903D01*
X6964594Y13632561D01*
X6959476Y13648627D01*
X6956250Y13679147D01*
X7052466Y13679147D01*
X7056558Y13656881D01*
X7068994Y13637131D01*
X7088143Y13620052D01*
X7117268Y13601744D01*
X7252887Y13629972D01*
X7283079Y13661719D01*
X7302921Y13689374D01*
X7313762Y13713757D01*
X7316912Y13736381D01*
X7313878Y13757323D01*
X7305662Y13771850D01*
X7292826Y13782565D01*
X7275634Y13790015D01*
X7256073Y13793779D01*
X7232555Y13794269D01*
X7182153Y13787560D01*
X7135392Y13773364D01*
X7113060Y13762773D01*
X7093704Y13750168D01*
X7076932Y13735187D01*
X7063921Y13718666D01*
X7055361Y13700098D01*
X7052466Y13679147D01*
X6956250Y13679147D01*
X6955589Y13685406D01*
X6959753Y13725018D01*
X6972076Y13761582D01*
X6991923Y13794974D01*
X7019246Y13825321D01*
X7052504Y13851293D01*
X7093458Y13874332D01*
X7138841Y13892429D01*
X7191480Y13906406D01*
X7236420Y13913418D01*
X7277843Y13915365D01*
X7317191Y13911607D01*
G37*
G36*
X6966063Y14187094D02*
G01*
X6822466Y14108832D01*
X6813136Y14099956D01*
X6806102Y14083467D01*
X6802549Y14062622D01*
X6801111Y14030119D01*
X6802706Y14001809D01*
X6807943Y13986754D01*
X6812050Y13983445D01*
X6817025Y13982827D01*
X6830198Y13988268D01*
X6966063Y14069762D01*
X6974531Y14061007D01*
X6986681Y14056589D01*
X7362282Y13997268D01*
X7386788Y13996532D01*
X7394404Y13999489D01*
X7400043Y14004673D01*
X7403897Y14012095D01*
X7406711Y14024187D01*
X7408552Y14058348D01*
X7407857Y14088703D01*
X7404420Y14105436D01*
X7395952Y14113045D01*
X7379710Y14115950D01*
X7106222Y14153056D01*
X7106222Y14154406D01*
X7385192Y14298371D01*
X7400984Y14308598D01*
X7406711Y14323899D01*
X7408552Y14358755D01*
X7406711Y14390379D01*
X7403807Y14401540D01*
X7399838Y14407725D01*
X7394126Y14411014D01*
X7386338Y14410998D01*
X7366414Y14403266D01*
X6966063Y14187094D01*
G37*
G36*
X6981772Y14995530D02*
G01*
X6973754Y14991193D01*
X6968026Y14981047D01*
X6964590Y14963087D01*
X6963444Y14935759D01*
X6964590Y14908431D01*
X6968026Y14891903D01*
X6973754Y14884171D01*
X6981813Y14883148D01*
X7215454Y14931709D01*
X7243849Y14936386D01*
X7262297Y14937191D01*
X7278517Y14935191D01*
X7291425Y14930972D01*
X7302245Y14923969D01*
X7310244Y14914076D01*
X7315135Y14901754D01*
X7316912Y14885684D01*
X7313233Y14864264D01*
X7300835Y14838923D01*
X7282236Y14813788D01*
X7254033Y14783530D01*
X6981813Y14726951D01*
X6973754Y14722574D01*
X6968026Y14712182D01*
X6964590Y14694222D01*
X6963444Y14666730D01*
X6964590Y14639648D01*
X6968026Y14623120D01*
X6973754Y14615142D01*
X6981772Y14614119D01*
X7390224Y14699050D01*
X7398243Y14702936D01*
X7403970Y14712182D01*
X7407407Y14727892D01*
X7408552Y14751211D01*
X7407407Y14774694D01*
X7403970Y14788522D01*
X7398243Y14794699D01*
X7390224Y14795313D01*
X7343054Y14785494D01*
X7376090Y14826875D01*
X7398079Y14864247D01*
X7411969Y14902707D01*
X7416407Y14939523D01*
X7412648Y14977833D01*
X7402661Y15005348D01*
X7386281Y15027436D01*
X7365310Y15042781D01*
X7340328Y15052157D01*
X7310121Y15056159D01*
X7277140Y15054836D01*
X7234109Y15047977D01*
X6981772Y14995530D01*
G37*
G36*
X7327999Y15519800D02*
G01*
X7356408Y15512644D01*
X7378156Y15498935D01*
X7394685Y15478711D01*
X7406998Y15450088D01*
X7413824Y15416668D01*
X7416407Y15371703D01*
X7411948Y15319501D01*
X7400493Y15271227D01*
X7385315Y15231339D01*
X7370587Y15206342D01*
X7355900Y15194805D01*
X7333768Y15188014D01*
X7314785Y15185355D01*
X7300303Y15186132D01*
X7291261Y15190551D01*
X7288111Y15198651D01*
X7294616Y15218575D01*
X7309058Y15249994D01*
X7323458Y15292132D01*
X7328308Y15316356D01*
X7330004Y15343843D01*
X7328722Y15364284D01*
X7325381Y15378944D01*
X7319307Y15391096D01*
X7311062Y15399277D01*
X7300476Y15404401D01*
X7286802Y15406764D01*
X7252846Y15403491D01*
X7227891Y15398336D01*
X7227891Y15359389D01*
X7225704Y15307532D01*
X7219627Y15264067D01*
X7208835Y15223980D01*
X7194180Y15191369D01*
X7174505Y15163370D01*
X7150651Y15141581D01*
X7122394Y15125580D01*
X7088549Y15115030D01*
X7056543Y15111277D01*
X7030783Y15113761D01*
X7007800Y15122088D01*
X6989300Y15135362D01*
X6974832Y15153257D01*
X6964099Y15176232D01*
X6957820Y15202154D01*
X6955589Y15232893D01*
X6959388Y15270520D01*
X6960616Y15274377D01*
X7036756Y15274377D01*
X7040781Y15248978D01*
X7051361Y15233302D01*
X7067918Y15225155D01*
X7091576Y15225775D01*
X7105911Y15230169D01*
X7118250Y15236903D01*
X7128897Y15246226D01*
X7138133Y15258749D01*
X7145128Y15273579D01*
X7150447Y15292623D01*
X7153466Y15313657D01*
X7154579Y15340079D01*
X7154579Y15383076D01*
X7085153Y15368635D01*
X7063543Y15342893D01*
X7049070Y15320606D01*
X7039776Y15297576D01*
X7036756Y15274377D01*
X6960616Y15274377D01*
X6970726Y15306123D01*
X6988659Y15339458D01*
X7012864Y15371049D01*
X6980381Y15364298D01*
X6970276Y15365976D01*
X6965040Y15377881D01*
X6963444Y15406886D01*
X6965040Y15435647D01*
X6970276Y15450824D01*
X6980381Y15457411D01*
X7255178Y15514522D01*
X7296040Y15520329D01*
X7327999Y15519800D01*
G37*
G36*
X7020801Y15816239D02*
G01*
X6989791Y15807320D01*
X6974613Y15797706D01*
X6966840Y15784206D01*
X6960867Y15764609D01*
X6956980Y15740963D01*
X6955589Y15715844D01*
X6957952Y15683813D01*
X6964303Y15659469D01*
X6975552Y15639021D01*
X6991141Y15624286D01*
X7010952Y15614759D01*
X7036797Y15610049D01*
X7065431Y15610475D01*
X7101968Y15616022D01*
X7311676Y15659592D01*
X7311676Y15611644D01*
X7314174Y15604927D01*
X7322517Y15600926D01*
X7335076Y15600442D01*
X7358805Y15603994D01*
X7381429Y15609803D01*
X7395993Y15616226D01*
X7403602Y15623386D01*
X7405934Y15631731D01*
X7405934Y15679188D01*
X7496756Y15698089D01*
X7504938Y15702221D01*
X7511115Y15712448D01*
X7514756Y15730694D01*
X7515902Y15757982D01*
X7514756Y15785310D01*
X7511115Y15801797D01*
X7504938Y15809447D01*
X7496756Y15810429D01*
X7405934Y15791529D01*
X7405934Y15878382D01*
X7403602Y15885746D01*
X7395993Y15889755D01*
X7381429Y15890082D01*
X7358805Y15886523D01*
X7335390Y15880320D01*
X7322517Y15874495D01*
X7314086Y15866881D01*
X7311676Y15859277D01*
X7311676Y15771932D01*
X7119437Y15731963D01*
X7088038Y15728474D01*
X7069198Y15731840D01*
X7060343Y15738059D01*
X7054661Y15748526D01*
X7052466Y15765100D01*
X7054061Y15781546D01*
X7057702Y15795047D01*
X7061384Y15805193D01*
X7062980Y15812516D01*
X7061384Y15817302D01*
X7054961Y15819757D01*
X7041911Y15819471D01*
X7020801Y15816239D01*
G37*
G36*
X6981772Y16277834D02*
G01*
X6973754Y16273497D01*
X6968026Y16263351D01*
X6964590Y16245392D01*
X6963444Y16218063D01*
X6964590Y16190735D01*
X6968026Y16174207D01*
X6973754Y16166475D01*
X6981813Y16165452D01*
X7215454Y16214013D01*
X7243849Y16218690D01*
X7262297Y16219495D01*
X7278517Y16217496D01*
X7291425Y16213277D01*
X7302245Y16206274D01*
X7310244Y16196381D01*
X7315135Y16184058D01*
X7316912Y16167989D01*
X7313233Y16146568D01*
X7300835Y16121228D01*
X7282236Y16096092D01*
X7254033Y16065835D01*
X6981813Y16009255D01*
X6973754Y16004878D01*
X6968026Y15994486D01*
X6964590Y15976527D01*
X6963444Y15949035D01*
X6964590Y15921952D01*
X6968026Y15905424D01*
X6973713Y15897405D01*
X6981731Y15896424D01*
X7582668Y16021324D01*
X7590850Y16025742D01*
X7597028Y16036174D01*
X7600914Y16054216D01*
X7602305Y16081831D01*
X7600914Y16108832D01*
X7597069Y16125278D01*
X7590932Y16133174D01*
X7582709Y16134196D01*
X7358232Y16087517D01*
X7384496Y16123252D01*
X7401966Y16155920D01*
X7412887Y16189422D01*
X7416407Y16221827D01*
X7412648Y16260138D01*
X7402661Y16287652D01*
X7386243Y16309715D01*
X7365105Y16325045D01*
X7339889Y16334381D01*
X7309467Y16338341D01*
X7276164Y16336927D01*
X7232309Y16329913D01*
X6981772Y16277834D01*
G37*
G36*
X7327999Y16802104D02*
G01*
X7356408Y16794948D01*
X7378156Y16781240D01*
X7394685Y16761015D01*
X7406998Y16732392D01*
X7413824Y16698972D01*
X7416407Y16654007D01*
X7411948Y16601805D01*
X7400493Y16553531D01*
X7385315Y16513643D01*
X7370587Y16488647D01*
X7355900Y16477110D01*
X7333768Y16470319D01*
X7314785Y16467659D01*
X7300303Y16468437D01*
X7291261Y16472855D01*
X7288111Y16480955D01*
X7294616Y16500879D01*
X7309058Y16532298D01*
X7323458Y16574436D01*
X7328308Y16598661D01*
X7330004Y16626147D01*
X7328722Y16646588D01*
X7325381Y16661249D01*
X7319307Y16673400D01*
X7311062Y16681581D01*
X7300476Y16686706D01*
X7286802Y16689068D01*
X7252846Y16685795D01*
X7227891Y16680640D01*
X7227891Y16641693D01*
X7225704Y16589836D01*
X7219627Y16546371D01*
X7208835Y16506284D01*
X7194180Y16473673D01*
X7174505Y16445675D01*
X7150651Y16423885D01*
X7122394Y16407884D01*
X7088549Y16397334D01*
X7056543Y16393582D01*
X7030783Y16396066D01*
X7007800Y16404392D01*
X6989300Y16417666D01*
X6974832Y16435561D01*
X6964099Y16458536D01*
X6957820Y16484458D01*
X6955589Y16515198D01*
X6959388Y16552824D01*
X6960616Y16556681D01*
X7036756Y16556681D01*
X7040781Y16531282D01*
X7051361Y16515607D01*
X7067918Y16507460D01*
X7091576Y16508079D01*
X7105911Y16512474D01*
X7118250Y16519207D01*
X7128897Y16528530D01*
X7138133Y16541053D01*
X7145128Y16555883D01*
X7150447Y16574927D01*
X7153466Y16595962D01*
X7154579Y16622384D01*
X7154579Y16665381D01*
X7085153Y16650939D01*
X7063543Y16625197D01*
X7049070Y16602910D01*
X7039776Y16579880D01*
X7036756Y16556681D01*
X6960616Y16556681D01*
X6970726Y16588428D01*
X6988659Y16621762D01*
X7012864Y16653353D01*
X6980381Y16646603D01*
X6970276Y16648280D01*
X6965040Y16660185D01*
X6963444Y16689191D01*
X6965040Y16717951D01*
X6970276Y16733129D01*
X6980381Y16739715D01*
X7255178Y16796827D01*
X7296040Y16802633D01*
X7327999Y16802104D01*
G37*
G36*
X6981772Y17243980D02*
G01*
X6973754Y17239644D01*
X6968026Y17229498D01*
X6964590Y17211538D01*
X6963444Y17184210D01*
X6964590Y17156882D01*
X6968026Y17140354D01*
X6973754Y17132621D01*
X6981813Y17131599D01*
X7215454Y17180160D01*
X7243849Y17184837D01*
X7262297Y17185642D01*
X7278517Y17183642D01*
X7291425Y17179423D01*
X7302245Y17172420D01*
X7310244Y17162527D01*
X7315135Y17150204D01*
X7316912Y17134135D01*
X7313233Y17112715D01*
X7300835Y17087374D01*
X7282236Y17062239D01*
X7254033Y17031981D01*
X6981813Y16975402D01*
X6973754Y16971024D01*
X6968026Y16960633D01*
X6964590Y16942673D01*
X6963444Y16915181D01*
X6964590Y16888098D01*
X6968026Y16871570D01*
X6973754Y16863593D01*
X6981772Y16862570D01*
X7390224Y16947501D01*
X7398243Y16951387D01*
X7403970Y16960633D01*
X7407407Y16976343D01*
X7408552Y16999662D01*
X7407407Y17023145D01*
X7403970Y17036972D01*
X7398243Y17043150D01*
X7390224Y17043763D01*
X7343054Y17033945D01*
X7376090Y17075326D01*
X7398079Y17112698D01*
X7411969Y17151157D01*
X7416407Y17187974D01*
X7412648Y17226284D01*
X7402661Y17253799D01*
X7386281Y17275886D01*
X7365310Y17291232D01*
X7340328Y17300608D01*
X7310121Y17304610D01*
X7277140Y17303286D01*
X7234109Y17296428D01*
X6981772Y17243980D01*
G37*
G36*
X6981772Y18212622D02*
G01*
X6973754Y18208286D01*
X6968026Y18198140D01*
X6964590Y18180426D01*
X6963444Y18152893D01*
X6964590Y18125319D01*
X6968026Y18108791D01*
X6973754Y18101059D01*
X6981813Y18100241D01*
X7224659Y18150725D01*
X7262297Y18154775D01*
X7278525Y18153161D01*
X7291425Y18149170D01*
X7302308Y18142493D01*
X7310244Y18133378D01*
X7315119Y18121882D01*
X7316912Y18106337D01*
X7313261Y18086289D01*
X7300835Y18062276D01*
X7282357Y18038130D01*
X7254033Y18007742D01*
X6981813Y17951162D01*
X6973754Y17946826D01*
X6968026Y17936434D01*
X6964590Y17918475D01*
X6963444Y17891392D01*
X6964590Y17864309D01*
X6968026Y17847781D01*
X6973754Y17839803D01*
X6981813Y17838781D01*
X7224659Y17889264D01*
X7262297Y17893274D01*
X7278540Y17891723D01*
X7291425Y17887914D01*
X7302280Y17881384D01*
X7310244Y17872123D01*
X7315140Y17860512D01*
X7316912Y17845367D01*
X7313236Y17824889D01*
X7300835Y17800816D01*
X7282342Y17776783D01*
X7254033Y17746773D01*
X6981813Y17690193D01*
X6973754Y17685816D01*
X6968026Y17675424D01*
X6964590Y17657465D01*
X6963444Y17629973D01*
X6964590Y17602890D01*
X6968026Y17586362D01*
X6973754Y17578384D01*
X6981772Y17577361D01*
X7390224Y17662292D01*
X7398243Y17666179D01*
X7403970Y17675424D01*
X7407407Y17691134D01*
X7408552Y17714453D01*
X7407407Y17737936D01*
X7403970Y17751764D01*
X7398243Y17757941D01*
X7390224Y17758555D01*
X7343054Y17748736D01*
X7376199Y17789922D01*
X7398079Y17826180D01*
X7411981Y17863335D01*
X7416407Y17898756D01*
X7415004Y17922517D01*
X7411130Y17941916D01*
X7404563Y17959524D01*
X7395993Y17973909D01*
X7385137Y17986100D01*
X7372387Y17995673D01*
X7341704Y18008110D01*
X7375619Y18050289D01*
X7398734Y18089113D01*
X7412030Y18125442D01*
X7416407Y18160625D01*
X7412648Y18198082D01*
X7402661Y18224896D01*
X7386310Y18246347D01*
X7365310Y18261224D01*
X7340355Y18270153D01*
X7310121Y18273702D01*
X7278170Y18272386D01*
X7243273Y18266993D01*
X6981772Y18212622D01*
G37*
G36*
X6966063Y18551117D02*
G01*
X6822466Y18472855D01*
X6813136Y18463980D01*
X6806102Y18447491D01*
X6802549Y18426645D01*
X6801111Y18394143D01*
X6802706Y18365833D01*
X6807943Y18350778D01*
X6812050Y18347469D01*
X6817025Y18346850D01*
X6830198Y18352291D01*
X6966063Y18433786D01*
X6974531Y18425031D01*
X6986681Y18420612D01*
X7362282Y18361292D01*
X7386788Y18360555D01*
X7394404Y18363512D01*
X7400043Y18368697D01*
X7403897Y18376119D01*
X7406711Y18388211D01*
X7408552Y18422371D01*
X7407857Y18452727D01*
X7404420Y18469460D01*
X7395952Y18477069D01*
X7379710Y18479974D01*
X7106222Y18517080D01*
X7106222Y18518430D01*
X7385192Y18662394D01*
X7400984Y18672622D01*
X7406711Y18687923D01*
X7408552Y18722779D01*
X7406711Y18754403D01*
X7403807Y18765564D01*
X7399838Y18771749D01*
X7394126Y18775038D01*
X7386338Y18775022D01*
X7366414Y18767289D01*
X6966063Y18551117D01*
G37*
G36*
X7296171Y19179710D02*
G01*
X7330844Y19172848D01*
X7359460Y19159296D01*
X7382995Y19138598D01*
X7401311Y19109589D01*
X7412294Y19074534D01*
X7416407Y19027031D01*
X7412328Y18980763D01*
X7400370Y18938419D01*
X7380760Y18899418D01*
X7353855Y18864493D01*
X7320542Y18834544D01*
X7279643Y18808773D01*
X7233943Y18788950D01*
X7181416Y18774449D01*
X7125768Y18766456D01*
X7081553Y18766880D01*
X7053865Y18771872D01*
X7030596Y18780405D01*
X7011023Y18792245D01*
X6994251Y18807770D01*
X6980373Y18827012D01*
X6969335Y18850543D01*
X6959294Y18890051D01*
X6955589Y18941037D01*
X6959435Y18997371D01*
X6968394Y19045318D01*
X6978990Y19080624D01*
X6987622Y19098298D01*
X6994332Y19104393D01*
X7002882Y19108894D01*
X7015114Y19112780D01*
X7032461Y19116830D01*
X7051607Y19120144D01*
X7063389Y19120144D01*
X7069157Y19116871D01*
X7070794Y19110489D01*
X7066294Y19092079D01*
X7056393Y19062951D01*
X7046452Y19022163D01*
X7043172Y18998054D01*
X7041993Y18969347D01*
X7044136Y18941597D01*
X7049848Y18920991D01*
X7059719Y18903866D01*
X7072758Y18891781D01*
X7089022Y18883962D01*
X7109291Y18880121D01*
X7131339Y18880240D01*
X7157197Y18884008D01*
X7157197Y19067574D01*
X7230509Y19067574D01*
X7230509Y18899267D01*
X7271338Y18914241D01*
X7289413Y18924943D01*
X7304557Y18937273D01*
X7317190Y18951768D01*
X7326936Y18968324D01*
X7333114Y18986685D01*
X7335240Y19007435D01*
X7331702Y19034174D01*
X7322269Y19052423D01*
X7307298Y19064546D01*
X7288162Y19071034D01*
X7263205Y19072509D01*
X7230509Y19067574D01*
X7157197Y19067574D01*
X7157197Y19127099D01*
X7159754Y19142122D01*
X7167261Y19154509D01*
X7179361Y19163700D01*
X7198353Y19170137D01*
X7216640Y19173942D01*
X7258900Y19179927D01*
X7296171Y19179710D01*
G37*
G36*
X7352709Y19561816D02*
G01*
X7325872Y19555311D01*
X7309508Y19549215D01*
X7301285Y19542833D01*
X7298994Y19534978D01*
X7300589Y19527246D01*
X7304026Y19517878D01*
X7307462Y19506300D01*
X7309058Y19491858D01*
X7305130Y19472221D01*
X7292857Y19450211D01*
X7270602Y19424519D01*
X7236359Y19393959D01*
X6981772Y19341021D01*
X6973754Y19336643D01*
X6968026Y19326252D01*
X6964590Y19308292D01*
X6963444Y19280800D01*
X6964590Y19253717D01*
X6968026Y19237189D01*
X6973754Y19229212D01*
X6981772Y19228189D01*
X7390224Y19313120D01*
X7398243Y19317006D01*
X7403970Y19326252D01*
X7407407Y19341962D01*
X7408552Y19365281D01*
X7407407Y19388763D01*
X7403970Y19402591D01*
X7398243Y19408769D01*
X7390224Y19409382D01*
X7339413Y19398787D01*
X7377215Y19436179D01*
X7400820Y19467517D01*
X7412971Y19495090D01*
X7416407Y19520905D01*
X7415712Y19533260D01*
X7413462Y19546638D01*
X7409821Y19558420D01*
X7405484Y19565416D01*
X7400493Y19567952D01*
X7392965Y19568361D01*
X7378647Y19566725D01*
X7352709Y19561816D01*
G37*
G36*
X7097140Y19854695D02*
G01*
X7064016Y19844540D01*
X7035733Y19829167D01*
X7011363Y19808714D01*
X6991304Y19783879D01*
X6975819Y19755516D01*
X6964549Y19723249D01*
X6957865Y19689021D01*
X6955589Y19652474D01*
X6958903Y19610377D01*
X6967290Y19575643D01*
X6977640Y19550933D01*
X6987582Y19537351D01*
X6993151Y19534406D01*
X7002637Y19532851D01*
X7033442Y19536574D01*
X7054961Y19541974D01*
X7067930Y19547333D01*
X7074394Y19553143D01*
X7076030Y19560220D01*
X7070344Y19573557D01*
X7057907Y19594912D01*
X7045266Y19625636D01*
X7040945Y19644373D01*
X7039374Y19667652D01*
X7042565Y19695389D01*
X7051729Y19717849D01*
X7066866Y19734213D01*
X7087976Y19743091D01*
X7101028Y19743611D01*
X7111541Y19739695D01*
X7120553Y19732220D01*
X7128723Y19721326D01*
X7142469Y19693303D01*
X7156665Y19660901D01*
X7174543Y19629236D01*
X7185758Y19615260D01*
X7199253Y19603545D01*
X7215098Y19594731D01*
X7234559Y19588939D01*
X7256143Y19587396D01*
X7284020Y19590944D01*
X7312205Y19599611D01*
X7337859Y19613322D01*
X7360520Y19631638D01*
X7379751Y19654274D01*
X7395048Y19680453D01*
X7406793Y19711140D01*
X7413937Y19744239D01*
X7416407Y19780974D01*
X7413543Y19816853D01*
X7406384Y19847331D01*
X7397138Y19869587D01*
X7388547Y19881901D01*
X7381551Y19886483D01*
X7373369Y19887506D01*
X7361505Y19886606D01*
X7343954Y19883619D01*
X7323867Y19878792D01*
X7311553Y19873964D01*
X7305417Y19868441D01*
X7303821Y19861814D01*
X7308812Y19850359D01*
X7319531Y19831335D01*
X7330249Y19804007D01*
X7333906Y19787458D01*
X7335240Y19766778D01*
X7332009Y19739654D01*
X7322763Y19719363D01*
X7308649Y19705699D01*
X7291343Y19698539D01*
X7277947Y19698010D01*
X7267533Y19702098D01*
X7258713Y19709811D01*
X7250555Y19720958D01*
X7236809Y19749637D01*
X7222859Y19782529D01*
X7205226Y19814685D01*
X7193982Y19829111D01*
X7180475Y19841113D01*
X7164685Y19850183D01*
X7145456Y19856209D01*
X7124178Y19858005D01*
X7097140Y19854695D01*
G37*
G36*
X7424262Y20918618D02*
G01*
X7455309Y20910867D01*
X7482660Y20898193D01*
X7506902Y20880530D01*
X7527348Y20858485D01*
X7545079Y20830510D01*
X7559963Y20795559D01*
X7569880Y20758746D01*
X7576383Y20713747D01*
X7578741Y20659122D01*
X7576029Y20604174D01*
X7568186Y20554145D01*
X7555372Y20506366D01*
X7538444Y20462464D01*
X7517272Y20421114D01*
X7492460Y20383057D01*
X7464281Y20347859D01*
X7433631Y20316004D01*
X7400574Y20286987D01*
X7365678Y20260897D01*
X7329107Y20237625D01*
X7291752Y20217532D01*
X7253420Y20200213D01*
X7214881Y20185703D01*
X7138419Y20164675D01*
X7072679Y20155687D01*
X7017364Y20157148D01*
X6982595Y20164350D01*
X6952315Y20176691D01*
X6925806Y20194090D01*
X6903277Y20216405D01*
X6884039Y20244811D01*
X6868163Y20280371D01*
X6857654Y20318136D01*
X6850749Y20364564D01*
X6848240Y20421226D01*
X6851799Y20491143D01*
X6860022Y20547927D01*
X6869554Y20587528D01*
X6877000Y20605815D01*
X6883014Y20611584D01*
X6891401Y20616247D01*
X6903224Y20620257D01*
X6920406Y20624307D01*
X6940371Y20627743D01*
X6952930Y20628357D01*
X6959230Y20626066D01*
X6960826Y20621034D01*
X6956612Y20601806D01*
X6947735Y20565273D01*
X6938857Y20513725D01*
X6934643Y20449986D01*
X6938666Y20387035D01*
X6949085Y20342596D01*
X6960680Y20316490D01*
X6974654Y20296214D01*
X6990936Y20280821D01*
X7010171Y20269227D01*
X7032255Y20261425D01*
X7057784Y20257543D01*
X7098319Y20258110D01*
X7147092Y20265397D01*
X7203876Y20280330D01*
X7262460Y20302340D01*
X7320390Y20332491D01*
X7348219Y20350993D01*
X7374433Y20371724D01*
X7398793Y20394742D01*
X7421357Y20420408D01*
X7441370Y20448426D01*
X7458668Y20479197D01*
X7472639Y20512256D01*
X7483419Y20549031D01*
X7490041Y20587834D01*
X7492337Y20630812D01*
X7488300Y20692708D01*
X7477937Y20735461D01*
X7460244Y20770947D01*
X7438704Y20794495D01*
X7412036Y20809994D01*
X7381224Y20817242D01*
X7348201Y20817686D01*
X7312126Y20812741D01*
X7270397Y20802023D01*
X7227482Y20786845D01*
X7186898Y20767453D01*
X7152697Y20743971D01*
X7139237Y20730539D01*
X7129214Y20716479D01*
X7122662Y20701317D01*
X7120541Y20686041D01*
X7122585Y20670946D01*
X7127807Y20661812D01*
X7135924Y20656749D01*
X7153198Y20655859D01*
X7184321Y20664849D01*
X7388343Y20745771D01*
X7395420Y20746302D01*
X7400452Y20741557D01*
X7403643Y20729897D01*
X7404789Y20710710D01*
X7403539Y20689081D01*
X7400657Y20677368D01*
X7395379Y20668804D01*
X7388343Y20663827D01*
X7353200Y20648894D01*
X7380119Y20630566D01*
X7397916Y20610765D01*
X7407980Y20587774D01*
X7411171Y20560200D01*
X7408019Y20527650D01*
X7398816Y20498343D01*
X7384513Y20471286D01*
X7366169Y20446550D01*
X7344561Y20424395D01*
X7320103Y20404698D01*
X7266715Y20372829D01*
X7212590Y20350369D01*
X7164684Y20337032D01*
X7132242Y20332327D01*
X7101681Y20332900D01*
X7074967Y20340100D01*
X7063667Y20346561D01*
X7053775Y20355401D01*
X7045760Y20366388D01*
X7039374Y20380397D01*
X7035543Y20396297D01*
X7034138Y20416481D01*
X7037779Y20449946D01*
X7044683Y20470278D01*
X7120541Y20470278D01*
X7122557Y20455736D01*
X7127863Y20446258D01*
X7136292Y20440372D01*
X7153499Y20436907D01*
X7179003Y20439431D01*
X7206208Y20446877D01*
X7237955Y20459519D01*
X7269661Y20476865D01*
X7297521Y20498547D01*
X7317322Y20524362D01*
X7322910Y20538718D01*
X7324767Y20553900D01*
X7321616Y20570790D01*
X7312371Y20584214D01*
X7297946Y20594758D01*
X7275593Y20604588D01*
X7174707Y20565232D01*
X7149629Y20534712D01*
X7132733Y20509716D01*
X7123405Y20488524D01*
X7120541Y20470278D01*
X7044683Y20470278D01*
X7049643Y20484883D01*
X7070426Y20522317D01*
X7101231Y20562982D01*
X7085459Y20565357D01*
X7072226Y20570141D01*
X7060762Y20577622D01*
X7051239Y20587937D01*
X7043995Y20600576D01*
X7038474Y20616616D01*
X7035286Y20634305D01*
X7034138Y20655604D01*
X7037114Y20691340D01*
X7045797Y20723802D01*
X7059635Y20754089D01*
X7077626Y20781649D01*
X7099448Y20806610D01*
X7125205Y20829351D01*
X7153563Y20849499D01*
X7183994Y20867316D01*
X7215994Y20882645D01*
X7249451Y20895504D01*
X7316953Y20913995D01*
X7374727Y20921346D01*
X7424262Y20918618D01*
G37*
G36*
X7318116Y21639658D02*
G01*
X7350418Y21629891D01*
X7377955Y21613189D01*
X7398775Y21589553D01*
X7408184Y21570626D01*
X7414226Y21547282D01*
X7416407Y21518492D01*
X7411825Y21477908D01*
X7397834Y21438961D01*
X7374474Y21399891D01*
X7342195Y21358899D01*
X7390265Y21368922D01*
X7398243Y21368349D01*
X7403970Y21361681D01*
X7407407Y21347649D01*
X7408552Y21325270D01*
X7407407Y21301992D01*
X7403970Y21286487D01*
X7398243Y21277446D01*
X7390265Y21273559D01*
X6820748Y21155164D01*
X6812566Y21156105D01*
X6806388Y21164000D01*
X6802502Y21180447D01*
X6801111Y21207489D01*
X6802502Y21235062D01*
X6806347Y21253104D01*
X6812484Y21263536D01*
X6820707Y21267955D01*
X7011923Y21307720D01*
X6987172Y21330302D01*
X6969540Y21353744D01*
X6959026Y21379763D01*
X6956133Y21406110D01*
X7052466Y21406110D01*
X7056654Y21384323D01*
X7069485Y21364872D01*
X7088897Y21347982D01*
X7117759Y21329730D01*
X7252437Y21357713D01*
X7282629Y21389500D01*
X7302471Y21417156D01*
X7313517Y21441825D01*
X7316912Y21464653D01*
X7313890Y21485267D01*
X7305662Y21499714D01*
X7292821Y21510382D01*
X7275634Y21517673D01*
X7256112Y21521269D01*
X7232800Y21521723D01*
X7182644Y21515137D01*
X7135883Y21500695D01*
X7113489Y21489961D01*
X7093949Y21477417D01*
X7077000Y21462515D01*
X7063921Y21445875D01*
X7055354Y21427099D01*
X7052466Y21406110D01*
X6956133Y21406110D01*
X6955589Y21411060D01*
X6959771Y21451937D01*
X6972076Y21489240D01*
X6991966Y21523181D01*
X7019246Y21553634D01*
X7052548Y21579557D01*
X7093704Y21602481D01*
X7139255Y21620430D01*
X7191971Y21634351D01*
X7237645Y21641523D01*
X7278947Y21643474D01*
X7318116Y21639658D01*
G37*
G36*
X7352709Y22025620D02*
G01*
X7325872Y22019115D01*
X7309508Y22013020D01*
X7301285Y22006638D01*
X7298994Y21998783D01*
X7300589Y21991051D01*
X7304026Y21981682D01*
X7307462Y21970104D01*
X7309058Y21955663D01*
X7305130Y21936026D01*
X7292857Y21914016D01*
X7270602Y21888324D01*
X7236359Y21857764D01*
X6981772Y21804825D01*
X6973754Y21800448D01*
X6968026Y21790057D01*
X6964590Y21772097D01*
X6963444Y21744605D01*
X6964590Y21717522D01*
X6968026Y21700994D01*
X6973754Y21693016D01*
X6981772Y21691994D01*
X7390224Y21776924D01*
X7398243Y21780811D01*
X7403970Y21790057D01*
X7407407Y21805766D01*
X7408552Y21829085D01*
X7407407Y21852568D01*
X7403970Y21866396D01*
X7398243Y21872573D01*
X7390224Y21873187D01*
X7339413Y21862591D01*
X7377215Y21899984D01*
X7400820Y21931321D01*
X7412971Y21958895D01*
X7416407Y21984710D01*
X7415712Y21997065D01*
X7413462Y22010442D01*
X7409821Y22022225D01*
X7405484Y22029220D01*
X7400493Y22031757D01*
X7392965Y22032166D01*
X7378647Y22030530D01*
X7352709Y22025620D01*
G37*
G36*
X6981772Y22138002D02*
G01*
X6973754Y22133624D01*
X6968026Y22123233D01*
X6964590Y22105273D01*
X6963444Y22077781D01*
X6964590Y22050699D01*
X6968026Y22034171D01*
X6973754Y22026193D01*
X6981772Y22025170D01*
X7389324Y22109896D01*
X7397343Y22114233D01*
X7403275Y22124665D01*
X7407161Y22142707D01*
X7408552Y22170321D01*
X7407161Y22197322D01*
X7403275Y22213728D01*
X7397343Y22221664D01*
X7389324Y22222728D01*
X6981772Y22138002D01*
G37*
G36*
X7527275Y22259875D02*
G01*
X7496370Y22249491D01*
X7479369Y22236024D01*
X7469982Y22216185D01*
X7466155Y22181817D01*
X7468061Y22156491D01*
X7472677Y22141433D01*
X7478919Y22133174D01*
X7494584Y22127248D01*
X7525025Y22129615D01*
X7555997Y22139934D01*
X7573136Y22153221D01*
X7582684Y22172969D01*
X7586596Y22207714D01*
X7584670Y22232689D01*
X7579981Y22247702D01*
X7573586Y22256070D01*
X7557694Y22262156D01*
X7527275Y22259875D01*
G37*
G36*
X6981772Y22636335D02*
G01*
X6973754Y22631998D01*
X6968026Y22621852D01*
X6964590Y22603893D01*
X6963444Y22576564D01*
X6964590Y22549236D01*
X6968026Y22532708D01*
X6973754Y22524976D01*
X6981813Y22523953D01*
X7215454Y22572514D01*
X7243849Y22577191D01*
X7262297Y22577996D01*
X7278517Y22575997D01*
X7291425Y22571778D01*
X7302245Y22564775D01*
X7310244Y22554882D01*
X7315135Y22542559D01*
X7316912Y22526490D01*
X7313233Y22505069D01*
X7300835Y22479729D01*
X7282236Y22454593D01*
X7254033Y22424336D01*
X6981813Y22367756D01*
X6973754Y22363379D01*
X6968026Y22352987D01*
X6964590Y22335028D01*
X6963444Y22307536D01*
X6964590Y22280453D01*
X6968026Y22263925D01*
X6973754Y22255947D01*
X6981772Y22254925D01*
X7390224Y22339855D01*
X7398243Y22343742D01*
X7403970Y22352987D01*
X7407407Y22368697D01*
X7408552Y22392016D01*
X7407407Y22415499D01*
X7403970Y22429327D01*
X7398243Y22435504D01*
X7390224Y22436118D01*
X7343054Y22426299D01*
X7376090Y22467681D01*
X7398079Y22505052D01*
X7411969Y22543512D01*
X7416407Y22580328D01*
X7412648Y22618639D01*
X7402661Y22646153D01*
X7386281Y22668241D01*
X7365310Y22683587D01*
X7340328Y22692962D01*
X7310121Y22696964D01*
X7277140Y22695641D01*
X7234109Y22688782D01*
X6981772Y22636335D01*
G37*
G36*
X7045797Y23073752D02*
G01*
X7025915Y23068965D01*
X7012455Y23064383D01*
X7003537Y23059842D01*
X6994864Y23051087D01*
X6982140Y23030100D01*
X6968763Y22997781D01*
X6959230Y22959734D01*
X6955589Y22918905D01*
X6959504Y22874938D01*
X6970276Y22840275D01*
X6988594Y22811175D01*
X7013642Y22789545D01*
X7044600Y22775230D01*
X7083640Y22767576D01*
X7126269Y22767430D01*
X7178184Y22774940D01*
X7236950Y22791115D01*
X7284429Y22812005D01*
X7325996Y22838983D01*
X7358560Y22869280D01*
X7384276Y22904164D01*
X7402170Y22941938D01*
X7412813Y22982470D01*
X7416407Y23025518D01*
X7413134Y23059924D01*
X7404298Y23090321D01*
X7391738Y23114581D01*
X7379629Y23128858D01*
X7371037Y23134013D01*
X7362037Y23135241D01*
X7348414Y23134177D01*
X7328777Y23130781D01*
X7304142Y23124312D01*
X7291098Y23118467D01*
X7282547Y23111085D01*
X7280256Y23104598D01*
X7281783Y23097332D01*
X7286761Y23089830D01*
X7301203Y23072647D01*
X7315603Y23047937D01*
X7320370Y23032087D01*
X7322149Y23010831D01*
X7318325Y22983099D01*
X7307034Y22958618D01*
X7287620Y22936456D01*
X7263021Y22919109D01*
X7229955Y22904168D01*
X7186407Y22892149D01*
X7154305Y22887031D01*
X7128314Y22885890D01*
X7104434Y22888480D01*
X7086258Y22894358D01*
X7071383Y22904236D01*
X7060893Y22917759D01*
X7054713Y22934462D01*
X7052466Y22956052D01*
X7054262Y22978528D01*
X7059339Y22997535D01*
X7074721Y23030059D01*
X7090063Y23054278D01*
X7096977Y23070070D01*
X7094686Y23076329D01*
X7086217Y23078784D01*
X7070467Y23077966D01*
X7045797Y23073752D01*
G37*
G36*
X7296171Y23573844D02*
G01*
X7330844Y23566982D01*
X7359460Y23553429D01*
X7382995Y23532732D01*
X7401311Y23503723D01*
X7412294Y23468668D01*
X7416407Y23421165D01*
X7412328Y23374897D01*
X7400370Y23332553D01*
X7380760Y23293552D01*
X7353855Y23258627D01*
X7320542Y23228678D01*
X7279643Y23202907D01*
X7233943Y23183084D01*
X7181416Y23168583D01*
X7125768Y23160589D01*
X7081553Y23161014D01*
X7053865Y23166006D01*
X7030596Y23174539D01*
X7011023Y23186379D01*
X6994251Y23201904D01*
X6980373Y23221146D01*
X6969335Y23244677D01*
X6959294Y23284185D01*
X6955589Y23335171D01*
X6959435Y23391505D01*
X6968394Y23439452D01*
X6978990Y23474758D01*
X6987622Y23492432D01*
X6994332Y23498527D01*
X7002882Y23503028D01*
X7015114Y23506914D01*
X7032461Y23510964D01*
X7051607Y23514278D01*
X7063389Y23514278D01*
X7069157Y23511005D01*
X7070794Y23504623D01*
X7066294Y23486213D01*
X7056393Y23457085D01*
X7046452Y23416297D01*
X7043172Y23392188D01*
X7041993Y23363481D01*
X7044136Y23335731D01*
X7049848Y23315125D01*
X7059719Y23298000D01*
X7072758Y23285915D01*
X7089022Y23278096D01*
X7109291Y23274255D01*
X7131339Y23274374D01*
X7157197Y23278142D01*
X7157197Y23461708D01*
X7230509Y23461708D01*
X7230509Y23293401D01*
X7271338Y23308375D01*
X7289413Y23319077D01*
X7304557Y23331407D01*
X7317190Y23345902D01*
X7326936Y23362458D01*
X7333114Y23380819D01*
X7335240Y23401569D01*
X7331702Y23428308D01*
X7322269Y23446557D01*
X7307298Y23458680D01*
X7288162Y23465168D01*
X7263205Y23466643D01*
X7230509Y23461708D01*
X7157197Y23461708D01*
X7157197Y23521233D01*
X7159754Y23536256D01*
X7167261Y23548643D01*
X7179361Y23557834D01*
X7198353Y23564271D01*
X7216640Y23568076D01*
X7258900Y23574061D01*
X7296171Y23573844D01*
G37*
G36*
X7020801Y23860260D02*
G01*
X6989791Y23851341D01*
X6974613Y23841727D01*
X6966840Y23828227D01*
X6960867Y23808630D01*
X6956980Y23784984D01*
X6955589Y23759865D01*
X6957952Y23727834D01*
X6964303Y23703490D01*
X6975552Y23683042D01*
X6991141Y23668307D01*
X7010952Y23658780D01*
X7036797Y23654070D01*
X7065431Y23654496D01*
X7101968Y23660043D01*
X7311676Y23703613D01*
X7311676Y23655665D01*
X7314174Y23648948D01*
X7322517Y23644947D01*
X7335076Y23644463D01*
X7358805Y23648015D01*
X7381429Y23653824D01*
X7395993Y23660247D01*
X7403602Y23667407D01*
X7405934Y23675752D01*
X7405934Y23723209D01*
X7496756Y23742110D01*
X7504938Y23746242D01*
X7511115Y23756469D01*
X7514756Y23774715D01*
X7515902Y23802003D01*
X7514756Y23829331D01*
X7511115Y23845818D01*
X7504938Y23853468D01*
X7496756Y23854450D01*
X7405934Y23835550D01*
X7405934Y23922403D01*
X7403602Y23929767D01*
X7395993Y23933776D01*
X7381429Y23934103D01*
X7358805Y23930544D01*
X7335390Y23924341D01*
X7322517Y23918516D01*
X7314086Y23910902D01*
X7311676Y23903298D01*
X7311676Y23815953D01*
X7119437Y23775984D01*
X7088038Y23772495D01*
X7069198Y23775861D01*
X7060343Y23782080D01*
X7054661Y23792547D01*
X7052466Y23809121D01*
X7054061Y23825567D01*
X7057702Y23839068D01*
X7061384Y23849214D01*
X7062980Y23856537D01*
X7061384Y23861323D01*
X7054961Y23863778D01*
X7041911Y23863492D01*
X7020801Y23860260D01*
G37*
G36*
X7286761Y24385962D02*
G01*
X7326426Y24377914D01*
X7357741Y24362438D01*
X7375185Y24347696D01*
X7389745Y24329199D01*
X7401516Y24306390D01*
X7412374Y24267587D01*
X7416407Y24216428D01*
X7412009Y24163105D01*
X7399429Y24116851D01*
X7378880Y24074843D01*
X7351564Y24038589D01*
X7317873Y24007835D01*
X7277393Y23982173D01*
X7232386Y23962677D01*
X7181866Y23948708D01*
X7129132Y23941086D01*
X7085685Y23941222D01*
X7046027Y23949338D01*
X7014664Y23964950D01*
X6989560Y23988589D01*
X6970685Y24021161D01*
X6959668Y24059931D01*
X6955589Y24110715D01*
X6957485Y24133788D01*
X7047229Y24133788D01*
X7050047Y24107786D01*
X7057539Y24089359D01*
X7069921Y24075138D01*
X7086626Y24065631D01*
X7106393Y24060539D01*
X7130810Y24058922D01*
X7156711Y24060689D01*
X7186448Y24065590D01*
X7217856Y24073694D01*
X7244378Y24083673D01*
X7268384Y24096381D01*
X7287907Y24110837D01*
X7303899Y24128026D01*
X7315358Y24147453D01*
X7322361Y24169037D01*
X7324767Y24193272D01*
X7321866Y24219610D01*
X7314212Y24237865D01*
X7301693Y24251940D01*
X7284920Y24261552D01*
X7265134Y24266769D01*
X7240696Y24268262D01*
X7214800Y24266344D01*
X7185098Y24261389D01*
X7153672Y24253336D01*
X7127128Y24243511D01*
X7103197Y24230963D01*
X7083844Y24216592D01*
X7068042Y24199456D01*
X7056598Y24180017D01*
X7049637Y24158412D01*
X7047229Y24133788D01*
X6957485Y24133788D01*
X6959973Y24164066D01*
X6972526Y24210496D01*
X6993160Y24252671D01*
X7020637Y24289003D01*
X7054503Y24319757D01*
X7094808Y24345174D01*
X7139626Y24364485D01*
X7190130Y24378434D01*
X7243264Y24386112D01*
X7286761Y24385962D01*
G37*
G36*
X6981772Y24816710D02*
G01*
X6973754Y24812374D01*
X6968026Y24802228D01*
X6964590Y24784268D01*
X6963444Y24756940D01*
X6964590Y24729611D01*
X6968026Y24713084D01*
X6973754Y24705351D01*
X6981813Y24704329D01*
X7215454Y24752890D01*
X7243849Y24757567D01*
X7262297Y24758372D01*
X7278517Y24756372D01*
X7291425Y24752153D01*
X7302245Y24745150D01*
X7310244Y24735257D01*
X7315135Y24722934D01*
X7316912Y24706865D01*
X7313233Y24685445D01*
X7300835Y24660104D01*
X7282236Y24634969D01*
X7254033Y24604711D01*
X6981813Y24548132D01*
X6973754Y24543754D01*
X6968026Y24533363D01*
X6964590Y24515403D01*
X6963444Y24487911D01*
X6964590Y24460828D01*
X6968026Y24444300D01*
X6973754Y24436323D01*
X6981772Y24435300D01*
X7390224Y24520231D01*
X7398243Y24524117D01*
X7403970Y24533363D01*
X7407407Y24549073D01*
X7408552Y24572392D01*
X7407407Y24595874D01*
X7403970Y24609702D01*
X7398243Y24615880D01*
X7390224Y24616493D01*
X7343054Y24606675D01*
X7376090Y24648056D01*
X7398079Y24685428D01*
X7411969Y24723887D01*
X7416407Y24760704D01*
X7412648Y24799014D01*
X7402661Y24826529D01*
X7386281Y24848616D01*
X7365310Y24863962D01*
X7340328Y24873338D01*
X7310121Y24877340D01*
X7277140Y24876016D01*
X7234109Y24869158D01*
X6981772Y24816710D01*
G37*
G36*
X6981772Y25528802D02*
G01*
X6973754Y25524915D01*
X6968026Y25515874D01*
X6964590Y25500369D01*
X6963444Y25477090D01*
X6964590Y25453362D01*
X6968026Y25439534D01*
X6973754Y25433152D01*
X6981772Y25432580D01*
X7028942Y25442398D01*
X6995925Y25400953D01*
X6973917Y25363563D01*
X6960014Y25325197D01*
X6955589Y25288779D01*
X6959358Y25250065D01*
X6969335Y25222462D01*
X6985752Y25200391D01*
X7006891Y25185029D01*
X7032049Y25175740D01*
X7062080Y25171897D01*
X7095152Y25173450D01*
X7140178Y25180774D01*
X7390224Y25232772D01*
X7398243Y25236904D01*
X7403970Y25247050D01*
X7407407Y25265214D01*
X7408552Y25292542D01*
X7407407Y25319584D01*
X7403970Y25336112D01*
X7398202Y25344131D01*
X7390183Y25345113D01*
X7158834Y25297043D01*
X7128437Y25291885D01*
X7109700Y25290824D01*
X7093489Y25292748D01*
X7080531Y25297083D01*
X7069727Y25304274D01*
X7061712Y25314225D01*
X7056851Y25326540D01*
X7055084Y25342576D01*
X7058806Y25363994D01*
X7071326Y25389173D01*
X7090123Y25414361D01*
X7118700Y25445344D01*
X7390224Y25501800D01*
X7398243Y25505932D01*
X7403970Y25516078D01*
X7407407Y25534038D01*
X7408552Y25561612D01*
X7407407Y25588613D01*
X7403970Y25604936D01*
X7398243Y25612709D01*
X7390224Y25613732D01*
X6981772Y25528802D01*
G37*
G36*
X6981772Y26034867D02*
G01*
X6973754Y26030530D01*
X6968026Y26020384D01*
X6964590Y26002424D01*
X6963444Y25975096D01*
X6964590Y25947768D01*
X6968026Y25931240D01*
X6973754Y25923508D01*
X6981813Y25922485D01*
X7215454Y25971046D01*
X7243849Y25975723D01*
X7262297Y25976528D01*
X7278517Y25974528D01*
X7291425Y25970310D01*
X7302245Y25963306D01*
X7310244Y25953413D01*
X7315135Y25941091D01*
X7316912Y25925021D01*
X7313233Y25903601D01*
X7300835Y25878261D01*
X7282236Y25853125D01*
X7254033Y25822867D01*
X6981813Y25766288D01*
X6973754Y25761911D01*
X6968026Y25751519D01*
X6964590Y25733559D01*
X6963444Y25706067D01*
X6964590Y25678985D01*
X6968026Y25662457D01*
X6973754Y25654479D01*
X6981772Y25653456D01*
X7390224Y25738387D01*
X7398243Y25742273D01*
X7403970Y25751519D01*
X7407407Y25767229D01*
X7408552Y25790548D01*
X7407407Y25814031D01*
X7403970Y25827859D01*
X7398243Y25834036D01*
X7390224Y25834650D01*
X7343054Y25824831D01*
X7376090Y25866212D01*
X7398079Y25903584D01*
X7411969Y25942044D01*
X7416407Y25978860D01*
X7412648Y26017171D01*
X7402661Y26044685D01*
X7386281Y26066773D01*
X7365310Y26082118D01*
X7340328Y26091494D01*
X7310121Y26095496D01*
X7277140Y26094173D01*
X7234109Y26087314D01*
X6981772Y26034867D01*
G37*
G36*
X6981772Y26269653D02*
G01*
X6973754Y26265276D01*
X6968026Y26254884D01*
X6964590Y26236924D01*
X6963444Y26209432D01*
X6964590Y26182350D01*
X6968026Y26165822D01*
X6973754Y26157844D01*
X6981772Y26156821D01*
X7389324Y26241547D01*
X7397343Y26245884D01*
X7403275Y26256316D01*
X7407161Y26274358D01*
X7408552Y26301972D01*
X7407161Y26328973D01*
X7403275Y26345379D01*
X7397343Y26353315D01*
X7389324Y26354379D01*
X6981772Y26269653D01*
G37*
G36*
X7527275Y26391526D02*
G01*
X7496370Y26381142D01*
X7479369Y26367675D01*
X7469982Y26347836D01*
X7466155Y26313468D01*
X7468061Y26288142D01*
X7472677Y26273084D01*
X7478919Y26264826D01*
X7494584Y26258899D01*
X7525025Y26261266D01*
X7555997Y26271585D01*
X7573136Y26284872D01*
X7582684Y26304620D01*
X7586596Y26339365D01*
X7584670Y26364340D01*
X7579981Y26379353D01*
X7573586Y26387721D01*
X7557694Y26393807D01*
X7527275Y26391526D01*
G37*
G36*
X7390674Y26839130D02*
G01*
X7385192Y26837780D01*
X7378074Y26835407D01*
X7369155Y26831725D01*
X7357741Y26826488D01*
X6988154Y26629626D01*
X6975554Y26620953D01*
X6968026Y26606880D01*
X6964385Y26582374D01*
X6963444Y26543059D01*
X6964590Y26504521D01*
X6968476Y26481816D01*
X6976004Y26471056D01*
X6988154Y26467579D01*
X7357741Y26424418D01*
X7374187Y26423600D01*
X7384742Y26423968D01*
X7390674Y26425032D01*
X7398693Y26429123D01*
X7404420Y26439023D01*
X7407611Y26456942D01*
X7408552Y26484679D01*
X7407407Y26514012D01*
X7404175Y26531031D01*
X7398243Y26538968D01*
X7388874Y26541504D01*
X7088917Y26569978D01*
X7077462Y26570306D01*
X7088917Y26575338D01*
X7388874Y26727280D01*
X7398243Y26733498D01*
X7404175Y26743849D01*
X7407407Y26761317D01*
X7408552Y26789137D01*
X7407611Y26816015D01*
X7404420Y26831684D01*
X7398693Y26838557D01*
X7390674Y26839130D01*
G37*
G36*
X7296171Y27244677D02*
G01*
X7330844Y27237815D01*
X7359460Y27224263D01*
X7382995Y27203565D01*
X7401311Y27174556D01*
X7412294Y27139501D01*
X7416407Y27091998D01*
X7412328Y27045730D01*
X7400370Y27003386D01*
X7380760Y26964385D01*
X7353855Y26929460D01*
X7320542Y26899511D01*
X7279643Y26873740D01*
X7233943Y26853917D01*
X7181416Y26839416D01*
X7125768Y26831423D01*
X7081553Y26831847D01*
X7053865Y26836839D01*
X7030596Y26845372D01*
X7011023Y26857212D01*
X6994251Y26872738D01*
X6980373Y26891979D01*
X6969335Y26915510D01*
X6959294Y26955019D01*
X6955589Y27006004D01*
X6959435Y27062338D01*
X6968394Y27110286D01*
X6978990Y27145591D01*
X6987622Y27163265D01*
X6994332Y27169361D01*
X7002882Y27173861D01*
X7015114Y27177747D01*
X7032461Y27181797D01*
X7051607Y27185111D01*
X7063389Y27185111D01*
X7069157Y27181838D01*
X7070794Y27175456D01*
X7066294Y27157046D01*
X7056393Y27127918D01*
X7046452Y27087130D01*
X7043172Y27063021D01*
X7041993Y27034314D01*
X7044136Y27006564D01*
X7049848Y26985958D01*
X7059719Y26968833D01*
X7072758Y26956748D01*
X7089022Y26948929D01*
X7109291Y26945088D01*
X7131339Y26945208D01*
X7157197Y26948975D01*
X7157197Y27132541D01*
X7230509Y27132541D01*
X7230509Y26964234D01*
X7271338Y26979208D01*
X7289413Y26989910D01*
X7304557Y27002240D01*
X7317190Y27016735D01*
X7326936Y27033292D01*
X7333114Y27051652D01*
X7335240Y27072402D01*
X7331702Y27099141D01*
X7322269Y27117390D01*
X7307298Y27129514D01*
X7288162Y27136001D01*
X7263205Y27137476D01*
X7230509Y27132541D01*
X7157197Y27132541D01*
X7157197Y27192066D01*
X7159754Y27207089D01*
X7167261Y27219476D01*
X7179361Y27228668D01*
X7198353Y27235104D01*
X7216640Y27238909D01*
X7258900Y27244894D01*
X7296171Y27244677D01*
G37*
G36*
X7352709Y27626783D02*
G01*
X7325872Y27620278D01*
X7309508Y27614182D01*
X7301285Y27607800D01*
X7298994Y27599945D01*
X7300589Y27592213D01*
X7304026Y27582845D01*
X7307462Y27571267D01*
X7309058Y27556826D01*
X7305130Y27537188D01*
X7292857Y27515179D01*
X7270602Y27489487D01*
X7236359Y27458926D01*
X6981772Y27405988D01*
X6973754Y27401610D01*
X6968026Y27391219D01*
X6964590Y27373259D01*
X6963444Y27345767D01*
X6964590Y27318685D01*
X6968026Y27302157D01*
X6973754Y27294179D01*
X6981772Y27293156D01*
X7390224Y27378087D01*
X7398243Y27381973D01*
X7403970Y27391219D01*
X7407407Y27406929D01*
X7408552Y27430248D01*
X7407407Y27453731D01*
X7403970Y27467559D01*
X7398243Y27473736D01*
X7390224Y27474350D01*
X7339413Y27463754D01*
X7377215Y27501146D01*
X7400820Y27532484D01*
X7412971Y27560058D01*
X7416407Y27585872D01*
X7415712Y27598227D01*
X7413462Y27611605D01*
X7409821Y27623387D01*
X7405484Y27630383D01*
X7400493Y27632919D01*
X7392965Y27633329D01*
X7378647Y27631692D01*
X7352709Y27626783D01*
G37*
G36*
X7097140Y27919662D02*
G01*
X7064016Y27909508D01*
X7035733Y27894134D01*
X7011363Y27873681D01*
X6991304Y27848846D01*
X6975819Y27820483D01*
X6964549Y27788216D01*
X6957865Y27753988D01*
X6955589Y27717441D01*
X6958903Y27675344D01*
X6967290Y27640611D01*
X6977640Y27615901D01*
X6987582Y27602318D01*
X6993151Y27599373D01*
X7002637Y27597818D01*
X7033442Y27601541D01*
X7054961Y27606941D01*
X7067930Y27612300D01*
X7074394Y27618110D01*
X7076030Y27625187D01*
X7070344Y27638524D01*
X7057907Y27659880D01*
X7045266Y27690604D01*
X7040945Y27709341D01*
X7039374Y27732619D01*
X7042565Y27760356D01*
X7051729Y27782816D01*
X7066866Y27799180D01*
X7087976Y27808058D01*
X7101028Y27808578D01*
X7111541Y27804662D01*
X7120553Y27797187D01*
X7128723Y27786294D01*
X7142469Y27758270D01*
X7156665Y27725869D01*
X7174543Y27694204D01*
X7185758Y27680227D01*
X7199253Y27668512D01*
X7215098Y27659698D01*
X7234559Y27653907D01*
X7256143Y27652364D01*
X7284020Y27655911D01*
X7312205Y27664578D01*
X7337859Y27678289D01*
X7360520Y27696605D01*
X7379751Y27719241D01*
X7395048Y27745420D01*
X7406793Y27776107D01*
X7413937Y27809206D01*
X7416407Y27845941D01*
X7413543Y27881820D01*
X7406384Y27912298D01*
X7397138Y27934554D01*
X7388547Y27946868D01*
X7381551Y27951450D01*
X7373369Y27952473D01*
X7361505Y27951573D01*
X7343954Y27948586D01*
X7323867Y27943759D01*
X7311553Y27938931D01*
X7305417Y27933408D01*
X7303821Y27926781D01*
X7308812Y27915326D01*
X7319531Y27896302D01*
X7330249Y27868974D01*
X7333906Y27852426D01*
X7335240Y27831745D01*
X7332009Y27804622D01*
X7322763Y27784330D01*
X7308649Y27770666D01*
X7291343Y27763506D01*
X7277947Y27762977D01*
X7267533Y27767066D01*
X7258713Y27774778D01*
X7250555Y27785925D01*
X7236809Y27814604D01*
X7222859Y27847496D01*
X7205226Y27879652D01*
X7193982Y27894078D01*
X7180475Y27906080D01*
X7164685Y27915150D01*
X7145456Y27921176D01*
X7124178Y27922972D01*
X7097140Y27919662D01*
G37*
G36*
X6981772Y28101142D02*
G01*
X6973754Y28096765D01*
X6968026Y28086373D01*
X6964590Y28068414D01*
X6963444Y28040922D01*
X6964590Y28013839D01*
X6968026Y27997311D01*
X6973754Y27989333D01*
X6981772Y27988311D01*
X7389324Y28073037D01*
X7397343Y28077373D01*
X7403275Y28087805D01*
X7407161Y28105847D01*
X7408552Y28133462D01*
X7407161Y28160463D01*
X7403275Y28176868D01*
X7397343Y28184804D01*
X7389324Y28185868D01*
X6981772Y28101142D01*
G37*
G36*
X7527275Y28223015D02*
G01*
X7496370Y28212631D01*
X7479369Y28199164D01*
X7469982Y28179325D01*
X7466155Y28144957D01*
X7468061Y28119631D01*
X7472677Y28104573D01*
X7478919Y28096315D01*
X7494584Y28090388D01*
X7525025Y28092755D01*
X7555997Y28103074D01*
X7573136Y28116361D01*
X7582684Y28136109D01*
X7586596Y28170854D01*
X7584670Y28195830D01*
X7579981Y28210843D01*
X7573586Y28219210D01*
X7557694Y28225296D01*
X7527275Y28223015D01*
G37*
G36*
X7020801Y28462547D02*
G01*
X6989791Y28453629D01*
X6974613Y28444015D01*
X6966840Y28430514D01*
X6960867Y28410918D01*
X6956980Y28387271D01*
X6955589Y28362152D01*
X6957952Y28330122D01*
X6964303Y28305777D01*
X6975552Y28285330D01*
X6991141Y28270594D01*
X7010952Y28261067D01*
X7036797Y28256357D01*
X7065431Y28256783D01*
X7101968Y28262330D01*
X7311676Y28305900D01*
X7311676Y28257953D01*
X7314174Y28251235D01*
X7322517Y28247234D01*
X7335076Y28246750D01*
X7358805Y28250302D01*
X7381429Y28256112D01*
X7395993Y28262535D01*
X7403602Y28269694D01*
X7405934Y28278040D01*
X7405934Y28325496D01*
X7496756Y28344397D01*
X7504938Y28348529D01*
X7511115Y28358757D01*
X7514756Y28377003D01*
X7515902Y28404290D01*
X7514756Y28431619D01*
X7511115Y28448106D01*
X7504938Y28455756D01*
X7496756Y28456738D01*
X7405934Y28437837D01*
X7405934Y28524690D01*
X7403602Y28532054D01*
X7395993Y28536064D01*
X7381429Y28536391D01*
X7358805Y28532832D01*
X7335390Y28526629D01*
X7322517Y28520804D01*
X7314086Y28513189D01*
X7311676Y28505585D01*
X7311676Y28418241D01*
X7119437Y28378271D01*
X7088038Y28374783D01*
X7069198Y28378148D01*
X7060343Y28384367D01*
X7054661Y28394834D01*
X7052466Y28411409D01*
X7054061Y28427855D01*
X7057702Y28441355D01*
X7061384Y28451501D01*
X7062980Y28458824D01*
X7061384Y28463611D01*
X7054961Y28466065D01*
X7041911Y28465779D01*
X7020801Y28462547D01*
G37*
G36*
X6966063Y28770932D02*
G01*
X6822466Y28692670D01*
X6813136Y28683794D01*
X6806102Y28667305D01*
X6802549Y28646460D01*
X6801111Y28613957D01*
X6802706Y28585647D01*
X6807943Y28570592D01*
X6812050Y28567283D01*
X6817025Y28566665D01*
X6830198Y28572106D01*
X6966063Y28653600D01*
X6974531Y28644845D01*
X6986681Y28640427D01*
X7362282Y28581106D01*
X7386788Y28580370D01*
X7394404Y28583327D01*
X7400043Y28588511D01*
X7403897Y28595933D01*
X7406711Y28608025D01*
X7408552Y28642186D01*
X7407857Y28672542D01*
X7404420Y28689274D01*
X7395952Y28696883D01*
X7379710Y28699788D01*
X7106222Y28736894D01*
X7106222Y28738244D01*
X7385192Y28882209D01*
X7400984Y28892436D01*
X7406711Y28907737D01*
X7408552Y28942593D01*
X7406711Y28974217D01*
X7403807Y28985378D01*
X7399838Y28991563D01*
X7394126Y28994853D01*
X7386338Y28994836D01*
X7366414Y28987104D01*
X6966063Y28770932D01*
G37*
D13*
%TO.C,J6*%
X4110000Y9670000D02*
X4110000Y8400000D01*
X5380000Y9670000D02*
X4110000Y9670000D01*
D14*
%TO.C,G\u002A\u002A\u002A*%
G36*
X23613886Y59927756D02*
G01*
X23627690Y59924420D01*
X23700514Y59906761D01*
X23767406Y59890443D01*
X23824195Y59876489D01*
X23866710Y59865923D01*
X23890780Y59859770D01*
X23933070Y59848441D01*
X23915516Y59778753D01*
X23908718Y59754437D01*
X23894647Y59720549D01*
X23880806Y59709065D01*
X23874427Y59710050D01*
X23847517Y59716227D01*
X23803517Y59727319D01*
X23745810Y59742447D01*
X23677781Y59760732D01*
X23602812Y59781294D01*
X23584035Y59786506D01*
X23501403Y59809879D01*
X23438869Y59828507D01*
X23394362Y59843114D01*
X23365812Y59854420D01*
X23351149Y59863147D01*
X23348302Y59870017D01*
X23350034Y59874959D01*
X23357835Y59901147D01*
X23366958Y59935461D01*
X23379284Y59984412D01*
X23613886Y59927756D01*
G37*
G36*
X15618832Y62122406D02*
G01*
X15624420Y62121325D01*
X15653074Y62113965D01*
X15668939Y62106855D01*
X15669896Y62104615D01*
X15669501Y62084667D01*
X15664357Y62049844D01*
X15655258Y62005997D01*
X15653587Y61998758D01*
X15640452Y61938478D01*
X15626650Y61870532D01*
X15614909Y61808287D01*
X15604404Y61748694D01*
X15596288Y61705320D01*
X15589317Y61678073D01*
X15581658Y61663552D01*
X15571478Y61658358D01*
X15556944Y61659089D01*
X15536222Y61662346D01*
X15521206Y61664340D01*
X15502719Y61668165D01*
X15492782Y61676429D01*
X15489831Y61693809D01*
X15492297Y61724982D01*
X15498614Y61774626D01*
X15501511Y61805139D01*
X15499589Y61829534D01*
X15490531Y61839752D01*
X15476793Y61843152D01*
X15443401Y61850211D01*
X15394701Y61859977D01*
X15334659Y61871657D01*
X15267239Y61884456D01*
X15059615Y61923413D01*
X15067338Y61982150D01*
X15070652Y62003036D01*
X15078138Y62034599D01*
X15085716Y62051678D01*
X15095268Y62052292D01*
X15124076Y62049175D01*
X15167686Y62042605D01*
X15221757Y62033403D01*
X15281950Y62022391D01*
X15343926Y62010390D01*
X15403345Y61998221D01*
X15455867Y61986707D01*
X15497154Y61976668D01*
X15522866Y61968926D01*
X15532082Y61976163D01*
X15543791Y62003210D01*
X15556350Y62047017D01*
X15576720Y62130138D01*
X15618832Y62122406D01*
G37*
G36*
X15483446Y63127159D02*
G01*
X15518438Y63113855D01*
X15561357Y63094450D01*
X15657366Y63048021D01*
X15853958Y63055084D01*
X15863120Y63055408D01*
X15936960Y63057550D01*
X15990235Y63057987D01*
X16025334Y63056636D01*
X16044643Y63053414D01*
X16050549Y63048238D01*
X16049866Y63043536D01*
X16041799Y63020186D01*
X16027562Y62989270D01*
X16004575Y62944211D01*
X15876372Y62935902D01*
X15831627Y62932627D01*
X15788381Y62928569D01*
X15759001Y62924738D01*
X15748169Y62921653D01*
X15749837Y62918232D01*
X15762550Y62899910D01*
X15785048Y62870041D01*
X15814063Y62833016D01*
X15828025Y62815479D01*
X15856414Y62779721D01*
X15877938Y62752471D01*
X15888774Y62738564D01*
X15889000Y62738204D01*
X15888361Y62722395D01*
X15881108Y62693515D01*
X15869797Y62659339D01*
X15856986Y62627644D01*
X15845234Y62606204D01*
X15844728Y62605749D01*
X15839388Y62607737D01*
X15828331Y62618506D01*
X15809924Y62640033D01*
X15782534Y62674294D01*
X15744528Y62723266D01*
X15694274Y62788925D01*
X15677203Y62811282D01*
X15641470Y62857177D01*
X15613751Y62889856D01*
X15589737Y62913167D01*
X15565121Y62930963D01*
X15535595Y62947093D01*
X15496853Y62965408D01*
X15399801Y63010246D01*
X15424158Y63066363D01*
X15433593Y63087401D01*
X15447786Y63116410D01*
X15456931Y63131680D01*
X15461471Y63132546D01*
X15483446Y63127159D01*
G37*
G36*
X15426007Y60542793D02*
G01*
X15475344Y60524567D01*
X15488482Y60518118D01*
X15543994Y60476353D01*
X15582487Y60419387D01*
X15603393Y60348350D01*
X15606144Y60264371D01*
X15600825Y60224150D01*
X15584017Y60175509D01*
X15554189Y60136862D01*
X15508794Y60106081D01*
X15445282Y60081035D01*
X15361106Y60059594D01*
X15346829Y60056581D01*
X15290545Y60045801D01*
X15249901Y60040671D01*
X15219295Y60040720D01*
X15193125Y60045475D01*
X15188575Y60046776D01*
X15135837Y60074603D01*
X15092667Y60122360D01*
X15060801Y60188177D01*
X15046773Y60239445D01*
X15040224Y60316820D01*
X15052341Y60386800D01*
X15082457Y60446439D01*
X15129903Y60492794D01*
X15146290Y60503799D01*
X15178372Y60520620D01*
X15198432Y60519523D01*
X15210016Y60499079D01*
X15216673Y60457861D01*
X15219448Y60425232D01*
X15217961Y60399774D01*
X15208888Y60382234D01*
X15189847Y60364310D01*
X15188903Y60363513D01*
X15157744Y60329248D01*
X15147158Y60293498D01*
X15155126Y60249590D01*
X15161205Y60233709D01*
X15178649Y60207375D01*
X15204553Y60191913D01*
X15242266Y60186590D01*
X15295140Y60190676D01*
X15366524Y60203440D01*
X15412189Y60215278D01*
X15463647Y60239059D01*
X15493987Y60270297D01*
X15503938Y60309555D01*
X15503654Y60313960D01*
X15492065Y60343459D01*
X15468531Y60373731D01*
X15439973Y60397344D01*
X15413314Y60406867D01*
X15405947Y60408541D01*
X15390182Y60427605D01*
X15379947Y60465753D01*
X15376135Y60520260D01*
X15377710Y60531345D01*
X15393442Y60545051D01*
X15426007Y60542793D01*
G37*
G36*
X15566941Y59994212D02*
G01*
X15624610Y59973815D01*
X15670358Y59936107D01*
X15705747Y59880624D01*
X15718909Y59850280D01*
X15740312Y59772514D01*
X15742036Y59701243D01*
X15724535Y59638568D01*
X15688264Y59586589D01*
X15633676Y59547410D01*
X15579794Y59522832D01*
X15515306Y59498941D01*
X15453610Y59481244D01*
X15400580Y59471391D01*
X15373751Y59471144D01*
X15362089Y59471036D01*
X15343349Y59475528D01*
X15290326Y59503018D01*
X15243196Y59549034D01*
X15204976Y59610094D01*
X15178682Y59682717D01*
X15173587Y59711182D01*
X15173232Y59727158D01*
X15283522Y59727158D01*
X15291565Y59683311D01*
X15313389Y59644493D01*
X15347104Y59618063D01*
X15355320Y59614770D01*
X15373751Y59611517D01*
X15397875Y59614065D01*
X15433029Y59623265D01*
X15484554Y59639969D01*
X15510202Y59649092D01*
X15556040Y59667831D01*
X15591853Y59685626D01*
X15611516Y59699599D01*
X15621352Y59713814D01*
X15632171Y59754794D01*
X15624121Y59798421D01*
X15597873Y59837890D01*
X15590364Y59845042D01*
X15565692Y59864199D01*
X15547942Y59871886D01*
X15532743Y59870449D01*
X15495758Y59862470D01*
X15449881Y59849366D01*
X15401404Y59833281D01*
X15356622Y59816359D01*
X15321829Y59800743D01*
X15303320Y59788577D01*
X15291149Y59768674D01*
X15283522Y59727158D01*
X15173232Y59727158D01*
X15172262Y59770743D01*
X15180968Y59828934D01*
X15198646Y59875504D01*
X15217613Y59901170D01*
X15254380Y59930611D01*
X15307006Y59955387D01*
X15379188Y59977587D01*
X15409599Y59984923D01*
X15495790Y59997760D01*
X15566941Y59994212D01*
G37*
G36*
X23890425Y62304955D02*
G01*
X23893917Y62297030D01*
X23902354Y62269038D01*
X23913916Y62225242D01*
X23927659Y62169774D01*
X23942636Y62106768D01*
X23957904Y62040357D01*
X23972515Y61974675D01*
X23985526Y61913854D01*
X23995989Y61862028D01*
X24002961Y61823331D01*
X24005495Y61801895D01*
X23997766Y61796019D01*
X23974967Y61788802D01*
X23945982Y61782846D01*
X23919900Y61779966D01*
X23905811Y61781979D01*
X23902254Y61791509D01*
X23895787Y61818479D01*
X23888501Y61855821D01*
X23882805Y61886749D01*
X23875816Y61921895D01*
X23870998Y61942794D01*
X23869142Y61946494D01*
X23861577Y61950608D01*
X23845990Y61951449D01*
X23819445Y61948655D01*
X23779008Y61941862D01*
X23721744Y61930709D01*
X23644717Y61914832D01*
X23637186Y61913263D01*
X23569215Y61899566D01*
X23509581Y61888342D01*
X23461884Y61880208D01*
X23429719Y61875782D01*
X23416686Y61875682D01*
X23416175Y61876263D01*
X23408684Y61892978D01*
X23400575Y61921089D01*
X23392820Y61959660D01*
X23390691Y61989651D01*
X23396376Y62000182D01*
X23397604Y62000249D01*
X23417092Y62003682D01*
X23453402Y62011540D01*
X23502145Y62022749D01*
X23558936Y62036235D01*
X23619387Y62050921D01*
X23679111Y62065733D01*
X23733723Y62079596D01*
X23778835Y62091434D01*
X23810061Y62100173D01*
X23823013Y62104738D01*
X23823924Y62106233D01*
X23824381Y62124874D01*
X23819443Y62158490D01*
X23809931Y62201029D01*
X23787435Y62288843D01*
X23835341Y62301003D01*
X23847485Y62303769D01*
X23875742Y62307412D01*
X23890425Y62304955D01*
G37*
G36*
X18362125Y59921204D02*
G01*
X18361128Y59897819D01*
X18358293Y59857598D01*
X18353917Y59804582D01*
X18348299Y59742814D01*
X18335919Y59605941D01*
X18308486Y59242774D01*
X18288412Y58877335D01*
X18276082Y58517595D01*
X18271886Y58171526D01*
X18271867Y58134118D01*
X18271555Y58039312D01*
X18270797Y57965107D01*
X18269510Y57909523D01*
X18267606Y57870579D01*
X18265002Y57846295D01*
X18261611Y57834689D01*
X18257349Y57833782D01*
X18241789Y57842972D01*
X18213736Y57853993D01*
X18207003Y57856426D01*
X18179008Y57868590D01*
X18136639Y57888314D01*
X18084246Y57913459D01*
X18026176Y57941885D01*
X17966780Y57971454D01*
X17910408Y58000026D01*
X17861408Y58025462D01*
X17824130Y58045622D01*
X17823512Y58045969D01*
X17774388Y58075191D01*
X17712562Y58114347D01*
X17643890Y58159524D01*
X17574225Y58206811D01*
X17509422Y58252295D01*
X17455338Y58292063D01*
X17430623Y58311112D01*
X17396692Y58338183D01*
X17373398Y58357985D01*
X17364744Y58367197D01*
X17367108Y58371512D01*
X17380527Y58393340D01*
X17404914Y58432123D01*
X17439247Y58486264D01*
X17482507Y58554164D01*
X17533674Y58634226D01*
X17591726Y58724851D01*
X17655643Y58824441D01*
X17724405Y58931398D01*
X17796992Y59044124D01*
X17831225Y59097268D01*
X17905129Y59212143D01*
X17976285Y59322935D01*
X18043457Y59427715D01*
X18105413Y59524549D01*
X18160919Y59611506D01*
X18208739Y59686652D01*
X18247641Y59748057D01*
X18276390Y59793788D01*
X18293753Y59821912D01*
X18315550Y59857536D01*
X18338498Y59893657D01*
X18354763Y59917599D01*
X18361768Y59925441D01*
X18362125Y59921204D01*
G37*
G36*
X20655361Y59885475D02*
G01*
X20675774Y59861571D01*
X20706984Y59820026D01*
X20748328Y59761743D01*
X20799143Y59687627D01*
X20858766Y59598580D01*
X20864308Y59590189D01*
X20887999Y59553952D01*
X20920928Y59503222D01*
X20961811Y59440001D01*
X21009363Y59366294D01*
X21062300Y59284102D01*
X21119338Y59195428D01*
X21179193Y59102276D01*
X21240581Y59006648D01*
X21302217Y58910547D01*
X21362817Y58815976D01*
X21421098Y58724938D01*
X21475774Y58639435D01*
X21525562Y58561472D01*
X21569177Y58493050D01*
X21605335Y58436172D01*
X21632752Y58392841D01*
X21650144Y58365061D01*
X21656227Y58354833D01*
X21656072Y58354185D01*
X21644598Y58342465D01*
X21617195Y58320603D01*
X21577063Y58290809D01*
X21527400Y58255291D01*
X21471408Y58216259D01*
X21412284Y58175921D01*
X21353230Y58136487D01*
X21297443Y58100164D01*
X21248123Y58069164D01*
X21208471Y58045693D01*
X21162928Y58020823D01*
X21101986Y57989053D01*
X21036037Y57955911D01*
X20968743Y57923126D01*
X20903769Y57892424D01*
X20844780Y57865534D01*
X20795439Y57844182D01*
X20759412Y57830097D01*
X20740362Y57825005D01*
X20740096Y57826452D01*
X20739388Y57845185D01*
X20738755Y57883320D01*
X20738222Y57938011D01*
X20737811Y58006410D01*
X20737547Y58085672D01*
X20737454Y58172950D01*
X20736172Y58356643D01*
X20730093Y58629687D01*
X20719343Y58909478D01*
X20704284Y59188572D01*
X20685275Y59459521D01*
X20662678Y59714880D01*
X20661906Y59722687D01*
X20656210Y59780754D01*
X20651340Y59831219D01*
X20647791Y59868902D01*
X20646060Y59888621D01*
X20646407Y59890833D01*
X20655361Y59885475D01*
G37*
G36*
X23897917Y61167551D02*
G01*
X23900978Y61166814D01*
X23956251Y61142881D01*
X24006222Y61103374D01*
X24041996Y61055229D01*
X24060975Y61003413D01*
X24069448Y60934778D01*
X24063499Y60864321D01*
X24044277Y60797769D01*
X24012929Y60740848D01*
X23970604Y60699282D01*
X23960753Y60692829D01*
X23942651Y60683229D01*
X23922410Y60677580D01*
X23894760Y60675236D01*
X23854432Y60675550D01*
X23796154Y60677875D01*
X23741846Y60681176D01*
X23669736Y60690043D01*
X23615117Y60704519D01*
X23574551Y60726092D01*
X23544598Y60756248D01*
X23521820Y60796474D01*
X23514339Y60823348D01*
X23508446Y60865833D01*
X23506114Y60912774D01*
X23510364Y60980045D01*
X23527123Y61040968D01*
X23558351Y61088884D01*
X23605901Y61127784D01*
X23644351Y61150645D01*
X23674607Y61162552D01*
X23692465Y61157848D01*
X23700957Y61135494D01*
X23703114Y61094451D01*
X23702363Y61056421D01*
X23698156Y61033912D01*
X23687594Y61021189D01*
X23667779Y61011445D01*
X23635875Y60992327D01*
X23616009Y60961045D01*
X23610073Y60914383D01*
X23612699Y60889002D01*
X23626926Y60860877D01*
X23655948Y60840963D01*
X23702507Y60827622D01*
X23769347Y60819213D01*
X23828530Y60815739D01*
X23876153Y60817791D01*
X23909459Y60827318D01*
X23932864Y60845655D01*
X23950782Y60874141D01*
X23952579Y60877834D01*
X23964142Y60906541D01*
X23964423Y60929404D01*
X23953893Y60959332D01*
X23936060Y60989652D01*
X23901028Y61015112D01*
X23896686Y61016772D01*
X23879359Y61025382D01*
X23870179Y61038150D01*
X23866565Y61061443D01*
X23865934Y61101626D01*
X23865934Y61174893D01*
X23897917Y61167551D01*
G37*
G36*
X14999951Y61147135D02*
G01*
X15024853Y61131527D01*
X15064904Y61103517D01*
X15069245Y61100438D01*
X15121743Y61063800D01*
X15178521Y61025011D01*
X15228022Y60991973D01*
X15306821Y60940338D01*
X15402472Y61018863D01*
X15431967Y61043094D01*
X15470765Y61075020D01*
X15501205Y61100131D01*
X15518475Y61114461D01*
X15523674Y61118594D01*
X15531983Y61121720D01*
X15536462Y61113130D01*
X15538218Y61088976D01*
X15538360Y61045414D01*
X15537892Y60959294D01*
X15471487Y60909376D01*
X15436999Y60882700D01*
X15391121Y60845548D01*
X15352747Y60812772D01*
X15300412Y60766087D01*
X15423780Y60773564D01*
X15547148Y60781041D01*
X15554618Y60743691D01*
X15555739Y60737919D01*
X15561593Y60691274D01*
X15558803Y60661561D01*
X15547550Y60651183D01*
X15542231Y60650899D01*
X15516214Y60648813D01*
X15472343Y60644962D01*
X15414101Y60639663D01*
X15344972Y60633229D01*
X15268438Y60625975D01*
X15226305Y60622015D01*
X15154524Y60615599D01*
X15092639Y60610492D01*
X15043963Y60606945D01*
X15011806Y60605210D01*
X14999483Y60605538D01*
X14997103Y60614043D01*
X14993364Y60640333D01*
X14989795Y60677266D01*
X14984487Y60744138D01*
X15041364Y60744138D01*
X15067699Y60745017D01*
X15094527Y60750995D01*
X15119533Y60766135D01*
X15151477Y60794438D01*
X15204713Y60844737D01*
X15097474Y60912403D01*
X15062686Y60935295D01*
X15022779Y60964197D01*
X14993601Y60988500D01*
X14979791Y61004572D01*
X14979397Y61005535D01*
X14973968Y61034658D01*
X14974839Y61069779D01*
X14974941Y61070539D01*
X14978789Y61106714D01*
X14980458Y61136955D01*
X14981326Y61146790D01*
X14986630Y61151752D01*
X14999951Y61147135D01*
G37*
G36*
X23605017Y62787858D02*
G01*
X23634656Y62780432D01*
X23652722Y62774000D01*
X23706838Y62740771D01*
X23751618Y62692441D01*
X23785881Y62633341D01*
X23808447Y62567798D01*
X23818133Y62500143D01*
X23813760Y62434705D01*
X23794146Y62375813D01*
X23758112Y62327797D01*
X23741472Y62316983D01*
X23704846Y62300086D01*
X23656682Y62281590D01*
X23603200Y62263563D01*
X23550620Y62248074D01*
X23505163Y62237192D01*
X23473047Y62232986D01*
X23457845Y62234330D01*
X23457227Y62234385D01*
X23414270Y62246810D01*
X23369336Y62268341D01*
X23332887Y62294396D01*
X23332784Y62294492D01*
X23299812Y62335635D01*
X23270634Y62390766D01*
X23250133Y62450666D01*
X23249444Y62453560D01*
X23247954Y62470534D01*
X23357342Y62470534D01*
X23377155Y62422083D01*
X23385069Y62410046D01*
X23403718Y62390115D01*
X23426855Y62379191D01*
X23457845Y62377336D01*
X23500052Y62384613D01*
X23556841Y62401085D01*
X23631576Y62426814D01*
X23649281Y62434343D01*
X23687254Y62463914D01*
X23705286Y62503479D01*
X23702011Y62550638D01*
X23698277Y62561806D01*
X23675518Y62601362D01*
X23644380Y62629268D01*
X23610688Y62639834D01*
X23605641Y62639606D01*
X23572151Y62632966D01*
X23527764Y62619118D01*
X23479148Y62600735D01*
X23432965Y62580492D01*
X23395883Y62561060D01*
X23374565Y62545115D01*
X23358368Y62514666D01*
X23357342Y62470534D01*
X23247954Y62470534D01*
X23243696Y62519057D01*
X23254000Y62585030D01*
X23278872Y62641626D01*
X23288197Y62654272D01*
X23318727Y62682745D01*
X23363368Y62710251D01*
X23425055Y62738430D01*
X23506726Y62768924D01*
X23507178Y62769081D01*
X23549862Y62782954D01*
X23579614Y62788956D01*
X23605017Y62787858D01*
G37*
G36*
X15066532Y61701875D02*
G01*
X15077947Y61700063D01*
X15105253Y61695068D01*
X15117857Y61691688D01*
X15118124Y61690694D01*
X15117763Y61673617D01*
X15115369Y61638822D01*
X15111270Y61590638D01*
X15105797Y61533394D01*
X15090213Y61377975D01*
X15140645Y61367890D01*
X15154886Y61365244D01*
X15182347Y61361558D01*
X15195101Y61362075D01*
X15197328Y61371417D01*
X15201566Y61399784D01*
X15206925Y61442300D01*
X15212755Y61494090D01*
X15217715Y61538390D01*
X15223236Y61582645D01*
X15227762Y61613500D01*
X15230632Y61626083D01*
X15233022Y61626862D01*
X15252046Y61626351D01*
X15282570Y61622273D01*
X15330260Y61614216D01*
X15321519Y61525171D01*
X15321255Y61522459D01*
X15316921Y61472896D01*
X15313749Y61427368D01*
X15312411Y61395420D01*
X15312042Y61354715D01*
X15377800Y61351261D01*
X15443558Y61347806D01*
X15450127Y61391966D01*
X15454040Y61422211D01*
X15459135Y61468618D01*
X15463807Y61517536D01*
X15465834Y61540269D01*
X15470905Y61587028D01*
X15476916Y61616220D01*
X15485733Y61631953D01*
X15499225Y61638335D01*
X15519259Y61639473D01*
X15536773Y61639024D01*
X15562862Y61634070D01*
X15575941Y61619965D01*
X15578637Y61592195D01*
X15573580Y61546248D01*
X15570190Y61519289D01*
X15564620Y61464774D01*
X15559253Y61401759D01*
X15554889Y61339124D01*
X15546918Y61207232D01*
X15458555Y61213804D01*
X15438305Y61215180D01*
X15385831Y61218201D01*
X15319955Y61221522D01*
X15247104Y61224827D01*
X15173702Y61227800D01*
X14977212Y61235225D01*
X14984428Y61353120D01*
X14985627Y61371606D01*
X14991165Y61444005D01*
X14998091Y61521465D01*
X15005188Y61590101D01*
X15018732Y61709186D01*
X15066532Y61701875D01*
G37*
G36*
X23518595Y60577210D02*
G01*
X23562773Y60574393D01*
X23621378Y60569805D01*
X23691148Y60563690D01*
X23768817Y60556291D01*
X24045420Y60528946D01*
X24042004Y60470814D01*
X24040255Y60450662D01*
X24034913Y60419119D01*
X24028294Y60402071D01*
X24027464Y60401471D01*
X24009069Y60399121D01*
X23971090Y60400221D01*
X23916509Y60404607D01*
X23848306Y60412112D01*
X23820932Y60415371D01*
X23764162Y60421635D01*
X23717913Y60426056D01*
X23686368Y60428257D01*
X23673709Y60427860D01*
X23673703Y60427147D01*
X23683811Y60415856D01*
X23708324Y60393607D01*
X23744031Y60363225D01*
X23787722Y60327533D01*
X23788610Y60326821D01*
X23838119Y60286772D01*
X23885334Y60248031D01*
X23924948Y60214985D01*
X23951656Y60192020D01*
X23996672Y60151929D01*
X23982096Y60072965D01*
X23981952Y60072183D01*
X23974081Y60031708D01*
X23967374Y60000918D01*
X23963269Y59986425D01*
X23961029Y59985417D01*
X23941630Y59986035D01*
X23907131Y59991010D01*
X23863048Y59999616D01*
X23850171Y60002399D01*
X23797559Y60013734D01*
X23731642Y60027899D01*
X23659566Y60043358D01*
X23588482Y60058576D01*
X23409885Y60096768D01*
X23417697Y60155659D01*
X23420795Y60177270D01*
X23425785Y60205673D01*
X23429402Y60218443D01*
X23440484Y60217677D01*
X23470036Y60213386D01*
X23513461Y60206325D01*
X23566188Y60197291D01*
X23623646Y60187084D01*
X23681266Y60176502D01*
X23734477Y60166344D01*
X23778709Y60157408D01*
X23784261Y60160689D01*
X23772669Y60176394D01*
X23744838Y60203422D01*
X23702079Y60240586D01*
X23645699Y60286696D01*
X23577007Y60340564D01*
X23468345Y60424312D01*
X23473957Y60497652D01*
X23477343Y60532879D01*
X23481778Y60563248D01*
X23485891Y60577313D01*
X23492109Y60578015D01*
X23518595Y60577210D01*
G37*
G36*
X23394987Y63463280D02*
G01*
X23408682Y63446829D01*
X23425530Y63419504D01*
X23441579Y63388628D01*
X23452878Y63361527D01*
X23455473Y63345525D01*
X23451506Y63341241D01*
X23430349Y63326073D01*
X23394337Y63303392D01*
X23347122Y63275460D01*
X23292358Y63244540D01*
X23134546Y63157371D01*
X23322882Y63143694D01*
X23362011Y63140890D01*
X23425996Y63136466D01*
X23481502Y63132824D01*
X23523625Y63130282D01*
X23547458Y63129157D01*
X23556250Y63128727D01*
X23572935Y63124531D01*
X23586622Y63112253D01*
X23601238Y63087410D01*
X23620713Y63045515D01*
X23625169Y63035475D01*
X23641127Y62998046D01*
X23651511Y62971247D01*
X23654253Y62960332D01*
X23649839Y62958221D01*
X23627589Y62948146D01*
X23589839Y62931256D01*
X23540198Y62909146D01*
X23482272Y62883416D01*
X23419671Y62855661D01*
X23356000Y62827481D01*
X23294869Y62800472D01*
X23239883Y62776232D01*
X23194652Y62756358D01*
X23162783Y62742448D01*
X23147882Y62736100D01*
X23143850Y62736567D01*
X23130518Y62750148D01*
X23115020Y62775441D01*
X23101004Y62805117D01*
X23092117Y62831852D01*
X23092008Y62848319D01*
X23095245Y62850889D01*
X23115822Y62862548D01*
X23151892Y62881068D01*
X23199627Y62904510D01*
X23255198Y62930938D01*
X23265144Y62935614D01*
X23329410Y62966935D01*
X23372446Y62990274D01*
X23394703Y63005895D01*
X23396629Y63014061D01*
X23385838Y63016662D01*
X23354307Y63020434D01*
X23306905Y63024311D01*
X23247820Y63027964D01*
X23181238Y63031061D01*
X22982246Y63038884D01*
X22947763Y63098128D01*
X22933308Y63124867D01*
X22919903Y63155122D01*
X22915682Y63173139D01*
X22919449Y63177238D01*
X22939798Y63192300D01*
X22974800Y63215823D01*
X23021071Y63245728D01*
X23075229Y63279935D01*
X23133888Y63316365D01*
X23193666Y63352939D01*
X23251179Y63387577D01*
X23303043Y63418200D01*
X23345874Y63442728D01*
X23376290Y63459083D01*
X23390905Y63465184D01*
X23394987Y63463280D01*
G37*
G36*
X23449940Y59087194D02*
G01*
X23492213Y59068893D01*
X23537659Y59032150D01*
X23565988Y58981722D01*
X23574812Y58920036D01*
X23563696Y58848442D01*
X23563622Y58848182D01*
X23554296Y58824735D01*
X23536466Y58786982D01*
X23512805Y58739953D01*
X23485988Y58688676D01*
X23458687Y58638181D01*
X23433577Y58593497D01*
X23413330Y58559653D01*
X23400621Y58541679D01*
X23398463Y58540268D01*
X23379811Y58541893D01*
X23374389Y58544417D01*
X23352156Y58554769D01*
X23350992Y58555469D01*
X23327512Y58569473D01*
X23288145Y58592833D01*
X23236708Y58623290D01*
X23177017Y58658582D01*
X23112889Y58696451D01*
X23101126Y58703413D01*
X23041195Y58739531D01*
X22989323Y58771849D01*
X22966267Y58786862D01*
X23261172Y58786862D01*
X23262575Y58784516D01*
X23277680Y58772728D01*
X23303615Y58756213D01*
X23333179Y58739193D01*
X23359170Y58725886D01*
X23374389Y58720512D01*
X23375677Y58720957D01*
X23386837Y58734419D01*
X23403859Y58762852D01*
X23423606Y58801124D01*
X23435842Y58826669D01*
X23449824Y58858775D01*
X23455050Y58879495D01*
X23452614Y58894816D01*
X23443608Y58910727D01*
X23422937Y58933997D01*
X23390166Y58948912D01*
X23356614Y58942768D01*
X23341556Y58928558D01*
X23320107Y58899241D01*
X23298024Y58861993D01*
X23279537Y58826494D01*
X23266244Y58799402D01*
X23261172Y58786862D01*
X22966267Y58786862D01*
X22948531Y58798411D01*
X22921840Y58817258D01*
X22912271Y58826433D01*
X22916938Y58842600D01*
X22930177Y58869258D01*
X22947404Y58897752D01*
X22963975Y58920460D01*
X22975244Y58929763D01*
X22978237Y58929111D01*
X22998450Y58920539D01*
X23031600Y58904102D01*
X23072249Y58882452D01*
X23087914Y58873943D01*
X23124623Y58854790D01*
X23150781Y58842297D01*
X23161527Y58838839D01*
X23163153Y58841504D01*
X23173651Y58860112D01*
X23191382Y58892170D01*
X23213648Y58932811D01*
X23255524Y59000167D01*
X23297799Y59047418D01*
X23342972Y59076441D01*
X23393853Y59089679D01*
X23408108Y59090903D01*
X23449940Y59087194D01*
G37*
G36*
X23362845Y59736307D02*
G01*
X23381162Y59713919D01*
X23413328Y59672121D01*
X23443557Y59630434D01*
X23453087Y59616794D01*
X23472865Y59590154D01*
X23485835Y59578866D01*
X23496742Y59580138D01*
X23510332Y59591183D01*
X23541881Y59615613D01*
X23585961Y59633972D01*
X23641291Y59639241D01*
X23687174Y59634725D01*
X23741253Y59613074D01*
X23779792Y59574826D01*
X23801527Y59521408D01*
X23805192Y59454247D01*
X23804986Y59452030D01*
X23798748Y59419904D01*
X23786253Y59374132D01*
X23769308Y59319857D01*
X23749722Y59262225D01*
X23729301Y59206379D01*
X23709852Y59157464D01*
X23693182Y59120624D01*
X23681100Y59101004D01*
X23679655Y59100575D01*
X23661753Y59104458D01*
X23634824Y59113489D01*
X23626742Y59116199D01*
X23577925Y59134565D01*
X23518608Y59158327D01*
X23452094Y59186256D01*
X23440175Y59191368D01*
X23371757Y59220697D01*
X23309043Y59247554D01*
X23255950Y59270265D01*
X23216397Y59287152D01*
X23194299Y59296540D01*
X23189467Y59298615D01*
X23166036Y59310107D01*
X23156502Y59317387D01*
X23156619Y59318774D01*
X23507534Y59318774D01*
X23571179Y59293723D01*
X23634824Y59268672D01*
X23658528Y59323141D01*
X23665265Y59339715D01*
X23679687Y59382930D01*
X23688177Y59419638D01*
X23690055Y59439348D01*
X23685243Y59462896D01*
X23666955Y59480696D01*
X23636119Y59495641D01*
X23602040Y59498070D01*
X23576835Y59484270D01*
X23566775Y59466749D01*
X23551917Y59434087D01*
X23535772Y59393795D01*
X23507534Y59318774D01*
X23156619Y59318774D01*
X23156670Y59319386D01*
X23163116Y59339104D01*
X23176068Y59367549D01*
X23191620Y59397192D01*
X23205864Y59420501D01*
X23214894Y59429944D01*
X23217478Y59429552D01*
X23238019Y59423253D01*
X23272489Y59410860D01*
X23315048Y59394442D01*
X23351865Y59380364D01*
X23385078Y59369970D01*
X23404446Y59368157D01*
X23414028Y59374090D01*
X23414043Y59374114D01*
X23421698Y59392223D01*
X23420674Y59412904D01*
X23409389Y59439956D01*
X23386258Y59477175D01*
X23349698Y59528362D01*
X23275402Y59629172D01*
X23300083Y59705083D01*
X23324763Y59780993D01*
X23362845Y59736307D01*
G37*
G36*
X24026874Y61654189D02*
G01*
X24027286Y61650906D01*
X24036022Y61577985D01*
X24043988Y61505622D01*
X24050846Y61437574D01*
X24056254Y61377594D01*
X24059875Y61329439D01*
X24061368Y61296863D01*
X24060393Y61283622D01*
X24059755Y61283399D01*
X24043700Y61281461D01*
X24009086Y61278376D01*
X23959806Y61274418D01*
X23899747Y61269864D01*
X23832801Y61264987D01*
X23762858Y61260063D01*
X23693808Y61255366D01*
X23629541Y61251171D01*
X23573947Y61247752D01*
X23530916Y61245386D01*
X23504339Y61244345D01*
X23503884Y61244622D01*
X23499966Y61258689D01*
X23494721Y61290914D01*
X23488781Y61336965D01*
X23482775Y61392513D01*
X23476410Y61453820D01*
X23469799Y61512374D01*
X23463778Y61561020D01*
X23459128Y61593131D01*
X23456645Y61607815D01*
X23451451Y61639921D01*
X23448708Y61658982D01*
X23457440Y61669932D01*
X23480798Y61678202D01*
X23510157Y61682451D01*
X23536875Y61681435D01*
X23552314Y61673909D01*
X23556917Y61657649D01*
X23562968Y61623110D01*
X23569592Y61575559D01*
X23575996Y61520128D01*
X23590536Y61381139D01*
X23642998Y61388330D01*
X23658689Y61390599D01*
X23686227Y61395312D01*
X23698502Y61398562D01*
X23698578Y61407635D01*
X23696302Y61435623D01*
X23691918Y61477791D01*
X23685889Y61529350D01*
X23680540Y61574060D01*
X23675664Y61617403D01*
X23672695Y61647080D01*
X23672136Y61658385D01*
X23674184Y61658950D01*
X23692291Y61662255D01*
X23722544Y61667098D01*
X23736016Y61669064D01*
X23760299Y61670171D01*
X23771711Y61662419D01*
X23777558Y61642549D01*
X23780210Y61626688D01*
X23785088Y61593011D01*
X23790988Y61549652D01*
X23797059Y61503155D01*
X23802450Y61460062D01*
X23806308Y61426917D01*
X23807784Y61410263D01*
X23809524Y61408740D01*
X23826672Y61406736D01*
X23855674Y61406999D01*
X23888497Y61409095D01*
X23917109Y61412591D01*
X23933477Y61417052D01*
X23933638Y61417156D01*
X23939414Y61425214D01*
X23941941Y61442088D01*
X23941126Y61471316D01*
X23936874Y61516441D01*
X23929089Y61581000D01*
X23923757Y61623667D01*
X23917951Y61678177D01*
X23916798Y61715122D01*
X23921252Y61737929D01*
X23932268Y61750023D01*
X23950801Y61754829D01*
X23977805Y61755774D01*
X24014081Y61755952D01*
X24026874Y61654189D01*
G37*
G36*
X15325118Y62814380D02*
G01*
X15342031Y62794709D01*
X15365660Y62761726D01*
X15393252Y62719048D01*
X15416192Y62682053D01*
X15439735Y62644298D01*
X15456306Y62617979D01*
X15463283Y62607277D01*
X15466252Y62607617D01*
X15483416Y62616491D01*
X15510012Y62633445D01*
X15528760Y62644627D01*
X15586885Y62662833D01*
X15646370Y62659802D01*
X15703010Y62636236D01*
X15752598Y62592840D01*
X15759325Y62584178D01*
X15776304Y62550261D01*
X15782976Y62508332D01*
X15779203Y62455253D01*
X15764846Y62387885D01*
X15739765Y62303088D01*
X15739250Y62301493D01*
X15722358Y62249520D01*
X15708073Y62206306D01*
X15697886Y62176317D01*
X15693291Y62164018D01*
X15686338Y62164927D01*
X15660305Y62170902D01*
X15618521Y62181360D01*
X15613545Y62182649D01*
X15564741Y62195287D01*
X15502718Y62211669D01*
X15436205Y62229491D01*
X15368955Y62247741D01*
X15304723Y62265405D01*
X15247262Y62281469D01*
X15200324Y62294920D01*
X15167664Y62304743D01*
X15153034Y62309925D01*
X15152214Y62314669D01*
X15154763Y62336151D01*
X15160462Y62366110D01*
X15496140Y62366110D01*
X15497026Y62362011D01*
X15512540Y62351138D01*
X15541446Y62340731D01*
X15553539Y62337430D01*
X15587027Y62327714D01*
X15609048Y62320499D01*
X15613545Y62319563D01*
X15624887Y62326302D01*
X15637077Y62349059D01*
X15652160Y62391192D01*
X15658148Y62410379D01*
X15668445Y62455787D01*
X15666477Y62486489D01*
X15651217Y62506867D01*
X15621635Y62521304D01*
X15597322Y62526331D01*
X15566994Y62518010D01*
X15542037Y62489465D01*
X15520621Y62439210D01*
X15512450Y62414464D01*
X15502030Y62383266D01*
X15496140Y62366110D01*
X15160462Y62366110D01*
X15160827Y62368026D01*
X15168758Y62402729D01*
X15176909Y62432700D01*
X15183632Y62450376D01*
X15184894Y62450415D01*
X15201582Y62446374D01*
X15233448Y62437133D01*
X15275186Y62424208D01*
X15286722Y62420585D01*
X15329462Y62407869D01*
X15363006Y62398961D01*
X15380909Y62395604D01*
X15395299Y62401610D01*
X15403674Y62422339D01*
X15400842Y62451147D01*
X15386352Y62480948D01*
X15385078Y62482690D01*
X15365474Y62509968D01*
X15338536Y62547961D01*
X15309698Y62589009D01*
X15257233Y62664061D01*
X15283537Y62736266D01*
X15297306Y62772413D01*
X15310080Y62802751D01*
X15318049Y62817904D01*
X15325118Y62814380D01*
G37*
G36*
X15776902Y59472158D02*
G01*
X15807176Y59464682D01*
X15833658Y59450200D01*
X15858908Y59425825D01*
X15885487Y59388669D01*
X15915954Y59335843D01*
X15952868Y59264459D01*
X16027212Y59116419D01*
X16001083Y59100249D01*
X15999039Y59099004D01*
X15974963Y59085336D01*
X15936553Y59064454D01*
X15887296Y59038170D01*
X15830679Y59008297D01*
X15770190Y58976646D01*
X15748091Y58965169D01*
X15709318Y58945032D01*
X15651549Y58915265D01*
X15600372Y58889158D01*
X15559275Y58868524D01*
X15531745Y58855175D01*
X15521270Y58850923D01*
X15515346Y58860330D01*
X15502703Y58884484D01*
X15487533Y58915666D01*
X15473104Y58946936D01*
X15462685Y58971354D01*
X15459543Y58981981D01*
X15461375Y58983136D01*
X15478779Y58992422D01*
X15510174Y59008487D01*
X15550458Y59028708D01*
X15565096Y59036015D01*
X15602798Y59055021D01*
X15629799Y59068912D01*
X15641026Y59075089D01*
X15641627Y59075803D01*
X15639768Y59089876D01*
X15628683Y59111204D01*
X15614005Y59130678D01*
X15601369Y59139193D01*
X15592394Y59140195D01*
X15563400Y59145177D01*
X15520990Y59153389D01*
X15470807Y59163772D01*
X15355382Y59188350D01*
X15326114Y59259719D01*
X15317905Y59279859D01*
X15679058Y59279859D01*
X15680516Y59272470D01*
X15689176Y59246581D01*
X15702838Y59211700D01*
X15718276Y59175544D01*
X15732264Y59145831D01*
X15741577Y59130278D01*
X15748091Y59130164D01*
X15770124Y59137033D01*
X15800227Y59149386D01*
X15830951Y59163863D01*
X15854848Y59177102D01*
X15864469Y59185740D01*
X15863226Y59193692D01*
X15853109Y59221290D01*
X15836077Y59256751D01*
X15816083Y59292736D01*
X15797079Y59321907D01*
X15783020Y59336925D01*
X15772674Y59341111D01*
X15737448Y59339349D01*
X15698741Y59315889D01*
X15686707Y59301734D01*
X15679058Y59279859D01*
X15317905Y59279859D01*
X15316474Y59283370D01*
X15302918Y59318192D01*
X15296924Y59337848D01*
X15297416Y59346519D01*
X15303320Y59348390D01*
X15308321Y59347540D01*
X15332151Y59341839D01*
X15370076Y59331963D01*
X15416631Y59319314D01*
X15422958Y59317565D01*
X15479362Y59302349D01*
X15517574Y59293945D01*
X15541441Y59292840D01*
X15554810Y59299522D01*
X15561527Y59314480D01*
X15565439Y59338202D01*
X15573244Y59369877D01*
X15601796Y59417278D01*
X15646140Y59451937D01*
X15702654Y59471436D01*
X15767717Y59473353D01*
X15776902Y59472158D01*
G37*
G36*
X19626669Y64865039D02*
G01*
X19733833Y64864116D01*
X19824185Y64862378D01*
X19901161Y64859704D01*
X19968195Y64855970D01*
X20028721Y64851052D01*
X20086172Y64844827D01*
X20369554Y64800200D01*
X20648681Y64734429D01*
X20917522Y64648000D01*
X21176885Y64540578D01*
X21427582Y64411825D01*
X21670424Y64261406D01*
X21906221Y64088982D01*
X21924780Y64073938D01*
X21980675Y64025589D01*
X22047694Y63964362D01*
X22122678Y63893414D01*
X22202468Y63815905D01*
X22283907Y63734992D01*
X22363835Y63653835D01*
X22439096Y63575591D01*
X22506529Y63503418D01*
X22562978Y63440475D01*
X22605284Y63389920D01*
X22766393Y63170482D01*
X22919670Y62925270D01*
X23051196Y62671819D01*
X23160969Y62410133D01*
X23248987Y62140213D01*
X23315251Y61862064D01*
X23359759Y61575686D01*
X23362442Y61549540D01*
X23367910Y61473398D01*
X23372218Y61379805D01*
X23375369Y61272813D01*
X23377363Y61156475D01*
X23378203Y61034844D01*
X23377892Y60911972D01*
X23376432Y60791913D01*
X23373824Y60678718D01*
X23370072Y60576440D01*
X23365176Y60489133D01*
X23359140Y60420849D01*
X23347761Y60331010D01*
X23298675Y60054035D01*
X23229208Y59786878D01*
X23138649Y59527417D01*
X23026288Y59273532D01*
X22891415Y59023100D01*
X22862851Y58975155D01*
X22797664Y58871620D01*
X22730295Y58773560D01*
X22658066Y58677657D01*
X22578302Y58580595D01*
X22488325Y58479056D01*
X22385458Y58369721D01*
X22267025Y58249275D01*
X22212664Y58195289D01*
X22097495Y58084007D01*
X21991985Y57987118D01*
X21892816Y57901945D01*
X21796670Y57825813D01*
X21700230Y57756043D01*
X21600179Y57689959D01*
X21493200Y57624885D01*
X21349713Y57544569D01*
X21111524Y57428644D01*
X20869373Y57332834D01*
X20619962Y57256038D01*
X20359994Y57197155D01*
X20086172Y57155084D01*
X20054743Y57151680D01*
X19966255Y57144815D01*
X19860941Y57139554D01*
X19743249Y57135897D01*
X19617625Y57133843D01*
X19614701Y57133833D01*
X19488520Y57133392D01*
X19360379Y57134544D01*
X19237652Y57137298D01*
X19124786Y57141654D01*
X19026229Y57147612D01*
X18946429Y57155171D01*
X18663047Y57199798D01*
X18383919Y57265570D01*
X18115079Y57351998D01*
X17855716Y57459421D01*
X17605018Y57588173D01*
X17362177Y57738593D01*
X17126380Y57911016D01*
X17107821Y57926060D01*
X17051925Y57974409D01*
X16984907Y58035637D01*
X16909923Y58106584D01*
X16830133Y58184094D01*
X16748694Y58265006D01*
X16668765Y58346164D01*
X16593505Y58424408D01*
X16526072Y58496581D01*
X16469623Y58559524D01*
X16427317Y58610079D01*
X16276231Y58815062D01*
X16121676Y59060129D01*
X15988558Y59313849D01*
X15877055Y59575801D01*
X15787342Y59845568D01*
X15719593Y60122730D01*
X15673986Y60406867D01*
X15672848Y60416970D01*
X15667706Y60480392D01*
X15663486Y60562499D01*
X15660192Y60659493D01*
X15657829Y60767575D01*
X15656399Y60882949D01*
X15655906Y61001816D01*
X15655994Y61025084D01*
X15889393Y61025084D01*
X15890016Y60896512D01*
X15893036Y60772703D01*
X15898450Y60659782D01*
X15906255Y60563873D01*
X15910541Y60525285D01*
X15954821Y60245412D01*
X16021498Y59970726D01*
X16110101Y59702358D01*
X16220161Y59441440D01*
X16351207Y59189102D01*
X16502769Y58946477D01*
X16674377Y58714697D01*
X16704884Y58677692D01*
X16781383Y58590695D01*
X16869062Y58497156D01*
X16962893Y58402103D01*
X17057845Y58310565D01*
X17148890Y58227571D01*
X17230998Y58158149D01*
X17460195Y57988078D01*
X17703946Y57835205D01*
X17957192Y57703534D01*
X18219740Y57593155D01*
X18491400Y57504156D01*
X18771978Y57436629D01*
X18947453Y57407372D01*
X19162184Y57384383D01*
X19386522Y57372539D01*
X19614701Y57371839D01*
X19840958Y57382285D01*
X20059527Y57403876D01*
X20264643Y57436611D01*
X20529571Y57499449D01*
X20795250Y57585619D01*
X21053590Y57693040D01*
X21303377Y57820962D01*
X21543395Y57968636D01*
X21772431Y58135315D01*
X21989269Y58320248D01*
X22192696Y58522687D01*
X22381496Y58741884D01*
X22392191Y58755382D01*
X22553667Y58978620D01*
X22698077Y59216104D01*
X22824185Y59465159D01*
X22930755Y59723110D01*
X23016552Y59987283D01*
X23080341Y60255003D01*
X23110435Y60440605D01*
X23132665Y60656051D01*
X23143949Y60879967D01*
X23144289Y61106551D01*
X23133687Y61330005D01*
X23112147Y61544529D01*
X23079671Y61744322D01*
X23057381Y61848489D01*
X22982228Y62125924D01*
X22886145Y62393217D01*
X22769153Y62650331D01*
X22631272Y62897226D01*
X22472524Y63133863D01*
X22292930Y63360204D01*
X22092511Y63576210D01*
X22014580Y63652048D01*
X21794783Y63844841D01*
X21564666Y64016801D01*
X21324266Y64167906D01*
X21073623Y64298137D01*
X20812776Y64407472D01*
X20541763Y64495890D01*
X20260623Y64563370D01*
X20246385Y64566163D01*
X20049762Y64597156D01*
X19838685Y64617685D01*
X19619024Y64627749D01*
X19396652Y64627350D01*
X19177439Y64616487D01*
X18967258Y64595161D01*
X18771978Y64563370D01*
X18667810Y64541080D01*
X18390376Y64465927D01*
X18123083Y64369844D01*
X17865969Y64252851D01*
X17619074Y64114971D01*
X17382437Y63956223D01*
X17156096Y63776629D01*
X16940090Y63576210D01*
X16829986Y63461558D01*
X16641057Y63240134D01*
X16472652Y63008175D01*
X16324996Y62766150D01*
X16198316Y62514529D01*
X16092835Y62253781D01*
X16008781Y61984378D01*
X15946377Y61706788D01*
X15905851Y61421482D01*
X15901932Y61378127D01*
X15895348Y61272016D01*
X15891170Y61152293D01*
X15889393Y61025084D01*
X15655994Y61025084D01*
X15656354Y61120378D01*
X15657747Y61234837D01*
X15660089Y61341395D01*
X15663383Y61436255D01*
X15667633Y61515618D01*
X15672842Y61575686D01*
X15713246Y61840814D01*
X15777874Y62119583D01*
X15864257Y62390121D01*
X15972394Y62652427D01*
X16102283Y62906497D01*
X16253925Y63152329D01*
X16427317Y63389920D01*
X16442361Y63408478D01*
X16490711Y63464374D01*
X16551938Y63531393D01*
X16622886Y63606377D01*
X16700395Y63686167D01*
X16781307Y63767606D01*
X16862465Y63847534D01*
X16940709Y63922794D01*
X17012882Y63990228D01*
X17075825Y64046677D01*
X17126380Y64088982D01*
X17356647Y64257668D01*
X17599316Y64408592D01*
X17849823Y64537842D01*
X18108977Y64645754D01*
X18377589Y64732665D01*
X18656469Y64798910D01*
X18946429Y64844827D01*
X18996648Y64850352D01*
X19056605Y64855426D01*
X19122644Y64859301D01*
X19198199Y64862100D01*
X19286704Y64863947D01*
X19391593Y64864964D01*
X19516300Y64865276D01*
X19626669Y64865039D01*
G37*
G36*
X19640458Y64400410D02*
G01*
X19727861Y64398528D01*
X19805115Y64395617D01*
X19867856Y64391677D01*
X19911722Y64386706D01*
X19912359Y64386600D01*
X19962352Y64378540D01*
X20009805Y64371308D01*
X20044526Y64366457D01*
X20085664Y64360173D01*
X20145573Y64349249D01*
X20213452Y64335661D01*
X20281665Y64320999D01*
X20342577Y64306853D01*
X20388553Y64294814D01*
X20427354Y64283393D01*
X20615725Y64223285D01*
X20787688Y64159638D01*
X20948980Y64090011D01*
X21105336Y64011967D01*
X21262491Y63923064D01*
X21321940Y63886726D01*
X21548538Y63731413D01*
X21762082Y63557825D01*
X21961303Y63367471D01*
X22144928Y63161862D01*
X22311689Y62942506D01*
X22460315Y62710912D01*
X22589537Y62468592D01*
X22698082Y62217053D01*
X22716243Y62168328D01*
X22761731Y62034830D01*
X22802720Y61898129D01*
X22837616Y61764167D01*
X22864826Y61638885D01*
X22882758Y61528225D01*
X22882800Y61527891D01*
X22887691Y61492933D01*
X22894938Y61445379D01*
X22902990Y61395420D01*
X22903414Y61392806D01*
X22909168Y61340826D01*
X22913431Y61270334D01*
X22916232Y61185746D01*
X22917602Y61091475D01*
X22917571Y60991934D01*
X22916167Y60891539D01*
X22913422Y60794702D01*
X22909363Y60705839D01*
X22904022Y60629363D01*
X22897428Y60569688D01*
X22895364Y60555718D01*
X22881717Y60473222D01*
X22865078Y60385599D01*
X22846182Y60295648D01*
X22825765Y60206166D01*
X22804565Y60119950D01*
X22783317Y60039796D01*
X22762758Y59968503D01*
X22743624Y59908866D01*
X22726652Y59863684D01*
X22712577Y59835754D01*
X22702137Y59827872D01*
X22701337Y59828340D01*
X22688739Y59840734D01*
X22664980Y59867059D01*
X22633130Y59903841D01*
X22596264Y59947605D01*
X22592574Y59952041D01*
X22538710Y60016824D01*
X22470343Y60099105D01*
X22387439Y60198926D01*
X22357260Y60235274D01*
X22289964Y60316327D01*
X22177884Y60451350D01*
X22051165Y60604036D01*
X21912823Y60770749D01*
X21909773Y60774425D01*
X21753674Y60962558D01*
X21582834Y61168477D01*
X21582456Y61168933D01*
X22262451Y61168933D01*
X22266872Y61149387D01*
X22285093Y61123683D01*
X22288761Y61119293D01*
X22321439Y61096464D01*
X22357260Y61092210D01*
X22390247Y61104506D01*
X22414423Y61131330D01*
X22423810Y61170656D01*
X22418251Y61199414D01*
X22397071Y61227644D01*
X22365877Y61243507D01*
X22330909Y61245639D01*
X22298408Y61232677D01*
X22274613Y61203257D01*
X22270332Y61193685D01*
X22262451Y61168933D01*
X21582456Y61168933D01*
X21397219Y61392223D01*
X21233077Y61590098D01*
X21196795Y61633836D01*
X21181379Y61652420D01*
X21039030Y61824025D01*
X20910041Y61979515D01*
X20793064Y62120515D01*
X20686751Y62248649D01*
X20589753Y62365540D01*
X20500722Y62472813D01*
X20485754Y62490844D01*
X21560914Y62490844D01*
X21569971Y62488225D01*
X21583702Y62486542D01*
X21616387Y62480380D01*
X21659764Y62470993D01*
X21708259Y62459724D01*
X21756298Y62447916D01*
X21798306Y62436912D01*
X21828710Y62428056D01*
X21841936Y62422690D01*
X21846881Y62410073D01*
X21855412Y62378879D01*
X21865995Y62334326D01*
X21877390Y62281363D01*
X21888269Y62232387D01*
X21898794Y62192980D01*
X21907340Y62169354D01*
X21912823Y62165063D01*
X21916641Y62175797D01*
X21924721Y62206317D01*
X21934893Y62250116D01*
X21945824Y62301676D01*
X21953950Y62341057D01*
X21963235Y62384159D01*
X21970178Y62414158D01*
X21973693Y62426195D01*
X21974029Y62426396D01*
X21988485Y62430547D01*
X22020717Y62438456D01*
X22066318Y62449072D01*
X22120880Y62461341D01*
X22130257Y62463429D01*
X22181812Y62475386D01*
X22222228Y62485567D01*
X22247634Y62492950D01*
X22254160Y62496514D01*
X22241088Y62499700D01*
X22209545Y62506813D01*
X22164785Y62516654D01*
X22111775Y62528120D01*
X22062558Y62538957D01*
X22018504Y62549220D01*
X21987818Y62557018D01*
X21975204Y62561212D01*
X21972349Y62569221D01*
X21965552Y62596123D01*
X21956327Y62637110D01*
X21945824Y62687242D01*
X21937807Y62725480D01*
X21927264Y62771978D01*
X21918438Y62806708D01*
X21912668Y62824132D01*
X21907272Y62820359D01*
X21898694Y62796946D01*
X21887985Y62756886D01*
X21876106Y62703351D01*
X21875668Y62701213D01*
X21864169Y62644575D01*
X21854102Y62604628D01*
X21841479Y62577605D01*
X21822313Y62559736D01*
X21792616Y62547253D01*
X21748401Y62536386D01*
X21685679Y62523367D01*
X21669348Y62519915D01*
X21610825Y62506756D01*
X21574607Y62497043D01*
X21560914Y62490844D01*
X20485754Y62490844D01*
X20418310Y62572091D01*
X20341168Y62665000D01*
X20314521Y62697085D01*
X20267948Y62753162D01*
X20197301Y62838201D01*
X20127879Y62921742D01*
X20079692Y62979713D01*
X21168326Y62979713D01*
X21172804Y62942937D01*
X21189034Y62914943D01*
X21198103Y62908222D01*
X21233077Y62897007D01*
X21270468Y62899985D01*
X21299708Y62916964D01*
X21303738Y62922178D01*
X21315827Y62953530D01*
X21318354Y62989953D01*
X21310055Y63018977D01*
X21294332Y63036017D01*
X21259168Y63051483D01*
X21220289Y63048940D01*
X21185279Y63027848D01*
X21175971Y63014141D01*
X21168326Y62979713D01*
X20079692Y62979713D01*
X20058333Y63005409D01*
X19987316Y63090826D01*
X19913478Y63179616D01*
X19835472Y63273404D01*
X19811592Y63302128D01*
X19754248Y63371240D01*
X19701471Y63435027D01*
X19655328Y63490981D01*
X19617885Y63536594D01*
X19591206Y63569358D01*
X19577358Y63586767D01*
X19565526Y63600563D01*
X19553578Y63607147D01*
X19550713Y63596816D01*
X19557172Y63572451D01*
X19573195Y63536931D01*
X19584290Y63514332D01*
X19606183Y63466392D01*
X19633633Y63403739D01*
X19664929Y63330467D01*
X19698362Y63250666D01*
X19732221Y63168430D01*
X19764798Y63087851D01*
X19794383Y63013020D01*
X19819264Y62948030D01*
X19898214Y62726464D01*
X19989220Y62443734D01*
X20075559Y62145410D01*
X20156178Y61835577D01*
X20230022Y61518321D01*
X20296037Y61197728D01*
X20353171Y60877884D01*
X20364900Y60808475D01*
X20377332Y60738553D01*
X20388882Y60677061D01*
X20398638Y60628848D01*
X20405687Y60598763D01*
X20411697Y60572515D01*
X20420931Y60522501D01*
X20431983Y60455068D01*
X20444400Y60373310D01*
X20457728Y60280323D01*
X20471512Y60179200D01*
X20485299Y60073036D01*
X20498635Y59964926D01*
X20507519Y59889033D01*
X20531525Y59664494D01*
X20553501Y59430067D01*
X20573135Y59190434D01*
X20590112Y58950274D01*
X20604119Y58714268D01*
X20614841Y58487094D01*
X20621964Y58273434D01*
X20625176Y58077967D01*
X20625669Y58024884D01*
X20627049Y57947542D01*
X20629051Y57882707D01*
X20631560Y57833067D01*
X20634458Y57801309D01*
X20637630Y57790123D01*
X20646255Y57788693D01*
X20640351Y57783485D01*
X20618725Y57776026D01*
X20585308Y57767980D01*
X20576001Y57765954D01*
X20535569Y57755938D01*
X20484556Y57742122D01*
X20431761Y57726863D01*
X20335647Y57700693D01*
X20194683Y57669369D01*
X20041984Y57642367D01*
X19884019Y57620937D01*
X19831303Y57615330D01*
X19765244Y57609948D01*
X19697516Y57606632D01*
X19622732Y57605222D01*
X19535504Y57605559D01*
X19430447Y57607484D01*
X19378742Y57608873D01*
X19214397Y57616499D01*
X19067241Y57628970D01*
X18932859Y57646839D01*
X18806835Y57670660D01*
X18684753Y57700986D01*
X18669813Y57705105D01*
X18617523Y57719230D01*
X18568452Y57732150D01*
X18552745Y57736323D01*
X18500820Y57751129D01*
X18452237Y57766144D01*
X18421327Y57777004D01*
X18401419Y57789339D01*
X18391443Y57808808D01*
X18384860Y57842858D01*
X18382491Y57865315D01*
X18380392Y57915997D01*
X18379817Y57985950D01*
X18380681Y58072845D01*
X18382902Y58174354D01*
X18386398Y58288148D01*
X18391085Y58411897D01*
X18396881Y58543275D01*
X18403703Y58679952D01*
X18411468Y58819598D01*
X18420093Y58959887D01*
X18429496Y59098488D01*
X18440014Y59236665D01*
X18454064Y59401625D01*
X18469934Y59571310D01*
X18487188Y59741727D01*
X18505388Y59908881D01*
X18524099Y60068780D01*
X18542883Y60217431D01*
X18561304Y60350842D01*
X18578925Y60465018D01*
X18593045Y60549844D01*
X18636812Y60805294D01*
X18679405Y61041388D01*
X18721508Y61261025D01*
X18763802Y61467104D01*
X18806972Y61662525D01*
X18851699Y61850186D01*
X18898666Y62032988D01*
X18948557Y62213828D01*
X19002054Y62395608D01*
X19059839Y62581225D01*
X19122597Y62773580D01*
X19148556Y62849567D01*
X19187344Y62957759D01*
X19229601Y63070684D01*
X19273551Y63183866D01*
X19317416Y63292831D01*
X19359420Y63393102D01*
X19397785Y63480204D01*
X19430734Y63549662D01*
X19458316Y63604681D01*
X19407891Y63554256D01*
X19386391Y63531858D01*
X19353934Y63495171D01*
X19329640Y63464347D01*
X19319935Y63451641D01*
X19295881Y63421498D01*
X19259914Y63377103D01*
X19213663Y63320445D01*
X19158756Y63253514D01*
X19096823Y63178298D01*
X19029492Y63096788D01*
X18958393Y63010973D01*
X18889005Y62927345D01*
X18799829Y62819864D01*
X18794843Y62813854D01*
X18701961Y62701904D01*
X18598659Y62577392D01*
X18493182Y62450256D01*
X18388789Y62324425D01*
X18288739Y62203825D01*
X18196291Y62092385D01*
X18115523Y61995035D01*
X18058979Y61926896D01*
X18015750Y61874802D01*
X17911031Y61748631D01*
X17804664Y61620496D01*
X17699950Y61494372D01*
X17600187Y61374230D01*
X17508674Y61264046D01*
X17428709Y61167793D01*
X17397531Y61130268D01*
X17308080Y61022579D01*
X17209033Y60903302D01*
X17104176Y60776999D01*
X17020853Y60676615D01*
X16997293Y60648231D01*
X16892169Y60521556D01*
X16792592Y60401535D01*
X16702344Y60292728D01*
X16677913Y60263296D01*
X16584792Y60151730D01*
X16505238Y60057497D01*
X16439390Y59980755D01*
X16387384Y59921658D01*
X16349358Y59880365D01*
X16325449Y59857031D01*
X16315795Y59851814D01*
X16313393Y59856096D01*
X16301508Y59884659D01*
X16285663Y59930281D01*
X16267131Y59988630D01*
X16247180Y60055373D01*
X16227083Y60126179D01*
X16208108Y60196714D01*
X16191527Y60262646D01*
X16178611Y60319642D01*
X16174016Y60342880D01*
X16162634Y60408112D01*
X16150260Y60487572D01*
X16137786Y60575123D01*
X16126102Y60664629D01*
X16116101Y60749953D01*
X16115020Y60763361D01*
X16113470Y60806635D01*
X16112881Y60866181D01*
X16113154Y60937606D01*
X16114189Y61016517D01*
X16115886Y61098523D01*
X16118147Y61179231D01*
X16120871Y61254249D01*
X16123960Y61319184D01*
X16127314Y61369643D01*
X16130834Y61401236D01*
X16135761Y61430848D01*
X16143465Y61480822D01*
X16149121Y61521895D01*
X16154856Y61560705D01*
X16165729Y61621777D01*
X16179428Y61691212D01*
X16194353Y61761266D01*
X16208906Y61824194D01*
X16221486Y61872252D01*
X16232906Y61911053D01*
X16236667Y61922839D01*
X16730907Y61922839D01*
X16771612Y61913947D01*
X16788727Y61910208D01*
X16855527Y61895498D01*
X16903540Y61884419D01*
X16936004Y61875875D01*
X16956160Y61868771D01*
X16967249Y61862012D01*
X16972511Y61854503D01*
X16975186Y61845149D01*
X16975508Y61843744D01*
X16981012Y61818434D01*
X16989313Y61779000D01*
X16998747Y61733347D01*
X17000419Y61725254D01*
X17009295Y61684689D01*
X17016587Y61655092D01*
X17020853Y61642394D01*
X17023090Y61644903D01*
X17029894Y61665954D01*
X17040016Y61706006D01*
X17052862Y61762642D01*
X17067836Y61833443D01*
X17070796Y61845978D01*
X17077984Y61860483D01*
X17092639Y61870590D01*
X17119880Y61879252D01*
X17164827Y61889426D01*
X17191301Y61895129D01*
X17245329Y61907251D01*
X17278521Y61916279D01*
X17292282Y61923393D01*
X17288012Y61929772D01*
X17267117Y61936596D01*
X17230998Y61945043D01*
X17186440Y61954901D01*
X17143248Y61964304D01*
X17113141Y61970691D01*
X17095679Y61975312D01*
X17083611Y61983743D01*
X17074658Y62000708D01*
X17066317Y62030974D01*
X17056081Y62079312D01*
X17051270Y62102588D01*
X17039376Y62155595D01*
X17030077Y62187677D01*
X17022632Y62200364D01*
X17016300Y62195188D01*
X17010337Y62173677D01*
X17004603Y62146525D01*
X16995184Y62102865D01*
X16984943Y62056087D01*
X16967759Y61978247D01*
X16901668Y61965157D01*
X16876795Y61959989D01*
X16826211Y61948439D01*
X16783242Y61937453D01*
X16730907Y61922839D01*
X16236667Y61922839D01*
X16293015Y62099424D01*
X16356662Y62271387D01*
X16426288Y62432679D01*
X16504333Y62589035D01*
X16593236Y62746190D01*
X16629574Y62805639D01*
X16784887Y63032237D01*
X16958475Y63245781D01*
X17091117Y63384602D01*
X17971950Y63384602D01*
X17972343Y63366182D01*
X17983403Y63343452D01*
X17998171Y63322102D01*
X18022018Y63306995D01*
X18058979Y63302925D01*
X18071503Y63303863D01*
X18103471Y63318137D01*
X18123638Y63344898D01*
X18131398Y63378071D01*
X18126145Y63411579D01*
X18107273Y63439347D01*
X18074176Y63455299D01*
X18042429Y63454875D01*
X18006688Y63439723D01*
X17983129Y63412963D01*
X17982174Y63410861D01*
X17971950Y63384602D01*
X17091117Y63384602D01*
X17148828Y63445001D01*
X17354438Y63628627D01*
X17573794Y63795388D01*
X17585163Y63802684D01*
X18481227Y63802684D01*
X18489500Y63798688D01*
X18516383Y63790825D01*
X18557473Y63780594D01*
X18608200Y63769199D01*
X18735173Y63741994D01*
X18753886Y63659128D01*
X18763948Y63612926D01*
X18773377Y63566573D01*
X18779590Y63532545D01*
X18781032Y63524430D01*
X18787913Y63499052D01*
X18794843Y63488827D01*
X18799429Y63496944D01*
X18807752Y63523714D01*
X18818137Y63564742D01*
X18829335Y63615438D01*
X18855564Y63742050D01*
X18982407Y63769227D01*
X19027258Y63779244D01*
X19069760Y63789677D01*
X19098614Y63797887D01*
X19109249Y63802670D01*
X19101832Y63806352D01*
X19075778Y63813944D01*
X19035385Y63823851D01*
X18985289Y63834869D01*
X18943366Y63843828D01*
X18899922Y63853591D01*
X18869609Y63860983D01*
X18857258Y63864872D01*
X18854449Y63873445D01*
X18851255Y63886684D01*
X20227351Y63886684D01*
X20233804Y63860988D01*
X20241321Y63846433D01*
X20270954Y63822877D01*
X20314521Y63814468D01*
X20333052Y63816576D01*
X20365263Y63833895D01*
X20383925Y63864000D01*
X20386499Y63901201D01*
X20370449Y63939811D01*
X20352166Y63956970D01*
X20315206Y63965481D01*
X20284253Y63962962D01*
X20258594Y63950458D01*
X20239104Y63922811D01*
X20232193Y63908700D01*
X20227351Y63886684D01*
X18851255Y63886684D01*
X18847841Y63900833D01*
X18838776Y63942265D01*
X18828349Y63992896D01*
X18819508Y64034885D01*
X18809494Y64077322D01*
X18801367Y64106193D01*
X18796325Y64116849D01*
X18792334Y64109440D01*
X18784428Y64083388D01*
X18774306Y64042993D01*
X18763207Y63992889D01*
X18754231Y63951029D01*
X18744314Y63907392D01*
X18736691Y63876818D01*
X18732521Y63864175D01*
X18723934Y63861163D01*
X18696497Y63854241D01*
X18655055Y63844869D01*
X18604497Y63834193D01*
X18563057Y63825344D01*
X18520698Y63815358D01*
X18491870Y63807408D01*
X18481227Y63802684D01*
X17585163Y63802684D01*
X17805387Y63944014D01*
X18047708Y64073235D01*
X18299247Y64181781D01*
X18347972Y64199942D01*
X18481470Y64245430D01*
X18618171Y64286419D01*
X18752133Y64321314D01*
X18877415Y64348525D01*
X18988075Y64366457D01*
X18988410Y64366499D01*
X19023368Y64371392D01*
X19070922Y64378646D01*
X19120879Y64386706D01*
X19147182Y64390070D01*
X19203875Y64394368D01*
X19276592Y64397636D01*
X19360972Y64399874D01*
X19452651Y64401082D01*
X19547267Y64401261D01*
X19640458Y64400410D01*
G37*
D13*
%TO.C,J5*%
X3270000Y19810000D02*
X2000000Y19810000D01*
X3270000Y18540000D02*
X3270000Y19810000D01*
%TD*%
M02*
