%TF.GenerationSoftware,KiCad,Pcbnew,9.0.0*%
%TF.CreationDate,2025-11-20T17:42:06-05:00*%
%TF.ProjectId,pytheasFC_0.1.0,70797468-6561-4734-9643-5f302e312e30,0.1.0*%
%TF.SameCoordinates,PXbcd3d80PY660b0c0*%
%TF.FileFunction,Legend,Top*%
%TF.FilePolarity,Positive*%
%FSLAX46Y46*%
G04 Gerber Fmt 4.6, Leading zero omitted, Abs format (unit mm)*
G04 Created by KiCad (PCBNEW 9.0.0) date 2025-11-20 17:42:06*
%MOMM*%
%LPD*%
G01*
G04 APERTURE LIST*
%ADD10C,0.120000*%
%ADD11C,0.125000*%
%ADD12C,0.100000*%
%ADD13C,0.187500*%
%ADD14C,0.254000*%
%ADD15C,0.200000*%
%ADD16C,0.250000*%
%ADD17C,0.150000*%
G04 APERTURE END LIST*
D10*
X24700000Y52474376D02*
X24700000Y57544376D01*
X16524123Y65854204D02*
X16524123Y68324204D01*
X4202226Y7173232D02*
X15502226Y7104275D01*
X4202226Y9644275D02*
X15502226Y9644275D01*
X4646252Y53724563D02*
X4646252Y57524563D01*
X2176252Y57524563D02*
X2176252Y52454563D01*
X3270000Y34500000D02*
X3271425Y38324186D01*
X16524123Y68324204D02*
X11454123Y68324204D01*
X3270000Y19700000D02*
X798957Y19700000D01*
X3270000Y28200000D02*
X3270000Y32000000D01*
X798957Y19700000D02*
X730000Y8400000D01*
X3270000Y19700000D02*
X3270000Y8400000D01*
X798957Y20591520D02*
X2000000Y20590000D01*
X800000Y26930000D02*
X2000000Y26930000D01*
X15502226Y9644275D02*
G75*
G02*
X15502226Y7104325I-26J-1269975D01*
G01*
X4202226Y9644275D02*
X4202226Y7173232D01*
X7100000Y23300000D02*
X10835000Y23300000D01*
X10835000Y25200000D02*
X10835000Y23300000D01*
X22230000Y56274376D02*
X22230000Y52474376D01*
X11454123Y68324204D02*
X11454123Y67124204D01*
X3268957Y25661520D02*
X798957Y25661520D01*
X24700000Y57544376D02*
X23500000Y57544376D01*
X800000Y32000000D02*
X800000Y26930000D01*
X12724123Y65854204D02*
X16524123Y65854204D01*
X10200000Y25835000D02*
X7100000Y25835000D01*
X3270000Y8400000D02*
G75*
G02*
X730000Y8400000I-1270000J0D01*
G01*
X3268957Y21861520D02*
X3268957Y25661520D01*
X22230000Y52474376D02*
X24700000Y52474376D01*
X7100000Y25835000D02*
X7100000Y23300000D01*
X3271425Y38324186D02*
X801425Y38324186D01*
X801425Y38324186D02*
X801425Y33254186D01*
X3270000Y32000000D02*
X800000Y32000000D01*
X4646252Y57524563D02*
X2176252Y57524563D01*
X801425Y33254186D02*
X2001425Y33254186D01*
X798957Y25661520D02*
X798957Y20591520D01*
X2176252Y52454563D02*
X3376252Y52454563D01*
D11*
X21273809Y11472663D02*
X21107143Y11710758D01*
X20988095Y11472663D02*
X20988095Y11972663D01*
X20988095Y11972663D02*
X21178571Y11972663D01*
X21178571Y11972663D02*
X21226190Y11948853D01*
X21226190Y11948853D02*
X21250000Y11925044D01*
X21250000Y11925044D02*
X21273809Y11877425D01*
X21273809Y11877425D02*
X21273809Y11805996D01*
X21273809Y11805996D02*
X21250000Y11758377D01*
X21250000Y11758377D02*
X21226190Y11734568D01*
X21226190Y11734568D02*
X21178571Y11710758D01*
X21178571Y11710758D02*
X20988095Y11710758D01*
X21488095Y11734568D02*
X21654762Y11734568D01*
X21726190Y11472663D02*
X21488095Y11472663D01*
X21488095Y11472663D02*
X21488095Y11972663D01*
X21488095Y11972663D02*
X21726190Y11972663D01*
X21916667Y11496472D02*
X21988095Y11472663D01*
X21988095Y11472663D02*
X22107143Y11472663D01*
X22107143Y11472663D02*
X22154762Y11496472D01*
X22154762Y11496472D02*
X22178571Y11520282D01*
X22178571Y11520282D02*
X22202381Y11567901D01*
X22202381Y11567901D02*
X22202381Y11615520D01*
X22202381Y11615520D02*
X22178571Y11663139D01*
X22178571Y11663139D02*
X22154762Y11686949D01*
X22154762Y11686949D02*
X22107143Y11710758D01*
X22107143Y11710758D02*
X22011905Y11734568D01*
X22011905Y11734568D02*
X21964286Y11758377D01*
X21964286Y11758377D02*
X21940476Y11782187D01*
X21940476Y11782187D02*
X21916667Y11829806D01*
X21916667Y11829806D02*
X21916667Y11877425D01*
X21916667Y11877425D02*
X21940476Y11925044D01*
X21940476Y11925044D02*
X21964286Y11948853D01*
X21964286Y11948853D02*
X22011905Y11972663D01*
X22011905Y11972663D02*
X22130952Y11972663D01*
X22130952Y11972663D02*
X22202381Y11948853D01*
X22416666Y11734568D02*
X22583333Y11734568D01*
X22654761Y11472663D02*
X22416666Y11472663D01*
X22416666Y11472663D02*
X22416666Y11972663D01*
X22416666Y11972663D02*
X22654761Y11972663D01*
X22797619Y11972663D02*
X23083333Y11972663D01*
X22940476Y11472663D02*
X22940476Y11972663D01*
X20750000Y10691500D02*
X20821428Y10667691D01*
X20821428Y10667691D02*
X20940476Y10667691D01*
X20940476Y10667691D02*
X20988095Y10691500D01*
X20988095Y10691500D02*
X21011904Y10715310D01*
X21011904Y10715310D02*
X21035714Y10762929D01*
X21035714Y10762929D02*
X21035714Y10810548D01*
X21035714Y10810548D02*
X21011904Y10858167D01*
X21011904Y10858167D02*
X20988095Y10881977D01*
X20988095Y10881977D02*
X20940476Y10905786D01*
X20940476Y10905786D02*
X20845238Y10929596D01*
X20845238Y10929596D02*
X20797619Y10953405D01*
X20797619Y10953405D02*
X20773809Y10977215D01*
X20773809Y10977215D02*
X20750000Y11024834D01*
X20750000Y11024834D02*
X20750000Y11072453D01*
X20750000Y11072453D02*
X20773809Y11120072D01*
X20773809Y11120072D02*
X20797619Y11143881D01*
X20797619Y11143881D02*
X20845238Y11167691D01*
X20845238Y11167691D02*
X20964285Y11167691D01*
X20964285Y11167691D02*
X21035714Y11143881D01*
X21202380Y11167691D02*
X21321428Y10667691D01*
X21321428Y10667691D02*
X21416666Y11024834D01*
X21416666Y11024834D02*
X21511904Y10667691D01*
X21511904Y10667691D02*
X21630952Y11167691D01*
X21821428Y10667691D02*
X21821428Y11167691D01*
X21988095Y11167691D02*
X22273809Y11167691D01*
X22130952Y10667691D02*
X22130952Y11167691D01*
X22726189Y10715310D02*
X22702380Y10691500D01*
X22702380Y10691500D02*
X22630951Y10667691D01*
X22630951Y10667691D02*
X22583332Y10667691D01*
X22583332Y10667691D02*
X22511904Y10691500D01*
X22511904Y10691500D02*
X22464285Y10739120D01*
X22464285Y10739120D02*
X22440475Y10786739D01*
X22440475Y10786739D02*
X22416666Y10881977D01*
X22416666Y10881977D02*
X22416666Y10953405D01*
X22416666Y10953405D02*
X22440475Y11048643D01*
X22440475Y11048643D02*
X22464285Y11096262D01*
X22464285Y11096262D02*
X22511904Y11143881D01*
X22511904Y11143881D02*
X22583332Y11167691D01*
X22583332Y11167691D02*
X22630951Y11167691D01*
X22630951Y11167691D02*
X22702380Y11143881D01*
X22702380Y11143881D02*
X22726189Y11120072D01*
X22940475Y10667691D02*
X22940475Y11167691D01*
X22940475Y10929596D02*
X23226189Y10929596D01*
X23226189Y10667691D02*
X23226189Y11167691D01*
X4008500Y21204763D02*
X4032309Y21276191D01*
X4032309Y21276191D02*
X4032309Y21395239D01*
X4032309Y21395239D02*
X4008500Y21442858D01*
X4008500Y21442858D02*
X3984690Y21466667D01*
X3984690Y21466667D02*
X3937071Y21490477D01*
X3937071Y21490477D02*
X3889452Y21490477D01*
X3889452Y21490477D02*
X3841833Y21466667D01*
X3841833Y21466667D02*
X3818023Y21442858D01*
X3818023Y21442858D02*
X3794214Y21395239D01*
X3794214Y21395239D02*
X3770404Y21300001D01*
X3770404Y21300001D02*
X3746595Y21252382D01*
X3746595Y21252382D02*
X3722785Y21228572D01*
X3722785Y21228572D02*
X3675166Y21204763D01*
X3675166Y21204763D02*
X3627547Y21204763D01*
X3627547Y21204763D02*
X3579928Y21228572D01*
X3579928Y21228572D02*
X3556119Y21252382D01*
X3556119Y21252382D02*
X3532309Y21300001D01*
X3532309Y21300001D02*
X3532309Y21419048D01*
X3532309Y21419048D02*
X3556119Y21490477D01*
X3984690Y21990476D02*
X4008500Y21966667D01*
X4008500Y21966667D02*
X4032309Y21895238D01*
X4032309Y21895238D02*
X4032309Y21847619D01*
X4032309Y21847619D02*
X4008500Y21776191D01*
X4008500Y21776191D02*
X3960880Y21728572D01*
X3960880Y21728572D02*
X3913261Y21704762D01*
X3913261Y21704762D02*
X3818023Y21680953D01*
X3818023Y21680953D02*
X3746595Y21680953D01*
X3746595Y21680953D02*
X3651357Y21704762D01*
X3651357Y21704762D02*
X3603738Y21728572D01*
X3603738Y21728572D02*
X3556119Y21776191D01*
X3556119Y21776191D02*
X3532309Y21847619D01*
X3532309Y21847619D02*
X3532309Y21895238D01*
X3532309Y21895238D02*
X3556119Y21966667D01*
X3556119Y21966667D02*
X3579928Y21990476D01*
X4032309Y22442857D02*
X4032309Y22204762D01*
X4032309Y22204762D02*
X3532309Y22204762D01*
X14919047Y65643881D02*
X14871428Y65667691D01*
X14871428Y65667691D02*
X14799999Y65667691D01*
X14799999Y65667691D02*
X14728571Y65643881D01*
X14728571Y65643881D02*
X14680952Y65596262D01*
X14680952Y65596262D02*
X14657142Y65548643D01*
X14657142Y65548643D02*
X14633333Y65453405D01*
X14633333Y65453405D02*
X14633333Y65381977D01*
X14633333Y65381977D02*
X14657142Y65286739D01*
X14657142Y65286739D02*
X14680952Y65239120D01*
X14680952Y65239120D02*
X14728571Y65191500D01*
X14728571Y65191500D02*
X14799999Y65167691D01*
X14799999Y65167691D02*
X14847618Y65167691D01*
X14847618Y65167691D02*
X14919047Y65191500D01*
X14919047Y65191500D02*
X14942856Y65215310D01*
X14942856Y65215310D02*
X14942856Y65381977D01*
X14942856Y65381977D02*
X14847618Y65381977D01*
X15157142Y65167691D02*
X15157142Y65667691D01*
X15157142Y65667691D02*
X15442856Y65167691D01*
X15442856Y65167691D02*
X15442856Y65667691D01*
X15680952Y65167691D02*
X15680952Y65667691D01*
X15680952Y65667691D02*
X15800000Y65667691D01*
X15800000Y65667691D02*
X15871428Y65643881D01*
X15871428Y65643881D02*
X15919047Y65596262D01*
X15919047Y65596262D02*
X15942857Y65548643D01*
X15942857Y65548643D02*
X15966666Y65453405D01*
X15966666Y65453405D02*
X15966666Y65381977D01*
X15966666Y65381977D02*
X15942857Y65286739D01*
X15942857Y65286739D02*
X15919047Y65239120D01*
X15919047Y65239120D02*
X15871428Y65191500D01*
X15871428Y65191500D02*
X15800000Y65167691D01*
X15800000Y65167691D02*
X15680952Y65167691D01*
D12*
X14990752Y36180954D02*
X14990752Y36419049D01*
X15133609Y36133335D02*
X14633609Y36300001D01*
X14633609Y36300001D02*
X15133609Y36466668D01*
D11*
X3556119Y36763189D02*
X3532309Y36715570D01*
X3532309Y36715570D02*
X3532309Y36644141D01*
X3532309Y36644141D02*
X3556119Y36572713D01*
X3556119Y36572713D02*
X3603738Y36525094D01*
X3603738Y36525094D02*
X3651357Y36501284D01*
X3651357Y36501284D02*
X3746595Y36477475D01*
X3746595Y36477475D02*
X3818023Y36477475D01*
X3818023Y36477475D02*
X3913261Y36501284D01*
X3913261Y36501284D02*
X3960880Y36525094D01*
X3960880Y36525094D02*
X4008500Y36572713D01*
X4008500Y36572713D02*
X4032309Y36644141D01*
X4032309Y36644141D02*
X4032309Y36691760D01*
X4032309Y36691760D02*
X4008500Y36763189D01*
X4008500Y36763189D02*
X3984690Y36786998D01*
X3984690Y36786998D02*
X3818023Y36786998D01*
X3818023Y36786998D02*
X3818023Y36691760D01*
X4032309Y37001284D02*
X3532309Y37001284D01*
X3532309Y37001284D02*
X4032309Y37286998D01*
X4032309Y37286998D02*
X3532309Y37286998D01*
X4032309Y37525094D02*
X3532309Y37525094D01*
X3532309Y37525094D02*
X3532309Y37644142D01*
X3532309Y37644142D02*
X3556119Y37715570D01*
X3556119Y37715570D02*
X3603738Y37763189D01*
X3603738Y37763189D02*
X3651357Y37786999D01*
X3651357Y37786999D02*
X3746595Y37810808D01*
X3746595Y37810808D02*
X3818023Y37810808D01*
X3818023Y37810808D02*
X3913261Y37786999D01*
X3913261Y37786999D02*
X3960880Y37763189D01*
X3960880Y37763189D02*
X4008500Y37715570D01*
X4008500Y37715570D02*
X4032309Y37644142D01*
X4032309Y37644142D02*
X4032309Y37525094D01*
X3556119Y17861906D02*
X3532309Y17814287D01*
X3532309Y17814287D02*
X3532309Y17742858D01*
X3532309Y17742858D02*
X3556119Y17671430D01*
X3556119Y17671430D02*
X3603738Y17623811D01*
X3603738Y17623811D02*
X3651357Y17600001D01*
X3651357Y17600001D02*
X3746595Y17576192D01*
X3746595Y17576192D02*
X3818023Y17576192D01*
X3818023Y17576192D02*
X3913261Y17600001D01*
X3913261Y17600001D02*
X3960880Y17623811D01*
X3960880Y17623811D02*
X4008500Y17671430D01*
X4008500Y17671430D02*
X4032309Y17742858D01*
X4032309Y17742858D02*
X4032309Y17790477D01*
X4032309Y17790477D02*
X4008500Y17861906D01*
X4008500Y17861906D02*
X3984690Y17885715D01*
X3984690Y17885715D02*
X3818023Y17885715D01*
X3818023Y17885715D02*
X3818023Y17790477D01*
X4032309Y18100001D02*
X3532309Y18100001D01*
X3532309Y18100001D02*
X3532309Y18290477D01*
X3532309Y18290477D02*
X3556119Y18338096D01*
X3556119Y18338096D02*
X3579928Y18361906D01*
X3579928Y18361906D02*
X3627547Y18385715D01*
X3627547Y18385715D02*
X3698976Y18385715D01*
X3698976Y18385715D02*
X3746595Y18361906D01*
X3746595Y18361906D02*
X3770404Y18338096D01*
X3770404Y18338096D02*
X3794214Y18290477D01*
X3794214Y18290477D02*
X3794214Y18100001D01*
X4032309Y18600001D02*
X3532309Y18600001D01*
X3532309Y18933334D02*
X3532309Y19028572D01*
X3532309Y19028572D02*
X3556119Y19076191D01*
X3556119Y19076191D02*
X3603738Y19123810D01*
X3603738Y19123810D02*
X3698976Y19147620D01*
X3698976Y19147620D02*
X3865642Y19147620D01*
X3865642Y19147620D02*
X3960880Y19123810D01*
X3960880Y19123810D02*
X4008500Y19076191D01*
X4008500Y19076191D02*
X4032309Y19028572D01*
X4032309Y19028572D02*
X4032309Y18933334D01*
X4032309Y18933334D02*
X4008500Y18885715D01*
X4008500Y18885715D02*
X3960880Y18838096D01*
X3960880Y18838096D02*
X3865642Y18814287D01*
X3865642Y18814287D02*
X3698976Y18814287D01*
X3698976Y18814287D02*
X3603738Y18838096D01*
X3603738Y18838096D02*
X3556119Y18885715D01*
X3556119Y18885715D02*
X3532309Y18933334D01*
X3532309Y19457144D02*
X3532309Y19504763D01*
X3532309Y19504763D02*
X3556119Y19552382D01*
X3556119Y19552382D02*
X3579928Y19576192D01*
X3579928Y19576192D02*
X3627547Y19600001D01*
X3627547Y19600001D02*
X3722785Y19623811D01*
X3722785Y19623811D02*
X3841833Y19623811D01*
X3841833Y19623811D02*
X3937071Y19600001D01*
X3937071Y19600001D02*
X3984690Y19576192D01*
X3984690Y19576192D02*
X4008500Y19552382D01*
X4008500Y19552382D02*
X4032309Y19504763D01*
X4032309Y19504763D02*
X4032309Y19457144D01*
X4032309Y19457144D02*
X4008500Y19409525D01*
X4008500Y19409525D02*
X3984690Y19385716D01*
X3984690Y19385716D02*
X3937071Y19361906D01*
X3937071Y19361906D02*
X3841833Y19338097D01*
X3841833Y19338097D02*
X3722785Y19338097D01*
X3722785Y19338097D02*
X3627547Y19361906D01*
X3627547Y19361906D02*
X3579928Y19385716D01*
X3579928Y19385716D02*
X3556119Y19409525D01*
X3556119Y19409525D02*
X3532309Y19457144D01*
X18387979Y9684052D02*
X18102265Y9684052D01*
X18245122Y9684052D02*
X18245122Y10184052D01*
X18245122Y10184052D02*
X18197503Y10112623D01*
X18197503Y10112623D02*
X18149884Y10065004D01*
X18149884Y10065004D02*
X18102265Y10041195D01*
X18697502Y10184052D02*
X18745121Y10184052D01*
X18745121Y10184052D02*
X18792740Y10160242D01*
X18792740Y10160242D02*
X18816550Y10136433D01*
X18816550Y10136433D02*
X18840359Y10088814D01*
X18840359Y10088814D02*
X18864169Y9993576D01*
X18864169Y9993576D02*
X18864169Y9874528D01*
X18864169Y9874528D02*
X18840359Y9779290D01*
X18840359Y9779290D02*
X18816550Y9731671D01*
X18816550Y9731671D02*
X18792740Y9707861D01*
X18792740Y9707861D02*
X18745121Y9684052D01*
X18745121Y9684052D02*
X18697502Y9684052D01*
X18697502Y9684052D02*
X18649883Y9707861D01*
X18649883Y9707861D02*
X18626074Y9731671D01*
X18626074Y9731671D02*
X18602264Y9779290D01*
X18602264Y9779290D02*
X18578455Y9874528D01*
X18578455Y9874528D02*
X18578455Y9993576D01*
X18578455Y9993576D02*
X18602264Y10088814D01*
X18602264Y10088814D02*
X18626074Y10136433D01*
X18626074Y10136433D02*
X18649883Y10160242D01*
X18649883Y10160242D02*
X18697502Y10184052D01*
X4607123Y10289100D02*
X4559504Y10312910D01*
X4559504Y10312910D02*
X4488075Y10312910D01*
X4488075Y10312910D02*
X4416647Y10289100D01*
X4416647Y10289100D02*
X4369028Y10241481D01*
X4369028Y10241481D02*
X4345218Y10193862D01*
X4345218Y10193862D02*
X4321409Y10098624D01*
X4321409Y10098624D02*
X4321409Y10027196D01*
X4321409Y10027196D02*
X4345218Y9931958D01*
X4345218Y9931958D02*
X4369028Y9884339D01*
X4369028Y9884339D02*
X4416647Y9836719D01*
X4416647Y9836719D02*
X4488075Y9812910D01*
X4488075Y9812910D02*
X4535694Y9812910D01*
X4535694Y9812910D02*
X4607123Y9836719D01*
X4607123Y9836719D02*
X4630932Y9860529D01*
X4630932Y9860529D02*
X4630932Y10027196D01*
X4630932Y10027196D02*
X4535694Y10027196D01*
X4845218Y9812910D02*
X4845218Y10312910D01*
X4845218Y10312910D02*
X5035694Y10312910D01*
X5035694Y10312910D02*
X5083313Y10289100D01*
X5083313Y10289100D02*
X5107123Y10265291D01*
X5107123Y10265291D02*
X5130932Y10217672D01*
X5130932Y10217672D02*
X5130932Y10146243D01*
X5130932Y10146243D02*
X5107123Y10098624D01*
X5107123Y10098624D02*
X5083313Y10074815D01*
X5083313Y10074815D02*
X5035694Y10051005D01*
X5035694Y10051005D02*
X4845218Y10051005D01*
X5345218Y9812910D02*
X5345218Y10312910D01*
X5678551Y10312910D02*
X5773789Y10312910D01*
X5773789Y10312910D02*
X5821408Y10289100D01*
X5821408Y10289100D02*
X5869027Y10241481D01*
X5869027Y10241481D02*
X5892837Y10146243D01*
X5892837Y10146243D02*
X5892837Y9979577D01*
X5892837Y9979577D02*
X5869027Y9884339D01*
X5869027Y9884339D02*
X5821408Y9836719D01*
X5821408Y9836719D02*
X5773789Y9812910D01*
X5773789Y9812910D02*
X5678551Y9812910D01*
X5678551Y9812910D02*
X5630932Y9836719D01*
X5630932Y9836719D02*
X5583313Y9884339D01*
X5583313Y9884339D02*
X5559504Y9979577D01*
X5559504Y9979577D02*
X5559504Y10146243D01*
X5559504Y10146243D02*
X5583313Y10241481D01*
X5583313Y10241481D02*
X5630932Y10289100D01*
X5630932Y10289100D02*
X5678551Y10312910D01*
X6345218Y10312910D02*
X6107123Y10312910D01*
X6107123Y10312910D02*
X6083314Y10074815D01*
X6083314Y10074815D02*
X6107123Y10098624D01*
X6107123Y10098624D02*
X6154742Y10122434D01*
X6154742Y10122434D02*
X6273790Y10122434D01*
X6273790Y10122434D02*
X6321409Y10098624D01*
X6321409Y10098624D02*
X6345218Y10074815D01*
X6345218Y10074815D02*
X6369028Y10027196D01*
X6369028Y10027196D02*
X6369028Y9908148D01*
X6369028Y9908148D02*
X6345218Y9860529D01*
X6345218Y9860529D02*
X6321409Y9836719D01*
X6321409Y9836719D02*
X6273790Y9812910D01*
X6273790Y9812910D02*
X6154742Y9812910D01*
X6154742Y9812910D02*
X6107123Y9836719D01*
X6107123Y9836719D02*
X6083314Y9860529D01*
D12*
X2269047Y39766391D02*
X2269047Y40266391D01*
X2554761Y39766391D02*
X2340476Y40052105D01*
X2554761Y40266391D02*
X2269047Y39980677D01*
D11*
X3841833Y33401284D02*
X3841833Y33782236D01*
X4032309Y33591760D02*
X3651357Y33591760D01*
X3532309Y33972713D02*
X3532309Y34282237D01*
X3532309Y34282237D02*
X3722785Y34115570D01*
X3722785Y34115570D02*
X3722785Y34186999D01*
X3722785Y34186999D02*
X3746595Y34234618D01*
X3746595Y34234618D02*
X3770404Y34258427D01*
X3770404Y34258427D02*
X3818023Y34282237D01*
X3818023Y34282237D02*
X3937071Y34282237D01*
X3937071Y34282237D02*
X3984690Y34258427D01*
X3984690Y34258427D02*
X4008500Y34234618D01*
X4008500Y34234618D02*
X4032309Y34186999D01*
X4032309Y34186999D02*
X4032309Y34044142D01*
X4032309Y34044142D02*
X4008500Y33996523D01*
X4008500Y33996523D02*
X3984690Y33972713D01*
X3984690Y34496522D02*
X4008500Y34520332D01*
X4008500Y34520332D02*
X4032309Y34496522D01*
X4032309Y34496522D02*
X4008500Y34472713D01*
X4008500Y34472713D02*
X3984690Y34496522D01*
X3984690Y34496522D02*
X4032309Y34496522D01*
X3532309Y34686998D02*
X3532309Y34996522D01*
X3532309Y34996522D02*
X3722785Y34829855D01*
X3722785Y34829855D02*
X3722785Y34901284D01*
X3722785Y34901284D02*
X3746595Y34948903D01*
X3746595Y34948903D02*
X3770404Y34972712D01*
X3770404Y34972712D02*
X3818023Y34996522D01*
X3818023Y34996522D02*
X3937071Y34996522D01*
X3937071Y34996522D02*
X3984690Y34972712D01*
X3984690Y34972712D02*
X4008500Y34948903D01*
X4008500Y34948903D02*
X4032309Y34901284D01*
X4032309Y34901284D02*
X4032309Y34758427D01*
X4032309Y34758427D02*
X4008500Y34710808D01*
X4008500Y34710808D02*
X3984690Y34686998D01*
X3532309Y35139379D02*
X4032309Y35306045D01*
X4032309Y35306045D02*
X3532309Y35472712D01*
X21456119Y53319048D02*
X21432309Y53271429D01*
X21432309Y53271429D02*
X21432309Y53200000D01*
X21432309Y53200000D02*
X21456119Y53128572D01*
X21456119Y53128572D02*
X21503738Y53080953D01*
X21503738Y53080953D02*
X21551357Y53057143D01*
X21551357Y53057143D02*
X21646595Y53033334D01*
X21646595Y53033334D02*
X21718023Y53033334D01*
X21718023Y53033334D02*
X21813261Y53057143D01*
X21813261Y53057143D02*
X21860880Y53080953D01*
X21860880Y53080953D02*
X21908500Y53128572D01*
X21908500Y53128572D02*
X21932309Y53200000D01*
X21932309Y53200000D02*
X21932309Y53247619D01*
X21932309Y53247619D02*
X21908500Y53319048D01*
X21908500Y53319048D02*
X21884690Y53342857D01*
X21884690Y53342857D02*
X21718023Y53342857D01*
X21718023Y53342857D02*
X21718023Y53247619D01*
X21932309Y53557143D02*
X21432309Y53557143D01*
X21432309Y53557143D02*
X21932309Y53842857D01*
X21932309Y53842857D02*
X21432309Y53842857D01*
X21932309Y54080953D02*
X21432309Y54080953D01*
X21432309Y54080953D02*
X21432309Y54200001D01*
X21432309Y54200001D02*
X21456119Y54271429D01*
X21456119Y54271429D02*
X21503738Y54319048D01*
X21503738Y54319048D02*
X21551357Y54342858D01*
X21551357Y54342858D02*
X21646595Y54366667D01*
X21646595Y54366667D02*
X21718023Y54366667D01*
X21718023Y54366667D02*
X21813261Y54342858D01*
X21813261Y54342858D02*
X21860880Y54319048D01*
X21860880Y54319048D02*
X21908500Y54271429D01*
X21908500Y54271429D02*
X21932309Y54200001D01*
X21932309Y54200001D02*
X21932309Y54080953D01*
D12*
X2280953Y41809248D02*
X2519048Y41809248D01*
X2233334Y41666391D02*
X2400000Y42166391D01*
X2400000Y42166391D02*
X2566667Y41666391D01*
D11*
X1670404Y53367951D02*
X1694214Y53439379D01*
X1694214Y53439379D02*
X1718023Y53463189D01*
X1718023Y53463189D02*
X1765642Y53486998D01*
X1765642Y53486998D02*
X1837071Y53486998D01*
X1837071Y53486998D02*
X1884690Y53463189D01*
X1884690Y53463189D02*
X1908500Y53439379D01*
X1908500Y53439379D02*
X1932309Y53391760D01*
X1932309Y53391760D02*
X1932309Y53201284D01*
X1932309Y53201284D02*
X1432309Y53201284D01*
X1432309Y53201284D02*
X1432309Y53367951D01*
X1432309Y53367951D02*
X1456119Y53415570D01*
X1456119Y53415570D02*
X1479928Y53439379D01*
X1479928Y53439379D02*
X1527547Y53463189D01*
X1527547Y53463189D02*
X1575166Y53463189D01*
X1575166Y53463189D02*
X1622785Y53439379D01*
X1622785Y53439379D02*
X1646595Y53415570D01*
X1646595Y53415570D02*
X1670404Y53367951D01*
X1670404Y53367951D02*
X1670404Y53201284D01*
X1789452Y53677475D02*
X1789452Y53915570D01*
X1932309Y53629856D02*
X1432309Y53796522D01*
X1432309Y53796522D02*
X1932309Y53963189D01*
X1432309Y54058427D02*
X1432309Y54344141D01*
X1932309Y54201284D02*
X1432309Y54201284D01*
X1432309Y54439379D02*
X1432309Y54725093D01*
X1932309Y54582236D02*
X1432309Y54582236D01*
X1884690Y54891759D02*
X1908500Y54915569D01*
X1908500Y54915569D02*
X1932309Y54891759D01*
X1932309Y54891759D02*
X1908500Y54867950D01*
X1908500Y54867950D02*
X1884690Y54891759D01*
X1884690Y54891759D02*
X1932309Y54891759D01*
X1622785Y54891759D02*
X1646595Y54915569D01*
X1646595Y54915569D02*
X1670404Y54891759D01*
X1670404Y54891759D02*
X1646595Y54867950D01*
X1646595Y54867950D02*
X1622785Y54891759D01*
X1622785Y54891759D02*
X1670404Y54891759D01*
X1432309Y55463187D02*
X1432309Y55796520D01*
X1432309Y55796520D02*
X1932309Y55582235D01*
X1884690Y55986996D02*
X1908500Y56010806D01*
X1908500Y56010806D02*
X1932309Y55986996D01*
X1932309Y55986996D02*
X1908500Y55963187D01*
X1908500Y55963187D02*
X1884690Y55986996D01*
X1884690Y55986996D02*
X1932309Y55986996D01*
X1598976Y56439377D02*
X1932309Y56439377D01*
X1408500Y56320329D02*
X1765642Y56201282D01*
X1765642Y56201282D02*
X1765642Y56510805D01*
X1432309Y56629853D02*
X1932309Y56796519D01*
X1932309Y56796519D02*
X1432309Y56963186D01*
X11857143Y65358167D02*
X12238096Y65358167D01*
X12047619Y65167691D02*
X12047619Y65548643D01*
X12714286Y65667691D02*
X12476191Y65667691D01*
X12476191Y65667691D02*
X12452382Y65429596D01*
X12452382Y65429596D02*
X12476191Y65453405D01*
X12476191Y65453405D02*
X12523810Y65477215D01*
X12523810Y65477215D02*
X12642858Y65477215D01*
X12642858Y65477215D02*
X12690477Y65453405D01*
X12690477Y65453405D02*
X12714286Y65429596D01*
X12714286Y65429596D02*
X12738096Y65381977D01*
X12738096Y65381977D02*
X12738096Y65262929D01*
X12738096Y65262929D02*
X12714286Y65215310D01*
X12714286Y65215310D02*
X12690477Y65191500D01*
X12690477Y65191500D02*
X12642858Y65167691D01*
X12642858Y65167691D02*
X12523810Y65167691D01*
X12523810Y65167691D02*
X12476191Y65191500D01*
X12476191Y65191500D02*
X12452382Y65215310D01*
X12880953Y65667691D02*
X13047619Y65167691D01*
X13047619Y65167691D02*
X13214286Y65667691D01*
X3841833Y27001284D02*
X3841833Y27382236D01*
X4032309Y27191760D02*
X3651357Y27191760D01*
X3532309Y27572713D02*
X3532309Y27882237D01*
X3532309Y27882237D02*
X3722785Y27715570D01*
X3722785Y27715570D02*
X3722785Y27786999D01*
X3722785Y27786999D02*
X3746595Y27834618D01*
X3746595Y27834618D02*
X3770404Y27858427D01*
X3770404Y27858427D02*
X3818023Y27882237D01*
X3818023Y27882237D02*
X3937071Y27882237D01*
X3937071Y27882237D02*
X3984690Y27858427D01*
X3984690Y27858427D02*
X4008500Y27834618D01*
X4008500Y27834618D02*
X4032309Y27786999D01*
X4032309Y27786999D02*
X4032309Y27644142D01*
X4032309Y27644142D02*
X4008500Y27596523D01*
X4008500Y27596523D02*
X3984690Y27572713D01*
X3984690Y28096522D02*
X4008500Y28120332D01*
X4008500Y28120332D02*
X4032309Y28096522D01*
X4032309Y28096522D02*
X4008500Y28072713D01*
X4008500Y28072713D02*
X3984690Y28096522D01*
X3984690Y28096522D02*
X4032309Y28096522D01*
X3532309Y28286998D02*
X3532309Y28596522D01*
X3532309Y28596522D02*
X3722785Y28429855D01*
X3722785Y28429855D02*
X3722785Y28501284D01*
X3722785Y28501284D02*
X3746595Y28548903D01*
X3746595Y28548903D02*
X3770404Y28572712D01*
X3770404Y28572712D02*
X3818023Y28596522D01*
X3818023Y28596522D02*
X3937071Y28596522D01*
X3937071Y28596522D02*
X3984690Y28572712D01*
X3984690Y28572712D02*
X4008500Y28548903D01*
X4008500Y28548903D02*
X4032309Y28501284D01*
X4032309Y28501284D02*
X4032309Y28358427D01*
X4032309Y28358427D02*
X4008500Y28310808D01*
X4008500Y28310808D02*
X3984690Y28286998D01*
X3532309Y28739379D02*
X4032309Y28906045D01*
X4032309Y28906045D02*
X3532309Y29072712D01*
X21741833Y55657144D02*
X21741833Y56038096D01*
X21932309Y55847620D02*
X21551357Y55847620D01*
X21432309Y56514287D02*
X21432309Y56276192D01*
X21432309Y56276192D02*
X21670404Y56252383D01*
X21670404Y56252383D02*
X21646595Y56276192D01*
X21646595Y56276192D02*
X21622785Y56323811D01*
X21622785Y56323811D02*
X21622785Y56442859D01*
X21622785Y56442859D02*
X21646595Y56490478D01*
X21646595Y56490478D02*
X21670404Y56514287D01*
X21670404Y56514287D02*
X21718023Y56538097D01*
X21718023Y56538097D02*
X21837071Y56538097D01*
X21837071Y56538097D02*
X21884690Y56514287D01*
X21884690Y56514287D02*
X21908500Y56490478D01*
X21908500Y56490478D02*
X21932309Y56442859D01*
X21932309Y56442859D02*
X21932309Y56323811D01*
X21932309Y56323811D02*
X21908500Y56276192D01*
X21908500Y56276192D02*
X21884690Y56252383D01*
X21432309Y56680954D02*
X21932309Y56847620D01*
X21932309Y56847620D02*
X21432309Y57014287D01*
D12*
X13133609Y36169048D02*
X12633609Y36169048D01*
X13133609Y36454762D02*
X12847895Y36240477D01*
X12633609Y36454762D02*
X12919323Y36169048D01*
D11*
X4008500Y23777475D02*
X4032309Y23848903D01*
X4032309Y23848903D02*
X4032309Y23967951D01*
X4032309Y23967951D02*
X4008500Y24015570D01*
X4008500Y24015570D02*
X3984690Y24039379D01*
X3984690Y24039379D02*
X3937071Y24063189D01*
X3937071Y24063189D02*
X3889452Y24063189D01*
X3889452Y24063189D02*
X3841833Y24039379D01*
X3841833Y24039379D02*
X3818023Y24015570D01*
X3818023Y24015570D02*
X3794214Y23967951D01*
X3794214Y23967951D02*
X3770404Y23872713D01*
X3770404Y23872713D02*
X3746595Y23825094D01*
X3746595Y23825094D02*
X3722785Y23801284D01*
X3722785Y23801284D02*
X3675166Y23777475D01*
X3675166Y23777475D02*
X3627547Y23777475D01*
X3627547Y23777475D02*
X3579928Y23801284D01*
X3579928Y23801284D02*
X3556119Y23825094D01*
X3556119Y23825094D02*
X3532309Y23872713D01*
X3532309Y23872713D02*
X3532309Y23991760D01*
X3532309Y23991760D02*
X3556119Y24063189D01*
X4032309Y24277474D02*
X3532309Y24277474D01*
X3532309Y24277474D02*
X3532309Y24396522D01*
X3532309Y24396522D02*
X3556119Y24467950D01*
X3556119Y24467950D02*
X3603738Y24515569D01*
X3603738Y24515569D02*
X3651357Y24539379D01*
X3651357Y24539379D02*
X3746595Y24563188D01*
X3746595Y24563188D02*
X3818023Y24563188D01*
X3818023Y24563188D02*
X3913261Y24539379D01*
X3913261Y24539379D02*
X3960880Y24515569D01*
X3960880Y24515569D02*
X4008500Y24467950D01*
X4008500Y24467950D02*
X4032309Y24396522D01*
X4032309Y24396522D02*
X4032309Y24277474D01*
X3889452Y24753665D02*
X3889452Y24991760D01*
X4032309Y24706046D02*
X3532309Y24872712D01*
X3532309Y24872712D02*
X4032309Y25039379D01*
X4856119Y55863189D02*
X4832309Y55815570D01*
X4832309Y55815570D02*
X4832309Y55744141D01*
X4832309Y55744141D02*
X4856119Y55672713D01*
X4856119Y55672713D02*
X4903738Y55625094D01*
X4903738Y55625094D02*
X4951357Y55601284D01*
X4951357Y55601284D02*
X5046595Y55577475D01*
X5046595Y55577475D02*
X5118023Y55577475D01*
X5118023Y55577475D02*
X5213261Y55601284D01*
X5213261Y55601284D02*
X5260880Y55625094D01*
X5260880Y55625094D02*
X5308500Y55672713D01*
X5308500Y55672713D02*
X5332309Y55744141D01*
X5332309Y55744141D02*
X5332309Y55791760D01*
X5332309Y55791760D02*
X5308500Y55863189D01*
X5308500Y55863189D02*
X5284690Y55886998D01*
X5284690Y55886998D02*
X5118023Y55886998D01*
X5118023Y55886998D02*
X5118023Y55791760D01*
X5332309Y56101284D02*
X4832309Y56101284D01*
X4832309Y56101284D02*
X5332309Y56386998D01*
X5332309Y56386998D02*
X4832309Y56386998D01*
X5332309Y56625094D02*
X4832309Y56625094D01*
X4832309Y56625094D02*
X4832309Y56744142D01*
X4832309Y56744142D02*
X4856119Y56815570D01*
X4856119Y56815570D02*
X4903738Y56863189D01*
X4903738Y56863189D02*
X4951357Y56886999D01*
X4951357Y56886999D02*
X5046595Y56910808D01*
X5046595Y56910808D02*
X5118023Y56910808D01*
X5118023Y56910808D02*
X5213261Y56886999D01*
X5213261Y56886999D02*
X5260880Y56863189D01*
X5260880Y56863189D02*
X5308500Y56815570D01*
X5308500Y56815570D02*
X5332309Y56744142D01*
X5332309Y56744142D02*
X5332309Y56625094D01*
X5141833Y52501284D02*
X5141833Y52882236D01*
X5332309Y52691760D02*
X4951357Y52691760D01*
X5070404Y53286999D02*
X5094214Y53358427D01*
X5094214Y53358427D02*
X5118023Y53382237D01*
X5118023Y53382237D02*
X5165642Y53406046D01*
X5165642Y53406046D02*
X5237071Y53406046D01*
X5237071Y53406046D02*
X5284690Y53382237D01*
X5284690Y53382237D02*
X5308500Y53358427D01*
X5308500Y53358427D02*
X5332309Y53310808D01*
X5332309Y53310808D02*
X5332309Y53120332D01*
X5332309Y53120332D02*
X4832309Y53120332D01*
X4832309Y53120332D02*
X4832309Y53286999D01*
X4832309Y53286999D02*
X4856119Y53334618D01*
X4856119Y53334618D02*
X4879928Y53358427D01*
X4879928Y53358427D02*
X4927547Y53382237D01*
X4927547Y53382237D02*
X4975166Y53382237D01*
X4975166Y53382237D02*
X5022785Y53358427D01*
X5022785Y53358427D02*
X5046595Y53334618D01*
X5046595Y53334618D02*
X5070404Y53286999D01*
X5070404Y53286999D02*
X5070404Y53120332D01*
X5189452Y53596523D02*
X5189452Y53834618D01*
X5332309Y53548904D02*
X4832309Y53715570D01*
X4832309Y53715570D02*
X5332309Y53882237D01*
X4832309Y53977475D02*
X4832309Y54263189D01*
X5332309Y54120332D02*
X4832309Y54120332D01*
X4832309Y54358427D02*
X4832309Y54644141D01*
X5332309Y54501284D02*
X4832309Y54501284D01*
X3556119Y30363189D02*
X3532309Y30315570D01*
X3532309Y30315570D02*
X3532309Y30244141D01*
X3532309Y30244141D02*
X3556119Y30172713D01*
X3556119Y30172713D02*
X3603738Y30125094D01*
X3603738Y30125094D02*
X3651357Y30101284D01*
X3651357Y30101284D02*
X3746595Y30077475D01*
X3746595Y30077475D02*
X3818023Y30077475D01*
X3818023Y30077475D02*
X3913261Y30101284D01*
X3913261Y30101284D02*
X3960880Y30125094D01*
X3960880Y30125094D02*
X4008500Y30172713D01*
X4008500Y30172713D02*
X4032309Y30244141D01*
X4032309Y30244141D02*
X4032309Y30291760D01*
X4032309Y30291760D02*
X4008500Y30363189D01*
X4008500Y30363189D02*
X3984690Y30386998D01*
X3984690Y30386998D02*
X3818023Y30386998D01*
X3818023Y30386998D02*
X3818023Y30291760D01*
X4032309Y30601284D02*
X3532309Y30601284D01*
X3532309Y30601284D02*
X4032309Y30886998D01*
X4032309Y30886998D02*
X3532309Y30886998D01*
X4032309Y31125094D02*
X3532309Y31125094D01*
X3532309Y31125094D02*
X3532309Y31244142D01*
X3532309Y31244142D02*
X3556119Y31315570D01*
X3556119Y31315570D02*
X3603738Y31363189D01*
X3603738Y31363189D02*
X3651357Y31386999D01*
X3651357Y31386999D02*
X3746595Y31410808D01*
X3746595Y31410808D02*
X3818023Y31410808D01*
X3818023Y31410808D02*
X3913261Y31386999D01*
X3913261Y31386999D02*
X3960880Y31363189D01*
X3960880Y31363189D02*
X4008500Y31315570D01*
X4008500Y31315570D02*
X4032309Y31244142D01*
X4032309Y31244142D02*
X4032309Y31125094D01*
X5288388Y14545760D02*
X5526483Y14545760D01*
X5240769Y14402903D02*
X5407435Y14902903D01*
X5407435Y14902903D02*
X5574102Y14402903D01*
X6026482Y14450522D02*
X6002673Y14426712D01*
X6002673Y14426712D02*
X5931244Y14402903D01*
X5931244Y14402903D02*
X5883625Y14402903D01*
X5883625Y14402903D02*
X5812197Y14426712D01*
X5812197Y14426712D02*
X5764578Y14474332D01*
X5764578Y14474332D02*
X5740768Y14521951D01*
X5740768Y14521951D02*
X5716959Y14617189D01*
X5716959Y14617189D02*
X5716959Y14688617D01*
X5716959Y14688617D02*
X5740768Y14783855D01*
X5740768Y14783855D02*
X5764578Y14831474D01*
X5764578Y14831474D02*
X5812197Y14879093D01*
X5812197Y14879093D02*
X5883625Y14902903D01*
X5883625Y14902903D02*
X5931244Y14902903D01*
X5931244Y14902903D02*
X6002673Y14879093D01*
X6002673Y14879093D02*
X6026482Y14855284D01*
X6216959Y14855284D02*
X6240768Y14879093D01*
X6240768Y14879093D02*
X6288387Y14902903D01*
X6288387Y14902903D02*
X6407435Y14902903D01*
X6407435Y14902903D02*
X6455054Y14879093D01*
X6455054Y14879093D02*
X6478863Y14855284D01*
X6478863Y14855284D02*
X6502673Y14807665D01*
X6502673Y14807665D02*
X6502673Y14760046D01*
X6502673Y14760046D02*
X6478863Y14688617D01*
X6478863Y14688617D02*
X6193149Y14402903D01*
X6193149Y14402903D02*
X6502673Y14402903D01*
X23428571Y63822810D02*
X23404762Y63799000D01*
X23404762Y63799000D02*
X23333333Y63775191D01*
X23333333Y63775191D02*
X23285714Y63775191D01*
X23285714Y63775191D02*
X23214286Y63799000D01*
X23214286Y63799000D02*
X23166667Y63846620D01*
X23166667Y63846620D02*
X23142857Y63894239D01*
X23142857Y63894239D02*
X23119048Y63989477D01*
X23119048Y63989477D02*
X23119048Y64060905D01*
X23119048Y64060905D02*
X23142857Y64156143D01*
X23142857Y64156143D02*
X23166667Y64203762D01*
X23166667Y64203762D02*
X23214286Y64251381D01*
X23214286Y64251381D02*
X23285714Y64275191D01*
X23285714Y64275191D02*
X23333333Y64275191D01*
X23333333Y64275191D02*
X23404762Y64251381D01*
X23404762Y64251381D02*
X23428571Y64227572D01*
X23904762Y63775191D02*
X23619048Y63775191D01*
X23761905Y63775191D02*
X23761905Y64275191D01*
X23761905Y64275191D02*
X23714286Y64203762D01*
X23714286Y64203762D02*
X23666667Y64156143D01*
X23666667Y64156143D02*
X23619048Y64132334D01*
X24071428Y64275191D02*
X24404761Y64275191D01*
X24404761Y64275191D02*
X24190476Y63775191D01*
D13*
X7737214Y35467858D02*
X6987214Y35467858D01*
X7665785Y36253572D02*
X7701500Y36217858D01*
X7701500Y36217858D02*
X7737214Y36110715D01*
X7737214Y36110715D02*
X7737214Y36039287D01*
X7737214Y36039287D02*
X7701500Y35932144D01*
X7701500Y35932144D02*
X7630071Y35860715D01*
X7630071Y35860715D02*
X7558642Y35825001D01*
X7558642Y35825001D02*
X7415785Y35789287D01*
X7415785Y35789287D02*
X7308642Y35789287D01*
X7308642Y35789287D02*
X7165785Y35825001D01*
X7165785Y35825001D02*
X7094357Y35860715D01*
X7094357Y35860715D02*
X7022928Y35932144D01*
X7022928Y35932144D02*
X6987214Y36039287D01*
X6987214Y36039287D02*
X6987214Y36110715D01*
X6987214Y36110715D02*
X7022928Y36217858D01*
X7022928Y36217858D02*
X7058642Y36253572D01*
X7237214Y36896429D02*
X7737214Y36896429D01*
X6951500Y36717858D02*
X7487214Y36539287D01*
X7487214Y36539287D02*
X7487214Y37003572D01*
D11*
X2964286Y62287096D02*
X2797619Y62287096D01*
X2797619Y62025191D02*
X2797619Y62525191D01*
X2797619Y62525191D02*
X3035714Y62525191D01*
X3226190Y62025191D02*
X3226190Y62525191D01*
X3464285Y62025191D02*
X3464285Y62525191D01*
X3464285Y62525191D02*
X3583333Y62525191D01*
X3583333Y62525191D02*
X3654761Y62501381D01*
X3654761Y62501381D02*
X3702380Y62453762D01*
X3702380Y62453762D02*
X3726190Y62406143D01*
X3726190Y62406143D02*
X3749999Y62310905D01*
X3749999Y62310905D02*
X3749999Y62239477D01*
X3749999Y62239477D02*
X3726190Y62144239D01*
X3726190Y62144239D02*
X3702380Y62096620D01*
X3702380Y62096620D02*
X3654761Y62049000D01*
X3654761Y62049000D02*
X3583333Y62025191D01*
X3583333Y62025191D02*
X3464285Y62025191D01*
X3940476Y62477572D02*
X3964285Y62501381D01*
X3964285Y62501381D02*
X4011904Y62525191D01*
X4011904Y62525191D02*
X4130952Y62525191D01*
X4130952Y62525191D02*
X4178571Y62501381D01*
X4178571Y62501381D02*
X4202380Y62477572D01*
X4202380Y62477572D02*
X4226190Y62429953D01*
X4226190Y62429953D02*
X4226190Y62382334D01*
X4226190Y62382334D02*
X4202380Y62310905D01*
X4202380Y62310905D02*
X3916666Y62025191D01*
X3916666Y62025191D02*
X4226190Y62025191D01*
X18464286Y68787096D02*
X18297619Y68787096D01*
X18297619Y68525191D02*
X18297619Y69025191D01*
X18297619Y69025191D02*
X18535714Y69025191D01*
X18726190Y68525191D02*
X18726190Y69025191D01*
X18964285Y68525191D02*
X18964285Y69025191D01*
X18964285Y69025191D02*
X19083333Y69025191D01*
X19083333Y69025191D02*
X19154761Y69001381D01*
X19154761Y69001381D02*
X19202380Y68953762D01*
X19202380Y68953762D02*
X19226190Y68906143D01*
X19226190Y68906143D02*
X19249999Y68810905D01*
X19249999Y68810905D02*
X19249999Y68739477D01*
X19249999Y68739477D02*
X19226190Y68644239D01*
X19226190Y68644239D02*
X19202380Y68596620D01*
X19202380Y68596620D02*
X19154761Y68549000D01*
X19154761Y68549000D02*
X19083333Y68525191D01*
X19083333Y68525191D02*
X18964285Y68525191D01*
X19726190Y68525191D02*
X19440476Y68525191D01*
X19583333Y68525191D02*
X19583333Y69025191D01*
X19583333Y69025191D02*
X19535714Y68953762D01*
X19535714Y68953762D02*
X19488095Y68906143D01*
X19488095Y68906143D02*
X19440476Y68882334D01*
X10511905Y49975191D02*
X10511905Y50475191D01*
X11035714Y50022810D02*
X11011905Y49999000D01*
X11011905Y49999000D02*
X10940476Y49975191D01*
X10940476Y49975191D02*
X10892857Y49975191D01*
X10892857Y49975191D02*
X10821429Y49999000D01*
X10821429Y49999000D02*
X10773810Y50046620D01*
X10773810Y50046620D02*
X10750000Y50094239D01*
X10750000Y50094239D02*
X10726191Y50189477D01*
X10726191Y50189477D02*
X10726191Y50260905D01*
X10726191Y50260905D02*
X10750000Y50356143D01*
X10750000Y50356143D02*
X10773810Y50403762D01*
X10773810Y50403762D02*
X10821429Y50451381D01*
X10821429Y50451381D02*
X10892857Y50475191D01*
X10892857Y50475191D02*
X10940476Y50475191D01*
X10940476Y50475191D02*
X11011905Y50451381D01*
X11011905Y50451381D02*
X11035714Y50427572D01*
X11202381Y50475191D02*
X11511905Y50475191D01*
X11511905Y50475191D02*
X11345238Y50284715D01*
X11345238Y50284715D02*
X11416667Y50284715D01*
X11416667Y50284715D02*
X11464286Y50260905D01*
X11464286Y50260905D02*
X11488095Y50237096D01*
X11488095Y50237096D02*
X11511905Y50189477D01*
X11511905Y50189477D02*
X11511905Y50070429D01*
X11511905Y50070429D02*
X11488095Y50022810D01*
X11488095Y50022810D02*
X11464286Y49999000D01*
X11464286Y49999000D02*
X11416667Y49975191D01*
X11416667Y49975191D02*
X11273810Y49975191D01*
X11273810Y49975191D02*
X11226191Y49999000D01*
X11226191Y49999000D02*
X11202381Y50022810D01*
X5450405Y26975191D02*
X5450405Y27475191D01*
X5974214Y27022810D02*
X5950405Y26999000D01*
X5950405Y26999000D02*
X5878976Y26975191D01*
X5878976Y26975191D02*
X5831357Y26975191D01*
X5831357Y26975191D02*
X5759929Y26999000D01*
X5759929Y26999000D02*
X5712310Y27046620D01*
X5712310Y27046620D02*
X5688500Y27094239D01*
X5688500Y27094239D02*
X5664691Y27189477D01*
X5664691Y27189477D02*
X5664691Y27260905D01*
X5664691Y27260905D02*
X5688500Y27356143D01*
X5688500Y27356143D02*
X5712310Y27403762D01*
X5712310Y27403762D02*
X5759929Y27451381D01*
X5759929Y27451381D02*
X5831357Y27475191D01*
X5831357Y27475191D02*
X5878976Y27475191D01*
X5878976Y27475191D02*
X5950405Y27451381D01*
X5950405Y27451381D02*
X5974214Y27427572D01*
X6450405Y26975191D02*
X6164691Y26975191D01*
X6307548Y26975191D02*
X6307548Y27475191D01*
X6307548Y27475191D02*
X6259929Y27403762D01*
X6259929Y27403762D02*
X6212310Y27356143D01*
X6212310Y27356143D02*
X6164691Y27332334D01*
X16461905Y12175191D02*
X16461905Y12675191D01*
X16985714Y12222810D02*
X16961905Y12199000D01*
X16961905Y12199000D02*
X16890476Y12175191D01*
X16890476Y12175191D02*
X16842857Y12175191D01*
X16842857Y12175191D02*
X16771429Y12199000D01*
X16771429Y12199000D02*
X16723810Y12246620D01*
X16723810Y12246620D02*
X16700000Y12294239D01*
X16700000Y12294239D02*
X16676191Y12389477D01*
X16676191Y12389477D02*
X16676191Y12460905D01*
X16676191Y12460905D02*
X16700000Y12556143D01*
X16700000Y12556143D02*
X16723810Y12603762D01*
X16723810Y12603762D02*
X16771429Y12651381D01*
X16771429Y12651381D02*
X16842857Y12675191D01*
X16842857Y12675191D02*
X16890476Y12675191D01*
X16890476Y12675191D02*
X16961905Y12651381D01*
X16961905Y12651381D02*
X16985714Y12627572D01*
X17176191Y12627572D02*
X17200000Y12651381D01*
X17200000Y12651381D02*
X17247619Y12675191D01*
X17247619Y12675191D02*
X17366667Y12675191D01*
X17366667Y12675191D02*
X17414286Y12651381D01*
X17414286Y12651381D02*
X17438095Y12627572D01*
X17438095Y12627572D02*
X17461905Y12579953D01*
X17461905Y12579953D02*
X17461905Y12532334D01*
X17461905Y12532334D02*
X17438095Y12460905D01*
X17438095Y12460905D02*
X17152381Y12175191D01*
X17152381Y12175191D02*
X17461905Y12175191D01*
X758114Y38822957D02*
X758114Y39322957D01*
X758114Y39322957D02*
X924781Y38965814D01*
X924781Y38965814D02*
X1091447Y39322957D01*
X1091447Y39322957D02*
X1091447Y38822957D01*
X1615257Y38870576D02*
X1591448Y38846766D01*
X1591448Y38846766D02*
X1520019Y38822957D01*
X1520019Y38822957D02*
X1472400Y38822957D01*
X1472400Y38822957D02*
X1400972Y38846766D01*
X1400972Y38846766D02*
X1353353Y38894386D01*
X1353353Y38894386D02*
X1329543Y38942005D01*
X1329543Y38942005D02*
X1305734Y39037243D01*
X1305734Y39037243D02*
X1305734Y39108671D01*
X1305734Y39108671D02*
X1329543Y39203909D01*
X1329543Y39203909D02*
X1353353Y39251528D01*
X1353353Y39251528D02*
X1400972Y39299147D01*
X1400972Y39299147D02*
X1472400Y39322957D01*
X1472400Y39322957D02*
X1520019Y39322957D01*
X1520019Y39322957D02*
X1591448Y39299147D01*
X1591448Y39299147D02*
X1615257Y39275338D01*
X1829543Y39322957D02*
X1829543Y38918195D01*
X1829543Y38918195D02*
X1853353Y38870576D01*
X1853353Y38870576D02*
X1877162Y38846766D01*
X1877162Y38846766D02*
X1924781Y38822957D01*
X1924781Y38822957D02*
X2020019Y38822957D01*
X2020019Y38822957D02*
X2067638Y38846766D01*
X2067638Y38846766D02*
X2091448Y38870576D01*
X2091448Y38870576D02*
X2115257Y38918195D01*
X2115257Y38918195D02*
X2115257Y39322957D01*
X2234306Y38775338D02*
X2615258Y38775338D01*
X2972400Y38822957D02*
X2734305Y38822957D01*
X2734305Y38822957D02*
X2734305Y39322957D01*
X3139067Y39084862D02*
X3305734Y39084862D01*
X3377162Y38822957D02*
X3139067Y38822957D01*
X3139067Y38822957D02*
X3139067Y39322957D01*
X3139067Y39322957D02*
X3377162Y39322957D01*
X3591448Y38822957D02*
X3591448Y39322957D01*
X3591448Y39322957D02*
X3710496Y39322957D01*
X3710496Y39322957D02*
X3781924Y39299147D01*
X3781924Y39299147D02*
X3829543Y39251528D01*
X3829543Y39251528D02*
X3853353Y39203909D01*
X3853353Y39203909D02*
X3877162Y39108671D01*
X3877162Y39108671D02*
X3877162Y39037243D01*
X3877162Y39037243D02*
X3853353Y38942005D01*
X3853353Y38942005D02*
X3829543Y38894386D01*
X3829543Y38894386D02*
X3781924Y38846766D01*
X3781924Y38846766D02*
X3710496Y38822957D01*
X3710496Y38822957D02*
X3591448Y38822957D01*
D13*
X16087214Y29203572D02*
X16694357Y29203572D01*
X16694357Y29203572D02*
X16765785Y29239286D01*
X16765785Y29239286D02*
X16801500Y29275000D01*
X16801500Y29275000D02*
X16837214Y29346429D01*
X16837214Y29346429D02*
X16837214Y29489286D01*
X16837214Y29489286D02*
X16801500Y29560715D01*
X16801500Y29560715D02*
X16765785Y29596429D01*
X16765785Y29596429D02*
X16694357Y29632143D01*
X16694357Y29632143D02*
X16087214Y29632143D01*
X16801500Y29953572D02*
X16837214Y30060714D01*
X16837214Y30060714D02*
X16837214Y30239286D01*
X16837214Y30239286D02*
X16801500Y30310714D01*
X16801500Y30310714D02*
X16765785Y30346429D01*
X16765785Y30346429D02*
X16694357Y30382143D01*
X16694357Y30382143D02*
X16622928Y30382143D01*
X16622928Y30382143D02*
X16551500Y30346429D01*
X16551500Y30346429D02*
X16515785Y30310714D01*
X16515785Y30310714D02*
X16480071Y30239286D01*
X16480071Y30239286D02*
X16444357Y30096429D01*
X16444357Y30096429D02*
X16408642Y30025000D01*
X16408642Y30025000D02*
X16372928Y29989286D01*
X16372928Y29989286D02*
X16301500Y29953572D01*
X16301500Y29953572D02*
X16230071Y29953572D01*
X16230071Y29953572D02*
X16158642Y29989286D01*
X16158642Y29989286D02*
X16122928Y30025000D01*
X16122928Y30025000D02*
X16087214Y30096429D01*
X16087214Y30096429D02*
X16087214Y30275000D01*
X16087214Y30275000D02*
X16122928Y30382143D01*
X16444357Y30953572D02*
X16480071Y31060715D01*
X16480071Y31060715D02*
X16515785Y31096429D01*
X16515785Y31096429D02*
X16587214Y31132143D01*
X16587214Y31132143D02*
X16694357Y31132143D01*
X16694357Y31132143D02*
X16765785Y31096429D01*
X16765785Y31096429D02*
X16801500Y31060715D01*
X16801500Y31060715D02*
X16837214Y30989286D01*
X16837214Y30989286D02*
X16837214Y30703572D01*
X16837214Y30703572D02*
X16087214Y30703572D01*
X16087214Y30703572D02*
X16087214Y30953572D01*
X16087214Y30953572D02*
X16122928Y31025000D01*
X16122928Y31025000D02*
X16158642Y31060715D01*
X16158642Y31060715D02*
X16230071Y31096429D01*
X16230071Y31096429D02*
X16301500Y31096429D01*
X16301500Y31096429D02*
X16372928Y31060715D01*
X16372928Y31060715D02*
X16408642Y31025000D01*
X16408642Y31025000D02*
X16444357Y30953572D01*
X16444357Y30953572D02*
X16444357Y30703572D01*
D11*
X4327721Y49121885D02*
X4351531Y49098076D01*
X4351531Y49098076D02*
X4375340Y49026647D01*
X4375340Y49026647D02*
X4375340Y48979028D01*
X4375340Y48979028D02*
X4351531Y48907600D01*
X4351531Y48907600D02*
X4303911Y48859981D01*
X4303911Y48859981D02*
X4256292Y48836171D01*
X4256292Y48836171D02*
X4161054Y48812362D01*
X4161054Y48812362D02*
X4089626Y48812362D01*
X4089626Y48812362D02*
X3994388Y48836171D01*
X3994388Y48836171D02*
X3946769Y48859981D01*
X3946769Y48859981D02*
X3899150Y48907600D01*
X3899150Y48907600D02*
X3875340Y48979028D01*
X3875340Y48979028D02*
X3875340Y49026647D01*
X3875340Y49026647D02*
X3899150Y49098076D01*
X3899150Y49098076D02*
X3922959Y49121885D01*
X3922959Y49312362D02*
X3899150Y49336171D01*
X3899150Y49336171D02*
X3875340Y49383790D01*
X3875340Y49383790D02*
X3875340Y49502838D01*
X3875340Y49502838D02*
X3899150Y49550457D01*
X3899150Y49550457D02*
X3922959Y49574266D01*
X3922959Y49574266D02*
X3970578Y49598076D01*
X3970578Y49598076D02*
X4018197Y49598076D01*
X4018197Y49598076D02*
X4089626Y49574266D01*
X4089626Y49574266D02*
X4375340Y49288552D01*
X4375340Y49288552D02*
X4375340Y49598076D01*
X3875340Y49907599D02*
X3875340Y49955218D01*
X3875340Y49955218D02*
X3899150Y50002837D01*
X3899150Y50002837D02*
X3922959Y50026647D01*
X3922959Y50026647D02*
X3970578Y50050456D01*
X3970578Y50050456D02*
X4065816Y50074266D01*
X4065816Y50074266D02*
X4184864Y50074266D01*
X4184864Y50074266D02*
X4280102Y50050456D01*
X4280102Y50050456D02*
X4327721Y50026647D01*
X4327721Y50026647D02*
X4351531Y50002837D01*
X4351531Y50002837D02*
X4375340Y49955218D01*
X4375340Y49955218D02*
X4375340Y49907599D01*
X4375340Y49907599D02*
X4351531Y49859980D01*
X4351531Y49859980D02*
X4327721Y49836171D01*
X4327721Y49836171D02*
X4280102Y49812361D01*
X4280102Y49812361D02*
X4184864Y49788552D01*
X4184864Y49788552D02*
X4065816Y49788552D01*
X4065816Y49788552D02*
X3970578Y49812361D01*
X3970578Y49812361D02*
X3922959Y49836171D01*
X3922959Y49836171D02*
X3899150Y49859980D01*
X3899150Y49859980D02*
X3875340Y49907599D01*
X14078571Y42322810D02*
X14054762Y42299000D01*
X14054762Y42299000D02*
X13983333Y42275191D01*
X13983333Y42275191D02*
X13935714Y42275191D01*
X13935714Y42275191D02*
X13864286Y42299000D01*
X13864286Y42299000D02*
X13816667Y42346620D01*
X13816667Y42346620D02*
X13792857Y42394239D01*
X13792857Y42394239D02*
X13769048Y42489477D01*
X13769048Y42489477D02*
X13769048Y42560905D01*
X13769048Y42560905D02*
X13792857Y42656143D01*
X13792857Y42656143D02*
X13816667Y42703762D01*
X13816667Y42703762D02*
X13864286Y42751381D01*
X13864286Y42751381D02*
X13935714Y42775191D01*
X13935714Y42775191D02*
X13983333Y42775191D01*
X13983333Y42775191D02*
X14054762Y42751381D01*
X14054762Y42751381D02*
X14078571Y42727572D01*
X14554762Y42275191D02*
X14269048Y42275191D01*
X14411905Y42275191D02*
X14411905Y42775191D01*
X14411905Y42775191D02*
X14364286Y42703762D01*
X14364286Y42703762D02*
X14316667Y42656143D01*
X14316667Y42656143D02*
X14269048Y42632334D01*
X15007142Y42775191D02*
X14769047Y42775191D01*
X14769047Y42775191D02*
X14745238Y42537096D01*
X14745238Y42537096D02*
X14769047Y42560905D01*
X14769047Y42560905D02*
X14816666Y42584715D01*
X14816666Y42584715D02*
X14935714Y42584715D01*
X14935714Y42584715D02*
X14983333Y42560905D01*
X14983333Y42560905D02*
X15007142Y42537096D01*
X15007142Y42537096D02*
X15030952Y42489477D01*
X15030952Y42489477D02*
X15030952Y42370429D01*
X15030952Y42370429D02*
X15007142Y42322810D01*
X15007142Y42322810D02*
X14983333Y42299000D01*
X14983333Y42299000D02*
X14935714Y42275191D01*
X14935714Y42275191D02*
X14816666Y42275191D01*
X14816666Y42275191D02*
X14769047Y42299000D01*
X14769047Y42299000D02*
X14745238Y42322810D01*
X8277190Y67178572D02*
X8301000Y67154763D01*
X8301000Y67154763D02*
X8324809Y67083334D01*
X8324809Y67083334D02*
X8324809Y67035715D01*
X8324809Y67035715D02*
X8301000Y66964287D01*
X8301000Y66964287D02*
X8253380Y66916668D01*
X8253380Y66916668D02*
X8205761Y66892858D01*
X8205761Y66892858D02*
X8110523Y66869049D01*
X8110523Y66869049D02*
X8039095Y66869049D01*
X8039095Y66869049D02*
X7943857Y66892858D01*
X7943857Y66892858D02*
X7896238Y66916668D01*
X7896238Y66916668D02*
X7848619Y66964287D01*
X7848619Y66964287D02*
X7824809Y67035715D01*
X7824809Y67035715D02*
X7824809Y67083334D01*
X7824809Y67083334D02*
X7848619Y67154763D01*
X7848619Y67154763D02*
X7872428Y67178572D01*
X7872428Y67369049D02*
X7848619Y67392858D01*
X7848619Y67392858D02*
X7824809Y67440477D01*
X7824809Y67440477D02*
X7824809Y67559525D01*
X7824809Y67559525D02*
X7848619Y67607144D01*
X7848619Y67607144D02*
X7872428Y67630953D01*
X7872428Y67630953D02*
X7920047Y67654763D01*
X7920047Y67654763D02*
X7967666Y67654763D01*
X7967666Y67654763D02*
X8039095Y67630953D01*
X8039095Y67630953D02*
X8324809Y67345239D01*
X8324809Y67345239D02*
X8324809Y67654763D01*
X7824809Y67821429D02*
X7824809Y68130953D01*
X7824809Y68130953D02*
X8015285Y67964286D01*
X8015285Y67964286D02*
X8015285Y68035715D01*
X8015285Y68035715D02*
X8039095Y68083334D01*
X8039095Y68083334D02*
X8062904Y68107143D01*
X8062904Y68107143D02*
X8110523Y68130953D01*
X8110523Y68130953D02*
X8229571Y68130953D01*
X8229571Y68130953D02*
X8277190Y68107143D01*
X8277190Y68107143D02*
X8301000Y68083334D01*
X8301000Y68083334D02*
X8324809Y68035715D01*
X8324809Y68035715D02*
X8324809Y67892858D01*
X8324809Y67892858D02*
X8301000Y67845239D01*
X8301000Y67845239D02*
X8277190Y67821429D01*
X14345238Y23475191D02*
X14511904Y22975191D01*
X14511904Y22975191D02*
X14678571Y23475191D01*
X14845237Y22975191D02*
X14845237Y23475191D01*
X14845237Y23475191D02*
X14964285Y23475191D01*
X14964285Y23475191D02*
X15035713Y23451381D01*
X15035713Y23451381D02*
X15083332Y23403762D01*
X15083332Y23403762D02*
X15107142Y23356143D01*
X15107142Y23356143D02*
X15130951Y23260905D01*
X15130951Y23260905D02*
X15130951Y23189477D01*
X15130951Y23189477D02*
X15107142Y23094239D01*
X15107142Y23094239D02*
X15083332Y23046620D01*
X15083332Y23046620D02*
X15035713Y22999000D01*
X15035713Y22999000D02*
X14964285Y22975191D01*
X14964285Y22975191D02*
X14845237Y22975191D01*
X15345237Y22975191D02*
X15345237Y23475191D01*
X15345237Y23475191D02*
X15464285Y23475191D01*
X15464285Y23475191D02*
X15535713Y23451381D01*
X15535713Y23451381D02*
X15583332Y23403762D01*
X15583332Y23403762D02*
X15607142Y23356143D01*
X15607142Y23356143D02*
X15630951Y23260905D01*
X15630951Y23260905D02*
X15630951Y23189477D01*
X15630951Y23189477D02*
X15607142Y23094239D01*
X15607142Y23094239D02*
X15583332Y23046620D01*
X15583332Y23046620D02*
X15535713Y22999000D01*
X15535713Y22999000D02*
X15464285Y22975191D01*
X15464285Y22975191D02*
X15345237Y22975191D01*
X16130951Y23022810D02*
X16107142Y22999000D01*
X16107142Y22999000D02*
X16035713Y22975191D01*
X16035713Y22975191D02*
X15988094Y22975191D01*
X15988094Y22975191D02*
X15916666Y22999000D01*
X15916666Y22999000D02*
X15869047Y23046620D01*
X15869047Y23046620D02*
X15845237Y23094239D01*
X15845237Y23094239D02*
X15821428Y23189477D01*
X15821428Y23189477D02*
X15821428Y23260905D01*
X15821428Y23260905D02*
X15845237Y23356143D01*
X15845237Y23356143D02*
X15869047Y23403762D01*
X15869047Y23403762D02*
X15916666Y23451381D01*
X15916666Y23451381D02*
X15988094Y23475191D01*
X15988094Y23475191D02*
X16035713Y23475191D01*
X16035713Y23475191D02*
X16107142Y23451381D01*
X16107142Y23451381D02*
X16130951Y23427572D01*
X16440475Y23475191D02*
X16535713Y23475191D01*
X16535713Y23475191D02*
X16583332Y23451381D01*
X16583332Y23451381D02*
X16630951Y23403762D01*
X16630951Y23403762D02*
X16654761Y23308524D01*
X16654761Y23308524D02*
X16654761Y23141858D01*
X16654761Y23141858D02*
X16630951Y23046620D01*
X16630951Y23046620D02*
X16583332Y22999000D01*
X16583332Y22999000D02*
X16535713Y22975191D01*
X16535713Y22975191D02*
X16440475Y22975191D01*
X16440475Y22975191D02*
X16392856Y22999000D01*
X16392856Y22999000D02*
X16345237Y23046620D01*
X16345237Y23046620D02*
X16321428Y23141858D01*
X16321428Y23141858D02*
X16321428Y23308524D01*
X16321428Y23308524D02*
X16345237Y23403762D01*
X16345237Y23403762D02*
X16392856Y23451381D01*
X16392856Y23451381D02*
X16440475Y23475191D01*
X17154761Y22975191D02*
X16988095Y23213286D01*
X16869047Y22975191D02*
X16869047Y23475191D01*
X16869047Y23475191D02*
X17059523Y23475191D01*
X17059523Y23475191D02*
X17107142Y23451381D01*
X17107142Y23451381D02*
X17130952Y23427572D01*
X17130952Y23427572D02*
X17154761Y23379953D01*
X17154761Y23379953D02*
X17154761Y23308524D01*
X17154761Y23308524D02*
X17130952Y23260905D01*
X17130952Y23260905D02*
X17107142Y23237096D01*
X17107142Y23237096D02*
X17059523Y23213286D01*
X17059523Y23213286D02*
X16869047Y23213286D01*
X17369047Y23237096D02*
X17535714Y23237096D01*
X17607142Y22975191D02*
X17369047Y22975191D01*
X17369047Y22975191D02*
X17369047Y23475191D01*
X17369047Y23475191D02*
X17607142Y23475191D01*
X5778571Y42722810D02*
X5754762Y42699000D01*
X5754762Y42699000D02*
X5683333Y42675191D01*
X5683333Y42675191D02*
X5635714Y42675191D01*
X5635714Y42675191D02*
X5564286Y42699000D01*
X5564286Y42699000D02*
X5516667Y42746620D01*
X5516667Y42746620D02*
X5492857Y42794239D01*
X5492857Y42794239D02*
X5469048Y42889477D01*
X5469048Y42889477D02*
X5469048Y42960905D01*
X5469048Y42960905D02*
X5492857Y43056143D01*
X5492857Y43056143D02*
X5516667Y43103762D01*
X5516667Y43103762D02*
X5564286Y43151381D01*
X5564286Y43151381D02*
X5635714Y43175191D01*
X5635714Y43175191D02*
X5683333Y43175191D01*
X5683333Y43175191D02*
X5754762Y43151381D01*
X5754762Y43151381D02*
X5778571Y43127572D01*
X5969048Y43127572D02*
X5992857Y43151381D01*
X5992857Y43151381D02*
X6040476Y43175191D01*
X6040476Y43175191D02*
X6159524Y43175191D01*
X6159524Y43175191D02*
X6207143Y43151381D01*
X6207143Y43151381D02*
X6230952Y43127572D01*
X6230952Y43127572D02*
X6254762Y43079953D01*
X6254762Y43079953D02*
X6254762Y43032334D01*
X6254762Y43032334D02*
X6230952Y42960905D01*
X6230952Y42960905D02*
X5945238Y42675191D01*
X5945238Y42675191D02*
X6254762Y42675191D01*
X6445238Y43127572D02*
X6469047Y43151381D01*
X6469047Y43151381D02*
X6516666Y43175191D01*
X6516666Y43175191D02*
X6635714Y43175191D01*
X6635714Y43175191D02*
X6683333Y43151381D01*
X6683333Y43151381D02*
X6707142Y43127572D01*
X6707142Y43127572D02*
X6730952Y43079953D01*
X6730952Y43079953D02*
X6730952Y43032334D01*
X6730952Y43032334D02*
X6707142Y42960905D01*
X6707142Y42960905D02*
X6421428Y42675191D01*
X6421428Y42675191D02*
X6730952Y42675191D01*
X12364285Y38575191D02*
X12364285Y39075191D01*
X12364285Y39075191D02*
X12554761Y39075191D01*
X12554761Y39075191D02*
X12602380Y39051381D01*
X12602380Y39051381D02*
X12626190Y39027572D01*
X12626190Y39027572D02*
X12649999Y38979953D01*
X12649999Y38979953D02*
X12649999Y38908524D01*
X12649999Y38908524D02*
X12626190Y38860905D01*
X12626190Y38860905D02*
X12602380Y38837096D01*
X12602380Y38837096D02*
X12554761Y38813286D01*
X12554761Y38813286D02*
X12364285Y38813286D01*
X12816666Y39075191D02*
X12935714Y38575191D01*
X12935714Y38575191D02*
X13030952Y38932334D01*
X13030952Y38932334D02*
X13126190Y38575191D01*
X13126190Y38575191D02*
X13245238Y39075191D01*
X13721428Y38575191D02*
X13554762Y38813286D01*
X13435714Y38575191D02*
X13435714Y39075191D01*
X13435714Y39075191D02*
X13626190Y39075191D01*
X13626190Y39075191D02*
X13673809Y39051381D01*
X13673809Y39051381D02*
X13697619Y39027572D01*
X13697619Y39027572D02*
X13721428Y38979953D01*
X13721428Y38979953D02*
X13721428Y38908524D01*
X13721428Y38908524D02*
X13697619Y38860905D01*
X13697619Y38860905D02*
X13673809Y38837096D01*
X13673809Y38837096D02*
X13626190Y38813286D01*
X13626190Y38813286D02*
X13435714Y38813286D01*
X13816667Y38527572D02*
X14197619Y38527572D01*
X14554761Y38575191D02*
X14316666Y38575191D01*
X14316666Y38575191D02*
X14316666Y39075191D01*
X14721428Y38837096D02*
X14888095Y38837096D01*
X14959523Y38575191D02*
X14721428Y38575191D01*
X14721428Y38575191D02*
X14721428Y39075191D01*
X14721428Y39075191D02*
X14959523Y39075191D01*
X15173809Y38575191D02*
X15173809Y39075191D01*
X15173809Y39075191D02*
X15292857Y39075191D01*
X15292857Y39075191D02*
X15364285Y39051381D01*
X15364285Y39051381D02*
X15411904Y39003762D01*
X15411904Y39003762D02*
X15435714Y38956143D01*
X15435714Y38956143D02*
X15459523Y38860905D01*
X15459523Y38860905D02*
X15459523Y38789477D01*
X15459523Y38789477D02*
X15435714Y38694239D01*
X15435714Y38694239D02*
X15411904Y38646620D01*
X15411904Y38646620D02*
X15364285Y38599000D01*
X15364285Y38599000D02*
X15292857Y38575191D01*
X15292857Y38575191D02*
X15173809Y38575191D01*
X25277190Y49378572D02*
X25301000Y49354763D01*
X25301000Y49354763D02*
X25324809Y49283334D01*
X25324809Y49283334D02*
X25324809Y49235715D01*
X25324809Y49235715D02*
X25301000Y49164287D01*
X25301000Y49164287D02*
X25253380Y49116668D01*
X25253380Y49116668D02*
X25205761Y49092858D01*
X25205761Y49092858D02*
X25110523Y49069049D01*
X25110523Y49069049D02*
X25039095Y49069049D01*
X25039095Y49069049D02*
X24943857Y49092858D01*
X24943857Y49092858D02*
X24896238Y49116668D01*
X24896238Y49116668D02*
X24848619Y49164287D01*
X24848619Y49164287D02*
X24824809Y49235715D01*
X24824809Y49235715D02*
X24824809Y49283334D01*
X24824809Y49283334D02*
X24848619Y49354763D01*
X24848619Y49354763D02*
X24872428Y49378572D01*
X24872428Y49569049D02*
X24848619Y49592858D01*
X24848619Y49592858D02*
X24824809Y49640477D01*
X24824809Y49640477D02*
X24824809Y49759525D01*
X24824809Y49759525D02*
X24848619Y49807144D01*
X24848619Y49807144D02*
X24872428Y49830953D01*
X24872428Y49830953D02*
X24920047Y49854763D01*
X24920047Y49854763D02*
X24967666Y49854763D01*
X24967666Y49854763D02*
X25039095Y49830953D01*
X25039095Y49830953D02*
X25324809Y49545239D01*
X25324809Y49545239D02*
X25324809Y49854763D01*
X24991476Y50283334D02*
X25324809Y50283334D01*
X24801000Y50164286D02*
X25158142Y50045239D01*
X25158142Y50045239D02*
X25158142Y50354762D01*
X9521429Y25999000D02*
X9592857Y25975191D01*
X9592857Y25975191D02*
X9711905Y25975191D01*
X9711905Y25975191D02*
X9759524Y25999000D01*
X9759524Y25999000D02*
X9783333Y26022810D01*
X9783333Y26022810D02*
X9807143Y26070429D01*
X9807143Y26070429D02*
X9807143Y26118048D01*
X9807143Y26118048D02*
X9783333Y26165667D01*
X9783333Y26165667D02*
X9759524Y26189477D01*
X9759524Y26189477D02*
X9711905Y26213286D01*
X9711905Y26213286D02*
X9616667Y26237096D01*
X9616667Y26237096D02*
X9569048Y26260905D01*
X9569048Y26260905D02*
X9545238Y26284715D01*
X9545238Y26284715D02*
X9521429Y26332334D01*
X9521429Y26332334D02*
X9521429Y26379953D01*
X9521429Y26379953D02*
X9545238Y26427572D01*
X9545238Y26427572D02*
X9569048Y26451381D01*
X9569048Y26451381D02*
X9616667Y26475191D01*
X9616667Y26475191D02*
X9735714Y26475191D01*
X9735714Y26475191D02*
X9807143Y26451381D01*
X9973809Y26475191D02*
X10092857Y25975191D01*
X10092857Y25975191D02*
X10188095Y26332334D01*
X10188095Y26332334D02*
X10283333Y25975191D01*
X10283333Y25975191D02*
X10402381Y26475191D01*
X10592857Y25975191D02*
X10592857Y26475191D01*
X10592857Y26475191D02*
X10711905Y26475191D01*
X10711905Y26475191D02*
X10783333Y26451381D01*
X10783333Y26451381D02*
X10830952Y26403762D01*
X10830952Y26403762D02*
X10854762Y26356143D01*
X10854762Y26356143D02*
X10878571Y26260905D01*
X10878571Y26260905D02*
X10878571Y26189477D01*
X10878571Y26189477D02*
X10854762Y26094239D01*
X10854762Y26094239D02*
X10830952Y26046620D01*
X10830952Y26046620D02*
X10783333Y25999000D01*
X10783333Y25999000D02*
X10711905Y25975191D01*
X10711905Y25975191D02*
X10592857Y25975191D01*
D14*
X13088333Y57425682D02*
X12483571Y57425682D01*
X12483571Y57425682D02*
X12483571Y58695682D01*
X14176905Y57425682D02*
X13451190Y57425682D01*
X13814047Y57425682D02*
X13814047Y58695682D01*
X13814047Y58695682D02*
X13693095Y58514254D01*
X13693095Y58514254D02*
X13572143Y58393301D01*
X13572143Y58393301D02*
X13451190Y58332825D01*
D11*
X12674809Y26319048D02*
X13079571Y26319048D01*
X13079571Y26319048D02*
X13127190Y26342858D01*
X13127190Y26342858D02*
X13151000Y26366667D01*
X13151000Y26366667D02*
X13174809Y26414286D01*
X13174809Y26414286D02*
X13174809Y26509524D01*
X13174809Y26509524D02*
X13151000Y26557143D01*
X13151000Y26557143D02*
X13127190Y26580953D01*
X13127190Y26580953D02*
X13079571Y26604762D01*
X13079571Y26604762D02*
X12674809Y26604762D01*
X12722428Y26819049D02*
X12698619Y26842858D01*
X12698619Y26842858D02*
X12674809Y26890477D01*
X12674809Y26890477D02*
X12674809Y27009525D01*
X12674809Y27009525D02*
X12698619Y27057144D01*
X12698619Y27057144D02*
X12722428Y27080953D01*
X12722428Y27080953D02*
X12770047Y27104763D01*
X12770047Y27104763D02*
X12817666Y27104763D01*
X12817666Y27104763D02*
X12889095Y27080953D01*
X12889095Y27080953D02*
X13174809Y26795239D01*
X13174809Y26795239D02*
X13174809Y27104763D01*
X1877190Y49128572D02*
X1901000Y49104763D01*
X1901000Y49104763D02*
X1924809Y49033334D01*
X1924809Y49033334D02*
X1924809Y48985715D01*
X1924809Y48985715D02*
X1901000Y48914287D01*
X1901000Y48914287D02*
X1853380Y48866668D01*
X1853380Y48866668D02*
X1805761Y48842858D01*
X1805761Y48842858D02*
X1710523Y48819049D01*
X1710523Y48819049D02*
X1639095Y48819049D01*
X1639095Y48819049D02*
X1543857Y48842858D01*
X1543857Y48842858D02*
X1496238Y48866668D01*
X1496238Y48866668D02*
X1448619Y48914287D01*
X1448619Y48914287D02*
X1424809Y48985715D01*
X1424809Y48985715D02*
X1424809Y49033334D01*
X1424809Y49033334D02*
X1448619Y49104763D01*
X1448619Y49104763D02*
X1472428Y49128572D01*
X1924809Y49604763D02*
X1924809Y49319049D01*
X1924809Y49461906D02*
X1424809Y49461906D01*
X1424809Y49461906D02*
X1496238Y49414287D01*
X1496238Y49414287D02*
X1543857Y49366668D01*
X1543857Y49366668D02*
X1567666Y49319049D01*
X1924809Y49842858D02*
X1924809Y49938096D01*
X1924809Y49938096D02*
X1901000Y49985715D01*
X1901000Y49985715D02*
X1877190Y50009524D01*
X1877190Y50009524D02*
X1805761Y50057143D01*
X1805761Y50057143D02*
X1710523Y50080953D01*
X1710523Y50080953D02*
X1520047Y50080953D01*
X1520047Y50080953D02*
X1472428Y50057143D01*
X1472428Y50057143D02*
X1448619Y50033334D01*
X1448619Y50033334D02*
X1424809Y49985715D01*
X1424809Y49985715D02*
X1424809Y49890477D01*
X1424809Y49890477D02*
X1448619Y49842858D01*
X1448619Y49842858D02*
X1472428Y49819048D01*
X1472428Y49819048D02*
X1520047Y49795239D01*
X1520047Y49795239D02*
X1639095Y49795239D01*
X1639095Y49795239D02*
X1686714Y49819048D01*
X1686714Y49819048D02*
X1710523Y49842858D01*
X1710523Y49842858D02*
X1734333Y49890477D01*
X1734333Y49890477D02*
X1734333Y49985715D01*
X1734333Y49985715D02*
X1710523Y50033334D01*
X1710523Y50033334D02*
X1686714Y50057143D01*
X1686714Y50057143D02*
X1639095Y50080953D01*
X14078571Y46822810D02*
X14054762Y46799000D01*
X14054762Y46799000D02*
X13983333Y46775191D01*
X13983333Y46775191D02*
X13935714Y46775191D01*
X13935714Y46775191D02*
X13864286Y46799000D01*
X13864286Y46799000D02*
X13816667Y46846620D01*
X13816667Y46846620D02*
X13792857Y46894239D01*
X13792857Y46894239D02*
X13769048Y46989477D01*
X13769048Y46989477D02*
X13769048Y47060905D01*
X13769048Y47060905D02*
X13792857Y47156143D01*
X13792857Y47156143D02*
X13816667Y47203762D01*
X13816667Y47203762D02*
X13864286Y47251381D01*
X13864286Y47251381D02*
X13935714Y47275191D01*
X13935714Y47275191D02*
X13983333Y47275191D01*
X13983333Y47275191D02*
X14054762Y47251381D01*
X14054762Y47251381D02*
X14078571Y47227572D01*
X14554762Y46775191D02*
X14269048Y46775191D01*
X14411905Y46775191D02*
X14411905Y47275191D01*
X14411905Y47275191D02*
X14364286Y47203762D01*
X14364286Y47203762D02*
X14316667Y47156143D01*
X14316667Y47156143D02*
X14269048Y47132334D01*
X14983333Y47108524D02*
X14983333Y46775191D01*
X14864285Y47299000D02*
X14745238Y46941858D01*
X14745238Y46941858D02*
X15054761Y46941858D01*
X6661905Y22413286D02*
X6661905Y22175191D01*
X6495239Y22675191D02*
X6661905Y22413286D01*
X6661905Y22413286D02*
X6828572Y22675191D01*
X7257143Y22175191D02*
X6971429Y22175191D01*
X7114286Y22175191D02*
X7114286Y22675191D01*
X7114286Y22675191D02*
X7066667Y22603762D01*
X7066667Y22603762D02*
X7019048Y22556143D01*
X7019048Y22556143D02*
X6971429Y22532334D01*
X1824809Y44630953D02*
X1324809Y44630953D01*
X1324809Y44630953D02*
X1324809Y44750001D01*
X1324809Y44750001D02*
X1348619Y44821429D01*
X1348619Y44821429D02*
X1396238Y44869048D01*
X1396238Y44869048D02*
X1443857Y44892858D01*
X1443857Y44892858D02*
X1539095Y44916667D01*
X1539095Y44916667D02*
X1610523Y44916667D01*
X1610523Y44916667D02*
X1705761Y44892858D01*
X1705761Y44892858D02*
X1753380Y44869048D01*
X1753380Y44869048D02*
X1801000Y44821429D01*
X1801000Y44821429D02*
X1824809Y44750001D01*
X1824809Y44750001D02*
X1824809Y44630953D01*
X1824809Y45392858D02*
X1824809Y45107144D01*
X1824809Y45250001D02*
X1324809Y45250001D01*
X1324809Y45250001D02*
X1396238Y45202382D01*
X1396238Y45202382D02*
X1443857Y45154763D01*
X1443857Y45154763D02*
X1467666Y45107144D01*
X9845238Y31899000D02*
X9916666Y31875191D01*
X9916666Y31875191D02*
X10035714Y31875191D01*
X10035714Y31875191D02*
X10083333Y31899000D01*
X10083333Y31899000D02*
X10107142Y31922810D01*
X10107142Y31922810D02*
X10130952Y31970429D01*
X10130952Y31970429D02*
X10130952Y32018048D01*
X10130952Y32018048D02*
X10107142Y32065667D01*
X10107142Y32065667D02*
X10083333Y32089477D01*
X10083333Y32089477D02*
X10035714Y32113286D01*
X10035714Y32113286D02*
X9940476Y32137096D01*
X9940476Y32137096D02*
X9892857Y32160905D01*
X9892857Y32160905D02*
X9869047Y32184715D01*
X9869047Y32184715D02*
X9845238Y32232334D01*
X9845238Y32232334D02*
X9845238Y32279953D01*
X9845238Y32279953D02*
X9869047Y32327572D01*
X9869047Y32327572D02*
X9892857Y32351381D01*
X9892857Y32351381D02*
X9940476Y32375191D01*
X9940476Y32375191D02*
X10059523Y32375191D01*
X10059523Y32375191D02*
X10130952Y32351381D01*
X10345237Y31875191D02*
X10345237Y32375191D01*
X10345237Y32375191D02*
X10464285Y32375191D01*
X10464285Y32375191D02*
X10535713Y32351381D01*
X10535713Y32351381D02*
X10583332Y32303762D01*
X10583332Y32303762D02*
X10607142Y32256143D01*
X10607142Y32256143D02*
X10630951Y32160905D01*
X10630951Y32160905D02*
X10630951Y32089477D01*
X10630951Y32089477D02*
X10607142Y31994239D01*
X10607142Y31994239D02*
X10583332Y31946620D01*
X10583332Y31946620D02*
X10535713Y31899000D01*
X10535713Y31899000D02*
X10464285Y31875191D01*
X10464285Y31875191D02*
X10345237Y31875191D01*
X10940475Y32375191D02*
X11035713Y32375191D01*
X11035713Y32375191D02*
X11083332Y32351381D01*
X11083332Y32351381D02*
X11130951Y32303762D01*
X11130951Y32303762D02*
X11154761Y32208524D01*
X11154761Y32208524D02*
X11154761Y32041858D01*
X11154761Y32041858D02*
X11130951Y31946620D01*
X11130951Y31946620D02*
X11083332Y31899000D01*
X11083332Y31899000D02*
X11035713Y31875191D01*
X11035713Y31875191D02*
X10940475Y31875191D01*
X10940475Y31875191D02*
X10892856Y31899000D01*
X10892856Y31899000D02*
X10845237Y31946620D01*
X10845237Y31946620D02*
X10821428Y32041858D01*
X10821428Y32041858D02*
X10821428Y32208524D01*
X10821428Y32208524D02*
X10845237Y32303762D01*
X10845237Y32303762D02*
X10892856Y32351381D01*
X10892856Y32351381D02*
X10940475Y32375191D01*
X11464286Y29337096D02*
X11297619Y29337096D01*
X11297619Y29075191D02*
X11297619Y29575191D01*
X11297619Y29575191D02*
X11535714Y29575191D01*
X11726190Y29075191D02*
X11726190Y29575191D01*
X11964285Y29075191D02*
X11964285Y29575191D01*
X11964285Y29575191D02*
X12083333Y29575191D01*
X12083333Y29575191D02*
X12154761Y29551381D01*
X12154761Y29551381D02*
X12202380Y29503762D01*
X12202380Y29503762D02*
X12226190Y29456143D01*
X12226190Y29456143D02*
X12249999Y29360905D01*
X12249999Y29360905D02*
X12249999Y29289477D01*
X12249999Y29289477D02*
X12226190Y29194239D01*
X12226190Y29194239D02*
X12202380Y29146620D01*
X12202380Y29146620D02*
X12154761Y29099000D01*
X12154761Y29099000D02*
X12083333Y29075191D01*
X12083333Y29075191D02*
X11964285Y29075191D01*
X12416666Y29575191D02*
X12726190Y29575191D01*
X12726190Y29575191D02*
X12559523Y29384715D01*
X12559523Y29384715D02*
X12630952Y29384715D01*
X12630952Y29384715D02*
X12678571Y29360905D01*
X12678571Y29360905D02*
X12702380Y29337096D01*
X12702380Y29337096D02*
X12726190Y29289477D01*
X12726190Y29289477D02*
X12726190Y29170429D01*
X12726190Y29170429D02*
X12702380Y29122810D01*
X12702380Y29122810D02*
X12678571Y29099000D01*
X12678571Y29099000D02*
X12630952Y29075191D01*
X12630952Y29075191D02*
X12488095Y29075191D01*
X12488095Y29075191D02*
X12440476Y29099000D01*
X12440476Y29099000D02*
X12416666Y29122810D01*
X23406895Y58572810D02*
X23383086Y58549000D01*
X23383086Y58549000D02*
X23311657Y58525191D01*
X23311657Y58525191D02*
X23264038Y58525191D01*
X23264038Y58525191D02*
X23192610Y58549000D01*
X23192610Y58549000D02*
X23144991Y58596620D01*
X23144991Y58596620D02*
X23121181Y58644239D01*
X23121181Y58644239D02*
X23097372Y58739477D01*
X23097372Y58739477D02*
X23097372Y58810905D01*
X23097372Y58810905D02*
X23121181Y58906143D01*
X23121181Y58906143D02*
X23144991Y58953762D01*
X23144991Y58953762D02*
X23192610Y59001381D01*
X23192610Y59001381D02*
X23264038Y59025191D01*
X23264038Y59025191D02*
X23311657Y59025191D01*
X23311657Y59025191D02*
X23383086Y59001381D01*
X23383086Y59001381D02*
X23406895Y58977572D01*
X23883086Y58525191D02*
X23597372Y58525191D01*
X23740229Y58525191D02*
X23740229Y59025191D01*
X23740229Y59025191D02*
X23692610Y58953762D01*
X23692610Y58953762D02*
X23644991Y58906143D01*
X23644991Y58906143D02*
X23597372Y58882334D01*
X24049752Y59025191D02*
X24359276Y59025191D01*
X24359276Y59025191D02*
X24192609Y58834715D01*
X24192609Y58834715D02*
X24264038Y58834715D01*
X24264038Y58834715D02*
X24311657Y58810905D01*
X24311657Y58810905D02*
X24335466Y58787096D01*
X24335466Y58787096D02*
X24359276Y58739477D01*
X24359276Y58739477D02*
X24359276Y58620429D01*
X24359276Y58620429D02*
X24335466Y58572810D01*
X24335466Y58572810D02*
X24311657Y58549000D01*
X24311657Y58549000D02*
X24264038Y58525191D01*
X24264038Y58525191D02*
X24121181Y58525191D01*
X24121181Y58525191D02*
X24073562Y58549000D01*
X24073562Y58549000D02*
X24049752Y58572810D01*
D14*
%TO.C,AC2*%
X4147000Y13806000D02*
G75*
G02*
X4123000Y13806000I-12000J0D01*
G01*
X4123000Y13806000D02*
G75*
G02*
X4147000Y13806000I12000J0D01*
G01*
D10*
%TO.C,R11*%
X4382836Y46910000D02*
X4167164Y46910000D01*
X4382836Y46190000D02*
X4167164Y46190000D01*
%TO.C,C17*%
X23017072Y63584359D02*
X24439576Y63584359D01*
X23017072Y61764359D02*
X24439576Y61764359D01*
%TO.C,C78*%
X6803413Y11266798D02*
X7019085Y11266798D01*
X6803413Y10546798D02*
X7019085Y10546798D01*
D15*
%TO.C,IC4*%
X4800000Y38000000D02*
X10200000Y37953846D01*
X4800000Y34450000D02*
X4800000Y37950000D01*
X10200000Y37950000D02*
X10200000Y34450000D01*
X10200000Y34450000D02*
X4800000Y34450000D01*
X10525000Y40225000D02*
X10525000Y38475000D01*
D10*
%TO.C,C77*%
X5019085Y11266798D02*
X4803413Y11266798D01*
X5019085Y10546798D02*
X4803413Y10546798D01*
%TO.C,R6*%
X17640000Y16287836D02*
X17640000Y16072164D01*
X18360000Y16287836D02*
X18360000Y16072164D01*
%TO.C,R4*%
X19440000Y36492164D02*
X19440000Y36707836D01*
X20160000Y36492164D02*
X20160000Y36707836D01*
D12*
%TO.C,IC3*%
X6500000Y49775000D02*
X6500000Y49375000D01*
X6500000Y43775000D02*
X6500000Y44175000D01*
X7100000Y49775000D02*
X6500000Y49775000D01*
X7100000Y43775000D02*
X6500000Y43775000D01*
X10900000Y43775000D02*
X11500000Y43775000D01*
X11500000Y49775000D02*
X10900000Y49775000D01*
X11500000Y49375000D02*
X11500000Y49775000D01*
X11500000Y43775000D02*
X11500000Y44175000D01*
D15*
%TO.C,RESET*%
X19000000Y18800000D02*
X19000000Y12800000D01*
X19000000Y12800000D02*
X25000000Y12800000D01*
X25000000Y18800000D02*
X19000000Y18800000D01*
X25000000Y12800000D02*
X25000000Y18800000D01*
X24302000Y21852000D02*
G75*
G02*
X24198000Y21852000I-52000J0D01*
G01*
X24198000Y21852000D02*
G75*
G02*
X24302000Y21852000I52000J0D01*
G01*
D12*
%TO.C,IC1*%
X6188000Y30200000D02*
X6188000Y30200000D01*
X6188000Y30100000D02*
X6188000Y30100000D01*
X6188000Y30200000D02*
G75*
G02*
X6188000Y30100000I0J-50000D01*
G01*
X6188000Y30100000D02*
G75*
G02*
X6188000Y30200000I0J50000D01*
G01*
D10*
%TO.C,C7*%
X20827836Y22960000D02*
X20612164Y22960000D01*
X20827836Y22240000D02*
X20612164Y22240000D01*
%TO.C,C2*%
X5311252Y16635000D02*
X4788748Y16635000D01*
X5311252Y15165000D02*
X4788748Y15165000D01*
%TO.C,R2*%
X17707836Y11160000D02*
X17492164Y11160000D01*
X17707836Y10440000D02*
X17492164Y10440000D01*
D16*
%TO.C,IC2*%
X9000000Y19350000D02*
G75*
G02*
X8750000Y19350000I-125000J0D01*
G01*
X8750000Y19350000D02*
G75*
G02*
X9000000Y19350000I125000J0D01*
G01*
D17*
%TO.C,MCU_LED*%
X600000Y40600000D02*
X600000Y41400000D01*
X2200000Y41400000D02*
X2200000Y40600000D01*
D10*
%TO.C,J14*%
X22230000Y57545000D02*
X23500000Y57545000D01*
X22230000Y56275000D02*
X22230000Y57545000D01*
%TO.C,USB*%
X21690000Y34820000D02*
X19990000Y34820000D01*
X21690000Y25480000D02*
X19990000Y25480000D01*
%TO.C,C20*%
X3190000Y50161252D02*
X3190000Y48738748D01*
X5010000Y50161252D02*
X5010000Y48738748D01*
%TO.C,J10*%
X3270000Y21860000D02*
X3270000Y20590000D01*
X3270000Y20590000D02*
X2000000Y20590000D01*
%TO.C,C15*%
X14138748Y44485000D02*
X14661252Y44485000D01*
X14138748Y43015000D02*
X14661252Y43015000D01*
%TO.C,C1*%
X6940000Y16107836D02*
X6940000Y15892164D01*
X7660000Y16107836D02*
X7660000Y15892164D01*
%TO.C,R8*%
X18277836Y37435000D02*
X18062164Y37435000D01*
X18277836Y36715000D02*
X18062164Y36715000D01*
%TO.C,J15*%
X4645000Y53725000D02*
X4645000Y52455000D01*
X4645000Y52455000D02*
X3375000Y52455000D01*
%TO.C,C12*%
X6607836Y31760000D02*
X6392164Y31760000D01*
X6607836Y31040000D02*
X6392164Y31040000D01*
%TO.C,C3*%
X11640000Y21142164D02*
X11640000Y21357836D01*
X12360000Y21142164D02*
X12360000Y21357836D01*
%TO.C,C23*%
X8590000Y68211252D02*
X8590000Y66788748D01*
X10410000Y68211252D02*
X10410000Y66788748D01*
%TO.C,VDDCORE*%
X17200000Y21500000D02*
G75*
G02*
X14800000Y21500000I-1200000J0D01*
G01*
X14800000Y21500000D02*
G75*
G02*
X17200000Y21500000I1200000J0D01*
G01*
%TO.C,C10*%
X18277836Y36435000D02*
X18062164Y36435000D01*
X18277836Y35715000D02*
X18062164Y35715000D01*
%TO.C,C22*%
X5938748Y42335000D02*
X6461252Y42335000D01*
X5938748Y40865000D02*
X6461252Y40865000D01*
%TO.C,R7*%
X17640000Y14192164D02*
X17640000Y14407836D01*
X18360000Y14192164D02*
X18360000Y14407836D01*
D17*
%TO.C,PWR_LED*%
X13500000Y38100000D02*
X14300000Y38100000D01*
X13500000Y36500000D02*
X14300000Y36500000D01*
D10*
%TO.C,C16*%
X4415000Y45227836D02*
X4415000Y45012164D01*
X5135000Y45227836D02*
X5135000Y45012164D01*
%TO.C,J13*%
X11455000Y65855000D02*
X11455000Y67125000D01*
X12725000Y65855000D02*
X11455000Y65855000D01*
%TO.C,J9*%
X3270000Y34525000D02*
X3270000Y33255000D01*
X3270000Y33255000D02*
X2000000Y33255000D01*
D15*
%TO.C,C24*%
X17250000Y46675000D02*
X17250000Y40450000D01*
X25550000Y50375000D02*
X25550000Y40450000D01*
D10*
%TO.C,J8*%
X3270000Y28200000D02*
X3270000Y26930000D01*
X3270000Y26930000D02*
X2000000Y26930000D01*
%TO.C,SWD*%
X10200000Y25835000D02*
X10835000Y25835000D01*
X10835000Y25835000D02*
X10835000Y25200000D01*
%TO.C,C9*%
X4540000Y18892164D02*
X4540000Y19107836D01*
X5260000Y18892164D02*
X5260000Y19107836D01*
%TO.C,J7*%
X18100000Y9510000D02*
X24635000Y9510000D01*
X18100000Y7290000D02*
X18100000Y9510000D01*
X19620000Y7290000D02*
X18100000Y7290000D01*
X19620000Y7290000D02*
X24635000Y7290000D01*
X24635000Y8707530D02*
X24635000Y9510000D01*
X24635000Y7290000D02*
X24635000Y8707530D01*
%TO.C,R37*%
X14470000Y33361359D02*
X14470000Y33668641D01*
X15230000Y33361359D02*
X15230000Y33668641D01*
%TO.C,R3*%
X9907836Y22060000D02*
X9692164Y22060000D01*
X9907836Y21340000D02*
X9692164Y21340000D01*
%TO.C,C11*%
X8140000Y31007836D02*
X8140000Y30792164D01*
X8860000Y31007836D02*
X8860000Y30792164D01*
%TO.C,C18*%
X10365000Y41562164D02*
X10365000Y41777836D01*
X11085000Y41562164D02*
X11085000Y41777836D01*
%TO.C,C4*%
X12765000Y21738748D02*
X12765000Y22261252D01*
X14235000Y21738748D02*
X14235000Y22261252D01*
%TO.C,R13*%
X13440000Y33627836D02*
X13440000Y33412164D01*
X14160000Y33627836D02*
X14160000Y33412164D01*
%TO.C,R12*%
X8365000Y41757836D02*
X8365000Y41542164D01*
X9085000Y41757836D02*
X9085000Y41542164D01*
%TO.C,R1*%
X20612164Y23960000D02*
X20827836Y23960000D01*
X20612164Y23240000D02*
X20827836Y23240000D01*
D15*
%TO.C,L1*%
X6300000Y51600000D02*
X20300000Y51600000D01*
X20300000Y64400000D02*
X6300000Y64400000D01*
D10*
%TO.C,U2*%
X13440000Y26662500D02*
X13440000Y27462500D01*
X13440000Y26662500D02*
X13440000Y25862500D01*
X16560000Y26662500D02*
X16560000Y27462500D01*
X16560000Y26662500D02*
X16560000Y25862500D01*
X16840000Y27722500D02*
X16510000Y27962500D01*
X16840000Y28202500D01*
X16840000Y27722500D01*
G36*
X16840000Y27722500D02*
G01*
X16510000Y27962500D01*
X16840000Y28202500D01*
X16840000Y27722500D01*
G37*
%TO.C,C8*%
X4540000Y20892164D02*
X4540000Y21107836D01*
X5260000Y20892164D02*
X5260000Y21107836D01*
%TO.C,C19*%
X790000Y50161252D02*
X790000Y48738748D01*
X2610000Y50161252D02*
X2610000Y48738748D01*
%TO.C,R5*%
X20440000Y36492164D02*
X20440000Y36707836D01*
X21160000Y36492164D02*
X21160000Y36707836D01*
%TO.C,C14*%
X14138748Y46485000D02*
X14661252Y46485000D01*
X14138748Y45015000D02*
X14661252Y45015000D01*
D15*
%TO.C,Y1*%
X5711270Y18364000D02*
G75*
G02*
X5394730Y18364000I-158270J0D01*
G01*
X5394730Y18364000D02*
G75*
G02*
X5711270Y18364000I158270J0D01*
G01*
D10*
%TO.C,R10*%
X9365000Y41562164D02*
X9365000Y41777836D01*
X10085000Y41562164D02*
X10085000Y41777836D01*
%TO.C,C5*%
X12292164Y11610000D02*
X12507836Y11610000D01*
X12292164Y10890000D02*
X12507836Y10890000D01*
D15*
%TO.C,D1*%
X950000Y45888000D02*
X950000Y44112000D01*
X2250000Y46725000D02*
X2250000Y44112000D01*
D10*
%TO.C,C6*%
X9961252Y11135000D02*
X9438748Y11135000D01*
X9961252Y9665000D02*
X9438748Y9665000D01*
%TO.C,R9*%
X4527836Y26560000D02*
X4312164Y26560000D01*
X4527836Y25840000D02*
X4312164Y25840000D01*
%TO.C,R36*%
X2820000Y41446359D02*
X2820000Y41753641D01*
X3580000Y41446359D02*
X3580000Y41753641D01*
%TO.C,SDO*%
X11700000Y30500000D02*
G75*
G02*
X9300000Y30500000I-1200000J0D01*
G01*
X9300000Y30500000D02*
G75*
G02*
X11700000Y30500000I1200000J0D01*
G01*
%TO.C,C21*%
X11465000Y33738748D02*
X11465000Y34261252D01*
X12935000Y33738748D02*
X12935000Y34261252D01*
%TO.C,C13*%
X23017072Y61084359D02*
X24439576Y61084359D01*
X23017072Y59264359D02*
X24439576Y59264359D01*
%TD*%
M02*
