%TF.GenerationSoftware,KiCad,Pcbnew,9.0.0*%
%TF.CreationDate,2025-11-20T17:42:06-05:00*%
%TF.ProjectId,pytheasFC_0.1.0,70797468-6561-4734-9643-5f302e312e30,0.1.0*%
%TF.SameCoordinates,PXbcd3d80PY660b0c0*%
%TF.FileFunction,Copper,L4,Bot*%
%TF.FilePolarity,Positive*%
%FSLAX46Y46*%
G04 Gerber Fmt 4.6, Leading zero omitted, Abs format (unit mm)*
G04 Created by KiCad (PCBNEW 9.0.0) date 2025-11-20 17:42:06*
%MOMM*%
%LPD*%
G01*
G04 APERTURE LIST*
%TA.AperFunction,ComponentPad*%
%ADD10R,1.000000X1.000000*%
%TD*%
%TA.AperFunction,ComponentPad*%
%ADD11O,1.000000X1.000000*%
%TD*%
%TA.AperFunction,ComponentPad*%
%ADD12C,0.700000*%
%TD*%
%TA.AperFunction,ComponentPad*%
%ADD13C,4.400000*%
%TD*%
%TA.AperFunction,ComponentPad*%
%ADD14R,1.700000X1.700000*%
%TD*%
%TA.AperFunction,ComponentPad*%
%ADD15O,1.700000X1.700000*%
%TD*%
%TA.AperFunction,HeatsinkPad*%
%ADD16O,2.100000X1.000000*%
%TD*%
%TA.AperFunction,HeatsinkPad*%
%ADD17O,1.800000X1.000000*%
%TD*%
%TA.AperFunction,ViaPad*%
%ADD18C,0.500000*%
%TD*%
%TA.AperFunction,ViaPad*%
%ADD19C,0.600000*%
%TD*%
%TA.AperFunction,ViaPad*%
%ADD20C,0.900000*%
%TD*%
%TA.AperFunction,Conductor*%
%ADD21C,0.500000*%
%TD*%
%TA.AperFunction,Conductor*%
%ADD22C,0.200000*%
%TD*%
%TA.AperFunction,Conductor*%
%ADD23C,0.150000*%
%TD*%
%TA.AperFunction,Conductor*%
%ADD24C,0.300000*%
%TD*%
%TA.AperFunction,Conductor*%
%ADD25C,0.700000*%
%TD*%
%TA.AperFunction,Conductor*%
%ADD26C,1.000000*%
%TD*%
%TA.AperFunction,Conductor*%
%ADD27C,0.127500*%
%TD*%
G04 APERTURE END LIST*
D10*
%TO.P,J4,1,Pin_1*%
%TO.N,/SWCLK*%
X22860000Y22730000D03*
D11*
%TO.P,J4,2,Pin_2*%
%TO.N,/SWDIO*%
X22860000Y24000000D03*
%TO.P,J4,3,Pin_3*%
%TO.N,unconnected-(J4-Pin_3-Pad3)*%
X24130000Y22730000D03*
%TO.P,J4,4,Pin_4*%
%TO.N,/~{RESET}*%
X24130000Y24000000D03*
%TO.P,J4,5,Pin_5*%
%TO.N,+3V3*%
X25400000Y22730000D03*
%TO.P,J4,6,Pin_6*%
%TO.N,GND*%
X25400000Y24000000D03*
%TD*%
D12*
%TO.P,H1,1,1*%
%TO.N,GND*%
X21100000Y3750000D03*
X21583274Y4916726D03*
X21583274Y2583274D03*
X22750000Y5400000D03*
D13*
X22750000Y3750000D03*
D12*
X22750000Y2100000D03*
X23916726Y4916726D03*
X23916726Y2583274D03*
X24400000Y3750000D03*
%TD*%
%TO.P,H2,1,1*%
%TO.N,GND*%
X21350000Y67000000D03*
X21833274Y68166726D03*
X21833274Y65833274D03*
X23000000Y68650000D03*
D13*
X23000000Y67000000D03*
D12*
X23000000Y65350000D03*
X24166726Y68166726D03*
X24166726Y65833274D03*
X24650000Y67000000D03*
%TD*%
D14*
%TO.P,J14,1,Pin_1*%
%TO.N,+5V*%
X23500000Y56275000D03*
D15*
%TO.P,J14,2,Pin_2*%
%TO.N,GND*%
X23500000Y53735000D03*
%TD*%
D16*
%TO.P,USB,S1,SHIELD*%
%TO.N,/USB_SHIELD*%
X18685000Y25830000D03*
D17*
X22865000Y25830000D03*
D16*
X18685000Y34470000D03*
D17*
X22865000Y34470000D03*
%TD*%
D14*
%TO.P,J10,1,Pin_1*%
%TO.N,/I2C_SCL*%
X2000000Y21860000D03*
D15*
%TO.P,J10,2,Pin_2*%
%TO.N,/I2C_SDA*%
X2000000Y24400000D03*
%TD*%
D14*
%TO.P,J15,1,Pin_1*%
%TO.N,+BATT*%
X3375000Y53725000D03*
D15*
%TO.P,J15,2,Pin_2*%
%TO.N,GND*%
X3375000Y56265000D03*
%TD*%
D14*
%TO.P,J13,1,Pin_1*%
%TO.N,+5V*%
X12725000Y67125000D03*
D15*
%TO.P,J13,2,Pin_2*%
%TO.N,GND*%
X15265000Y67125000D03*
%TD*%
D14*
%TO.P,J9,1,Pin_1*%
%TO.N,+3V3*%
X2000000Y34525000D03*
D15*
%TO.P,J9,2,Pin_2*%
%TO.N,GND*%
X2000000Y37065000D03*
%TD*%
D14*
%TO.P,J8,1,Pin_1*%
%TO.N,+3V3*%
X2000000Y28200000D03*
D15*
%TO.P,J8,2,Pin_2*%
%TO.N,GND*%
X2000000Y30740000D03*
%TD*%
D10*
%TO.P,J7,1,Pin_1*%
%TO.N,/xGPIO10*%
X18860000Y8400000D03*
D11*
%TO.P,J7,2,Pin_2*%
%TO.N,/xGPIO11*%
X20130000Y8400000D03*
%TO.P,J7,3,Pin_3*%
%TO.N,/xGPIO12*%
X21400000Y8400000D03*
%TO.P,J7,4,Pin_4*%
%TO.N,/xGPIO13*%
X22670000Y8400000D03*
%TO.P,J7,5,Pin_5*%
%TO.N,/xGPIO14*%
X23940000Y8400000D03*
%TD*%
D12*
%TO.P,H3,1,1*%
%TO.N,GND*%
X1850000Y67000000D03*
X2333274Y68166726D03*
X2333274Y65833274D03*
X3500000Y68650000D03*
D13*
X3500000Y67000000D03*
D12*
X3500000Y65350000D03*
X4666726Y68166726D03*
X4666726Y65833274D03*
X5150000Y67000000D03*
%TD*%
D14*
%TO.P,J6,1,Pin_1*%
%TO.N,/GPIO5*%
X5380000Y8400000D03*
D15*
%TO.P,J6,2,Pin_2*%
%TO.N,/GPIO6*%
X7920000Y8400000D03*
%TO.P,J6,3,Pin_3*%
%TO.N,/GPIO7*%
X10460000Y8400000D03*
%TO.P,J6,4,Pin_4*%
%TO.N,/GPIO8*%
X13000000Y8400000D03*
%TO.P,J6,5,Pin_5*%
%TO.N,/GPIO9*%
X15540000Y8400000D03*
%TD*%
D14*
%TO.P,J5,1,Pin_1*%
%TO.N,/GPIO0*%
X2000000Y18540000D03*
D15*
%TO.P,J5,2,Pin_2*%
%TO.N,/GPIO1*%
X2000000Y16000000D03*
%TO.P,J5,3,Pin_3*%
%TO.N,/GPIO2*%
X2000000Y13460000D03*
%TO.P,J5,4,Pin_4*%
%TO.N,/GPIO3*%
X2000000Y10920000D03*
%TO.P,J5,5,Pin_5*%
%TO.N,/GPIO4*%
X2000000Y8380000D03*
%TD*%
D18*
%TO.N,GND*%
X23500000Y37000000D03*
X3500000Y36000000D03*
D19*
X25500000Y54000000D03*
D18*
X19794400Y38053165D03*
X15905161Y60923327D03*
X12000000Y59000000D03*
D19*
X19000000Y7000000D03*
X25500000Y40000000D03*
X25500000Y46000000D03*
X1000000Y55000000D03*
D18*
X16694966Y45729163D03*
X14000000Y55000000D03*
X14000000Y63000000D03*
D19*
X25500000Y50000000D03*
X3500000Y49500000D03*
X1000000Y63000000D03*
D18*
X18000000Y47000000D03*
X12000000Y22500000D03*
D19*
X25500000Y11000000D03*
D18*
X23500000Y39000000D03*
X5192937Y31507063D03*
X2000000Y32500000D03*
X3445194Y63000001D03*
X6000000Y61000000D03*
D19*
X1000000Y65000000D03*
D18*
X11000000Y37500000D03*
X10500000Y15700000D03*
X18000000Y53000000D03*
D19*
X25500000Y56000000D03*
X21000000Y69500000D03*
D18*
X7500000Y28500000D03*
X21387689Y43762448D03*
X5044774Y17000000D03*
X15000000Y15700000D03*
X14000000Y51000000D03*
X17159233Y26855874D03*
X23500000Y47000000D03*
D19*
X25500000Y13000000D03*
X25500000Y65000000D03*
D18*
X16000000Y59000000D03*
X14000000Y57000000D03*
X10000000Y65000000D03*
X15000000Y17700000D03*
X15348258Y47311071D03*
D19*
X1052562Y12274485D03*
D18*
X10500000Y13600000D03*
D19*
X25500000Y44000000D03*
D18*
X15538336Y31898031D03*
X23500000Y43000000D03*
X12000000Y61000000D03*
X3790207Y13265673D03*
X10000000Y63000000D03*
X17220900Y18519825D03*
D19*
X3663687Y7392632D03*
D18*
X8000000Y61000000D03*
X3462265Y58988328D03*
X14000000Y59000000D03*
D19*
X25500000Y58000000D03*
X17000000Y7500000D03*
D18*
X19500000Y23080000D03*
X12000000Y53000000D03*
X14000000Y53000000D03*
D19*
X1000000Y61000000D03*
D18*
X23500000Y45000000D03*
X13100000Y29900000D03*
X18000000Y51000000D03*
D19*
X13000000Y69500000D03*
D18*
X6916088Y14601000D03*
D19*
X1000000Y49500000D03*
X11687032Y7358490D03*
X15000000Y69500000D03*
X1000000Y57000000D03*
D18*
X16000000Y51000000D03*
D19*
X25500000Y38000000D03*
X25500000Y15000000D03*
X25500000Y34000000D03*
D18*
X21842914Y37097192D03*
X7370000Y10000000D03*
X23045467Y40947639D03*
D19*
X25500000Y5000000D03*
D18*
X3787561Y20947639D03*
X12000000Y65000000D03*
D19*
X25500000Y42000000D03*
X19000000Y69500000D03*
X25500000Y48000000D03*
D18*
X17696571Y38056958D03*
D19*
X20000000Y5500000D03*
D18*
X4584849Y22611198D03*
X16000000Y55000000D03*
X12180649Y42963670D03*
D19*
X25500000Y7000000D03*
D18*
X16000000Y57000000D03*
X12800000Y13600000D03*
D19*
X1000000Y59000000D03*
D18*
X12618116Y10457007D03*
D19*
X25500000Y52000000D03*
X25500000Y26000000D03*
D18*
X20900000Y27300000D03*
X16000000Y53000000D03*
X9000000Y35000000D03*
D19*
X7500000Y69500000D03*
D18*
X1000000Y38500000D03*
X6198094Y11578259D03*
D19*
X5500000Y69500000D03*
D18*
X5800000Y24500000D03*
D19*
X1000000Y53000000D03*
D18*
X4116620Y17000000D03*
X16698868Y36088109D03*
D19*
X25500000Y30000000D03*
D18*
X16695075Y37116159D03*
X16848813Y9752220D03*
X6000000Y45050000D03*
X6000000Y65000000D03*
X16638063Y43748933D03*
D19*
X25500000Y28000000D03*
X25500000Y32000000D03*
D18*
X14000000Y61000000D03*
X19627484Y40977987D03*
D19*
X17000000Y69500000D03*
D18*
X14000000Y49000000D03*
X21600000Y33000000D03*
X899000Y47000000D03*
X11500000Y39000000D03*
D19*
X25500000Y17000000D03*
D18*
X9000000Y37500000D03*
X16801987Y33344465D03*
X23500000Y49000000D03*
X16000000Y49000000D03*
X4418839Y29216233D03*
D19*
X25500000Y9000000D03*
D18*
X8000000Y65000000D03*
X8192349Y11782747D03*
X12000000Y55000000D03*
X12000000Y57000000D03*
X2500000Y43000000D03*
X21425624Y38129036D03*
X15000000Y13600000D03*
X10000000Y61000000D03*
D19*
X1097354Y9719971D03*
D18*
X12000000Y63000000D03*
X23500000Y51000000D03*
D19*
X25500000Y36000000D03*
D18*
X10500000Y35000000D03*
X14500000Y39500000D03*
X18000000Y49000000D03*
X8000000Y63000000D03*
X6000000Y63000000D03*
D19*
X5500000Y48000000D03*
D18*
%TO.N,+3V3*%
X19200000Y17800000D03*
X16600000Y19300000D03*
D20*
X4300000Y32000000D03*
D18*
X10200000Y26700000D03*
X9700000Y23100000D03*
X18900000Y21900000D03*
X9300000Y9200000D03*
X18272183Y23950000D03*
X22200000Y19400000D03*
X6700000Y9300000D03*
D20*
X9600000Y32100000D03*
D18*
X21089990Y20455888D03*
%TO.N,/I2C_SDA*%
X19000000Y14780000D03*
X4449091Y28350909D03*
%TO.N,/I2C_SCL*%
X3000000Y23200000D03*
X3400000Y17300000D03*
X19300000Y15700000D03*
%TO.N,/~{RESET}*%
X9000000Y26100000D03*
X14600000Y20300000D03*
X20727059Y21952309D03*
D20*
%TO.N,+5V*%
X15150000Y40650000D03*
X4250000Y40650000D03*
D18*
%TO.N,/PVDD*%
X5700000Y43800000D03*
X12200000Y45800000D03*
%TO.N,/SW*%
X9000000Y50900000D03*
X3800000Y44900000D03*
D20*
%TO.N,+BATT*%
X5487209Y50178936D03*
X7700000Y51000000D03*
D18*
X7400000Y52300000D03*
X11150000Y43250000D03*
%TO.N,/BMP_INT*%
X21950813Y22029909D03*
X14600000Y31000000D03*
X23050000Y21600000D03*
X23700000Y18400000D03*
X19100000Y12900000D03*
X20600000Y24400000D03*
X23700000Y16800000D03*
X17200000Y26100000D03*
%TO.N,/SDO*%
X7200000Y27300000D03*
X4900000Y25300000D03*
%TO.N,/GPIO5*%
X8200000Y13100000D03*
%TO.N,/PG_5V*%
X19690100Y24258429D03*
X21838909Y21338909D03*
X17100000Y24600000D03*
X8850000Y43000000D03*
X17240150Y13654595D03*
X23038909Y20561091D03*
X23000000Y19100000D03*
X23200000Y15800000D03*
X13800000Y35000000D03*
%TO.N,/xGPIO11*%
X15590822Y10569096D03*
%TO.N,/GPIO9*%
X10999887Y11639019D03*
%TO.N,/GPIO7*%
X9400000Y12100000D03*
%TO.N,/xGPIO12*%
X16238245Y11117970D03*
%TO.N,/~{MCU_LED_STAT}*%
X17065934Y14332571D03*
X21800000Y17400000D03*
X8338909Y22261091D03*
X21100000Y14600000D03*
X2800000Y26300000D03*
X5700000Y35400000D03*
X20899999Y19777818D03*
X20825735Y18374265D03*
%TO.N,/xGPIO13*%
X18100000Y11700000D03*
%TO.N,/xGPIO10*%
X13800000Y11000000D03*
%TO.N,/SWCLK*%
X8350000Y23350000D03*
%TO.N,/GPIO2*%
X7965683Y14984438D03*
%TO.N,/SWDIO*%
X11000000Y23400000D03*
X9100000Y20600000D03*
X15500000Y22900000D03*
X21976645Y24298827D03*
%TO.N,/GPIO8*%
X10121182Y11522370D03*
%TO.N,/GPIO3*%
X7585590Y14396621D03*
%TO.N,/GPIO4*%
X8100000Y13883438D03*
%TO.N,/GPIO6*%
X8800000Y12500000D03*
%TO.N,/xGPIO14*%
X16100000Y12400000D03*
%TO.N,/GPIO1*%
X8075735Y15675735D03*
%TO.N,/USB_CC2*%
X19800000Y35500000D03*
X16700000Y31900000D03*
%TO.N,/USB_o_D-*%
X19200000Y30400000D03*
X19800859Y29371737D03*
%TO.N,/USB_CC1*%
X19200000Y28700000D03*
X20800000Y35500000D03*
%TO.N,/RESET_o*%
X19800000Y18450000D03*
X21600000Y13900000D03*
%TO.N,/EN*%
X3050000Y46550000D03*
X9686091Y42986091D03*
%TD*%
D21*
%TO.N,GND*%
X6000000Y47500000D02*
X6000000Y45050000D01*
D22*
X25400000Y24000000D02*
X24823381Y24576619D01*
D23*
X4422633Y29212439D02*
X6787561Y29212439D01*
X4418839Y29216233D02*
X4422633Y29212439D01*
D22*
X24823381Y25323381D02*
X25500000Y26000000D01*
X24823381Y24576619D02*
X24823381Y25323381D01*
X5125534Y14601000D02*
X3790207Y13265673D01*
D21*
X5500000Y48000000D02*
X6000000Y47500000D01*
D22*
X6916088Y14601000D02*
X5125534Y14601000D01*
D23*
X6787561Y29212439D02*
X7500000Y28500000D01*
D24*
%TO.N,+3V3*%
X9900000Y26700000D02*
X9500000Y27100000D01*
X10200000Y26700000D02*
X10200000Y31300000D01*
D25*
X4300000Y31068567D02*
X4300000Y32000000D01*
D24*
X16600000Y19300000D02*
X17700000Y19300000D01*
X9822499Y32193844D02*
X9728655Y32100000D01*
D26*
X2000000Y28200000D02*
X2000000Y28537134D01*
D24*
X17700000Y19300000D02*
X19200000Y17800000D01*
X10200000Y31500000D02*
X9600000Y32100000D01*
X18900000Y21900000D02*
X19900000Y21900000D01*
X9300000Y9200000D02*
X9300000Y9140182D01*
D25*
X2000000Y28537134D02*
X2000000Y28768567D01*
X2570433Y29339000D02*
X2580314Y29339000D01*
D24*
X6700000Y7921529D02*
X6700000Y9300000D01*
X9200000Y7981529D02*
X8417471Y7199000D01*
X10200000Y31363023D02*
X10406958Y31569981D01*
X25400000Y22600000D02*
X25400000Y22730000D01*
X19900000Y21900000D02*
X21089990Y20710010D01*
X22200000Y18800000D02*
X23200000Y17800000D01*
X16700000Y24000000D02*
X11100000Y29600000D01*
X10200000Y31300000D02*
X10200000Y31500000D01*
X7422529Y7199000D02*
X6700000Y7921529D01*
X9300000Y9140182D02*
X9200000Y9040182D01*
X11100000Y29600000D02*
X11100000Y30916343D01*
X25500000Y22630000D02*
X25400000Y22730000D01*
X8100000Y24800000D02*
X8200000Y24700000D01*
X22200000Y19400000D02*
X22200000Y18800000D01*
X24500000Y17800000D02*
X25500000Y18800000D01*
X9200000Y9040182D02*
X9200000Y7981529D01*
X25500000Y18800000D02*
X25500000Y22630000D01*
D25*
X3401000Y30159686D02*
X3401000Y30169567D01*
D24*
X9700000Y23200000D02*
X9700000Y23100000D01*
X18272183Y23950000D02*
X18222183Y24000000D01*
D25*
X2000000Y28768567D02*
X2570433Y29339000D01*
D24*
X18222183Y24000000D02*
X16700000Y24000000D01*
X8417471Y7199000D02*
X7422529Y7199000D01*
X21089990Y20710010D02*
X21089990Y20455888D01*
X8100000Y26600000D02*
X8100000Y24800000D01*
D25*
X3401000Y30169567D02*
X4300000Y31068567D01*
D24*
X10200000Y26700000D02*
X9900000Y26700000D01*
X8200000Y24700000D02*
X9700000Y23200000D01*
X11100000Y30916343D02*
X9822499Y32193844D01*
X23200000Y17800000D02*
X24500000Y17800000D01*
X10200000Y31300000D02*
X10200000Y31363023D01*
X9728655Y32100000D02*
X9600000Y32100000D01*
D25*
X2580314Y29339000D02*
X3401000Y30159686D01*
D24*
X8600000Y27100000D02*
X8100000Y26600000D01*
X9500000Y27100000D02*
X8600000Y27100000D01*
D22*
%TO.N,/I2C_SDA*%
X20100000Y16300000D02*
X19300000Y17100000D01*
X4500000Y26900000D02*
X2000000Y24400000D01*
X4500000Y28300000D02*
X4500000Y26900000D01*
X3800000Y22200000D02*
X3800000Y23300000D01*
X2700000Y24400000D02*
X2000000Y24400000D01*
X19500000Y14800000D02*
X20100000Y15400000D01*
X19300000Y17100000D02*
X8900000Y17100000D01*
X19020000Y14800000D02*
X19500000Y14800000D01*
X8900000Y17100000D02*
X3800000Y22200000D01*
X3800000Y23300000D02*
X2700000Y24400000D01*
X19000000Y14780000D02*
X19020000Y14800000D01*
X20100000Y15400000D02*
X20100000Y16300000D01*
X4449091Y28350909D02*
X4500000Y28300000D01*
%TO.N,/I2C_SCL*%
X18600000Y16400000D02*
X8600000Y16400000D01*
X7700000Y17300000D02*
X6560000Y17300000D01*
X19300000Y15700000D02*
X18600000Y16400000D01*
X2000000Y22200000D02*
X3000000Y23200000D01*
X3800000Y17700000D02*
X3800000Y20060000D01*
X3800000Y20060000D02*
X2000000Y21860000D01*
X3400000Y17300000D02*
X3800000Y17700000D01*
X2000000Y21860000D02*
X2000000Y22200000D01*
X8600000Y16400000D02*
X7700000Y17300000D01*
X6560000Y17300000D02*
X3800000Y20060000D01*
%TO.N,/~{RESET}*%
X13000000Y23300000D02*
X13000000Y25400000D01*
X12300000Y26100000D02*
X9000000Y26100000D01*
X14600000Y20300000D02*
X14600000Y21700000D01*
X20727059Y22272941D02*
X20600000Y22400000D01*
X13000000Y25400000D02*
X12300000Y26100000D01*
X20600000Y22400000D02*
X16700000Y22400000D01*
X16700000Y22400000D02*
X14600000Y20300000D01*
X14600000Y21700000D02*
X13000000Y23300000D01*
X20727059Y21952309D02*
X20727059Y22272941D01*
D26*
%TO.N,+5V*%
X15150000Y40650000D02*
X4250000Y40650000D01*
D22*
%TO.N,/PVDD*%
X4800000Y48300000D02*
X5400000Y48900000D01*
X5400000Y48900000D02*
X9100000Y48900000D01*
X5700000Y43800000D02*
X4800000Y44700000D01*
X4800000Y44700000D02*
X4800000Y48300000D01*
X9100000Y48900000D02*
X12200000Y45800000D01*
%TO.N,/SW*%
X3800000Y44900000D02*
X3800000Y45200000D01*
X5000000Y49400000D02*
X6400000Y49400000D01*
X6700000Y49700000D02*
X7800000Y49700000D01*
X6400000Y49400000D02*
X6700000Y49700000D01*
X7800000Y49700000D02*
X9000000Y50900000D01*
X4100000Y48500000D02*
X5000000Y49400000D01*
X4100000Y45500000D02*
X4100000Y48500000D01*
X3800000Y45200000D02*
X4100000Y45500000D01*
%TO.N,+BATT*%
X13250000Y50500000D02*
X11450000Y52300000D01*
X11150000Y43250000D02*
X13250000Y45350000D01*
X11450000Y52300000D02*
X7400000Y52300000D01*
X13250000Y45350000D02*
X13250000Y50500000D01*
%TO.N,/BMP_INT*%
X23800000Y14400000D02*
X23800000Y16700000D01*
X17334000Y26100000D02*
X17334000Y26161785D01*
X21800000Y12500000D02*
X23100000Y12500000D01*
X15500000Y31000000D02*
X14600000Y31000000D01*
X23050000Y21600000D02*
X23300000Y21600000D01*
X21950813Y22029909D02*
X21950813Y23049187D01*
X17200000Y26100000D02*
X17334000Y26100000D01*
X23100000Y12500000D02*
X23800000Y13200000D01*
X23800000Y16700000D02*
X23700000Y16800000D01*
X19100000Y12900000D02*
X19500000Y12500000D01*
X23300000Y21600000D02*
X23700000Y21200000D01*
X21950813Y23049187D02*
X20600000Y24400000D01*
X18000000Y28000000D02*
X18000000Y28500000D01*
X18500000Y27500000D02*
X18000000Y28000000D01*
X23800000Y13200000D02*
X23800000Y14400000D01*
X17334000Y26161785D02*
X18500000Y27327785D01*
X23700000Y21200000D02*
X23700000Y18400000D01*
X19500000Y12500000D02*
X21800000Y12500000D01*
X18000000Y28500000D02*
X15500000Y31000000D01*
X18500000Y27327785D02*
X18500000Y27500000D01*
%TO.N,/SDO*%
X7200000Y27300000D02*
X6900000Y27300000D01*
X6900000Y27300000D02*
X4900000Y25300000D01*
%TO.N,/GPIO5*%
X7500000Y11200000D02*
X5380000Y9080000D01*
X8200000Y13100000D02*
X7500000Y12400000D01*
X5380000Y9080000D02*
X5380000Y8400000D01*
X7500000Y12400000D02*
X7500000Y11200000D01*
%TO.N,/PG_5V*%
X23000000Y20522182D02*
X23038909Y20561091D01*
X21300000Y22300000D02*
X21300000Y22648529D01*
X17100000Y41400000D02*
X17100000Y40050000D01*
X17100000Y25100000D02*
X16600000Y25600000D01*
X22800000Y13200000D02*
X23000000Y13400000D01*
X13800000Y36200000D02*
X13800000Y35000000D01*
X23000000Y19100000D02*
X23000000Y20522182D01*
X8850000Y42450000D02*
X9150000Y42150000D01*
X21300000Y21877818D02*
X21300000Y22300000D01*
X19601000Y13599000D02*
X19800000Y13400000D01*
X21838909Y21338909D02*
X21300000Y21877818D01*
X16600000Y25600000D02*
X16600000Y26600000D01*
X17100000Y40050000D02*
X17100000Y39500000D01*
X21300000Y22648529D02*
X19690100Y24258429D01*
X23200000Y15300000D02*
X23200000Y15800000D01*
X17295745Y13599000D02*
X19601000Y13599000D01*
X16600000Y41900000D02*
X17100000Y41400000D01*
X16350000Y42150000D02*
X16600000Y41900000D01*
X17240150Y13654595D02*
X17295745Y13599000D01*
X9150000Y42150000D02*
X16350000Y42150000D01*
X17100000Y39500000D02*
X15900000Y38300000D01*
X13800000Y29400000D02*
X13800000Y35000000D01*
X20000000Y13200000D02*
X22800000Y13200000D01*
X15900000Y38300000D02*
X13800000Y36200000D01*
X8850000Y43000000D02*
X8850000Y42450000D01*
X23000000Y15100000D02*
X23200000Y15300000D01*
X23000000Y13400000D02*
X23000000Y15100000D01*
X17100000Y24600000D02*
X17100000Y25100000D01*
X19800000Y13400000D02*
X20000000Y13200000D01*
X16600000Y26600000D02*
X13800000Y29400000D01*
%TO.N,/xGPIO11*%
X15590822Y10569096D02*
X16007887Y10569096D01*
X16010013Y10566970D02*
X16466477Y10566970D01*
X17800000Y9800000D02*
X19500000Y9800000D01*
X17030904Y10569096D02*
X17800000Y9800000D01*
X16468603Y10569096D02*
X17030904Y10569096D01*
X16466477Y10566970D02*
X16468603Y10569096D01*
X16007887Y10569096D02*
X16010013Y10566970D01*
X19500000Y9800000D02*
X20130000Y9170000D01*
X20130000Y9170000D02*
X20130000Y8400000D01*
%TO.N,/GPIO9*%
X10999887Y11639019D02*
X12300981Y11639019D01*
X12300981Y11639019D02*
X15540000Y8400000D01*
%TO.N,/GPIO7*%
X9400000Y10100000D02*
X9400000Y12100000D01*
X10460000Y8400000D02*
X10460000Y9040000D01*
X10460000Y9040000D02*
X9400000Y10100000D01*
%TO.N,/xGPIO12*%
X16334184Y11213909D02*
X17686091Y11213909D01*
X20200000Y10600000D02*
X21400000Y9400000D01*
X17686091Y11213909D02*
X18300000Y10600000D01*
X16238245Y11117970D02*
X16334184Y11213909D01*
X21400000Y9400000D02*
X21400000Y8400000D01*
X18300000Y10600000D02*
X20200000Y10600000D01*
%TO.N,/~{MCU_LED_STAT}*%
X18600000Y14000000D02*
X20500000Y14000000D01*
X20825735Y18374265D02*
X21800000Y17400000D01*
X14100000Y18800000D02*
X9500000Y18800000D01*
X20663172Y20014645D02*
X19085355Y20014645D01*
X4600000Y30200000D02*
X5100000Y30200000D01*
X3500000Y27000000D02*
X3500000Y29100000D01*
X6100000Y35000000D02*
X5700000Y35400000D01*
X9500000Y18800000D02*
X8300000Y20000000D01*
X8300000Y22222182D02*
X8338909Y22261091D01*
X8300000Y20000000D02*
X8300000Y22222182D01*
X18300000Y20800000D02*
X16100000Y20800000D01*
X17065934Y14332571D02*
X18267429Y14332571D01*
X5100000Y30200000D02*
X6100000Y31200000D01*
X3500000Y29100000D02*
X4600000Y30200000D01*
X16100000Y20800000D02*
X14100000Y18800000D01*
X19085355Y20014645D02*
X18300000Y20800000D01*
X6100000Y31200000D02*
X6100000Y35000000D01*
X20899999Y19777818D02*
X20663172Y20014645D01*
X20500000Y14000000D02*
X21100000Y14600000D01*
X18267429Y14332571D02*
X18600000Y14000000D01*
X2800000Y26300000D02*
X3500000Y27000000D01*
%TO.N,/xGPIO13*%
X18100000Y11700000D02*
X18700000Y11100000D01*
X22670000Y8930000D02*
X22670000Y8400000D01*
X20500000Y11100000D02*
X22670000Y8930000D01*
X18700000Y11100000D02*
X20500000Y11100000D01*
%TO.N,/xGPIO10*%
X16660879Y9000000D02*
X17200000Y9000000D01*
X15159638Y9640362D02*
X16020517Y9640362D01*
X17800000Y8400000D02*
X18860000Y8400000D01*
X17200000Y9000000D02*
X17800000Y8400000D01*
X16020517Y9640362D02*
X16660879Y9000000D01*
X13800000Y11000000D02*
X15159638Y9640362D01*
%TO.N,/SWCLK*%
X22500000Y22000000D02*
X22500000Y21150000D01*
X20900000Y19000000D02*
X18900000Y19000000D01*
X22500000Y21150000D02*
X21600000Y20250000D01*
X14300000Y17900000D02*
X9100000Y17900000D01*
X21600000Y19700000D02*
X20900000Y19000000D01*
X16400000Y20000000D02*
X14300000Y17900000D01*
X9100000Y17900000D02*
X6600000Y20400000D01*
X22860000Y22730000D02*
X22860000Y22360000D01*
X21600000Y20250000D02*
X21600000Y19700000D01*
X18900000Y19000000D02*
X17900000Y20000000D01*
X17900000Y20000000D02*
X16400000Y20000000D01*
X6600000Y21300000D02*
X8350000Y23050000D01*
X22860000Y22360000D02*
X22500000Y22000000D01*
X6600000Y20400000D02*
X6600000Y21300000D01*
X8350000Y23050000D02*
X8350000Y23350000D01*
%TO.N,/GPIO2*%
X7799121Y15151000D02*
X3691000Y15151000D01*
X7965683Y14984438D02*
X7799121Y15151000D01*
X3691000Y15151000D02*
X2000000Y13460000D01*
%TO.N,/SWDIO*%
X21400000Y25000000D02*
X19600000Y25000000D01*
X19000000Y23700000D02*
X18700000Y23400000D01*
X21925472Y24474528D02*
X21400000Y25000000D01*
X21925472Y24350000D02*
X21925472Y24474528D01*
X19000000Y24400000D02*
X19000000Y23700000D01*
X18700000Y23400000D02*
X16000000Y23400000D01*
X19600000Y25000000D02*
X19000000Y24400000D01*
X21976645Y24298827D02*
X21925472Y24350000D01*
X16000000Y23400000D02*
X15500000Y22900000D01*
X9100000Y20600000D02*
X9100000Y21500000D01*
X9100000Y21500000D02*
X11000000Y23400000D01*
%TO.N,/GPIO8*%
X10000000Y11401188D02*
X10000000Y11400000D01*
X10000000Y11400000D02*
X13000000Y8400000D01*
X10121182Y11522370D02*
X10000000Y11401188D01*
%TO.N,/GPIO3*%
X3320000Y10920000D02*
X2000000Y10920000D01*
X6400000Y14000000D02*
X3320000Y10920000D01*
X7188969Y14000000D02*
X6400000Y14000000D01*
X7585590Y14396621D02*
X7188969Y14000000D01*
%TO.N,/GPIO4*%
X8100000Y13883438D02*
X7783438Y13883438D01*
X7783438Y13883438D02*
X2280000Y8380000D01*
X2280000Y8380000D02*
X2000000Y8380000D01*
%TO.N,/GPIO6*%
X8800000Y12500000D02*
X8800000Y11100000D01*
X7920000Y10220000D02*
X7920000Y8400000D01*
X8800000Y11100000D02*
X7920000Y10220000D01*
%TO.N,/xGPIO14*%
X19200000Y11700000D02*
X18500000Y12400000D01*
X18500000Y12400000D02*
X16100000Y12400000D01*
X23940000Y8400000D02*
X23940000Y9260000D01*
X21500000Y11700000D02*
X19200000Y11700000D01*
X23940000Y9260000D02*
X21500000Y11700000D01*
%TO.N,/GPIO1*%
X8075735Y15675735D02*
X8075735Y15744344D01*
X8075735Y15744344D02*
X7820079Y16000000D01*
X7820079Y16000000D02*
X2000000Y16000000D01*
%TO.N,/USB_CC2*%
X16111562Y34111562D02*
X16111562Y32488438D01*
X16111562Y32488438D02*
X16700000Y31900000D01*
X17500000Y35500000D02*
X16111562Y34111562D01*
X19800000Y35500000D02*
X17500000Y35500000D01*
D27*
%TO.N,/USB_o_D-*%
X19800859Y29371737D02*
X19800000Y29372596D01*
X19800000Y29800000D02*
X19200000Y30400000D01*
X19800000Y29372596D02*
X19800000Y29800000D01*
D22*
%TO.N,/USB_CC1*%
X20800000Y35500000D02*
X20500000Y35200000D01*
X20100000Y28700000D02*
X19200000Y28700000D01*
X20500000Y35200000D02*
X20500000Y29100000D01*
X20500000Y29100000D02*
X20100000Y28700000D01*
%TO.N,/RESET_o*%
X21900000Y16350000D02*
X19800000Y18450000D01*
X21900000Y14200000D02*
X21900000Y16350000D01*
X21600000Y13900000D02*
X21900000Y14200000D01*
%TO.N,/EN*%
X9686091Y42986091D02*
X9686091Y43313909D01*
X7850000Y43600000D02*
X7300000Y43050000D01*
X9686091Y43313909D02*
X9400000Y43600000D01*
X4250000Y43050000D02*
X3050000Y44250000D01*
X9400000Y43600000D02*
X7850000Y43600000D01*
X3050000Y44250000D02*
X3050000Y46550000D01*
X7300000Y43050000D02*
X4250000Y43050000D01*
%TD*%
%TA.AperFunction,Conductor*%
%TO.N,GND*%
G36*
X25845788Y18008460D02*
G01*
X25926570Y17954484D01*
X25980546Y17873702D01*
X25999500Y17778414D01*
X25999500Y3756750D01*
X25999135Y3743269D01*
X25981181Y3412148D01*
X25978266Y3385345D01*
X25925711Y3064774D01*
X25919915Y3038444D01*
X25833010Y2725437D01*
X25824401Y2699886D01*
X25704163Y2398112D01*
X25692842Y2373643D01*
X25540681Y2086639D01*
X25526782Y2063538D01*
X25344478Y1794658D01*
X25328162Y1773194D01*
X25328161Y1773193D01*
X25117863Y1525612D01*
X25099323Y1506040D01*
X24863487Y1282643D01*
X24842937Y1265187D01*
X24584318Y1068591D01*
X24562003Y1053462D01*
X24283663Y885990D01*
X24259842Y873361D01*
X23965018Y736961D01*
X23939972Y726981D01*
X23632128Y623256D01*
X23606150Y616044D01*
X23288887Y546209D01*
X23262281Y541847D01*
X23002951Y513644D01*
X22939347Y506726D01*
X22912428Y505266D01*
X22587572Y505266D01*
X22560652Y506726D01*
X22485689Y514879D01*
X22237718Y541847D01*
X22211112Y546209D01*
X21893849Y616044D01*
X21867871Y623256D01*
X21560027Y726981D01*
X21534981Y736961D01*
X21240157Y873361D01*
X21216336Y885990D01*
X20937996Y1053462D01*
X20915681Y1068591D01*
X20657062Y1265187D01*
X20655851Y1266555D01*
X20654223Y1267378D01*
X20636512Y1282643D01*
X20400676Y1506040D01*
X20382142Y1525605D01*
X20171836Y1773196D01*
X20155521Y1794658D01*
X19973217Y2063538D01*
X19959318Y2086639D01*
X19870858Y2253491D01*
X19807154Y2373648D01*
X19795841Y2398100D01*
X19675592Y2699903D01*
X19666992Y2725427D01*
X19580083Y3038448D01*
X19574288Y3064774D01*
X19556467Y3173475D01*
X19521732Y3385346D01*
X19518818Y3412148D01*
X19500865Y3743269D01*
X19500500Y3756750D01*
X19500500Y3901642D01*
X20050000Y3901642D01*
X20050000Y3598359D01*
X20083954Y3297020D01*
X20151434Y3001371D01*
X20151437Y3001361D01*
X20251594Y2715131D01*
X20251601Y2715115D01*
X20383169Y2441909D01*
X20544515Y2185127D01*
X20671871Y2025427D01*
X21813708Y3167265D01*
X21910967Y3033398D01*
X22033398Y2910967D01*
X22167261Y2813711D01*
X21032387Y1678837D01*
X21034072Y1664977D01*
X21185126Y1544516D01*
X21441908Y1383170D01*
X21715114Y1251602D01*
X21715130Y1251595D01*
X22001360Y1151438D01*
X22001370Y1151435D01*
X22297019Y1083955D01*
X22598358Y1050001D01*
X22598371Y1050000D01*
X22901629Y1050000D01*
X22901641Y1050001D01*
X23202980Y1083955D01*
X23498629Y1151435D01*
X23498639Y1151438D01*
X23784869Y1251595D01*
X23784885Y1251602D01*
X24058093Y1383171D01*
X24314872Y1544516D01*
X24474573Y1671874D01*
X23332737Y2813710D01*
X23466602Y2910967D01*
X23589033Y3033398D01*
X23686290Y3167263D01*
X24828126Y2025427D01*
X24955484Y2185128D01*
X25116829Y2441907D01*
X25248398Y2715115D01*
X25248405Y2715131D01*
X25348562Y3001361D01*
X25348565Y3001371D01*
X25416045Y3297020D01*
X25449999Y3598359D01*
X25450000Y3598372D01*
X25450000Y3901629D01*
X25449999Y3901642D01*
X25416045Y4202981D01*
X25348565Y4498630D01*
X25348562Y4498640D01*
X25248405Y4784870D01*
X25248398Y4784886D01*
X25116830Y5058092D01*
X24955484Y5314874D01*
X24828126Y5474576D01*
X23686289Y4332739D01*
X23589033Y4466602D01*
X23466602Y4589033D01*
X23332735Y4686292D01*
X24474573Y5828129D01*
X24314873Y5955485D01*
X24058091Y6116831D01*
X23784885Y6248399D01*
X23784869Y6248406D01*
X23498639Y6348563D01*
X23498629Y6348566D01*
X23202980Y6416046D01*
X22901641Y6450000D01*
X22598358Y6450000D01*
X22297019Y6416046D01*
X22001370Y6348566D01*
X22001360Y6348563D01*
X21715130Y6248406D01*
X21715114Y6248399D01*
X21441908Y6116831D01*
X21185125Y5955485D01*
X21025425Y5828129D01*
X22167263Y4686291D01*
X22033398Y4589033D01*
X21910967Y4466602D01*
X21813709Y4332737D01*
X20671871Y5474575D01*
X20544515Y5314875D01*
X20383169Y5058092D01*
X20251601Y4784886D01*
X20251594Y4784870D01*
X20151437Y4498640D01*
X20151434Y4498630D01*
X20083954Y4202981D01*
X20050000Y3901642D01*
X19500500Y3901642D01*
X19500500Y5131120D01*
X19494912Y5173561D01*
X19466270Y5391116D01*
X19398398Y5644419D01*
X19298043Y5886697D01*
X19166924Y6113803D01*
X19166920Y6113808D01*
X19166917Y6113813D01*
X19007286Y6321846D01*
X19007285Y6321847D01*
X19007282Y6321851D01*
X18821851Y6507282D01*
X18821846Y6507286D01*
X18821845Y6507287D01*
X18613812Y6666918D01*
X18613798Y6666927D01*
X18506893Y6728648D01*
X18386697Y6798043D01*
X18386695Y6798044D01*
X18386693Y6798045D01*
X18386689Y6798047D01*
X18144417Y6898399D01*
X18034730Y6927789D01*
X17891116Y6966270D01*
X17891111Y6966271D01*
X17891114Y6966271D01*
X17631120Y7000500D01*
X17500000Y7000500D01*
X17434108Y7000500D01*
X17434104Y7000500D01*
X16651536Y7000500D01*
X16556248Y7019454D01*
X16475466Y7073430D01*
X16421490Y7154212D01*
X16402536Y7249500D01*
X16421490Y7344788D01*
X16475466Y7425570D01*
X16521783Y7471887D01*
X16570104Y7520208D01*
X16695051Y7692184D01*
X16791557Y7881588D01*
X16806016Y7926086D01*
X16832171Y8006585D01*
X16832443Y8007072D01*
X16832512Y8007628D01*
X16856170Y8049441D01*
X16879642Y8091353D01*
X16880081Y8091700D01*
X16880357Y8092186D01*
X16918130Y8121696D01*
X16955939Y8151501D01*
X16956479Y8151654D01*
X16956919Y8151997D01*
X17003210Y8164833D01*
X17049447Y8177873D01*
X17050001Y8177808D01*
X17050541Y8177957D01*
X17098300Y8172091D01*
X17145928Y8166454D01*
X17146414Y8166182D01*
X17146971Y8166113D01*
X17151326Y8163431D01*
X17230696Y8118983D01*
X17231529Y8118268D01*
X17238529Y8112236D01*
X17319478Y8031287D01*
X17319480Y8031284D01*
X17431284Y7919480D01*
X17504715Y7877085D01*
X17525010Y7865368D01*
X17525012Y7865366D01*
X17568214Y7840423D01*
X17624115Y7825445D01*
X17720943Y7799500D01*
X17720949Y7799500D01*
X17722456Y7799301D01*
X17725345Y7798321D01*
X17736707Y7795276D01*
X17736507Y7794532D01*
X17814457Y7768076D01*
X17887504Y7704020D01*
X17908508Y7671763D01*
X17916202Y7657673D01*
X17916203Y7657672D01*
X17916204Y7657669D01*
X18002454Y7542454D01*
X18117669Y7456204D01*
X18252517Y7405909D01*
X18312127Y7399500D01*
X19407872Y7399501D01*
X19467483Y7405909D01*
X19602331Y7456204D01*
X19602333Y7456206D01*
X19611442Y7459603D01*
X19707346Y7475143D01*
X19793741Y7456350D01*
X19838165Y7437949D01*
X20031459Y7399500D01*
X20228541Y7399500D01*
X20421835Y7437949D01*
X20603914Y7513368D01*
X20603917Y7513371D01*
X20603919Y7513371D01*
X20626661Y7528567D01*
X20716420Y7565748D01*
X20813575Y7565749D01*
X20903330Y7528573D01*
X20903338Y7528568D01*
X20903339Y7528567D01*
X20926080Y7513371D01*
X20926084Y7513369D01*
X20926086Y7513368D01*
X21108165Y7437949D01*
X21108167Y7437949D01*
X21108169Y7437948D01*
X21269234Y7405910D01*
X21301459Y7399500D01*
X21498541Y7399500D01*
X21691835Y7437949D01*
X21873914Y7513368D01*
X21873917Y7513371D01*
X21873919Y7513371D01*
X21896661Y7528567D01*
X21986420Y7565748D01*
X22083575Y7565749D01*
X22173330Y7528573D01*
X22173338Y7528568D01*
X22173339Y7528567D01*
X22196080Y7513371D01*
X22196084Y7513369D01*
X22196086Y7513368D01*
X22378165Y7437949D01*
X22378167Y7437949D01*
X22378169Y7437948D01*
X22539234Y7405910D01*
X22571459Y7399500D01*
X22768541Y7399500D01*
X22961835Y7437949D01*
X23143914Y7513368D01*
X23143917Y7513371D01*
X23143919Y7513371D01*
X23166661Y7528567D01*
X23256420Y7565748D01*
X23353575Y7565749D01*
X23443330Y7528573D01*
X23443338Y7528568D01*
X23443339Y7528567D01*
X23466080Y7513371D01*
X23466084Y7513369D01*
X23466086Y7513368D01*
X23648165Y7437949D01*
X23648167Y7437949D01*
X23648169Y7437948D01*
X23809234Y7405910D01*
X23841459Y7399500D01*
X24038541Y7399500D01*
X24231835Y7437949D01*
X24413914Y7513368D01*
X24577782Y7622861D01*
X24717139Y7762218D01*
X24826632Y7926086D01*
X24902051Y8108165D01*
X24940500Y8301459D01*
X24940500Y8498541D01*
X24902051Y8691835D01*
X24826632Y8873914D01*
X24717139Y9037782D01*
X24667105Y9087816D01*
X24613430Y9141492D01*
X24559454Y9222274D01*
X24543393Y9279714D01*
X24540500Y9298526D01*
X24540500Y9339057D01*
X24529395Y9380500D01*
X24499577Y9491785D01*
X24499576Y9491786D01*
X24499576Y9491788D01*
X24499576Y9491789D01*
X24468590Y9545457D01*
X24468589Y9545458D01*
X24420520Y9628716D01*
X24308716Y9740520D01*
X24308713Y9740522D01*
X22574805Y11474430D01*
X22520829Y11555212D01*
X22501875Y11650500D01*
X22520829Y11745788D01*
X22574805Y11826570D01*
X22655587Y11880546D01*
X22750875Y11899500D01*
X23005666Y11899500D01*
X23005682Y11899499D01*
X23020943Y11899499D01*
X23179056Y11899499D01*
X23179057Y11899499D01*
X23331785Y11940423D01*
X23381904Y11969361D01*
X23468716Y12019480D01*
X23580520Y12131284D01*
X23580521Y12131287D01*
X24168713Y12719479D01*
X24168716Y12719480D01*
X24280520Y12831284D01*
X24359577Y12968216D01*
X24368227Y13000500D01*
X24392550Y13091272D01*
X24392550Y13091275D01*
X24392553Y13091284D01*
X24400500Y13120942D01*
X24400500Y13279057D01*
X24400500Y14479057D01*
X24400500Y16480479D01*
X24401807Y16505960D01*
X24405530Y16542151D01*
X24421658Y16581087D01*
X24450500Y16726082D01*
X24450500Y16873918D01*
X24443355Y16909835D01*
X24447192Y16947125D01*
X24450669Y16958411D01*
X24450669Y16970219D01*
X24464869Y17004504D01*
X24475798Y17039974D01*
X24483329Y17049071D01*
X24487848Y17059979D01*
X24514088Y17086221D01*
X24537758Y17114807D01*
X24548196Y17120329D01*
X24556546Y17128678D01*
X24590829Y17142880D01*
X24623639Y17160234D01*
X24635396Y17161341D01*
X24646301Y17165858D01*
X24689744Y17174499D01*
X24808127Y17223535D01*
X24842054Y17246204D01*
X24914669Y17294723D01*
X25574430Y17954484D01*
X25655212Y18008460D01*
X25750500Y18027414D01*
X25845788Y18008460D01*
G37*
%TD.AperFunction*%
%TA.AperFunction,Conductor*%
G36*
X3875789Y8909173D02*
G01*
X3956570Y8855196D01*
X4010546Y8774415D01*
X4029500Y8679127D01*
X4029500Y7502135D01*
X4029500Y7502132D01*
X4029501Y7502128D01*
X4029708Y7500207D01*
X4035908Y7442520D01*
X4035909Y7442515D01*
X4075445Y7336515D01*
X4090985Y7240611D01*
X4068642Y7146060D01*
X4011816Y7067257D01*
X3929159Y7016199D01*
X3842144Y7000500D01*
X3131536Y7000500D01*
X3036248Y7019454D01*
X2955466Y7073430D01*
X2901490Y7154212D01*
X2882536Y7249500D01*
X2901490Y7344788D01*
X2955466Y7425570D01*
X2989499Y7459603D01*
X3030104Y7500208D01*
X3155051Y7672184D01*
X3251557Y7861588D01*
X3317246Y8063757D01*
X3350500Y8273713D01*
X3350500Y8486287D01*
X3350500Y8496070D01*
X3350729Y8496070D01*
X3350349Y8497978D01*
X3357942Y8536155D01*
X3362499Y8574809D01*
X3367360Y8583499D01*
X3369303Y8593266D01*
X3390929Y8625633D01*
X3409931Y8659599D01*
X3423266Y8674033D01*
X3604432Y8855198D01*
X3685212Y8909173D01*
X3780501Y8928127D01*
X3875789Y8909173D01*
G37*
%TD.AperFunction*%
%TA.AperFunction,Conductor*%
G36*
X844788Y10149980D02*
G01*
X925570Y10096004D01*
X950943Y10066295D01*
X969896Y10040208D01*
X1120207Y9889897D01*
X1173131Y9851445D01*
X1239080Y9780101D01*
X1272707Y9688951D01*
X1268892Y9591871D01*
X1228217Y9503641D01*
X1200465Y9471585D01*
X1187625Y9459086D01*
X1120208Y9410104D01*
X969896Y9259792D01*
X938438Y9216494D01*
X923193Y9201652D01*
X899947Y9186567D01*
X879602Y9167760D01*
X859590Y9160378D01*
X841695Y9148764D01*
X814445Y9143723D01*
X788452Y9134133D01*
X767139Y9134971D01*
X746161Y9131089D01*
X719057Y9136860D01*
X691372Y9137947D01*
X671999Y9146879D01*
X651135Y9151320D01*
X628304Y9167022D01*
X603141Y9178622D01*
X588661Y9194286D01*
X571085Y9206374D01*
X555999Y9229620D01*
X537193Y9249965D01*
X529810Y9269977D01*
X518197Y9287872D01*
X513155Y9315122D01*
X503566Y9341115D01*
X500500Y9380067D01*
X500500Y9919934D01*
X519454Y10015222D01*
X573430Y10096004D01*
X654212Y10149980D01*
X749500Y10168934D01*
X844788Y10149980D01*
G37*
%TD.AperFunction*%
%TA.AperFunction,Conductor*%
G36*
X12044394Y11019565D02*
G01*
X12125176Y10965589D01*
X12125178Y10965586D01*
X12933651Y10157112D01*
X12987627Y10076331D01*
X13006581Y9981043D01*
X12987627Y9885755D01*
X12933650Y9804973D01*
X12852869Y9750997D01*
X12796533Y9735109D01*
X12678050Y9716343D01*
X12580970Y9720157D01*
X12492740Y9760832D01*
X12463028Y9786207D01*
X11635786Y10613449D01*
X11581810Y10694231D01*
X11562856Y10789519D01*
X11581810Y10884807D01*
X11635786Y10965589D01*
X11716568Y11019565D01*
X11811856Y11038519D01*
X11949106Y11038519D01*
X12044394Y11019565D01*
G37*
%TD.AperFunction*%
%TA.AperFunction,Conductor*%
G36*
X18343413Y15780546D02*
G01*
X18424195Y15726570D01*
X18478629Y15672136D01*
X18532605Y15591354D01*
X18551559Y15496066D01*
X18532605Y15400778D01*
X18478630Y15319998D01*
X18417050Y15258418D01*
X18417048Y15258415D01*
X18334917Y15135497D01*
X18334915Y15135494D01*
X18314739Y15086783D01*
X18260763Y15006002D01*
X18179982Y14952025D01*
X18084694Y14933071D01*
X17593619Y14933071D01*
X17498331Y14952025D01*
X17455282Y14975035D01*
X17421430Y14997655D01*
X17421427Y14997656D01*
X17284847Y15054229D01*
X17284845Y15054230D01*
X17139854Y15083071D01*
X17139852Y15083071D01*
X16992016Y15083071D01*
X16992013Y15083071D01*
X16847022Y15054230D01*
X16710441Y14997656D01*
X16710437Y14997654D01*
X16587521Y14915525D01*
X16482980Y14810984D01*
X16400851Y14688068D01*
X16400849Y14688064D01*
X16344275Y14551483D01*
X16315434Y14406492D01*
X16315434Y14258651D01*
X16344275Y14113660D01*
X16348960Y14102350D01*
X16400850Y13977076D01*
X16435168Y13925715D01*
X16450081Y13903396D01*
X16487260Y13813636D01*
X16491181Y13785777D01*
X16494095Y13750865D01*
X16489650Y13728513D01*
X16489650Y13580677D01*
X16518492Y13435682D01*
X16520894Y13429882D01*
X16522970Y13405022D01*
X16519048Y13370487D01*
X16519049Y13335728D01*
X16513611Y13322602D01*
X16512009Y13308487D01*
X16495170Y13278082D01*
X16481869Y13245969D01*
X16471824Y13235924D01*
X16464941Y13223495D01*
X16437747Y13201847D01*
X16413171Y13177270D01*
X16400045Y13171834D01*
X16388931Y13162985D01*
X16355520Y13153391D01*
X16323411Y13140090D01*
X16309206Y13140090D01*
X16295550Y13136168D01*
X16261014Y13140090D01*
X16226256Y13140089D01*
X16226255Y13140090D01*
X16173923Y13150500D01*
X16173918Y13150500D01*
X16026082Y13150500D01*
X16026079Y13150500D01*
X15881088Y13121659D01*
X15744507Y13065085D01*
X15744503Y13065083D01*
X15621587Y12982954D01*
X15517046Y12878413D01*
X15434917Y12755497D01*
X15434915Y12755493D01*
X15378341Y12618912D01*
X15349500Y12473921D01*
X15349500Y12326080D01*
X15378341Y12181089D01*
X15382289Y12171557D01*
X15434916Y12044505D01*
X15459485Y12007735D01*
X15497992Y11950104D01*
X15517049Y11921584D01*
X15585682Y11852951D01*
X15594348Y11839981D01*
X15606145Y11829773D01*
X15621109Y11799930D01*
X15639656Y11772172D01*
X15642699Y11756873D01*
X15649693Y11742925D01*
X15652097Y11709625D01*
X15658610Y11676884D01*
X15655566Y11661583D01*
X15656690Y11646022D01*
X15647639Y11621730D01*
X15639656Y11581596D01*
X15626072Y11553818D01*
X15621626Y11546000D01*
X15573161Y11473465D01*
X15553761Y11426632D01*
X15546103Y11413160D01*
X15524255Y11387913D01*
X15505708Y11360154D01*
X15492737Y11351488D01*
X15482530Y11339691D01*
X15452683Y11324726D01*
X15424925Y11306178D01*
X15401556Y11299089D01*
X15395682Y11296143D01*
X15390648Y11295780D01*
X15378233Y11292013D01*
X15371912Y11290756D01*
X15235329Y11234181D01*
X15235325Y11234179D01*
X15112409Y11152050D01*
X15007867Y11047508D01*
X15000109Y11038054D01*
X14997578Y11040132D01*
X14996393Y11038948D01*
X14982789Y11018586D01*
X14962364Y11004940D01*
X14944993Y10987578D01*
X14922367Y10978215D01*
X14902007Y10964610D01*
X14877916Y10959819D01*
X14855222Y10950426D01*
X14830736Y10950434D01*
X14806719Y10945656D01*
X14782629Y10950448D01*
X14758067Y10950455D01*
X14735445Y10959834D01*
X14711431Y10964610D01*
X14691008Y10978256D01*
X14668319Y10987662D01*
X14630649Y11018586D01*
X14597746Y11051489D01*
X14543770Y11132271D01*
X14529601Y11178978D01*
X14521658Y11218913D01*
X14465084Y11355495D01*
X14382951Y11478416D01*
X14278416Y11582951D01*
X14155495Y11665084D01*
X14018913Y11721658D01*
X14018911Y11721659D01*
X13873920Y11750500D01*
X13873918Y11750500D01*
X13726082Y11750500D01*
X13726079Y11750500D01*
X13581088Y11721659D01*
X13444507Y11665085D01*
X13444499Y11665082D01*
X13422375Y11650298D01*
X13399720Y11640915D01*
X13379329Y11627289D01*
X13355272Y11622504D01*
X13332615Y11613119D01*
X13308092Y11613120D01*
X13284040Y11608335D01*
X13259985Y11613120D01*
X13235460Y11613120D01*
X13212804Y11622505D01*
X13188752Y11627289D01*
X13168358Y11640916D01*
X13145701Y11650301D01*
X13107971Y11681265D01*
X12795697Y11993538D01*
X12795695Y11993541D01*
X12795694Y11993542D01*
X12795694Y11993541D01*
X12781502Y12007733D01*
X12781501Y12007735D01*
X12669697Y12119539D01*
X12648337Y12131871D01*
X12575509Y12173918D01*
X12575507Y12173919D01*
X12563089Y12181089D01*
X12532766Y12198596D01*
X12532765Y12198597D01*
X12419481Y12228951D01*
X12380038Y12239520D01*
X12221924Y12239520D01*
X12206663Y12239520D01*
X12206647Y12239519D01*
X11527572Y12239519D01*
X11432284Y12258473D01*
X11389235Y12281483D01*
X11355383Y12304103D01*
X11355380Y12304104D01*
X11218800Y12360677D01*
X11218798Y12360678D01*
X11073807Y12389519D01*
X11073805Y12389519D01*
X10925969Y12389519D01*
X10925966Y12389519D01*
X10780975Y12360678D01*
X10644394Y12304104D01*
X10644386Y12304101D01*
X10583101Y12263151D01*
X10493341Y12225972D01*
X10396186Y12225973D01*
X10383906Y12228740D01*
X10366273Y12233185D01*
X10340095Y12244028D01*
X10260222Y12259917D01*
X10254101Y12261459D01*
X10215794Y12279646D01*
X10176621Y12295873D01*
X10172105Y12300389D01*
X10166336Y12303128D01*
X10137906Y12334589D01*
X10107923Y12364573D01*
X10103741Y12372397D01*
X10101197Y12375212D01*
X10099121Y12381040D01*
X10084915Y12407619D01*
X10075687Y12429897D01*
X10065084Y12455495D01*
X9982951Y12578416D01*
X9878416Y12682951D01*
X9867896Y12689980D01*
X9817376Y12723737D01*
X9755495Y12765084D01*
X9618913Y12821658D01*
X9618911Y12821659D01*
X9618912Y12821659D01*
X9568734Y12831640D01*
X9478975Y12868820D01*
X9410278Y12937519D01*
X9382955Y12978411D01*
X9382953Y12978413D01*
X9382951Y12978416D01*
X9278416Y13082951D01*
X9265937Y13091289D01*
X9187413Y13143757D01*
X9155495Y13165084D01*
X9045431Y13210674D01*
X9009309Y13234810D01*
X8972206Y13257405D01*
X8969326Y13261525D01*
X8964649Y13264650D01*
X8914881Y13335847D01*
X8912684Y13340578D01*
X8865084Y13455495D01*
X8846184Y13483780D01*
X8838078Y13501237D01*
X8831064Y13530098D01*
X8819701Y13557532D01*
X8819700Y13576860D01*
X8815136Y13595644D01*
X8819700Y13624989D01*
X8819700Y13654687D01*
X8819701Y13654690D01*
X8821656Y13664523D01*
X8821658Y13664525D01*
X8850500Y13809520D01*
X8850500Y13957356D01*
X8821658Y14102351D01*
X8765084Y14238933D01*
X8682951Y14361854D01*
X8682946Y14361859D01*
X8675192Y14371308D01*
X8676662Y14372515D01*
X8631492Y14440118D01*
X8612538Y14535406D01*
X8631492Y14630694D01*
X8648548Y14671871D01*
X8687341Y14765525D01*
X8716183Y14910520D01*
X8716183Y15058356D01*
X8701814Y15130593D01*
X8701813Y15227748D01*
X8709826Y15257971D01*
X8720409Y15289696D01*
X8740819Y15320240D01*
X8797393Y15456822D01*
X8826235Y15601817D01*
X8826235Y15606914D01*
X8833703Y15629299D01*
X8850160Y15658154D01*
X8862871Y15688838D01*
X8874023Y15699991D01*
X8881838Y15713691D01*
X8908082Y15734050D01*
X8931570Y15757537D01*
X8946141Y15763573D01*
X8958604Y15773240D01*
X8990643Y15782006D01*
X9021330Y15794716D01*
X9045973Y15797143D01*
X9052315Y15798878D01*
X9057254Y15798255D01*
X9069906Y15799500D01*
X18248125Y15799500D01*
X18343413Y15780546D01*
G37*
%TD.AperFunction*%
%TA.AperFunction,Conductor*%
G36*
X844788Y12689980D02*
G01*
X925570Y12636004D01*
X950943Y12606295D01*
X969896Y12580208D01*
X1120207Y12429897D01*
X1173131Y12391445D01*
X1239080Y12320101D01*
X1272707Y12228951D01*
X1268892Y12131871D01*
X1228217Y12043641D01*
X1200465Y12011585D01*
X1187625Y11999086D01*
X1120208Y11950104D01*
X969896Y11799792D01*
X938438Y11756494D01*
X923193Y11741652D01*
X899947Y11726567D01*
X879602Y11707760D01*
X859590Y11700378D01*
X841695Y11688764D01*
X814445Y11683723D01*
X788452Y11674133D01*
X767139Y11674971D01*
X746161Y11671089D01*
X719057Y11676860D01*
X691372Y11677947D01*
X671999Y11686879D01*
X651135Y11691320D01*
X628304Y11707022D01*
X603141Y11718622D01*
X588661Y11734286D01*
X571085Y11746374D01*
X555999Y11769620D01*
X537193Y11789965D01*
X529810Y11809977D01*
X518197Y11827872D01*
X513155Y11855122D01*
X503566Y11881115D01*
X500500Y11920067D01*
X500500Y12459934D01*
X519454Y12555222D01*
X573430Y12636004D01*
X654212Y12689980D01*
X749500Y12708934D01*
X844788Y12689980D01*
G37*
%TD.AperFunction*%
%TA.AperFunction,Conductor*%
G36*
X5595413Y14531546D02*
G01*
X5676195Y14477570D01*
X5730171Y14396788D01*
X5749125Y14301500D01*
X5730171Y14206212D01*
X5676197Y14125434D01*
X4518984Y12968220D01*
X3366400Y11815636D01*
X3285618Y11761660D01*
X3190330Y11742706D01*
X3095042Y11761660D01*
X3014260Y11815636D01*
X2879793Y11950103D01*
X2879792Y11950104D01*
X2826867Y11988556D01*
X2760920Y12059897D01*
X2727293Y12151047D01*
X2731107Y12248127D01*
X2771781Y12336358D01*
X2826867Y12391445D01*
X2879792Y12429896D01*
X3030104Y12580208D01*
X3155051Y12752184D01*
X3251557Y12941588D01*
X3317246Y13143757D01*
X3344988Y13318913D01*
X3350499Y13353704D01*
X3350500Y13353716D01*
X3350500Y13566285D01*
X3350499Y13566297D01*
X3316342Y13781951D01*
X3320156Y13879031D01*
X3360830Y13967262D01*
X3386200Y13996967D01*
X3866805Y14477570D01*
X3947586Y14531546D01*
X4042874Y14550500D01*
X5500125Y14550500D01*
X5595413Y14531546D01*
G37*
%TD.AperFunction*%
%TA.AperFunction,Conductor*%
G36*
X4654241Y18257182D02*
G01*
X4659016Y18257943D01*
X4701720Y18247738D01*
X4744788Y18239171D01*
X4748808Y18236485D01*
X4753511Y18235361D01*
X4789057Y18209592D01*
X4825570Y18185195D01*
X5985195Y17025570D01*
X6039171Y16944788D01*
X6058125Y16849500D01*
X6039171Y16754212D01*
X5985195Y16673430D01*
X5904413Y16619454D01*
X5809125Y16600500D01*
X4295247Y16600500D01*
X4254057Y16608694D01*
X4212484Y16614657D01*
X4206631Y16618127D01*
X4199959Y16619454D01*
X4165039Y16642787D01*
X4128913Y16664205D01*
X4124834Y16669651D01*
X4119177Y16673430D01*
X4095846Y16708347D01*
X4070665Y16741963D01*
X4068979Y16748557D01*
X4065201Y16754212D01*
X4057008Y16795397D01*
X4046608Y16836093D01*
X4047674Y16842326D01*
X4046247Y16849500D01*
X4060404Y16932263D01*
X4064310Y16943347D01*
X4065084Y16944505D01*
X4121658Y17081087D01*
X4133067Y17138450D01*
X4138973Y17155205D01*
X4154859Y17182001D01*
X4166779Y17210777D01*
X4185305Y17233353D01*
X4188521Y17238776D01*
X4191727Y17241178D01*
X4197737Y17248502D01*
X4280520Y17331284D01*
X4359577Y17468216D01*
X4390204Y17582517D01*
X4400500Y17620942D01*
X4400500Y17779057D01*
X4400500Y18013883D01*
X4400682Y18018641D01*
X4410887Y18061346D01*
X4419454Y18104413D01*
X4422140Y18108434D01*
X4423264Y18113136D01*
X4449033Y18148683D01*
X4473430Y18185195D01*
X4477451Y18187882D01*
X4480288Y18191795D01*
X4517703Y18214778D01*
X4554212Y18239171D01*
X4558952Y18240114D01*
X4563073Y18242645D01*
X4606440Y18249560D01*
X4649500Y18258125D01*
X4654241Y18257182D01*
G37*
%TD.AperFunction*%
%TA.AperFunction,Conductor*%
G36*
X16155349Y18688733D02*
G01*
X16198396Y18665724D01*
X16244500Y18634919D01*
X16244501Y18634919D01*
X16244505Y18634916D01*
X16381087Y18578342D01*
X16526080Y18549501D01*
X16526081Y18549500D01*
X16526082Y18549500D01*
X16673919Y18549500D01*
X16673919Y18549501D01*
X16818913Y18578342D01*
X16944945Y18630546D01*
X17040233Y18649500D01*
X17327414Y18649500D01*
X17422702Y18630546D01*
X17503484Y18576570D01*
X17954484Y18125570D01*
X18008460Y18044788D01*
X18027414Y17949500D01*
X18008460Y17854212D01*
X17954484Y17773430D01*
X17873702Y17719454D01*
X17778414Y17700500D01*
X15550875Y17700500D01*
X15455587Y17719454D01*
X15374805Y17773430D01*
X15320829Y17854212D01*
X15301875Y17949500D01*
X15320829Y18044788D01*
X15374805Y18125569D01*
X15883991Y18634756D01*
X15964773Y18688733D01*
X16060061Y18707687D01*
X16155349Y18688733D01*
G37*
%TD.AperFunction*%
%TA.AperFunction,Conductor*%
G36*
X12162158Y24226742D02*
G01*
X12173982Y24227951D01*
X12209463Y24217333D01*
X12245788Y24210107D01*
X12255670Y24203505D01*
X12267058Y24200096D01*
X12295774Y24176708D01*
X12326570Y24156131D01*
X12333174Y24146248D01*
X12342389Y24138742D01*
X12359969Y24106145D01*
X12380546Y24075349D01*
X12382864Y24063692D01*
X12388507Y24053230D01*
X12392274Y24016387D01*
X12399500Y23980061D01*
X12399500Y23394335D01*
X12399499Y23394317D01*
X12399499Y23379057D01*
X12399499Y23220943D01*
X12440423Y23068215D01*
X12454112Y23044505D01*
X12464746Y23026088D01*
X12464748Y23026082D01*
X12464749Y23026082D01*
X12507328Y22952331D01*
X12519480Y22931284D01*
X12631284Y22819480D01*
X12631286Y22819479D01*
X13926570Y21524195D01*
X13980546Y21443413D01*
X13999500Y21348125D01*
X13999500Y20827687D01*
X13980546Y20732399D01*
X13957538Y20689353D01*
X13934917Y20655498D01*
X13934916Y20655497D01*
X13878341Y20518912D01*
X13849500Y20373921D01*
X13849500Y20226080D01*
X13878341Y20081089D01*
X13878342Y20081087D01*
X13933176Y19948705D01*
X13934915Y19944508D01*
X13934915Y19944506D01*
X14005778Y19838452D01*
X14015163Y19815794D01*
X14028786Y19795406D01*
X14033570Y19771354D01*
X14042957Y19748692D01*
X14042956Y19724169D01*
X14047741Y19700118D01*
X14042956Y19676063D01*
X14042956Y19651537D01*
X14033572Y19628883D01*
X14028788Y19604830D01*
X14015161Y19584437D01*
X14005776Y19561778D01*
X13974812Y19524048D01*
X13924197Y19473432D01*
X13843416Y19419455D01*
X13748128Y19400500D01*
X9851875Y19400500D01*
X9756587Y19419454D01*
X9675805Y19473430D01*
X9525462Y19623773D01*
X9471486Y19704555D01*
X9452532Y19799843D01*
X9471486Y19895131D01*
X9525462Y19975913D01*
X9563197Y20006880D01*
X9563471Y20007064D01*
X9578416Y20017049D01*
X9682951Y20121584D01*
X9765084Y20244505D01*
X9821658Y20381087D01*
X9850500Y20526082D01*
X9850500Y20673918D01*
X9821658Y20818913D01*
X9765084Y20955495D01*
X9760652Y20962128D01*
X9742462Y20989353D01*
X9733078Y21012009D01*
X9719454Y21032399D01*
X9714669Y21056455D01*
X9705284Y21079113D01*
X9700500Y21127687D01*
X9700500Y21148125D01*
X9719454Y21243413D01*
X9773430Y21324195D01*
X10400238Y21951003D01*
X11051491Y22602257D01*
X11132270Y22656230D01*
X11178977Y22670399D01*
X11218913Y22678342D01*
X11355495Y22734916D01*
X11478416Y22817049D01*
X11582951Y22921584D01*
X11665084Y23044505D01*
X11721658Y23181087D01*
X11750500Y23326082D01*
X11750500Y23473918D01*
X11721658Y23618913D01*
X11690351Y23694494D01*
X11688033Y23706150D01*
X11682391Y23716611D01*
X11678623Y23753455D01*
X11671398Y23789780D01*
X11673717Y23801439D01*
X11672508Y23813262D01*
X11683126Y23848744D01*
X11690352Y23885068D01*
X11696954Y23894950D01*
X11700363Y23906338D01*
X11716519Y23924231D01*
X11744328Y23965849D01*
X11761717Y23981669D01*
X11774206Y23991998D01*
X11775901Y23992699D01*
X11881674Y24063374D01*
X11971626Y24153326D01*
X11974501Y24157630D01*
X11991819Y24171950D01*
X12024416Y24189531D01*
X12055212Y24210107D01*
X12066869Y24212426D01*
X12077331Y24218068D01*
X12114174Y24221836D01*
X12150500Y24229061D01*
X12162158Y24226742D01*
G37*
%TD.AperFunction*%
%TA.AperFunction,Conductor*%
G36*
X7295786Y25429541D02*
G01*
X7376568Y25375566D01*
X7430545Y25294785D01*
X7449500Y25199497D01*
X7449500Y24735926D01*
X7472663Y24619484D01*
X7474498Y24610257D01*
X7523535Y24491872D01*
X7594723Y24385331D01*
X7783274Y24196780D01*
X7837250Y24115998D01*
X7856204Y24020710D01*
X7837250Y23925422D01*
X7783276Y23844644D01*
X7767049Y23828416D01*
X7767046Y23828413D01*
X7684917Y23705497D01*
X7684915Y23705493D01*
X7628341Y23568912D01*
X7599500Y23423921D01*
X7599500Y23263849D01*
X7598405Y23263849D01*
X7600573Y23252951D01*
X7593436Y23217073D01*
X7589849Y23180662D01*
X7584027Y23169773D01*
X7581619Y23157663D01*
X7561292Y23127242D01*
X7544047Y23094981D01*
X7527643Y23076881D01*
X7276845Y22826083D01*
X7196063Y22772107D01*
X7171797Y22767281D01*
X7143884Y22699889D01*
X7112917Y22662156D01*
X6239830Y21789068D01*
X6239820Y21789057D01*
X6231286Y21780522D01*
X6231284Y21780520D01*
X6119480Y21668716D01*
X6079518Y21599499D01*
X6069241Y21581700D01*
X6069236Y21581693D01*
X6040424Y21531788D01*
X6040423Y21531786D01*
X5999263Y21378179D01*
X5956292Y21291044D01*
X5883246Y21226985D01*
X5791247Y21195757D01*
X5694300Y21202112D01*
X5607165Y21245083D01*
X5582678Y21266557D01*
X4473430Y22375805D01*
X4419454Y22456587D01*
X4400500Y22551875D01*
X4400500Y23200865D01*
X4400501Y23200878D01*
X4400501Y23379057D01*
X4359578Y23531782D01*
X4359577Y23531783D01*
X4359577Y23531785D01*
X4315009Y23608979D01*
X4315006Y23608984D01*
X4315005Y23608987D01*
X4312916Y23612606D01*
X5744200Y23612606D01*
X5744200Y23485394D01*
X5769017Y23360627D01*
X5769018Y23360624D01*
X5817696Y23243104D01*
X5817699Y23243099D01*
X5866693Y23169773D01*
X5888374Y23137326D01*
X5978326Y23047374D01*
X6084099Y22976699D01*
X6084101Y22976699D01*
X6084103Y22976697D01*
X6119095Y22962203D01*
X6201627Y22928017D01*
X6326394Y22903200D01*
X6326397Y22903200D01*
X6453603Y22903200D01*
X6453606Y22903200D01*
X6578373Y22928017D01*
X6695901Y22976699D01*
X6798512Y23045262D01*
X6865902Y23073176D01*
X6870729Y23097441D01*
X6893736Y23140486D01*
X6962301Y23243099D01*
X7010983Y23360627D01*
X7035800Y23485394D01*
X7035800Y23612606D01*
X7010983Y23737373D01*
X6973272Y23828416D01*
X6962303Y23854897D01*
X6962300Y23854902D01*
X6949168Y23874555D01*
X6891626Y23960674D01*
X6801674Y24050626D01*
X6782595Y24063374D01*
X6695901Y24121301D01*
X6695896Y24121304D01*
X6578376Y24169982D01*
X6578374Y24169983D01*
X6578373Y24169983D01*
X6453606Y24194800D01*
X6326394Y24194800D01*
X6201627Y24169983D01*
X6201626Y24169983D01*
X6201623Y24169982D01*
X6084103Y24121304D01*
X6084098Y24121301D01*
X5978329Y24050629D01*
X5888371Y23960671D01*
X5817699Y23854902D01*
X5817696Y23854897D01*
X5769018Y23737377D01*
X5769017Y23737374D01*
X5769017Y23737373D01*
X5744200Y23612606D01*
X4312916Y23612606D01*
X4280521Y23668714D01*
X4280520Y23668716D01*
X4168716Y23780520D01*
X4168713Y23780522D01*
X3390309Y24558926D01*
X3373998Y24583338D01*
X3354070Y24604896D01*
X3347261Y24623353D01*
X3336333Y24639708D01*
X3320445Y24696040D01*
X3317246Y24716243D01*
X3317244Y24716248D01*
X3316341Y24721953D01*
X3320156Y24819033D01*
X3360832Y24907264D01*
X3386200Y24936967D01*
X3741427Y25292194D01*
X3822206Y25346167D01*
X3917494Y25365121D01*
X4012782Y25346167D01*
X4093564Y25292191D01*
X4147540Y25211409D01*
X4161709Y25164701D01*
X4178341Y25081089D01*
X4193338Y25044884D01*
X4234916Y24944505D01*
X4248330Y24924430D01*
X4311759Y24829500D01*
X4317049Y24821584D01*
X4421584Y24717049D01*
X4544505Y24634916D01*
X4681087Y24578342D01*
X4826080Y24549501D01*
X4826081Y24549500D01*
X4826082Y24549500D01*
X4973919Y24549500D01*
X4973919Y24549501D01*
X5118913Y24578342D01*
X5255495Y24634916D01*
X5378416Y24717049D01*
X5482951Y24821584D01*
X5565084Y24944505D01*
X5583132Y24988079D01*
X5637107Y25068858D01*
X5717888Y25122835D01*
X5813176Y25141790D01*
X5908464Y25122837D01*
X5971141Y25085270D01*
X5978322Y25079377D01*
X5978325Y25079375D01*
X5978326Y25079374D01*
X6084099Y25008699D01*
X6084101Y25008699D01*
X6084103Y25008697D01*
X6119880Y24993878D01*
X6201627Y24960017D01*
X6326394Y24935200D01*
X6326397Y24935200D01*
X6453603Y24935200D01*
X6453606Y24935200D01*
X6578373Y24960017D01*
X6695901Y25008699D01*
X6801674Y25079374D01*
X6891626Y25169326D01*
X6962301Y25275099D01*
X6970453Y25294781D01*
X7024428Y25375562D01*
X7105209Y25429539D01*
X7200497Y25448494D01*
X7295786Y25429541D01*
G37*
%TD.AperFunction*%
%TA.AperFunction,Conductor*%
G36*
X22026954Y69980546D02*
G01*
X22107736Y69926570D01*
X22161712Y69845788D01*
X22180666Y69750500D01*
X22161712Y69655212D01*
X22107736Y69574430D01*
X22026954Y69520454D01*
X22013906Y69515473D01*
X21965130Y69498406D01*
X21965114Y69498399D01*
X21691908Y69366831D01*
X21435125Y69205485D01*
X21275425Y69078129D01*
X22417263Y67936291D01*
X22283398Y67839033D01*
X22160967Y67716602D01*
X22063709Y67582737D01*
X20921871Y68724575D01*
X20794515Y68564875D01*
X20633169Y68308092D01*
X20501601Y68034886D01*
X20501594Y68034870D01*
X20401437Y67748640D01*
X20401434Y67748630D01*
X20333954Y67452981D01*
X20300000Y67151642D01*
X20300000Y66848359D01*
X20333954Y66547020D01*
X20401434Y66251371D01*
X20401437Y66251361D01*
X20501594Y65965131D01*
X20501601Y65965115D01*
X20633169Y65691909D01*
X20794515Y65435127D01*
X20921871Y65275427D01*
X22063708Y66417265D01*
X22160967Y66283398D01*
X22283398Y66160967D01*
X22417261Y66063711D01*
X21275424Y64921874D01*
X21435126Y64794516D01*
X21691908Y64633170D01*
X21965114Y64501602D01*
X21965130Y64501595D01*
X22251360Y64401438D01*
X22251370Y64401435D01*
X22547019Y64333955D01*
X22848358Y64300001D01*
X22848371Y64300000D01*
X23151629Y64300000D01*
X23151641Y64300001D01*
X23452980Y64333955D01*
X23748629Y64401435D01*
X23748639Y64401438D01*
X24034869Y64501595D01*
X24034885Y64501602D01*
X24308093Y64633171D01*
X24564872Y64794516D01*
X24724573Y64921874D01*
X23582737Y66063710D01*
X23716602Y66160967D01*
X23839033Y66283398D01*
X23936290Y66417263D01*
X25078126Y65275427D01*
X25205484Y65435128D01*
X25366829Y65691907D01*
X25498398Y65965115D01*
X25498405Y65965131D01*
X25515473Y66013906D01*
X25564835Y66097587D01*
X25642463Y66156008D01*
X25736539Y66180274D01*
X25832740Y66166693D01*
X25916421Y66117331D01*
X25974842Y66039703D01*
X25999108Y65945627D01*
X25999500Y65931666D01*
X25999500Y25203751D01*
X25980546Y25108463D01*
X25926570Y25027681D01*
X25845788Y24973705D01*
X25750500Y24954751D01*
X25701920Y24959536D01*
X25650001Y24969864D01*
X25650000Y24969864D01*
X25650000Y24249000D01*
X25643466Y24216152D01*
X25599554Y24260064D01*
X25525445Y24302851D01*
X25442787Y24325000D01*
X25357213Y24325000D01*
X25274555Y24302851D01*
X25200446Y24260064D01*
X25156533Y24216152D01*
X25150000Y24249000D01*
X25150000Y24969864D01*
X25149999Y24969864D01*
X25108308Y24961570D01*
X24926327Y24886192D01*
X24926320Y24886188D01*
X24903783Y24871129D01*
X24814022Y24833951D01*
X24716867Y24833952D01*
X24678581Y24844811D01*
X24651310Y24854963D01*
X24603914Y24886632D01*
X24421835Y24962051D01*
X24296848Y24986913D01*
X24278137Y24993878D01*
X24253455Y25009103D01*
X24226667Y25020199D01*
X24212500Y25034366D01*
X24195448Y25044884D01*
X24178472Y25068394D01*
X24157968Y25088898D01*
X24150300Y25107410D01*
X24138573Y25123651D01*
X24131886Y25151866D01*
X24120789Y25178658D01*
X24120789Y25198693D01*
X24116169Y25218188D01*
X24120789Y25246818D01*
X24120790Y25275813D01*
X24128456Y25294322D01*
X24131649Y25314102D01*
X24146873Y25338784D01*
X24148899Y25343675D01*
X24145865Y25345297D01*
X24151625Y25356077D01*
X24151632Y25356086D01*
X24227051Y25538165D01*
X24265500Y25731459D01*
X24265500Y25928541D01*
X24237484Y26069384D01*
X24227052Y26121831D01*
X24227051Y26121833D01*
X24227051Y26121835D01*
X24151632Y26303914D01*
X24042139Y26467782D01*
X23902782Y26607139D01*
X23866646Y26631284D01*
X23771158Y26695087D01*
X23738914Y26716632D01*
X23738911Y26716634D01*
X23738908Y26716635D01*
X23556835Y26792051D01*
X23556830Y26792053D01*
X23363545Y26830500D01*
X23363541Y26830500D01*
X22366459Y26830500D01*
X22366454Y26830500D01*
X22173169Y26792053D01*
X22173164Y26792051D01*
X21991091Y26716635D01*
X21991084Y26716631D01*
X21827221Y26607142D01*
X21687858Y26467779D01*
X21578369Y26303916D01*
X21578365Y26303909D01*
X21502949Y26121836D01*
X21502947Y26121831D01*
X21464500Y25928546D01*
X21464500Y25849500D01*
X21445546Y25754212D01*
X21391570Y25673430D01*
X21310788Y25619454D01*
X21215500Y25600500D01*
X20484500Y25600500D01*
X20389212Y25619454D01*
X20308430Y25673430D01*
X20254454Y25754212D01*
X20235500Y25849500D01*
X20235500Y25928541D01*
X20235499Y25928546D01*
X20197052Y26121831D01*
X20197051Y26121833D01*
X20197051Y26121835D01*
X20121632Y26303914D01*
X20012139Y26467782D01*
X19872782Y26607139D01*
X19836646Y26631284D01*
X19698743Y26723428D01*
X19700200Y26725610D01*
X19640196Y26774857D01*
X19594400Y26860541D01*
X19584880Y26957229D01*
X19613085Y27050200D01*
X19617040Y27057316D01*
X19628095Y27076464D01*
X19660500Y27197399D01*
X19660500Y27322601D01*
X19628095Y27443536D01*
X19601495Y27489610D01*
X19565498Y27551960D01*
X19565496Y27551962D01*
X19565495Y27551964D01*
X19484570Y27632889D01*
X19430597Y27713667D01*
X19411643Y27808955D01*
X19430597Y27904243D01*
X19484573Y27985025D01*
X19529483Y28020611D01*
X19546665Y28031259D01*
X19555495Y28034916D01*
X19592909Y28059916D01*
X19596525Y28062156D01*
X19638106Y28077733D01*
X19679107Y28094715D01*
X19684989Y28095295D01*
X19687506Y28096237D01*
X19692737Y28096058D01*
X19727685Y28099500D01*
X20005666Y28099500D01*
X20005682Y28099499D01*
X20020943Y28099499D01*
X20179056Y28099499D01*
X20179057Y28099499D01*
X20331785Y28140423D01*
X20381904Y28169361D01*
X20468716Y28219480D01*
X20580520Y28331284D01*
X20580521Y28331287D01*
X20868713Y28619479D01*
X20868716Y28619480D01*
X20980520Y28731284D01*
X21059577Y28868216D01*
X21099174Y29015993D01*
X21100500Y29020942D01*
X21100500Y29179057D01*
X21100500Y33897955D01*
X21119454Y33993243D01*
X21173430Y34074025D01*
X21254212Y34128001D01*
X21349500Y34146955D01*
X21444788Y34128001D01*
X21525570Y34074025D01*
X21571007Y34006022D01*
X21572602Y34006874D01*
X21578366Y33996090D01*
X21578368Y33996086D01*
X21618678Y33935758D01*
X21672654Y33854976D01*
X21687861Y33832218D01*
X21827218Y33692861D01*
X21991086Y33583368D01*
X22173165Y33507949D01*
X22173167Y33507949D01*
X22173169Y33507948D01*
X22361453Y33470496D01*
X22366459Y33469500D01*
X23363541Y33469500D01*
X23556835Y33507949D01*
X23738914Y33583368D01*
X23902782Y33692861D01*
X24042139Y33832218D01*
X24151632Y33996086D01*
X24227051Y34178165D01*
X24265500Y34371459D01*
X24265500Y34568541D01*
X24250389Y34644508D01*
X24227052Y34761831D01*
X24227051Y34761833D01*
X24227051Y34761835D01*
X24151632Y34943914D01*
X24042139Y35107782D01*
X23902782Y35247139D01*
X23738914Y35356632D01*
X23738911Y35356634D01*
X23738908Y35356635D01*
X23556835Y35432051D01*
X23556830Y35432053D01*
X23363545Y35470500D01*
X23363541Y35470500D01*
X22366459Y35470500D01*
X22366454Y35470500D01*
X22173169Y35432053D01*
X22173164Y35432051D01*
X21991091Y35356635D01*
X21991081Y35356630D01*
X21937835Y35321052D01*
X21848075Y35283873D01*
X21750920Y35283874D01*
X21661161Y35321054D01*
X21592463Y35389754D01*
X21555284Y35479514D01*
X21550500Y35528089D01*
X21550500Y35573919D01*
X21550499Y35573921D01*
X21541864Y35617330D01*
X21521658Y35718913D01*
X21465084Y35855495D01*
X21382951Y35978416D01*
X21278416Y36082951D01*
X21251586Y36100878D01*
X21178586Y36149655D01*
X21155495Y36165084D01*
X21018913Y36221658D01*
X21018911Y36221659D01*
X20873920Y36250500D01*
X20873918Y36250500D01*
X20726082Y36250500D01*
X20726079Y36250500D01*
X20581088Y36221659D01*
X20444507Y36165085D01*
X20444501Y36165083D01*
X20438334Y36160961D01*
X20348574Y36123783D01*
X20251419Y36123784D01*
X20161666Y36160961D01*
X20155498Y36165083D01*
X20155495Y36165084D01*
X20018913Y36221658D01*
X20018911Y36221659D01*
X19873920Y36250500D01*
X19873918Y36250500D01*
X19726082Y36250500D01*
X19726079Y36250500D01*
X19581088Y36221659D01*
X19444507Y36165085D01*
X19444503Y36165084D01*
X19410652Y36142464D01*
X19320893Y36105285D01*
X19272315Y36100500D01*
X17594334Y36100500D01*
X17594318Y36100501D01*
X17579057Y36100501D01*
X17420943Y36100501D01*
X17388668Y36091853D01*
X17268215Y36059578D01*
X17268212Y36059576D01*
X17218096Y36030642D01*
X17218095Y36030640D01*
X17131284Y35980520D01*
X17131283Y35980519D01*
X17131280Y35980517D01*
X17019479Y35868717D01*
X17019480Y35868716D01*
X17019478Y35868714D01*
X15742848Y34592084D01*
X15742846Y34592082D01*
X15742845Y34592083D01*
X15631042Y34480279D01*
X15631041Y34480277D01*
X15616960Y34455889D01*
X15608032Y34440423D01*
X15575672Y34384375D01*
X15551984Y34343346D01*
X15511061Y34190619D01*
X15511061Y34012440D01*
X15511062Y34012427D01*
X15511062Y32567499D01*
X15511061Y32567495D01*
X15511061Y32409381D01*
X15551985Y32256653D01*
X15552654Y32255495D01*
X15575286Y32216294D01*
X15575287Y32216292D01*
X15588380Y32193615D01*
X15631042Y32119722D01*
X15725196Y32025568D01*
X15779170Y31944789D01*
X15798124Y31849501D01*
X15792938Y31823430D01*
X15779171Y31754214D01*
X15755824Y31719272D01*
X15725194Y31673431D01*
X15672866Y31638467D01*
X15644414Y31619456D01*
X15644413Y31619456D01*
X15644412Y31619455D01*
X15549126Y31600501D01*
X15420943Y31600501D01*
X15420939Y31600501D01*
X15405668Y31600500D01*
X15405667Y31600501D01*
X15405666Y31600500D01*
X15127685Y31600500D01*
X15032397Y31619454D01*
X14989348Y31642464D01*
X14955496Y31665084D01*
X14955493Y31665085D01*
X14818913Y31721658D01*
X14818911Y31721659D01*
X14673920Y31750500D01*
X14673918Y31750500D01*
X14649500Y31750500D01*
X14554212Y31769454D01*
X14473430Y31823430D01*
X14419454Y31904212D01*
X14400500Y31999500D01*
X14400500Y34472315D01*
X14419454Y34567603D01*
X14442464Y34610652D01*
X14465083Y34644504D01*
X14465082Y34644504D01*
X14465084Y34644505D01*
X14521658Y34781087D01*
X14550500Y34926082D01*
X14550500Y35073918D01*
X14521658Y35218913D01*
X14465084Y35355495D01*
X14464322Y35356635D01*
X14442462Y35389353D01*
X14433078Y35412009D01*
X14419454Y35432399D01*
X14414669Y35456455D01*
X14405284Y35479113D01*
X14400500Y35527687D01*
X14400500Y35848125D01*
X14419454Y35943413D01*
X14473430Y36024195D01*
X16380519Y37931284D01*
X17448212Y38998978D01*
X17448218Y38998983D01*
X17468714Y39019480D01*
X17468716Y39019480D01*
X17580520Y39131284D01*
X17630636Y39218093D01*
X17630639Y39218095D01*
X17630638Y39218095D01*
X17630639Y39218096D01*
X17659577Y39268215D01*
X17664412Y39286262D01*
X17700500Y39420940D01*
X17700500Y41300864D01*
X17700501Y41300877D01*
X17700501Y41479057D01*
X17659577Y41631784D01*
X17648771Y41650500D01*
X17614699Y41709516D01*
X17580520Y41768716D01*
X16968716Y42380519D01*
X16830521Y42518714D01*
X16830520Y42518716D01*
X16718716Y42630520D01*
X16718713Y42630522D01*
X16651178Y42669513D01*
X16651177Y42669514D01*
X16614960Y42690423D01*
X16581785Y42709577D01*
X16429057Y42750501D01*
X16270943Y42750501D01*
X16270939Y42750500D01*
X12119253Y42750500D01*
X12023965Y42769454D01*
X11943183Y42823430D01*
X11889207Y42904212D01*
X11870253Y42999500D01*
X11875036Y43048071D01*
X11879600Y43071019D01*
X11916776Y43160774D01*
X11947741Y43198508D01*
X13618713Y44869479D01*
X13618716Y44869480D01*
X13730520Y44981284D01*
X13809577Y45118216D01*
X13846361Y45255495D01*
X13846362Y45255497D01*
X13850500Y45270939D01*
X13850500Y50579058D01*
X13809577Y50731784D01*
X13755135Y50826081D01*
X13730520Y50868716D01*
X13618716Y50980520D01*
X13618713Y50980522D01*
X11930521Y52668714D01*
X11930520Y52668716D01*
X11818716Y52780520D01*
X11731906Y52830639D01*
X11731903Y52830642D01*
X11681784Y52859578D01*
X11681781Y52859579D01*
X11529057Y52900501D01*
X11370943Y52900501D01*
X11355682Y52900501D01*
X11355666Y52900500D01*
X8174934Y52900500D01*
X8079646Y52919454D01*
X8018950Y52955413D01*
X8007685Y52964467D01*
X7364208Y53345115D01*
X7127737Y53484999D01*
X4536571Y55017802D01*
X4519926Y55024852D01*
X4439575Y55079467D01*
X4386241Y55160674D01*
X4368043Y55256109D01*
X4387752Y55351244D01*
X4415590Y55400494D01*
X4529623Y55557447D01*
X4626091Y55746775D01*
X4626097Y55746788D01*
X4691756Y55948871D01*
X4702230Y56015000D01*
X3808012Y56015000D01*
X3840925Y56072007D01*
X3875000Y56199174D01*
X3875000Y56330826D01*
X3840925Y56457993D01*
X3808012Y56515000D01*
X4702230Y56515000D01*
X4691756Y56581130D01*
X4626097Y56783213D01*
X4626091Y56783226D01*
X4529623Y56972554D01*
X4404724Y57144463D01*
X4254462Y57294725D01*
X4082553Y57419624D01*
X3893225Y57516092D01*
X3893215Y57516096D01*
X3691124Y57581759D01*
X3691120Y57581760D01*
X3625000Y57592233D01*
X3625000Y56698012D01*
X3567993Y56730925D01*
X3440826Y56765000D01*
X3309174Y56765000D01*
X3182007Y56730925D01*
X3125000Y56698012D01*
X3125000Y57592232D01*
X3124999Y57592233D01*
X3058879Y57581760D01*
X3058875Y57581759D01*
X2856784Y57516096D01*
X2856774Y57516092D01*
X2667446Y57419624D01*
X2495537Y57294725D01*
X2345275Y57144463D01*
X2220376Y56972554D01*
X2123908Y56783226D01*
X2123902Y56783213D01*
X2058243Y56581130D01*
X2047769Y56515000D01*
X2941988Y56515000D01*
X2909075Y56457993D01*
X2875000Y56330826D01*
X2875000Y56199174D01*
X2909075Y56072007D01*
X2941988Y56015000D01*
X2047770Y56015000D01*
X2058243Y55948871D01*
X2123902Y55746788D01*
X2123908Y55746775D01*
X2220376Y55557447D01*
X2351028Y55377620D01*
X2348746Y55375963D01*
X2387250Y55307168D01*
X2398644Y55210683D01*
X2372248Y55117183D01*
X2312081Y55040901D01*
X2296435Y55030122D01*
X2296925Y55029468D01*
X2167458Y54932550D01*
X2167453Y54932545D01*
X2081204Y54817331D01*
X2030908Y54682481D01*
X2027328Y54667331D01*
X2027286Y54667341D01*
X2022970Y54645645D01*
X2014979Y54618429D01*
X2014977Y54618422D01*
X2014977Y54618420D01*
X2014976Y54618416D01*
X1994500Y54476000D01*
X1994500Y54475996D01*
X1994500Y52940988D01*
X1994788Y52923926D01*
X1995072Y52915528D01*
X1995942Y52898426D01*
X1995942Y52898422D01*
X1995943Y52898421D01*
X2026009Y52757718D01*
X2026010Y52757716D01*
X2026011Y52757711D01*
X2050183Y52692168D01*
X2050186Y52692161D01*
X2070322Y52654960D01*
X2078581Y52639701D01*
X2081204Y52632669D01*
X2085476Y52626961D01*
X2094167Y52610905D01*
X2094169Y52610902D01*
X2110692Y52580377D01*
X2118674Y52565630D01*
X4205910Y49755889D01*
X4247518Y49668094D01*
X4252360Y49571060D01*
X4219701Y49479559D01*
X4182097Y49431335D01*
X3739830Y48989068D01*
X3739820Y48989057D01*
X3731286Y48980522D01*
X3731284Y48980520D01*
X3619480Y48868716D01*
X3579518Y48799499D01*
X3569241Y48781700D01*
X3569236Y48781693D01*
X3540424Y48731788D01*
X3540422Y48731785D01*
X3499499Y48579057D01*
X3499499Y48400878D01*
X3499500Y48400865D01*
X3499500Y47529200D01*
X3480546Y47433912D01*
X3426570Y47353130D01*
X3345788Y47299154D01*
X3250500Y47280200D01*
X3201923Y47284984D01*
X3145016Y47296304D01*
X3123918Y47300500D01*
X2976082Y47300500D01*
X2976079Y47300500D01*
X2831088Y47271659D01*
X2694507Y47215085D01*
X2694503Y47215083D01*
X2571587Y47132954D01*
X2467046Y47028413D01*
X2384917Y46905497D01*
X2384915Y46905493D01*
X2328341Y46768912D01*
X2299500Y46623921D01*
X2299500Y46476080D01*
X2328341Y46331089D01*
X2384915Y46194508D01*
X2384916Y46194504D01*
X2407536Y46160652D01*
X2444715Y46070893D01*
X2449500Y46022315D01*
X2449500Y44329061D01*
X2449499Y44329057D01*
X2449499Y44170943D01*
X2490423Y44018215D01*
X2500651Y44000500D01*
X2522345Y43962924D01*
X2522346Y43962922D01*
X2549966Y43915083D01*
X2569480Y43881284D01*
X2681284Y43769480D01*
X2681286Y43769479D01*
X3769478Y42681287D01*
X3769480Y42681284D01*
X3881284Y42569480D01*
X3952535Y42528344D01*
X3952537Y42528342D01*
X4018213Y42490424D01*
X4018215Y42490423D01*
X4074114Y42475445D01*
X4170939Y42449500D01*
X4170942Y42449500D01*
X4170943Y42449500D01*
X7205666Y42449500D01*
X7205682Y42449499D01*
X7220943Y42449499D01*
X7379056Y42449499D01*
X7379057Y42449499D01*
X7531785Y42490423D01*
X7597462Y42528342D01*
X7668716Y42569480D01*
X7780520Y42681284D01*
X7780520Y42681286D01*
X7793840Y42694605D01*
X7874621Y42748582D01*
X7969909Y42767536D01*
X8065197Y42748582D01*
X8145979Y42694606D01*
X8176427Y42653547D01*
X8178119Y42654677D01*
X8207534Y42610655D01*
X8210849Y42602652D01*
X8216541Y42596119D01*
X8229337Y42558019D01*
X8244714Y42520896D01*
X8245921Y42508640D01*
X8247473Y42504019D01*
X8247022Y42497464D01*
X8249499Y42472317D01*
X8249499Y42370943D01*
X8290421Y42218219D01*
X8290422Y42218216D01*
X8315543Y42174706D01*
X8315547Y42174699D01*
X8319360Y42168096D01*
X8369480Y42081284D01*
X8392910Y42057854D01*
X8406742Y42036963D01*
X8415833Y42014749D01*
X8429171Y41994788D01*
X8434057Y41970224D01*
X8443543Y41947047D01*
X8443441Y41923045D01*
X8448125Y41899500D01*
X8443238Y41874935D01*
X8443133Y41849893D01*
X8433854Y41827757D01*
X8429171Y41804212D01*
X8415257Y41783389D01*
X8405576Y41760291D01*
X8388531Y41743390D01*
X8375195Y41723430D01*
X8354369Y41709516D01*
X8336588Y41691883D01*
X8314373Y41682792D01*
X8294413Y41669454D01*
X8269848Y41664568D01*
X8246672Y41655082D01*
X8222669Y41655184D01*
X8199125Y41650500D01*
X4151454Y41650500D01*
X3958169Y41612053D01*
X3958164Y41612051D01*
X3776091Y41536635D01*
X3776084Y41536631D01*
X3612221Y41427142D01*
X3472858Y41287779D01*
X3363369Y41123916D01*
X3363365Y41123909D01*
X3287949Y40941836D01*
X3287947Y40941831D01*
X3249500Y40748546D01*
X3249500Y40551455D01*
X3287947Y40358170D01*
X3287949Y40358165D01*
X3363365Y40176092D01*
X3363366Y40176089D01*
X3363368Y40176086D01*
X3472861Y40012218D01*
X3612218Y39872861D01*
X3776086Y39763368D01*
X3958165Y39687949D01*
X3958167Y39687949D01*
X3958169Y39687948D01*
X4019216Y39675805D01*
X4151459Y39649500D01*
X15248541Y39649500D01*
X15441835Y39687949D01*
X15623914Y39763368D01*
X15787782Y39872861D01*
X15927139Y40012218D01*
X16036632Y40176086D01*
X16036632Y40176087D01*
X16043428Y40186257D01*
X16046489Y40184212D01*
X16091772Y40239838D01*
X16177273Y40285977D01*
X16273921Y40295884D01*
X16367004Y40268051D01*
X16442350Y40206716D01*
X16488489Y40121215D01*
X16499500Y40047988D01*
X16499500Y39851875D01*
X16480546Y39756587D01*
X16426570Y39675805D01*
X15531284Y38780519D01*
X13431286Y36680522D01*
X13431284Y36680520D01*
X13431283Y36680521D01*
X13319483Y36568720D01*
X13319481Y36568717D01*
X13319480Y36568716D01*
X13269360Y36481905D01*
X13269359Y36481906D01*
X13240424Y36431788D01*
X13240422Y36431785D01*
X13199499Y36279057D01*
X13199499Y36100878D01*
X13199500Y36100865D01*
X13199500Y35527687D01*
X13180546Y35432399D01*
X13157538Y35389353D01*
X13134917Y35355498D01*
X13134916Y35355497D01*
X13078341Y35218912D01*
X13049500Y35073921D01*
X13049500Y34926080D01*
X13078341Y34781089D01*
X13134915Y34644508D01*
X13134916Y34644504D01*
X13157536Y34610652D01*
X13194715Y34520893D01*
X13199500Y34472315D01*
X13199500Y29494335D01*
X13199499Y29494317D01*
X13199499Y29320943D01*
X13240421Y29168219D01*
X13240422Y29168216D01*
X13269357Y29118100D01*
X13269360Y29118096D01*
X13319480Y29031284D01*
X13431284Y28919480D01*
X13431286Y28919479D01*
X15926570Y26424195D01*
X15980546Y26343413D01*
X15999500Y26248125D01*
X15999500Y26221586D01*
X15980546Y26126298D01*
X15926570Y26045516D01*
X15845788Y25991540D01*
X15750500Y25972586D01*
X15655212Y25991540D01*
X15574430Y26045516D01*
X11823430Y29796516D01*
X11769454Y29877298D01*
X11750500Y29972586D01*
X11750500Y30980413D01*
X11750499Y30980415D01*
X11748791Y30989000D01*
X11725501Y31106087D01*
X11692388Y31186028D01*
X11676465Y31224471D01*
X11639991Y31279058D01*
X11639991Y31279059D01*
X11605278Y31331010D01*
X11605276Y31331013D01*
X10517127Y32419162D01*
X10463151Y32499944D01*
X10442322Y32550231D01*
X10338302Y32705908D01*
X10205908Y32838302D01*
X10199887Y32842325D01*
X10050231Y32942322D01*
X10050226Y32942325D01*
X9877253Y33013973D01*
X9785433Y33032237D01*
X9693616Y33050500D01*
X9506384Y33050500D01*
X9432930Y33035890D01*
X9322746Y33013973D01*
X9149773Y32942325D01*
X9149768Y32942322D01*
X8994095Y32838305D01*
X8861695Y32705905D01*
X8757678Y32550232D01*
X8757675Y32550227D01*
X8686027Y32377254D01*
X8666136Y32277251D01*
X8649500Y32193616D01*
X8649500Y32006384D01*
X8655958Y31973919D01*
X8686027Y31822747D01*
X8757675Y31649774D01*
X8757678Y31649769D01*
X8839771Y31526907D01*
X8861698Y31494092D01*
X8994092Y31361698D01*
X9149769Y31257678D01*
X9149771Y31257678D01*
X9149773Y31257676D01*
X9192447Y31240000D01*
X9322749Y31186027D01*
X9349075Y31180791D01*
X9438834Y31143613D01*
X9507534Y31074915D01*
X9544715Y30985156D01*
X9549500Y30936575D01*
X9549500Y27999500D01*
X9530546Y27904212D01*
X9476570Y27823430D01*
X9395788Y27769454D01*
X9300500Y27750500D01*
X8535928Y27750500D01*
X8410257Y27725502D01*
X8410258Y27725502D01*
X8340244Y27696501D01*
X8291873Y27676466D01*
X8194162Y27611178D01*
X8104402Y27574000D01*
X8007247Y27574001D01*
X7917488Y27611182D01*
X7848791Y27679879D01*
X7822286Y27719546D01*
X7782951Y27778416D01*
X7678416Y27882951D01*
X7555495Y27965084D01*
X7418913Y28021658D01*
X7418911Y28021659D01*
X7273920Y28050500D01*
X7273918Y28050500D01*
X7126082Y28050500D01*
X7126079Y28050500D01*
X6981088Y28021659D01*
X6844507Y27965085D01*
X6844498Y27965081D01*
X6733093Y27890642D01*
X6682507Y27867721D01*
X6683294Y27865823D01*
X6668212Y27859576D01*
X6618096Y27830642D01*
X6618095Y27830640D01*
X6531284Y27780520D01*
X6531283Y27780519D01*
X6531280Y27780517D01*
X6419479Y27668717D01*
X6419480Y27668716D01*
X5525571Y26774807D01*
X5487042Y26749063D01*
X5444794Y26720833D01*
X5444791Y26720833D01*
X5444789Y26720831D01*
X5401224Y26712166D01*
X5349507Y26701877D01*
X5349503Y26701878D01*
X5349501Y26701877D01*
X5297788Y26712164D01*
X5254218Y26720829D01*
X5254215Y26720831D01*
X5254213Y26720831D01*
X5211960Y26749063D01*
X5173435Y26774803D01*
X5173433Y26774806D01*
X5173431Y26774807D01*
X5146582Y26814989D01*
X5119457Y26855584D01*
X5119456Y26855587D01*
X5119455Y26855589D01*
X5100501Y26950871D01*
X5100501Y26968716D01*
X5100501Y26979057D01*
X5100500Y26979061D01*
X5100500Y27912870D01*
X5119454Y28008158D01*
X5141820Y28062156D01*
X5170749Y28131996D01*
X5199591Y28276991D01*
X5199591Y28424827D01*
X5170749Y28569822D01*
X5114175Y28706404D01*
X5032042Y28829325D01*
X4927507Y28933860D01*
X4804586Y29015993D01*
X4804582Y29015995D01*
X4804578Y29015997D01*
X4767489Y29031360D01*
X4686707Y29085336D01*
X4632731Y29166118D01*
X4613778Y29261406D01*
X4632733Y29356694D01*
X4686705Y29437471D01*
X4775807Y29526573D01*
X4856587Y29580547D01*
X4930633Y29595275D01*
X4951874Y29599500D01*
X5005666Y29599500D01*
X5005682Y29599499D01*
X5020943Y29599499D01*
X5179056Y29599499D01*
X5179057Y29599499D01*
X5331785Y29640423D01*
X5397462Y29678342D01*
X5468716Y29719480D01*
X5580520Y29831284D01*
X5580521Y29831287D01*
X6580520Y30831284D01*
X6659577Y30968216D01*
X6700501Y31120943D01*
X6700501Y31279058D01*
X6700501Y31279059D01*
X6700501Y31294318D01*
X6700500Y31294336D01*
X6700500Y35079054D01*
X6700499Y35079060D01*
X6697088Y35091789D01*
X6697085Y35091800D01*
X6676610Y35168217D01*
X6676610Y35168216D01*
X6659577Y35231785D01*
X6580521Y35368714D01*
X6580520Y35368716D01*
X6497743Y35451493D01*
X6443770Y35532271D01*
X6429601Y35578978D01*
X6421658Y35618913D01*
X6365084Y35755495D01*
X6282951Y35878416D01*
X6178416Y35982951D01*
X6055495Y36065084D01*
X5918913Y36121658D01*
X5918911Y36121659D01*
X5773920Y36150500D01*
X5773918Y36150500D01*
X5626082Y36150500D01*
X5626079Y36150500D01*
X5481088Y36121659D01*
X5344507Y36065085D01*
X5344503Y36065083D01*
X5221587Y35982954D01*
X5117046Y35878413D01*
X5034917Y35755497D01*
X5034915Y35755493D01*
X4978341Y35618912D01*
X4949500Y35473921D01*
X4949500Y35326080D01*
X4978341Y35181089D01*
X4978342Y35181087D01*
X5034916Y35044505D01*
X5034917Y35044504D01*
X5114043Y34926082D01*
X5117049Y34921584D01*
X5221584Y34817049D01*
X5344505Y34734916D01*
X5345783Y34734387D01*
X5346931Y34733620D01*
X5355293Y34729150D01*
X5354852Y34728327D01*
X5426564Y34680414D01*
X5480543Y34599634D01*
X5499500Y34504347D01*
X5499500Y32736520D01*
X5480546Y32641232D01*
X5426570Y32560450D01*
X5345788Y32506474D01*
X5250500Y32487520D01*
X5155212Y32506474D01*
X5074430Y32560450D01*
X5043466Y32598181D01*
X5038307Y32605902D01*
X5038304Y32605905D01*
X5038302Y32605908D01*
X4905908Y32738302D01*
X4785757Y32818584D01*
X4750231Y32842322D01*
X4750226Y32842325D01*
X4577253Y32913973D01*
X4485433Y32932237D01*
X4393616Y32950500D01*
X4206384Y32950500D01*
X4132930Y32935890D01*
X4022746Y32913973D01*
X3849773Y32842325D01*
X3849768Y32842322D01*
X3694095Y32738305D01*
X3561695Y32605905D01*
X3457678Y32450232D01*
X3457675Y32450227D01*
X3386027Y32277254D01*
X3349500Y32093615D01*
X3349500Y31900827D01*
X3330546Y31805539D01*
X3276570Y31724757D01*
X3195788Y31670781D01*
X3100500Y31651827D01*
X3005212Y31670781D01*
X2924430Y31724757D01*
X2879462Y31769725D01*
X2707553Y31894624D01*
X2518225Y31991092D01*
X2518215Y31991096D01*
X2316124Y32056759D01*
X2316120Y32056760D01*
X2250000Y32067233D01*
X2250000Y31173012D01*
X2192993Y31205925D01*
X2065826Y31240000D01*
X1934174Y31240000D01*
X1807007Y31205925D01*
X1750000Y31173012D01*
X1750000Y32067232D01*
X1749999Y32067233D01*
X1683879Y32056760D01*
X1683875Y32056759D01*
X1481784Y31991096D01*
X1481774Y31991092D01*
X1292446Y31894624D01*
X1120537Y31769725D01*
X970277Y31619465D01*
X950944Y31592855D01*
X879600Y31526907D01*
X788450Y31493281D01*
X691369Y31497097D01*
X603139Y31537772D01*
X537191Y31609116D01*
X503565Y31700266D01*
X500500Y31739216D01*
X500500Y33038569D01*
X519454Y33133857D01*
X573430Y33214639D01*
X654212Y33268615D01*
X749500Y33287569D01*
X844788Y33268615D01*
X898722Y33237902D01*
X907669Y33231204D01*
X1042517Y33180909D01*
X1102127Y33174500D01*
X2897872Y33174501D01*
X2957483Y33180909D01*
X3092331Y33231204D01*
X3207546Y33317454D01*
X3293796Y33432669D01*
X3344091Y33567517D01*
X3350500Y33627127D01*
X3350499Y35422872D01*
X3344091Y35482483D01*
X3293796Y35617331D01*
X3207546Y35732546D01*
X3092331Y35818796D01*
X3092329Y35818797D01*
X3078073Y35829469D01*
X3080367Y35832534D01*
X3030674Y35874078D01*
X2985657Y35960174D01*
X2977013Y36056943D01*
X3006060Y36149655D01*
X3024890Y36176954D01*
X3023972Y36177620D01*
X3154623Y36357447D01*
X3251091Y36546775D01*
X3251097Y36546788D01*
X3316756Y36748871D01*
X3327230Y36815000D01*
X2433012Y36815000D01*
X2465925Y36872007D01*
X2500000Y36999174D01*
X2500000Y37130826D01*
X2465925Y37257993D01*
X2433012Y37315000D01*
X3327230Y37315000D01*
X3316756Y37381130D01*
X3251097Y37583213D01*
X3251091Y37583226D01*
X3154623Y37772554D01*
X3029724Y37944463D01*
X2879462Y38094725D01*
X2707553Y38219624D01*
X2518225Y38316092D01*
X2518215Y38316096D01*
X2316124Y38381759D01*
X2316120Y38381760D01*
X2250000Y38392233D01*
X2250000Y37498012D01*
X2192993Y37530925D01*
X2065826Y37565000D01*
X1934174Y37565000D01*
X1807007Y37530925D01*
X1750000Y37498012D01*
X1750000Y38392232D01*
X1749999Y38392233D01*
X1683879Y38381760D01*
X1683875Y38381759D01*
X1481784Y38316096D01*
X1481774Y38316092D01*
X1292446Y38219624D01*
X1120537Y38094725D01*
X970277Y37944465D01*
X950944Y37917855D01*
X879600Y37851907D01*
X788450Y37818281D01*
X691369Y37822097D01*
X603139Y37862772D01*
X537191Y37934116D01*
X503565Y38025266D01*
X500500Y38064216D01*
X500500Y65931666D01*
X519454Y66026954D01*
X573430Y66107736D01*
X654212Y66161712D01*
X749500Y66180666D01*
X844788Y66161712D01*
X925570Y66107736D01*
X979546Y66026954D01*
X984527Y66013906D01*
X1001594Y65965131D01*
X1001601Y65965115D01*
X1133169Y65691909D01*
X1294515Y65435127D01*
X1421871Y65275427D01*
X2563708Y66417264D01*
X2660967Y66283398D01*
X2783398Y66160967D01*
X2917261Y66063711D01*
X1775424Y64921874D01*
X1935126Y64794516D01*
X2191908Y64633170D01*
X2465114Y64501602D01*
X2465130Y64501595D01*
X2751360Y64401438D01*
X2751370Y64401435D01*
X3047019Y64333955D01*
X3348358Y64300001D01*
X3348371Y64300000D01*
X3651629Y64300000D01*
X3651641Y64300001D01*
X3952980Y64333955D01*
X4248629Y64401435D01*
X4248639Y64401438D01*
X4534869Y64501595D01*
X4534885Y64501602D01*
X4808093Y64633171D01*
X5064872Y64794516D01*
X5224573Y64921874D01*
X4082737Y66063710D01*
X4216602Y66160967D01*
X4339033Y66283398D01*
X4436290Y66417263D01*
X5578126Y65275427D01*
X5705484Y65435128D01*
X5866829Y65691907D01*
X5998398Y65965115D01*
X5998405Y65965131D01*
X6098562Y66251361D01*
X6098565Y66251371D01*
X6166045Y66547020D01*
X6199999Y66848359D01*
X6200000Y66848372D01*
X6200000Y67151629D01*
X6199999Y67151642D01*
X6166045Y67452981D01*
X6098565Y67748630D01*
X6098562Y67748640D01*
X6029047Y67947302D01*
X6002602Y68022877D01*
X11374500Y68022877D01*
X11374500Y66227135D01*
X11374501Y66227131D01*
X11380908Y66167520D01*
X11380909Y66167516D01*
X11399627Y66117331D01*
X11431204Y66032669D01*
X11517454Y65917454D01*
X11517457Y65917452D01*
X11530046Y65904863D01*
X11526977Y65901795D01*
X11568460Y65855670D01*
X11572061Y65849404D01*
X11950478Y65168252D01*
X11984842Y65114653D01*
X11984846Y65114647D01*
X11984849Y65114643D01*
X12003298Y65089506D01*
X12044144Y65040635D01*
X13319445Y63696769D01*
X13918761Y63065231D01*
X13919726Y63064217D01*
X13919735Y63064209D01*
X13950139Y63040299D01*
X13972288Y63020642D01*
X13995604Y62997326D01*
X14019039Y62970248D01*
X14056482Y62920107D01*
X21306258Y55280557D01*
X21313833Y55272745D01*
X21317583Y55268960D01*
X21325297Y55261339D01*
X21441912Y55177062D01*
X21503790Y55144612D01*
X21639423Y55096604D01*
X22289735Y54966542D01*
X22379452Y54929269D01*
X22448079Y54860499D01*
X22485165Y54770700D01*
X22485064Y54673545D01*
X22447790Y54583825D01*
X22442345Y54576020D01*
X22345375Y54442553D01*
X22248908Y54253226D01*
X22248902Y54253213D01*
X22183243Y54051130D01*
X22172769Y53985000D01*
X23066988Y53985000D01*
X23034075Y53927993D01*
X23000000Y53800826D01*
X23000000Y53669174D01*
X23034075Y53542007D01*
X23066988Y53485000D01*
X22172770Y53485000D01*
X22183243Y53418871D01*
X22248902Y53216788D01*
X22248908Y53216775D01*
X22345376Y53027447D01*
X22470275Y52855538D01*
X22620537Y52705276D01*
X22792446Y52580377D01*
X22981774Y52483909D01*
X22981787Y52483903D01*
X23183870Y52418244D01*
X23250000Y52407770D01*
X23250000Y53301988D01*
X23307007Y53269075D01*
X23434174Y53235000D01*
X23565826Y53235000D01*
X23692993Y53269075D01*
X23750000Y53301988D01*
X23750000Y52407771D01*
X23816129Y52418244D01*
X24018212Y52483903D01*
X24018225Y52483909D01*
X24207553Y52580377D01*
X24379462Y52705276D01*
X24529724Y52855538D01*
X24654623Y53027447D01*
X24751091Y53216775D01*
X24751097Y53216788D01*
X24816756Y53418871D01*
X24827230Y53485000D01*
X23933012Y53485000D01*
X23965925Y53542007D01*
X24000000Y53669174D01*
X24000000Y53800826D01*
X23965925Y53927993D01*
X23933012Y53985000D01*
X24827230Y53985000D01*
X24816756Y54051130D01*
X24751097Y54253213D01*
X24751091Y54253226D01*
X24654623Y54442554D01*
X24524720Y54621351D01*
X24524387Y54621653D01*
X24524177Y54622097D01*
X24523972Y54622380D01*
X24524025Y54622420D01*
X24507312Y54657878D01*
X24487756Y54692813D01*
X24486721Y54701563D01*
X24482964Y54709535D01*
X24481052Y54749534D01*
X24476353Y54789296D01*
X24478746Y54797778D01*
X24478326Y54806579D01*
X24491865Y54844262D01*
X24502741Y54882799D01*
X24508197Y54889718D01*
X24511177Y54898011D01*
X24525789Y54912026D01*
X24562902Y54959086D01*
X24576518Y54969912D01*
X24591231Y54980794D01*
X24592331Y54981204D01*
X24637020Y55014660D01*
X24637513Y55015024D01*
X24637773Y55015147D01*
X24650975Y55024312D01*
X24658543Y55029175D01*
X24665373Y55035095D01*
X24679162Y55046208D01*
X24707546Y55067454D01*
X24719215Y55083045D01*
X24730364Y55096879D01*
X24805567Y55183664D01*
X24865338Y55314541D01*
X24885023Y55381580D01*
X24885024Y55381584D01*
X24905500Y55524000D01*
X24905500Y57144776D01*
X24905500Y57144783D01*
X24901012Y57211979D01*
X24901007Y57212027D01*
X24896623Y57244692D01*
X24896620Y57244711D01*
X24883233Y57310721D01*
X24883232Y57310722D01*
X24883232Y57310725D01*
X24825936Y57442706D01*
X24795069Y57492784D01*
X24793030Y57496446D01*
X24789273Y57502188D01*
X24777676Y57516092D01*
X24697115Y57612678D01*
X15883209Y65545192D01*
X15825064Y65623022D01*
X15801128Y65717182D01*
X15815048Y65813334D01*
X15864704Y65896841D01*
X15936743Y65952131D01*
X15972556Y65970379D01*
X16144462Y66095276D01*
X16294724Y66245538D01*
X16419623Y66417447D01*
X16516091Y66606775D01*
X16516097Y66606788D01*
X16581756Y66808871D01*
X16592230Y66875000D01*
X15698012Y66875000D01*
X15730925Y66932007D01*
X15765000Y67059174D01*
X15765000Y67190826D01*
X15730925Y67317993D01*
X15698012Y67375000D01*
X16592230Y67375000D01*
X16581756Y67441130D01*
X16516097Y67643213D01*
X16516091Y67643226D01*
X16419623Y67832554D01*
X16294724Y68004463D01*
X16144462Y68154725D01*
X15972553Y68279624D01*
X15783225Y68376092D01*
X15783215Y68376096D01*
X15581124Y68441759D01*
X15581120Y68441760D01*
X15515000Y68452233D01*
X15515000Y67558012D01*
X15457993Y67590925D01*
X15330826Y67625000D01*
X15199174Y67625000D01*
X15072007Y67590925D01*
X15015000Y67558012D01*
X15015000Y68452232D01*
X15014999Y68452233D01*
X14948879Y68441760D01*
X14948875Y68441759D01*
X14746784Y68376096D01*
X14746774Y68376092D01*
X14557446Y68279624D01*
X14377620Y68148972D01*
X14375962Y68151254D01*
X14307168Y68112750D01*
X14210683Y68101356D01*
X14117183Y68127752D01*
X14040901Y68187919D01*
X14030124Y68203564D01*
X14029469Y68203073D01*
X14018796Y68217330D01*
X14018796Y68217331D01*
X13932546Y68332546D01*
X13817331Y68418796D01*
X13727682Y68452233D01*
X13682481Y68469092D01*
X13622873Y68475500D01*
X11827134Y68475500D01*
X11827130Y68475500D01*
X11827128Y68475499D01*
X11814314Y68474122D01*
X11767519Y68469092D01*
X11767515Y68469091D01*
X11632670Y68418797D01*
X11517455Y68332547D01*
X11517453Y68332545D01*
X11431204Y68217331D01*
X11380908Y68082482D01*
X11374500Y68022877D01*
X6002602Y68022877D01*
X5998405Y68034870D01*
X5998398Y68034886D01*
X5866830Y68308092D01*
X5705484Y68564874D01*
X5578126Y68724576D01*
X4436289Y67582739D01*
X4339033Y67716602D01*
X4216602Y67839033D01*
X4082736Y67936292D01*
X5224573Y69078129D01*
X5064873Y69205485D01*
X4808091Y69366831D01*
X4534885Y69498399D01*
X4534869Y69498406D01*
X4486094Y69515473D01*
X4402413Y69564835D01*
X4343992Y69642463D01*
X4319726Y69736539D01*
X4333307Y69832740D01*
X4382669Y69916421D01*
X4460297Y69974842D01*
X4554373Y69999108D01*
X4568334Y69999500D01*
X21931666Y69999500D01*
X22026954Y69980546D01*
G37*
%TD.AperFunction*%
%TA.AperFunction,Conductor*%
G36*
X15243413Y30380546D02*
G01*
X15324195Y30326570D01*
X17326570Y28324195D01*
X17380546Y28243413D01*
X17399500Y28148125D01*
X17399500Y28094335D01*
X17399499Y28094317D01*
X17399499Y27920944D01*
X17440422Y27768216D01*
X17440424Y27768213D01*
X17458698Y27736560D01*
X17458703Y27736553D01*
X17465084Y27725501D01*
X17519480Y27631284D01*
X17574862Y27575902D01*
X17586512Y27559790D01*
X17598624Y27533357D01*
X17614778Y27509181D01*
X17618671Y27489610D01*
X17626985Y27471466D01*
X17628060Y27442408D01*
X17633732Y27413893D01*
X17629839Y27394323D01*
X17630577Y27374378D01*
X17620450Y27347121D01*
X17614778Y27318605D01*
X17603691Y27302013D01*
X17596741Y27283305D01*
X17576956Y27262001D01*
X17560802Y27237823D01*
X17362177Y27039198D01*
X17281395Y26985222D01*
X17186107Y26966268D01*
X17090819Y26985222D01*
X17010040Y27039196D01*
X16968716Y27080520D01*
X16968713Y27080522D01*
X14473430Y29575805D01*
X14419454Y29656587D01*
X14400500Y29751875D01*
X14400500Y30000500D01*
X14419454Y30095788D01*
X14473430Y30176570D01*
X14554212Y30230546D01*
X14649500Y30249500D01*
X14673919Y30249500D01*
X14673919Y30249501D01*
X14818913Y30278342D01*
X14955495Y30334916D01*
X14989348Y30357537D01*
X15012005Y30366921D01*
X15032397Y30380546D01*
X15056450Y30385331D01*
X15079107Y30394715D01*
X15127685Y30399500D01*
X15148125Y30399500D01*
X15243413Y30380546D01*
G37*
%TD.AperFunction*%
%TA.AperFunction,Conductor*%
G36*
X17143744Y34077132D02*
G01*
X17224526Y34023156D01*
X17255493Y33985422D01*
X17357858Y33832222D01*
X17357861Y33832218D01*
X17497218Y33692861D01*
X17661086Y33583368D01*
X17843165Y33507949D01*
X17843167Y33507949D01*
X17843169Y33507948D01*
X18031453Y33470496D01*
X18036459Y33469500D01*
X18483308Y33469500D01*
X18578596Y33450546D01*
X18659378Y33396570D01*
X18713354Y33315788D01*
X18732308Y33220500D01*
X18723823Y33156057D01*
X18709500Y33102601D01*
X18709500Y33102600D01*
X18709500Y32977400D01*
X18741903Y32856469D01*
X18741908Y32856458D01*
X18804501Y32748041D01*
X18804503Y32748039D01*
X18804505Y32748036D01*
X18893036Y32659505D01*
X18893038Y32659504D01*
X18893040Y32659502D01*
X18990399Y32603293D01*
X19001464Y32596905D01*
X19122399Y32564500D01*
X19247601Y32564500D01*
X19368536Y32596905D01*
X19476964Y32659505D01*
X19476968Y32659510D01*
X19489910Y32669439D01*
X19490987Y32668036D01*
X19555212Y32710948D01*
X19650500Y32729902D01*
X19745788Y32710948D01*
X19826570Y32656972D01*
X19880546Y32576190D01*
X19899500Y32480902D01*
X19899500Y31295248D01*
X19880546Y31199960D01*
X19826570Y31119178D01*
X19745788Y31065202D01*
X19650500Y31046248D01*
X19555213Y31065201D01*
X19418908Y31121660D01*
X19273920Y31150500D01*
X19273918Y31150500D01*
X19126082Y31150500D01*
X19126079Y31150500D01*
X18981088Y31121659D01*
X18844507Y31065085D01*
X18844503Y31065083D01*
X18721587Y30982954D01*
X18617046Y30878413D01*
X18534917Y30755497D01*
X18534915Y30755493D01*
X18478341Y30618912D01*
X18449500Y30473921D01*
X18449500Y30326080D01*
X18478341Y30181089D01*
X18478342Y30181087D01*
X18534916Y30044505D01*
X18617049Y29921584D01*
X18721584Y29817049D01*
X18721587Y29817047D01*
X18811400Y29757036D01*
X18880099Y29688337D01*
X18917278Y29598578D01*
X18917279Y29501423D01*
X18880099Y29411663D01*
X18840590Y29365783D01*
X18826847Y29353286D01*
X18721584Y29282951D01*
X18617049Y29178416D01*
X18589935Y29137839D01*
X18567369Y29117316D01*
X18551372Y29107692D01*
X18538172Y29094492D01*
X18510129Y29082878D01*
X18484120Y29067229D01*
X18465657Y29064459D01*
X18448411Y29057316D01*
X18418057Y29057317D01*
X18388040Y29052813D01*
X18369924Y29057319D01*
X18351256Y29057319D01*
X18323212Y29068937D01*
X18293758Y29076262D01*
X18278745Y29087358D01*
X18261498Y29094502D01*
X18223772Y29125463D01*
X16623484Y30725751D01*
X16569508Y30806533D01*
X16550554Y30901821D01*
X16569508Y30997109D01*
X16623484Y31077891D01*
X16704266Y31131867D01*
X16762072Y31146345D01*
X16761920Y31147113D01*
X16839774Y31162600D01*
X16918913Y31178342D01*
X17055495Y31234916D01*
X17178416Y31317049D01*
X17282951Y31421584D01*
X17365084Y31544505D01*
X17421658Y31681087D01*
X17450500Y31826082D01*
X17450500Y31973918D01*
X17421658Y32118913D01*
X17365084Y32255495D01*
X17282951Y32378416D01*
X17178416Y32482951D01*
X17055495Y32565084D01*
X16918913Y32621658D01*
X16918911Y32621659D01*
X16912476Y32622939D01*
X16822718Y32660122D01*
X16754021Y32728823D01*
X16716845Y32818584D01*
X16712062Y32867153D01*
X16712062Y33759689D01*
X16715831Y33778642D01*
X16731015Y33854976D01*
X16784987Y33935753D01*
X16872393Y34023160D01*
X16953168Y34077130D01*
X17048456Y34096085D01*
X17143744Y34077132D01*
G37*
%TD.AperFunction*%
%TA.AperFunction,Conductor*%
G36*
X8843413Y48280546D02*
G01*
X8924195Y48226570D01*
X11402253Y45748512D01*
X11456229Y45667730D01*
X11470398Y45621021D01*
X11478342Y45581087D01*
X11534916Y45444505D01*
X11617049Y45321584D01*
X11721584Y45217049D01*
X11796750Y45166825D01*
X11865448Y45098125D01*
X11902628Y45008366D01*
X11902627Y44911211D01*
X11865448Y44821451D01*
X11834482Y44783719D01*
X11098510Y44047747D01*
X11017728Y43993771D01*
X10971020Y43979602D01*
X10931089Y43971659D01*
X10794507Y43915085D01*
X10794503Y43915083D01*
X10671587Y43832954D01*
X10567043Y43728410D01*
X10556873Y43713189D01*
X10539534Y43695852D01*
X10525912Y43675464D01*
X10505517Y43661837D01*
X10488172Y43644492D01*
X10465518Y43635110D01*
X10445131Y43621487D01*
X10421071Y43616702D01*
X10398411Y43607316D01*
X10373891Y43607317D01*
X10349842Y43602533D01*
X10325785Y43607319D01*
X10301256Y43607319D01*
X10278602Y43616704D01*
X10254554Y43621487D01*
X10234158Y43635115D01*
X10211498Y43644502D01*
X10173773Y43675463D01*
X9915543Y43933692D01*
X9880520Y43968715D01*
X9880520Y43968716D01*
X9768716Y44080520D01*
X9664960Y44140423D01*
X9638859Y44155493D01*
X9631784Y44159578D01*
X9519975Y44189537D01*
X9479057Y44200501D01*
X9320943Y44200501D01*
X9305682Y44200501D01*
X9305666Y44200500D01*
X7770940Y44200500D01*
X7730020Y44189537D01*
X7730021Y44189536D01*
X7618215Y44159577D01*
X7618212Y44159576D01*
X7481285Y44080521D01*
X7481283Y44080520D01*
X7369482Y43968720D01*
X7369479Y43968715D01*
X7369478Y43968714D01*
X7233716Y43832951D01*
X7124196Y43723431D01*
X7043415Y43669454D01*
X6948127Y43650500D01*
X6698185Y43650500D01*
X6602897Y43669454D01*
X6522115Y43723430D01*
X6468139Y43804212D01*
X6453646Y43862072D01*
X6452887Y43861920D01*
X6421658Y44018912D01*
X6421658Y44018913D01*
X6365084Y44155495D01*
X6282951Y44278416D01*
X6178416Y44382951D01*
X6055495Y44465084D01*
X5918913Y44521658D01*
X5918911Y44521659D01*
X5878979Y44529602D01*
X5856323Y44538987D01*
X5832270Y44543771D01*
X5811876Y44557398D01*
X5789220Y44566782D01*
X5751488Y44597747D01*
X5473430Y44875805D01*
X5419454Y44956587D01*
X5400500Y45051875D01*
X5400500Y47948125D01*
X5419454Y48043413D01*
X5473430Y48124195D01*
X5575805Y48226570D01*
X5656587Y48280546D01*
X5751875Y48299500D01*
X8748125Y48299500D01*
X8843413Y48280546D01*
G37*
%TD.AperFunction*%
%TD*%
%TA.AperFunction,Conductor*%
%TO.N,+5V*%
G36*
X13492381Y67880315D02*
G01*
X13534931Y67834019D01*
X14400000Y66200000D01*
X24358953Y57236943D01*
X24395613Y57177466D01*
X24400000Y57144776D01*
X24400000Y55524000D01*
X24380315Y55456961D01*
X24327511Y55411206D01*
X24276000Y55400000D01*
X22712278Y55400000D01*
X22687960Y55402408D01*
X21738560Y55592288D01*
X21676682Y55624738D01*
X21672932Y55628523D01*
X20181632Y57200000D01*
X14423156Y63268073D01*
X14400500Y63307314D01*
X14307314Y63400500D01*
X14285573Y63413052D01*
X14273197Y63426094D01*
X12410818Y65388601D01*
X12392369Y65413738D01*
X11915605Y66271913D01*
X11900000Y66332133D01*
X11900000Y67776000D01*
X11919685Y67843039D01*
X11972489Y67888794D01*
X12024000Y67900000D01*
X13425342Y67900000D01*
X13492381Y67880315D01*
G37*
%TD.AperFunction*%
%TD*%
%TA.AperFunction,Conductor*%
%TO.N,+BATT*%
G36*
X4279202Y54582726D02*
G01*
X7750312Y52529393D01*
X7797989Y52478319D01*
X7809491Y52443054D01*
X8086819Y50779086D01*
X8078423Y50709723D01*
X8033860Y50655910D01*
X8033289Y50655527D01*
X7156989Y50071326D01*
X7090290Y50050518D01*
X7088206Y50050500D01*
X6653856Y50050500D01*
X6564712Y50026614D01*
X6564709Y50026613D01*
X6484791Y49980473D01*
X6484786Y49980469D01*
X6291137Y49786819D01*
X6229814Y49753334D01*
X6203456Y49750500D01*
X4953851Y49750500D01*
X4939973Y49746781D01*
X4870124Y49748447D01*
X4812263Y49787612D01*
X4808345Y49792613D01*
X2524460Y52867074D01*
X2500284Y52932628D01*
X2500000Y52941018D01*
X2500000Y54476000D01*
X2519685Y54543039D01*
X2572489Y54588794D01*
X2624000Y54600000D01*
X4216070Y54600000D01*
X4279202Y54582726D01*
G37*
%TD.AperFunction*%
%TD*%
M02*
