M48
; DRILL file {KiCad 9.0.0} date 2025-11-26T22:34:38-0500
; FORMAT={-:-/ absolute / metric / decimal}
; #@! TF.CreationDate,2025-11-26T22:34:38-05:00
; #@! TF.GenerationSoftware,Kicad,Pcbnew,9.0.0
; #@! TF.FileFunction,Plated,1,4,PTH
FMAT,2
METRIC
; #@! TA.AperFunction,Plated,PTH,ViaDrill
T1C0.200
; #@! TA.AperFunction,Plated,PTH,ViaDrill
T2C0.300
; #@! TA.AperFunction,Plated,PTH,ViaDrill
T3C0.400
; #@! TA.AperFunction,Plated,PTH,ComponentDrill
T4C0.400
; #@! TA.AperFunction,Plated,PTH,ComponentDrill
T5C0.600
; #@! TA.AperFunction,Plated,PTH,ComponentDrill
T6C0.650
; #@! TA.AperFunction,Plated,PTH,ComponentDrill
T7C1.000
; #@! TA.AperFunction,Plated,PTH,ComponentDrill
T8C2.200
%
G90
G05
T1
X0.899Y47.0
X1.0Y38.5
X2.0Y32.5
X2.5Y43.0
X2.8Y26.3
X3.0Y23.2
X3.05Y46.55
X3.4Y17.3
X3.445Y63.0
X3.462Y58.988
X3.5Y36.0
X3.788Y20.948
X3.79Y13.266
X3.8Y44.9
X4.117Y17.0
X4.419Y29.216
X4.449Y28.351
X4.585Y22.611
X4.9Y25.3
X5.045Y17.0
X5.193Y31.507
X5.7Y43.8
X5.7Y35.4
X5.8Y24.5
X6.0Y65.0
X6.0Y63.0
X6.0Y61.0
X6.0Y45.05
X6.198Y11.578
X6.7Y9.3
X6.916Y14.601
X7.2Y27.3
X7.37Y10.0
X7.4Y52.3
X7.5Y28.5
X7.586Y14.397
X7.966Y14.984
X8.0Y65.0
X8.0Y63.0
X8.0Y61.0
X8.076Y15.676
X8.1Y13.883
X8.192Y11.783
X8.2Y13.1
X8.339Y22.261
X8.35Y23.35
X8.8Y12.5
X8.85Y43.0
X9.0Y50.9
X9.0Y37.5
X9.0Y35.0
X9.0Y26.1
X9.1Y20.6
X9.3Y9.2
X9.4Y12.1
X9.686Y42.986
X9.7Y23.1
X10.0Y65.0
X10.0Y63.0
X10.0Y61.0
X10.121Y11.522
X10.2Y26.7
X10.5Y35.0
X10.5Y15.7
X10.5Y13.6
X11.0Y11.639
X11.0Y37.5
X11.0Y23.4
X11.15Y43.25
X11.5Y39.0
X12.0Y65.0
X12.0Y63.0
X12.0Y61.0
X12.0Y59.0
X12.0Y57.0
X12.0Y55.0
X12.0Y53.0
X12.0Y22.5
X12.181Y42.964
X12.2Y45.8
X12.618Y10.457
X12.8Y13.6
X13.1Y29.9
X13.8Y35.0
X13.8Y11.0
X14.0Y63.0
X14.0Y61.0
X14.0Y59.0
X14.0Y57.0
X14.0Y55.0
X14.0Y53.0
X14.0Y51.0
X14.0Y49.0
X14.5Y39.5
X14.6Y31.0
X14.6Y20.3
X15.0Y17.7
X15.0Y15.7
X15.0Y13.6
X15.348Y47.311
X15.5Y22.9
X15.538Y31.898
X15.591Y10.569
X15.905Y60.923
X16.0Y59.0
X16.0Y57.0
X16.0Y55.0
X16.0Y53.0
X16.0Y51.0
X16.0Y49.0
X16.1Y12.4
X16.238Y11.118
X16.6Y19.3
X16.638Y43.749
X16.695Y45.729
X16.695Y37.116
X16.699Y36.088
X16.7Y31.9
X16.802Y33.344
X16.849Y9.752
X17.066Y14.333
X17.1Y24.6
X17.159Y26.856
X17.2Y26.1
X17.221Y18.52
X17.24Y13.655
X17.697Y38.057
X18.0Y53.0
X18.0Y51.0
X18.0Y49.0
X18.0Y47.0
X18.1Y11.7
X18.272Y23.95
X18.9Y21.9
X19.0Y14.78
X19.1Y12.9
X19.2Y30.4
X19.2Y28.7
X19.2Y17.8
X19.3Y15.7
X19.5Y23.08
X19.627Y40.978
X19.69Y24.258
X19.794Y38.053
X19.8Y35.5
X19.8Y18.45
X19.801Y29.372
X20.6Y24.4
X20.727Y21.952
X20.8Y35.5
X20.826Y18.374
X20.9Y19.778
X20.9Y27.3
X21.09Y20.456
X21.1Y14.6
X21.388Y43.762
X21.426Y38.129
X21.6Y33.0
X21.6Y13.9
X21.8Y17.4
X21.839Y21.339
X21.843Y37.097
X21.951Y22.03
X21.977Y24.299
X22.2Y19.4
X23.0Y19.1
X23.039Y20.561
X23.045Y40.948
X23.05Y21.6
X23.2Y15.8
X23.5Y51.0
X23.5Y49.0
X23.5Y47.0
X23.5Y45.0
X23.5Y43.0
X23.5Y39.0
X23.5Y37.0
X23.7Y18.4
X23.7Y16.8
T2
X1.0Y65.0
X1.0Y63.0
X1.0Y61.0
X1.0Y59.0
X1.0Y57.0
X1.0Y55.0
X1.0Y53.0
X1.0Y49.5
X1.053Y12.274
X1.097Y9.72
X3.5Y49.5
X3.664Y7.393
X5.5Y69.5
X5.5Y48.0
X7.5Y69.5
X11.687Y7.358
X13.0Y69.5
X15.0Y69.5
X17.0Y69.5
X17.0Y7.5
X19.0Y69.5
X19.0Y7.0
X21.0Y69.5
X25.5Y65.0
X25.5Y58.0
X25.5Y56.0
X25.5Y54.0
X25.5Y52.0
X25.5Y50.0
X25.5Y48.0
X25.5Y46.0
X25.5Y44.0
X25.5Y42.0
X25.5Y40.0
X25.5Y38.0
X25.5Y36.0
X25.5Y34.0
X25.5Y32.0
X25.5Y30.0
X25.5Y28.0
X25.5Y26.0
X25.5Y17.0
X25.5Y15.0
X25.5Y13.0
X25.5Y11.0
X25.5Y9.0
X25.5Y7.0
T3
X4.25Y40.65
X4.3Y32.0
X5.487Y50.179
X7.7Y51.0
X9.6Y32.1
X15.15Y40.65
T4
X1.85Y67.0
X2.333Y68.167
X2.333Y65.833
X3.5Y68.65
X3.5Y65.35
X4.667Y68.167
X4.667Y65.833
X5.15Y67.0
X21.35Y67.0
X21.35Y4.0
X21.833Y68.167
X21.833Y65.833
X21.833Y5.167
X21.833Y2.833
X23.0Y68.65
X23.0Y65.35
X23.0Y5.65
X23.0Y2.35
X24.167Y68.167
X24.167Y65.833
X24.167Y5.167
X24.167Y2.833
X24.65Y67.0
X24.65Y4.0
T6
X18.86Y8.4
X20.13Y8.4
X21.4Y8.4
X22.67Y8.4
X22.86Y24.0
X22.86Y22.73
X23.94Y8.4
X24.13Y24.0
X24.13Y22.73
X25.4Y24.0
X25.4Y22.73
T7
X2.0Y37.065
X2.0Y34.525
X2.0Y30.74
X2.0Y28.2
X2.0Y24.4
X2.0Y21.86
X2.0Y18.54
X2.0Y16.0
X2.0Y13.46
X2.0Y10.92
X2.0Y8.38
X3.375Y56.265
X3.375Y53.725
X5.38Y8.4
X7.92Y8.4
X10.46Y8.4
X12.725Y67.125
X13.0Y8.4
X15.265Y67.125
X15.54Y8.4
X23.5Y56.275
X23.5Y53.735
T8
X3.5Y67.0
X23.0Y67.0
X23.0Y4.0
T5
G00X18.135Y34.47
M15
G01X19.235Y34.47
M16
G05
G00X18.135Y25.83
M15
G01X19.235Y25.83
M16
G05
G00X22.465Y34.47
M15
G01X23.265Y34.47
M16
G05
G00X22.465Y25.83
M15
G01X23.265Y25.83
M16
G05
M30
